# High-Detail Industrial 3D Asset: industrial_pipe_hd.obj
v 0.030000 0.000000 0.200000
v 0.030000 0.000000 0.000000
v 0.028978 0.007765 0.200000
v 0.028978 0.007765 0.000000
v 0.025981 0.015000 0.200000
v 0.025981 0.015000 0.000000
v 0.021213 0.021213 0.200000
v 0.021213 0.021213 0.000000
v 0.015000 0.025981 0.200000
v 0.015000 0.025981 0.000000
v 0.007765 0.028978 0.200000
v 0.007765 0.028978 0.000000
v 0.000000 0.030000 0.200000
v 0.000000 0.030000 0.000000
v -0.007765 0.028978 0.200000
v -0.007765 0.028978 0.000000
v -0.015000 0.025981 0.200000
v -0.015000 0.025981 0.000000
v -0.021213 0.021213 0.200000
v -0.021213 0.021213 0.000000
v -0.025981 0.015000 0.200000
v -0.025981 0.015000 0.000000
v -0.028978 0.007765 0.200000
v -0.028978 0.007765 0.000000
v -0.030000 0.000000 0.200000
v -0.030000 0.000000 0.000000
v -0.028978 -0.007765 0.200000
v -0.028978 -0.007765 0.000000
v -0.025981 -0.015000 0.200000
v -0.025981 -0.015000 0.000000
v -0.021213 -0.021213 0.200000
v -0.021213 -0.021213 0.000000
v -0.015000 -0.025981 0.200000
v -0.015000 -0.025981 0.000000
v -0.007765 -0.028978 0.200000
v -0.007765 -0.028978 0.000000
v -0.000000 -0.030000 0.200000
v -0.000000 -0.030000 0.000000
v 0.007765 -0.028978 0.200000
v 0.007765 -0.028978 0.000000
v 0.015000 -0.025981 0.200000
v 0.015000 -0.025981 0.000000
v 0.021213 -0.021213 0.200000
v 0.021213 -0.021213 0.000000
v 0.025981 -0.015000 0.200000
v 0.025981 -0.015000 0.000000
v 0.028978 -0.007765 0.200000
v 0.028978 -0.007765 0.000000
v 0.000000 0.000000 0.200000
v 0.000000 0.000000 0.000000
v 0.030000 0.000000 0.200000
v 0.030000 0.000000 0.000000
v 0.028978 0.007765 0.200000
v 0.028978 0.007765 0.000000
v 0.025981 0.015000 0.200000
v 0.025981 0.015000 0.000000
v 0.021213 0.021213 0.200000
v 0.021213 0.021213 0.000000
v 0.015000 0.025981 0.200000
v 0.015000 0.025981 0.000000
v 0.007765 0.028978 0.200000
v 0.007765 0.028978 0.000000
v 0.000000 0.030000 0.200000
v 0.000000 0.030000 0.000000
v -0.007765 0.028978 0.200000
v -0.007765 0.028978 0.000000
v -0.015000 0.025981 0.200000
v -0.015000 0.025981 0.000000
v -0.021213 0.021213 0.200000
v -0.021213 0.021213 0.000000
v -0.025981 0.015000 0.200000
v -0.025981 0.015000 0.000000
v -0.028978 0.007765 0.200000
v -0.028978 0.007765 0.000000
v -0.030000 0.000000 0.200000
v -0.030000 0.000000 0.000000
v -0.028978 -0.007765 0.200000
v -0.028978 -0.007765 0.000000
v -0.025981 -0.015000 0.200000
v -0.025981 -0.015000 0.000000
v -0.021213 -0.021213 0.200000
v -0.021213 -0.021213 0.000000
v -0.015000 -0.025981 0.200000
v -0.015000 -0.025981 0.000000
v -0.007765 -0.028978 0.200000
v -0.007765 -0.028978 0.000000
v -0.000000 -0.030000 0.200000
v -0.000000 -0.030000 0.000000
v 0.007765 -0.028978 0.200000
v 0.007765 -0.028978 0.000000
v 0.015000 -0.025981 0.200000
v 0.015000 -0.025981 0.000000
v 0.021213 -0.021213 0.200000
v 0.021213 -0.021213 0.000000
v 0.025981 -0.015000 0.200000
v 0.025981 -0.015000 0.000000
v 0.028978 -0.007765 0.200000
v 0.028978 -0.007765 0.000000
v 0.055000 0.000000 0.016000
v 0.055000 0.000000 0.000000
v 0.053126 0.014235 0.016000
v 0.053126 0.014235 0.000000
v 0.047631 0.027500 0.016000
v 0.047631 0.027500 0.000000
v 0.038891 0.038891 0.016000
v 0.038891 0.038891 0.000000
v 0.027500 0.047631 0.016000
v 0.027500 0.047631 0.000000
v 0.014235 0.053126 0.016000
v 0.014235 0.053126 0.000000
v 0.000000 0.055000 0.016000
v 0.000000 0.055000 0.000000
v -0.014235 0.053126 0.016000
v -0.014235 0.053126 0.000000
v -0.027500 0.047631 0.016000
v -0.027500 0.047631 0.000000
v -0.038891 0.038891 0.016000
v -0.038891 0.038891 0.000000
v -0.047631 0.027500 0.016000
v -0.047631 0.027500 0.000000
v -0.053126 0.014235 0.016000
v -0.053126 0.014235 0.000000
v -0.055000 0.000000 0.016000
v -0.055000 0.000000 0.000000
v -0.053126 -0.014235 0.016000
v -0.053126 -0.014235 0.000000
v -0.047631 -0.027500 0.016000
v -0.047631 -0.027500 0.000000
v -0.038891 -0.038891 0.016000
v -0.038891 -0.038891 0.000000
v -0.027500 -0.047631 0.016000
v -0.027500 -0.047631 0.000000
v -0.014235 -0.053126 0.016000
v -0.014235 -0.053126 0.000000
v -0.000000 -0.055000 0.016000
v -0.000000 -0.055000 0.000000
v 0.014235 -0.053126 0.016000
v 0.014235 -0.053126 0.000000
v 0.027500 -0.047631 0.016000
v 0.027500 -0.047631 0.000000
v 0.038891 -0.038891 0.016000
v 0.038891 -0.038891 0.000000
v 0.047631 -0.027500 0.016000
v 0.047631 -0.027500 0.000000
v 0.053126 -0.014235 0.016000
v 0.053126 -0.014235 0.000000
v 0.000000 0.000000 0.016000
v 0.000000 0.000000 0.000000
v 0.055000 0.000000 0.016000
v 0.055000 0.000000 0.000000
v 0.053126 0.014235 0.016000
v 0.053126 0.014235 0.000000
v 0.047631 0.027500 0.016000
v 0.047631 0.027500 0.000000
v 0.038891 0.038891 0.016000
v 0.038891 0.038891 0.000000
v 0.027500 0.047631 0.016000
v 0.027500 0.047631 0.000000
v 0.014235 0.053126 0.016000
v 0.014235 0.053126 0.000000
v 0.000000 0.055000 0.016000
v 0.000000 0.055000 0.000000
v -0.014235 0.053126 0.016000
v -0.014235 0.053126 0.000000
v -0.027500 0.047631 0.016000
v -0.027500 0.047631 0.000000
v -0.038891 0.038891 0.016000
v -0.038891 0.038891 0.000000
v -0.047631 0.027500 0.016000
v -0.047631 0.027500 0.000000
v -0.053126 0.014235 0.016000
v -0.053126 0.014235 0.000000
v -0.055000 0.000000 0.016000
v -0.055000 0.000000 0.000000
v -0.053126 -0.014235 0.016000
v -0.053126 -0.014235 0.000000
v -0.047631 -0.027500 0.016000
v -0.047631 -0.027500 0.000000
v -0.038891 -0.038891 0.016000
v -0.038891 -0.038891 0.000000
v -0.027500 -0.047631 0.016000
v -0.027500 -0.047631 0.000000
v -0.014235 -0.053126 0.016000
v -0.014235 -0.053126 0.000000
v -0.000000 -0.055000 0.016000
v -0.000000 -0.055000 0.000000
v 0.014235 -0.053126 0.016000
v 0.014235 -0.053126 0.000000
v 0.027500 -0.047631 0.016000
v 0.027500 -0.047631 0.000000
v 0.038891 -0.038891 0.016000
v 0.038891 -0.038891 0.000000
v 0.047631 -0.027500 0.016000
v 0.047631 -0.027500 0.000000
v 0.053126 -0.014235 0.016000
v 0.053126 -0.014235 0.000000
v 0.055000 0.000000 0.200000
v 0.055000 0.000000 0.184000
v 0.053126 0.014235 0.200000
v 0.053126 0.014235 0.184000
v 0.047631 0.027500 0.200000
v 0.047631 0.027500 0.184000
v 0.038891 0.038891 0.200000
v 0.038891 0.038891 0.184000
v 0.027500 0.047631 0.200000
v 0.027500 0.047631 0.184000
v 0.014235 0.053126 0.200000
v 0.014235 0.053126 0.184000
v 0.000000 0.055000 0.200000
v 0.000000 0.055000 0.184000
v -0.014235 0.053126 0.200000
v -0.014235 0.053126 0.184000
v -0.027500 0.047631 0.200000
v -0.027500 0.047631 0.184000
v -0.038891 0.038891 0.200000
v -0.038891 0.038891 0.184000
v -0.047631 0.027500 0.200000
v -0.047631 0.027500 0.184000
v -0.053126 0.014235 0.200000
v -0.053126 0.014235 0.184000
v -0.055000 0.000000 0.200000
v -0.055000 0.000000 0.184000
v -0.053126 -0.014235 0.200000
v -0.053126 -0.014235 0.184000
v -0.047631 -0.027500 0.200000
v -0.047631 -0.027500 0.184000
v -0.038891 -0.038891 0.200000
v -0.038891 -0.038891 0.184000
v -0.027500 -0.047631 0.200000
v -0.027500 -0.047631 0.184000
v -0.014235 -0.053126 0.200000
v -0.014235 -0.053126 0.184000
v -0.000000 -0.055000 0.200000
v -0.000000 -0.055000 0.184000
v 0.014235 -0.053126 0.200000
v 0.014235 -0.053126 0.184000
v 0.027500 -0.047631 0.200000
v 0.027500 -0.047631 0.184000
v 0.038891 -0.038891 0.200000
v 0.038891 -0.038891 0.184000
v 0.047631 -0.027500 0.200000
v 0.047631 -0.027500 0.184000
v 0.053126 -0.014235 0.200000
v 0.053126 -0.014235 0.184000
v 0.000000 0.000000 0.200000
v 0.000000 0.000000 0.184000
v 0.055000 0.000000 0.200000
v 0.055000 0.000000 0.184000
v 0.053126 0.014235 0.200000
v 0.053126 0.014235 0.184000
v 0.047631 0.027500 0.200000
v 0.047631 0.027500 0.184000
v 0.038891 0.038891 0.200000
v 0.038891 0.038891 0.184000
v 0.027500 0.047631 0.200000
v 0.027500 0.047631 0.184000
v 0.014235 0.053126 0.200000
v 0.014235 0.053126 0.184000
v 0.000000 0.055000 0.200000
v 0.000000 0.055000 0.184000
v -0.014235 0.053126 0.200000
v -0.014235 0.053126 0.184000
v -0.027500 0.047631 0.200000
v -0.027500 0.047631 0.184000
v -0.038891 0.038891 0.200000
v -0.038891 0.038891 0.184000
v -0.047631 0.027500 0.200000
v -0.047631 0.027500 0.184000
v -0.053126 0.014235 0.200000
v -0.053126 0.014235 0.184000
v -0.055000 0.000000 0.200000
v -0.055000 0.000000 0.184000
v -0.053126 -0.014235 0.200000
v -0.053126 -0.014235 0.184000
v -0.047631 -0.027500 0.200000
v -0.047631 -0.027500 0.184000
v -0.038891 -0.038891 0.200000
v -0.038891 -0.038891 0.184000
v -0.027500 -0.047631 0.200000
v -0.027500 -0.047631 0.184000
v -0.014235 -0.053126 0.200000
v -0.014235 -0.053126 0.184000
v -0.000000 -0.055000 0.200000
v -0.000000 -0.055000 0.184000
v 0.014235 -0.053126 0.200000
v 0.014235 -0.053126 0.184000
v 0.027500 -0.047631 0.200000
v 0.027500 -0.047631 0.184000
v 0.038891 -0.038891 0.200000
v 0.038891 -0.038891 0.184000
v 0.047631 -0.027500 0.200000
v 0.047631 -0.027500 0.184000
v 0.053126 -0.014235 0.200000
v 0.053126 -0.014235 0.184000
vt 0.000000 1.000000
vt 0.000000 0.000000
vt 0.041667 1.000000
vt 0.041667 0.000000
vt 0.083333 1.000000
vt 0.083333 0.000000
vt 0.125000 1.000000
vt 0.125000 0.000000
vt 0.166667 1.000000
vt 0.166667 0.000000
vt 0.208333 1.000000
vt 0.208333 0.000000
vt 0.250000 1.000000
vt 0.250000 0.000000
vt 0.291667 1.000000
vt 0.291667 0.000000
vt 0.333333 1.000000
vt 0.333333 0.000000
vt 0.375000 1.000000
vt 0.375000 0.000000
vt 0.416667 1.000000
vt 0.416667 0.000000
vt 0.458333 1.000000
vt 0.458333 0.000000
vt 0.500000 1.000000
vt 0.500000 0.000000
vt 0.541667 1.000000
vt 0.541667 0.000000
vt 0.583333 1.000000
vt 0.583333 0.000000
vt 0.625000 1.000000
vt 0.625000 0.000000
vt 0.666667 1.000000
vt 0.666667 0.000000
vt 0.708333 1.000000
vt 0.708333 0.000000
vt 0.750000 1.000000
vt 0.750000 0.000000
vt 0.791667 1.000000
vt 0.791667 0.000000
vt 0.833333 1.000000
vt 0.833333 0.000000
vt 0.875000 1.000000
vt 0.875000 0.000000
vt 0.916667 1.000000
vt 0.916667 0.000000
vt 0.958333 1.000000
vt 0.958333 0.000000
vt 0.500000 0.500000
vt 0.500000 0.500000
vt 1.000000 0.500000
vt 1.000000 0.500000
vt 0.982963 0.629410
vt 0.982963 0.629410
vt 0.933013 0.750000
vt 0.933013 0.750000
vt 0.853553 0.853553
vt 0.853553 0.853553
vt 0.750000 0.933013
vt 0.750000 0.933013
vt 0.629410 0.982963
vt 0.629410 0.982963
vt 0.500000 1.000000
vt 0.500000 1.000000
vt 0.370590 0.982963
vt 0.370590 0.982963
vt 0.250000 0.933013
vt 0.250000 0.933013
vt 0.146447 0.853553
vt 0.146447 0.853553
vt 0.066987 0.750000
vt 0.066987 0.750000
vt 0.017037 0.629410
vt 0.017037 0.629410
vt 0.000000 0.500000
vt 0.000000 0.500000
vt 0.017037 0.370590
vt 0.017037 0.370590
vt 0.066987 0.250000
vt 0.066987 0.250000
vt 0.146447 0.146447
vt 0.146447 0.146447
vt 0.250000 0.066987
vt 0.250000 0.066987
vt 0.370590 0.017037
vt 0.370590 0.017037
vt 0.500000 0.000000
vt 0.500000 0.000000
vt 0.629410 0.017037
vt 0.629410 0.017037
vt 0.750000 0.066987
vt 0.750000 0.066987
vt 0.853553 0.146447
vt 0.853553 0.146447
vt 0.933013 0.250000
vt 0.933013 0.250000
vt 0.982963 0.370590
vt 0.982963 0.370590
vt 0.000000 1.000000
vt 0.000000 0.000000
vt 0.041667 1.000000
vt 0.041667 0.000000
vt 0.083333 1.000000
vt 0.083333 0.000000
vt 0.125000 1.000000
vt 0.125000 0.000000
vt 0.166667 1.000000
vt 0.166667 0.000000
vt 0.208333 1.000000
vt 0.208333 0.000000
vt 0.250000 1.000000
vt 0.250000 0.000000
vt 0.291667 1.000000
vt 0.291667 0.000000
vt 0.333333 1.000000
vt 0.333333 0.000000
vt 0.375000 1.000000
vt 0.375000 0.000000
vt 0.416667 1.000000
vt 0.416667 0.000000
vt 0.458333 1.000000
vt 0.458333 0.000000
vt 0.500000 1.000000
vt 0.500000 0.000000
vt 0.541667 1.000000
vt 0.541667 0.000000
vt 0.583333 1.000000
vt 0.583333 0.000000
vt 0.625000 1.000000
vt 0.625000 0.000000
vt 0.666667 1.000000
vt 0.666667 0.000000
vt 0.708333 1.000000
vt 0.708333 0.000000
vt 0.750000 1.000000
vt 0.750000 0.000000
vt 0.791667 1.000000
vt 0.791667 0.000000
vt 0.833333 1.000000
vt 0.833333 0.000000
vt 0.875000 1.000000
vt 0.875000 0.000000
vt 0.916667 1.000000
vt 0.916667 0.000000
vt 0.958333 1.000000
vt 0.958333 0.000000
vt 0.500000 0.500000
vt 0.500000 0.500000
vt 1.000000 0.500000
vt 1.000000 0.500000
vt 0.982963 0.629410
vt 0.982963 0.629410
vt 0.933013 0.750000
vt 0.933013 0.750000
vt 0.853553 0.853553
vt 0.853553 0.853553
vt 0.750000 0.933013
vt 0.750000 0.933013
vt 0.629410 0.982963
vt 0.629410 0.982963
vt 0.500000 1.000000
vt 0.500000 1.000000
vt 0.370590 0.982963
vt 0.370590 0.982963
vt 0.250000 0.933013
vt 0.250000 0.933013
vt 0.146447 0.853553
vt 0.146447 0.853553
vt 0.066987 0.750000
vt 0.066987 0.750000
vt 0.017037 0.629410
vt 0.017037 0.629410
vt 0.000000 0.500000
vt 0.000000 0.500000
vt 0.017037 0.370590
vt 0.017037 0.370590
vt 0.066987 0.250000
vt 0.066987 0.250000
vt 0.146447 0.146447
vt 0.146447 0.146447
vt 0.250000 0.066987
vt 0.250000 0.066987
vt 0.370590 0.017037
vt 0.370590 0.017037
vt 0.500000 0.000000
vt 0.500000 0.000000
vt 0.629410 0.017037
vt 0.629410 0.017037
vt 0.750000 0.066987
vt 0.750000 0.066987
vt 0.853553 0.146447
vt 0.853553 0.146447
vt 0.933013 0.250000
vt 0.933013 0.250000
vt 0.982963 0.370590
vt 0.982963 0.370590
vt 0.000000 1.000000
vt 0.000000 0.000000
vt 0.041667 1.000000
vt 0.041667 0.000000
vt 0.083333 1.000000
vt 0.083333 0.000000
vt 0.125000 1.000000
vt 0.125000 0.000000
vt 0.166667 1.000000
vt 0.166667 0.000000
vt 0.208333 1.000000
vt 0.208333 0.000000
vt 0.250000 1.000000
vt 0.250000 0.000000
vt 0.291667 1.000000
vt 0.291667 0.000000
vt 0.333333 1.000000
vt 0.333333 0.000000
vt 0.375000 1.000000
vt 0.375000 0.000000
vt 0.416667 1.000000
vt 0.416667 0.000000
vt 0.458333 1.000000
vt 0.458333 0.000000
vt 0.500000 1.000000
vt 0.500000 0.000000
vt 0.541667 1.000000
vt 0.541667 0.000000
vt 0.583333 1.000000
vt 0.583333 0.000000
vt 0.625000 1.000000
vt 0.625000 0.000000
vt 0.666667 1.000000
vt 0.666667 0.000000
vt 0.708333 1.000000
vt 0.708333 0.000000
vt 0.750000 1.000000
vt 0.750000 0.000000
vt 0.791667 1.000000
vt 0.791667 0.000000
vt 0.833333 1.000000
vt 0.833333 0.000000
vt 0.875000 1.000000
vt 0.875000 0.000000
vt 0.916667 1.000000
vt 0.916667 0.000000
vt 0.958333 1.000000
vt 0.958333 0.000000
vt 0.500000 0.500000
vt 0.500000 0.500000
vt 1.000000 0.500000
vt 1.000000 0.500000
vt 0.982963 0.629410
vt 0.982963 0.629410
vt 0.933013 0.750000
vt 0.933013 0.750000
vt 0.853553 0.853553
vt 0.853553 0.853553
vt 0.750000 0.933013
vt 0.750000 0.933013
vt 0.629410 0.982963
vt 0.629410 0.982963
vt 0.500000 1.000000
vt 0.500000 1.000000
vt 0.370590 0.982963
vt 0.370590 0.982963
vt 0.250000 0.933013
vt 0.250000 0.933013
vt 0.146447 0.853553
vt 0.146447 0.853553
vt 0.066987 0.750000
vt 0.066987 0.750000
vt 0.017037 0.629410
vt 0.017037 0.629410
vt 0.000000 0.500000
vt 0.000000 0.500000
vt 0.017037 0.370590
vt 0.017037 0.370590
vt 0.066987 0.250000
vt 0.066987 0.250000
vt 0.146447 0.146447
vt 0.146447 0.146447
vt 0.250000 0.066987
vt 0.250000 0.066987
vt 0.370590 0.017037
vt 0.370590 0.017037
vt 0.500000 0.000000
vt 0.500000 0.000000
vt 0.629410 0.017037
vt 0.629410 0.017037
vt 0.750000 0.066987
vt 0.750000 0.066987
vt 0.853553 0.146447
vt 0.853553 0.146447
vt 0.933013 0.250000
vt 0.933013 0.250000
vt 0.982963 0.370590
vt 0.982963 0.370590
vn 1.000000 0.000000 0.000000
vn 1.000000 0.000000 0.000000
vn 0.965926 0.258819 0.000000
vn 0.965926 0.258819 0.000000
vn 0.866025 0.500000 0.000000
vn 0.866025 0.500000 0.000000
vn 0.707107 0.707107 0.000000
vn 0.707107 0.707107 0.000000
vn 0.500000 0.866025 0.000000
vn 0.500000 0.866025 0.000000
vn 0.258819 0.965926 0.000000
vn 0.258819 0.965926 0.000000
vn 0.000000 1.000000 0.000000
vn 0.000000 1.000000 0.000000
vn -0.258819 0.965926 0.000000
vn -0.258819 0.965926 0.000000
vn -0.500000 0.866025 0.000000
vn -0.500000 0.866025 0.000000
vn -0.707107 0.707107 0.000000
vn -0.707107 0.707107 0.000000
vn -0.866025 0.500000 0.000000
vn -0.866025 0.500000 0.000000
vn -0.965926 0.258819 0.000000
vn -0.965926 0.258819 0.000000
vn -1.000000 0.000000 0.000000
vn -1.000000 0.000000 0.000000
vn -0.965926 -0.258819 0.000000
vn -0.965926 -0.258819 0.000000
vn -0.866025 -0.500000 0.000000
vn -0.866025 -0.500000 0.000000
vn -0.707107 -0.707107 0.000000
vn -0.707107 -0.707107 0.000000
vn -0.500000 -0.866025 0.000000
vn -0.500000 -0.866025 0.000000
vn -0.258819 -0.965926 0.000000
vn -0.258819 -0.965926 0.000000
vn -0.000000 -1.000000 0.000000
vn -0.000000 -1.000000 0.000000
vn 0.258819 -0.965926 0.000000
vn 0.258819 -0.965926 0.000000
vn 0.500000 -0.866025 0.000000
vn 0.500000 -0.866025 0.000000
vn 0.707107 -0.707107 0.000000
vn 0.707107 -0.707107 0.000000
vn 0.866025 -0.500000 0.000000
vn 0.866025 -0.500000 0.000000
vn 0.965926 -0.258819 0.000000
vn 0.965926 -0.258819 0.000000
vn 0.000000 0.000000 1.000000
vn 0.000000 0.000000 -1.000000
vn 0.000000 0.000000 1.000000
vn 0.000000 0.000000 -1.000000
vn 0.000000 0.000000 1.000000
vn 0.000000 0.000000 -1.000000
vn 0.000000 0.000000 1.000000
vn 0.000000 0.000000 -1.000000
vn 0.000000 0.000000 1.000000
vn 0.000000 0.000000 -1.000000
vn 0.000000 0.000000 1.000000
vn 0.000000 0.000000 -1.000000
vn 0.000000 0.000000 1.000000
vn 0.000000 0.000000 -1.000000
vn 0.000000 0.000000 1.000000
vn 0.000000 0.000000 -1.000000
vn 0.000000 0.000000 1.000000
vn 0.000000 0.000000 -1.000000
vn 0.000000 0.000000 1.000000
vn 0.000000 0.000000 -1.000000
vn 0.000000 0.000000 1.000000
vn 0.000000 0.000000 -1.000000
vn 0.000000 0.000000 1.000000
vn 0.000000 0.000000 -1.000000
vn 0.000000 0.000000 1.000000
vn 0.000000 0.000000 -1.000000
vn 0.000000 0.000000 1.000000
vn 0.000000 0.000000 -1.000000
vn 0.000000 0.000000 1.000000
vn 0.000000 0.000000 -1.000000
vn 0.000000 0.000000 1.000000
vn 0.000000 0.000000 -1.000000
vn 0.000000 0.000000 1.000000
vn 0.000000 0.000000 -1.000000
vn 0.000000 0.000000 1.000000
vn 0.000000 0.000000 -1.000000
vn 0.000000 0.000000 1.000000
vn 0.000000 0.000000 -1.000000
vn 0.000000 0.000000 1.000000
vn 0.000000 0.000000 -1.000000
vn 0.000000 0.000000 1.000000
vn 0.000000 0.000000 -1.000000
vn 0.000000 0.000000 1.000000
vn 0.000000 0.000000 -1.000000
vn 0.000000 0.000000 1.000000
vn 0.000000 0.000000 -1.000000
vn 0.000000 0.000000 1.000000
vn 0.000000 0.000000 -1.000000
vn 0.000000 0.000000 1.000000
vn 0.000000 0.000000 -1.000000
vn 1.000000 0.000000 0.000000
vn 1.000000 0.000000 0.000000
vn 0.965926 0.258819 0.000000
vn 0.965926 0.258819 0.000000
vn 0.866025 0.500000 0.000000
vn 0.866025 0.500000 0.000000
vn 0.707107 0.707107 0.000000
vn 0.707107 0.707107 0.000000
vn 0.500000 0.866025 0.000000
vn 0.500000 0.866025 0.000000
vn 0.258819 0.965926 0.000000
vn 0.258819 0.965926 0.000000
vn 0.000000 1.000000 0.000000
vn 0.000000 1.000000 0.000000
vn -0.258819 0.965926 0.000000
vn -0.258819 0.965926 0.000000
vn -0.500000 0.866025 0.000000
vn -0.500000 0.866025 0.000000
vn -0.707107 0.707107 0.000000
vn -0.707107 0.707107 0.000000
vn -0.866025 0.500000 0.000000
vn -0.866025 0.500000 0.000000
vn -0.965926 0.258819 0.000000
vn -0.965926 0.258819 0.000000
vn -1.000000 0.000000 0.000000
vn -1.000000 0.000000 0.000000
vn -0.965926 -0.258819 0.000000
vn -0.965926 -0.258819 0.000000
vn -0.866025 -0.500000 0.000000
vn -0.866025 -0.500000 0.000000
vn -0.707107 -0.707107 0.000000
vn -0.707107 -0.707107 0.000000
vn -0.500000 -0.866025 0.000000
vn -0.500000 -0.866025 0.000000
vn -0.258819 -0.965926 0.000000
vn -0.258819 -0.965926 0.000000
vn -0.000000 -1.000000 0.000000
vn -0.000000 -1.000000 0.000000
vn 0.258819 -0.965926 0.000000
vn 0.258819 -0.965926 0.000000
vn 0.500000 -0.866025 0.000000
vn 0.500000 -0.866025 0.000000
vn 0.707107 -0.707107 0.000000
vn 0.707107 -0.707107 0.000000
vn 0.866025 -0.500000 0.000000
vn 0.866025 -0.500000 0.000000
vn 0.965926 -0.258819 0.000000
vn 0.965926 -0.258819 0.000000
vn 0.000000 0.000000 1.000000
vn 0.000000 0.000000 -1.000000
vn 0.000000 0.000000 1.000000
vn 0.000000 0.000000 -1.000000
vn 0.000000 0.000000 1.000000
vn 0.000000 0.000000 -1.000000
vn 0.000000 0.000000 1.000000
vn 0.000000 0.000000 -1.000000
vn 0.000000 0.000000 1.000000
vn 0.000000 0.000000 -1.000000
vn 0.000000 0.000000 1.000000
vn 0.000000 0.000000 -1.000000
vn 0.000000 0.000000 1.000000
vn 0.000000 0.000000 -1.000000
vn 0.000000 0.000000 1.000000
vn 0.000000 0.000000 -1.000000
vn 0.000000 0.000000 1.000000
vn 0.000000 0.000000 -1.000000
vn 0.000000 0.000000 1.000000
vn 0.000000 0.000000 -1.000000
vn 0.000000 0.000000 1.000000
vn 0.000000 0.000000 -1.000000
vn 0.000000 0.000000 1.000000
vn 0.000000 0.000000 -1.000000
vn 0.000000 0.000000 1.000000
vn 0.000000 0.000000 -1.000000
vn 0.000000 0.000000 1.000000
vn 0.000000 0.000000 -1.000000
vn 0.000000 0.000000 1.000000
vn 0.000000 0.000000 -1.000000
vn 0.000000 0.000000 1.000000
vn 0.000000 0.000000 -1.000000
vn 0.000000 0.000000 1.000000
vn 0.000000 0.000000 -1.000000
vn 0.000000 0.000000 1.000000
vn 0.000000 0.000000 -1.000000
vn 0.000000 0.000000 1.000000
vn 0.000000 0.000000 -1.000000
vn 0.000000 0.000000 1.000000
vn 0.000000 0.000000 -1.000000
vn 0.000000 0.000000 1.000000
vn 0.000000 0.000000 -1.000000
vn 0.000000 0.000000 1.000000
vn 0.000000 0.000000 -1.000000
vn 0.000000 0.000000 1.000000
vn 0.000000 0.000000 -1.000000
vn 0.000000 0.000000 1.000000
vn 0.000000 0.000000 -1.000000
vn 0.000000 0.000000 1.000000
vn 0.000000 0.000000 -1.000000
vn 1.000000 0.000000 0.000000
vn 1.000000 0.000000 0.000000
vn 0.965926 0.258819 0.000000
vn 0.965926 0.258819 0.000000
vn 0.866025 0.500000 0.000000
vn 0.866025 0.500000 0.000000
vn 0.707107 0.707107 0.000000
vn 0.707107 0.707107 0.000000
vn 0.500000 0.866025 0.000000
vn 0.500000 0.866025 0.000000
vn 0.258819 0.965926 0.000000
vn 0.258819 0.965926 0.000000
vn 0.000000 1.000000 0.000000
vn 0.000000 1.000000 0.000000
vn -0.258819 0.965926 0.000000
vn -0.258819 0.965926 0.000000
vn -0.500000 0.866025 0.000000
vn -0.500000 0.866025 0.000000
vn -0.707107 0.707107 0.000000
vn -0.707107 0.707107 0.000000
vn -0.866025 0.500000 0.000000
vn -0.866025 0.500000 0.000000
vn -0.965926 0.258819 0.000000
vn -0.965926 0.258819 0.000000
vn -1.000000 0.000000 0.000000
vn -1.000000 0.000000 0.000000
vn -0.965926 -0.258819 0.000000
vn -0.965926 -0.258819 0.000000
vn -0.866025 -0.500000 0.000000
vn -0.866025 -0.500000 0.000000
vn -0.707107 -0.707107 0.000000
vn -0.707107 -0.707107 0.000000
vn -0.500000 -0.866025 0.000000
vn -0.500000 -0.866025 0.000000
vn -0.258819 -0.965926 0.000000
vn -0.258819 -0.965926 0.000000
vn -0.000000 -1.000000 0.000000
vn -0.000000 -1.000000 0.000000
vn 0.258819 -0.965926 0.000000
vn 0.258819 -0.965926 0.000000
vn 0.500000 -0.866025 0.000000
vn 0.500000 -0.866025 0.000000
vn 0.707107 -0.707107 0.000000
vn 0.707107 -0.707107 0.000000
vn 0.866025 -0.500000 0.000000
vn 0.866025 -0.500000 0.000000
vn 0.965926 -0.258819 0.000000
vn 0.965926 -0.258819 0.000000
vn 0.000000 0.000000 1.000000
vn 0.000000 0.000000 -1.000000
vn 0.000000 0.000000 1.000000
vn 0.000000 0.000000 -1.000000
vn 0.000000 0.000000 1.000000
vn 0.000000 0.000000 -1.000000
vn 0.000000 0.000000 1.000000
vn 0.000000 0.000000 -1.000000
vn 0.000000 0.000000 1.000000
vn 0.000000 0.000000 -1.000000
vn 0.000000 0.000000 1.000000
vn 0.000000 0.000000 -1.000000
vn 0.000000 0.000000 1.000000
vn 0.000000 0.000000 -1.000000
vn 0.000000 0.000000 1.000000
vn 0.000000 0.000000 -1.000000
vn 0.000000 0.000000 1.000000
vn 0.000000 0.000000 -1.000000
vn 0.000000 0.000000 1.000000
vn 0.000000 0.000000 -1.000000
vn 0.000000 0.000000 1.000000
vn 0.000000 0.000000 -1.000000
vn 0.000000 0.000000 1.000000
vn 0.000000 0.000000 -1.000000
vn 0.000000 0.000000 1.000000
vn 0.000000 0.000000 -1.000000
vn 0.000000 0.000000 1.000000
vn 0.000000 0.000000 -1.000000
vn 0.000000 0.000000 1.000000
vn 0.000000 0.000000 -1.000000
vn 0.000000 0.000000 1.000000
vn 0.000000 0.000000 -1.000000
vn 0.000000 0.000000 1.000000
vn 0.000000 0.000000 -1.000000
vn 0.000000 0.000000 1.000000
vn 0.000000 0.000000 -1.000000
vn 0.000000 0.000000 1.000000
vn 0.000000 0.000000 -1.000000
vn 0.000000 0.000000 1.000000
vn 0.000000 0.000000 -1.000000
vn 0.000000 0.000000 1.000000
vn 0.000000 0.000000 -1.000000
vn 0.000000 0.000000 1.000000
vn 0.000000 0.000000 -1.000000
vn 0.000000 0.000000 1.000000
vn 0.000000 0.000000 -1.000000
vn 0.000000 0.000000 1.000000
vn 0.000000 0.000000 -1.000000
vn 0.000000 0.000000 1.000000
vn 0.000000 0.000000 -1.000000
f 1/1/1 2/2/2 4/4/4
f 1/1/1 4/4/4 3/3/3
f 3/3/3 4/4/4 6/6/6
f 3/3/3 6/6/6 5/5/5
f 5/5/5 6/6/6 8/8/8
f 5/5/5 8/8/8 7/7/7
f 7/7/7 8/8/8 10/10/10
f 7/7/7 10/10/10 9/9/9
f 9/9/9 10/10/10 12/12/12
f 9/9/9 12/12/12 11/11/11
f 11/11/11 12/12/12 14/14/14
f 11/11/11 14/14/14 13/13/13
f 13/13/13 14/14/14 16/16/16
f 13/13/13 16/16/16 15/15/15
f 15/15/15 16/16/16 18/18/18
f 15/15/15 18/18/18 17/17/17
f 17/17/17 18/18/18 20/20/20
f 17/17/17 20/20/20 19/19/19
f 19/19/19 20/20/20 22/22/22
f 19/19/19 22/22/22 21/21/21
f 21/21/21 22/22/22 24/24/24
f 21/21/21 24/24/24 23/23/23
f 23/23/23 24/24/24 26/26/26
f 23/23/23 26/26/26 25/25/25
f 25/25/25 26/26/26 28/28/28
f 25/25/25 28/28/28 27/27/27
f 27/27/27 28/28/28 30/30/30
f 27/27/27 30/30/30 29/29/29
f 29/29/29 30/30/30 32/32/32
f 29/29/29 32/32/32 31/31/31
f 31/31/31 32/32/32 34/34/34
f 31/31/31 34/34/34 33/33/33
f 33/33/33 34/34/34 36/36/36
f 33/33/33 36/36/36 35/35/35
f 35/35/35 36/36/36 38/38/38
f 35/35/35 38/38/38 37/37/37
f 37/37/37 38/38/38 40/40/40
f 37/37/37 40/40/40 39/39/39
f 39/39/39 40/40/40 42/42/42
f 39/39/39 42/42/42 41/41/41
f 41/41/41 42/42/42 44/44/44
f 41/41/41 44/44/44 43/43/43
f 43/43/43 44/44/44 46/46/46
f 43/43/43 46/46/46 45/45/45
f 45/45/45 46/46/46 48/48/48
f 45/45/45 48/48/48 47/47/47
f 47/47/47 48/48/48 2/2/2
f 47/47/47 2/2/2 1/1/1
f 49/49/49 51/51/51 53/53/53
f 50/50/50 54/54/54 52/52/52
f 49/49/49 53/53/53 55/55/55
f 50/50/50 56/56/56 54/54/54
f 49/49/49 55/55/55 57/57/57
f 50/50/50 58/58/58 56/56/56
f 49/49/49 57/57/57 59/59/59
f 50/50/50 60/60/60 58/58/58
f 49/49/49 59/59/59 61/61/61
f 50/50/50 62/62/62 60/60/60
f 49/49/49 61/61/61 63/63/63
f 50/50/50 64/64/64 62/62/62
f 49/49/49 63/63/63 65/65/65
f 50/50/50 66/66/66 64/64/64
f 49/49/49 65/65/65 67/67/67
f 50/50/50 68/68/68 66/66/66
f 49/49/49 67/67/67 69/69/69
f 50/50/50 70/70/70 68/68/68
f 49/49/49 69/69/69 71/71/71
f 50/50/50 72/72/72 70/70/70
f 49/49/49 71/71/71 73/73/73
f 50/50/50 74/74/74 72/72/72
f 49/49/49 73/73/73 75/75/75
f 50/50/50 76/76/76 74/74/74
f 49/49/49 75/75/75 77/77/77
f 50/50/50 78/78/78 76/76/76
f 49/49/49 77/77/77 79/79/79
f 50/50/50 80/80/80 78/78/78
f 49/49/49 79/79/79 81/81/81
f 50/50/50 82/82/82 80/80/80
f 49/49/49 81/81/81 83/83/83
f 50/50/50 84/84/84 82/82/82
f 49/49/49 83/83/83 85/85/85
f 50/50/50 86/86/86 84/84/84
f 49/49/49 85/85/85 87/87/87
f 50/50/50 88/88/88 86/86/86
f 49/49/49 87/87/87 89/89/89
f 50/50/50 90/90/90 88/88/88
f 49/49/49 89/89/89 91/91/91
f 50/50/50 92/92/92 90/90/90
f 49/49/49 91/91/91 93/93/93
f 50/50/50 94/94/94 92/92/92
f 49/49/49 93/93/93 95/95/95
f 50/50/50 96/96/96 94/94/94
f 49/49/49 95/95/95 97/97/97
f 50/50/50 98/98/98 96/96/96
f 49/49/49 97/97/97 51/51/51
f 50/50/50 52/52/52 98/98/98
f 99/99/99 100/100/100 102/102/102
f 99/99/99 102/102/102 101/101/101
f 101/101/101 102/102/102 104/104/104
f 101/101/101 104/104/104 103/103/103
f 103/103/103 104/104/104 106/106/106
f 103/103/103 106/106/106 105/105/105
f 105/105/105 106/106/106 108/108/108
f 105/105/105 108/108/108 107/107/107
f 107/107/107 108/108/108 110/110/110
f 107/107/107 110/110/110 109/109/109
f 109/109/109 110/110/110 112/112/112
f 109/109/109 112/112/112 111/111/111
f 111/111/111 112/112/112 114/114/114
f 111/111/111 114/114/114 113/113/113
f 113/113/113 114/114/114 116/116/116
f 113/113/113 116/116/116 115/115/115
f 115/115/115 116/116/116 118/118/118
f 115/115/115 118/118/118 117/117/117
f 117/117/117 118/118/118 120/120/120
f 117/117/117 120/120/120 119/119/119
f 119/119/119 120/120/120 122/122/122
f 119/119/119 122/122/122 121/121/121
f 121/121/121 122/122/122 124/124/124
f 121/121/121 124/124/124 123/123/123
f 123/123/123 124/124/124 126/126/126
f 123/123/123 126/126/126 125/125/125
f 125/125/125 126/126/126 128/128/128
f 125/125/125 128/128/128 127/127/127
f 127/127/127 128/128/128 130/130/130
f 127/127/127 130/130/130 129/129/129
f 129/129/129 130/130/130 132/132/132
f 129/129/129 132/132/132 131/131/131
f 131/131/131 132/132/132 134/134/134
f 131/131/131 134/134/134 133/133/133
f 133/133/133 134/134/134 136/136/136
f 133/133/133 136/136/136 135/135/135
f 135/135/135 136/136/136 138/138/138
f 135/135/135 138/138/138 137/137/137
f 137/137/137 138/138/138 140/140/140
f 137/137/137 140/140/140 139/139/139
f 139/139/139 140/140/140 142/142/142
f 139/139/139 142/142/142 141/141/141
f 141/141/141 142/142/142 144/144/144
f 141/141/141 144/144/144 143/143/143
f 143/143/143 144/144/144 146/146/146
f 143/143/143 146/146/146 145/145/145
f 145/145/145 146/146/146 100/100/100
f 145/145/145 100/100/100 99/99/99
f 147/147/147 149/149/149 151/151/151
f 148/148/148 152/152/152 150/150/150
f 147/147/147 151/151/151 153/153/153
f 148/148/148 154/154/154 152/152/152
f 147/147/147 153/153/153 155/155/155
f 148/148/148 156/156/156 154/154/154
f 147/147/147 155/155/155 157/157/157
f 148/148/148 158/158/158 156/156/156
f 147/147/147 157/157/157 159/159/159
f 148/148/148 160/160/160 158/158/158
f 147/147/147 159/159/159 161/161/161
f 148/148/148 162/162/162 160/160/160
f 147/147/147 161/161/161 163/163/163
f 148/148/148 164/164/164 162/162/162
f 147/147/147 163/163/163 165/165/165
f 148/148/148 166/166/166 164/164/164
f 147/147/147 165/165/165 167/167/167
f 148/148/148 168/168/168 166/166/166
f 147/147/147 167/167/167 169/169/169
f 148/148/148 170/170/170 168/168/168
f 147/147/147 169/169/169 171/171/171
f 148/148/148 172/172/172 170/170/170
f 147/147/147 171/171/171 173/173/173
f 148/148/148 174/174/174 172/172/172
f 147/147/147 173/173/173 175/175/175
f 148/148/148 176/176/176 174/174/174
f 147/147/147 175/175/175 177/177/177
f 148/148/148 178/178/178 176/176/176
f 147/147/147 177/177/177 179/179/179
f 148/148/148 180/180/180 178/178/178
f 147/147/147 179/179/179 181/181/181
f 148/148/148 182/182/182 180/180/180
f 147/147/147 181/181/181 183/183/183
f 148/148/148 184/184/184 182/182/182
f 147/147/147 183/183/183 185/185/185
f 148/148/148 186/186/186 184/184/184
f 147/147/147 185/185/185 187/187/187
f 148/148/148 188/188/188 186/186/186
f 147/147/147 187/187/187 189/189/189
f 148/148/148 190/190/190 188/188/188
f 147/147/147 189/189/189 191/191/191
f 148/148/148 192/192/192 190/190/190
f 147/147/147 191/191/191 193/193/193
f 148/148/148 194/194/194 192/192/192
f 147/147/147 193/193/193 195/195/195
f 148/148/148 196/196/196 194/194/194
f 147/147/147 195/195/195 149/149/149
f 148/148/148 150/150/150 196/196/196
f 197/197/197 198/198/198 200/200/200
f 197/197/197 200/200/200 199/199/199
f 199/199/199 200/200/200 202/202/202
f 199/199/199 202/202/202 201/201/201
f 201/201/201 202/202/202 204/204/204
f 201/201/201 204/204/204 203/203/203
f 203/203/203 204/204/204 206/206/206
f 203/203/203 206/206/206 205/205/205
f 205/205/205 206/206/206 208/208/208
f 205/205/205 208/208/208 207/207/207
f 207/207/207 208/208/208 210/210/210
f 207/207/207 210/210/210 209/209/209
f 209/209/209 210/210/210 212/212/212
f 209/209/209 212/212/212 211/211/211
f 211/211/211 212/212/212 214/214/214
f 211/211/211 214/214/214 213/213/213
f 213/213/213 214/214/214 216/216/216
f 213/213/213 216/216/216 215/215/215
f 215/215/215 216/216/216 218/218/218
f 215/215/215 218/218/218 217/217/217
f 217/217/217 218/218/218 220/220/220
f 217/217/217 220/220/220 219/219/219
f 219/219/219 220/220/220 222/222/222
f 219/219/219 222/222/222 221/221/221
f 221/221/221 222/222/222 224/224/224
f 221/221/221 224/224/224 223/223/223
f 223/223/223 224/224/224 226/226/226
f 223/223/223 226/226/226 225/225/225
f 225/225/225 226/226/226 228/228/228
f 225/225/225 228/228/228 227/227/227
f 227/227/227 228/228/228 230/230/230
f 227/227/227 230/230/230 229/229/229
f 229/229/229 230/230/230 232/232/232
f 229/229/229 232/232/232 231/231/231
f 231/231/231 232/232/232 234/234/234
f 231/231/231 234/234/234 233/233/233
f 233/233/233 234/234/234 236/236/236
f 233/233/233 236/236/236 235/235/235
f 235/235/235 236/236/236 238/238/238
f 235/235/235 238/238/238 237/237/237
f 237/237/237 238/238/238 240/240/240
f 237/237/237 240/240/240 239/239/239
f 239/239/239 240/240/240 242/242/242
f 239/239/239 242/242/242 241/241/241
f 241/241/241 242/242/242 244/244/244
f 241/241/241 244/244/244 243/243/243
f 243/243/243 244/244/244 198/198/198
f 243/243/243 198/198/198 197/197/197
f 245/245/245 247/247/247 249/249/249
f 246/246/246 250/250/250 248/248/248
f 245/245/245 249/249/249 251/251/251
f 246/246/246 252/252/252 250/250/250
f 245/245/245 251/251/251 253/253/253
f 246/246/246 254/254/254 252/252/252
f 245/245/245 253/253/253 255/255/255
f 246/246/246 256/256/256 254/254/254
f 245/245/245 255/255/255 257/257/257
f 246/246/246 258/258/258 256/256/256
f 245/245/245 257/257/257 259/259/259
f 246/246/246 260/260/260 258/258/258
f 245/245/245 259/259/259 261/261/261
f 246/246/246 262/262/262 260/260/260
f 245/245/245 261/261/261 263/263/263
f 246/246/246 264/264/264 262/262/262
f 245/245/245 263/263/263 265/265/265
f 246/246/246 266/266/266 264/264/264
f 245/245/245 265/265/265 267/267/267
f 246/246/246 268/268/268 266/266/266
f 245/245/245 267/267/267 269/269/269
f 246/246/246 270/270/270 268/268/268
f 245/245/245 269/269/269 271/271/271
f 246/246/246 272/272/272 270/270/270
f 245/245/245 271/271/271 273/273/273
f 246/246/246 274/274/274 272/272/272
f 245/245/245 273/273/273 275/275/275
f 246/246/246 276/276/276 274/274/274
f 245/245/245 275/275/275 277/277/277
f 246/246/246 278/278/278 276/276/276
f 245/245/245 277/277/277 279/279/279
f 246/246/246 280/280/280 278/278/278
f 245/245/245 279/279/279 281/281/281
f 246/246/246 282/282/282 280/280/280
f 245/245/245 281/281/281 283/283/283
f 246/246/246 284/284/284 282/282/282
f 245/245/245 283/283/283 285/285/285
f 246/246/246 286/286/286 284/284/284
f 245/245/245 285/285/285 287/287/287
f 246/246/246 288/288/288 286/286/286
f 245/245/245 287/287/287 289/289/289
f 246/246/246 290/290/290 288/288/288
f 245/245/245 289/289/289 291/291/291
f 246/246/246 292/292/292 290/290/290
f 245/245/245 291/291/291 293/293/293
f 246/246/246 294/294/294 292/292/292
f 245/245/245 293/293/293 247/247/247
f 246/246/246 248/248/248 294/294/294
