# OBJ file: industrial_pipe
o industrial_pipe
v 0.019000 0.000000 0.000000
v 0.019000 0.000000 0.200000
v 0.018353 0.004918 0.000000
v 0.018353 0.004918 0.200000
v 0.016454 0.009500 0.000000
v 0.016454 0.009500 0.200000
v 0.013435 0.013435 0.000000
v 0.013435 0.013435 0.200000
v 0.009500 0.016454 0.000000
v 0.009500 0.016454 0.200000
v 0.004918 0.018353 0.000000
v 0.004918 0.018353 0.200000
v 0.000000 0.019000 0.000000
v 0.000000 0.019000 0.200000
v -0.004918 0.018353 0.000000
v -0.004918 0.018353 0.200000
v -0.009500 0.016454 0.000000
v -0.009500 0.016454 0.200000
v -0.013435 0.013435 0.000000
v -0.013435 0.013435 0.200000
v -0.016454 0.009500 0.000000
v -0.016454 0.009500 0.200000
v -0.018353 0.004918 0.000000
v -0.018353 0.004918 0.200000
v -0.019000 0.000000 0.000000
v -0.019000 0.000000 0.200000
v -0.018353 -0.004918 0.000000
v -0.018353 -0.004918 0.200000
v -0.016454 -0.009500 0.000000
v -0.016454 -0.009500 0.200000
v -0.013435 -0.013435 0.000000
v -0.013435 -0.013435 0.200000
v -0.009500 -0.016454 0.000000
v -0.009500 -0.016454 0.200000
v -0.004918 -0.018353 0.000000
v -0.004918 -0.018353 0.200000
v -0.000000 -0.019000 0.000000
v -0.000000 -0.019000 0.200000
v 0.004918 -0.018353 0.000000
v 0.004918 -0.018353 0.200000
v 0.009500 -0.016454 0.000000
v 0.009500 -0.016454 0.200000
v 0.013435 -0.013435 0.000000
v 0.013435 -0.013435 0.200000
v 0.016454 -0.009500 0.000000
v 0.016454 -0.009500 0.200000
v 0.018353 -0.004918 0.000000
v 0.018353 -0.004918 0.200000
v 0.000000 0.000000 0.200000
v 0.019000 0.000000 0.200000
v 0.018353 0.004918 0.200000
v 0.016454 0.009500 0.200000
v 0.013435 0.013435 0.200000
v 0.009500 0.016454 0.200000
v 0.004918 0.018353 0.200000
v 0.000000 0.019000 0.200000
v -0.004918 0.018353 0.200000
v -0.009500 0.016454 0.200000
v -0.013435 0.013435 0.200000
v -0.016454 0.009500 0.200000
v -0.018353 0.004918 0.200000
v -0.019000 0.000000 0.200000
v -0.018353 -0.004918 0.200000
v -0.016454 -0.009500 0.200000
v -0.013435 -0.013435 0.200000
v -0.009500 -0.016454 0.200000
v -0.004918 -0.018353 0.200000
v -0.000000 -0.019000 0.200000
v 0.004918 -0.018353 0.200000
v 0.009500 -0.016454 0.200000
v 0.013435 -0.013435 0.200000
v 0.016454 -0.009500 0.200000
v 0.018353 -0.004918 0.200000
v 0.000000 0.000000 0.000000
v 0.019000 0.000000 0.000000
v 0.018353 0.004918 0.000000
v 0.016454 0.009500 0.000000
v 0.013435 0.013435 0.000000
v 0.009500 0.016454 0.000000
v 0.004918 0.018353 0.000000
v 0.000000 0.019000 0.000000
v -0.004918 0.018353 0.000000
v -0.009500 0.016454 0.000000
v -0.013435 0.013435 0.000000
v -0.016454 0.009500 0.000000
v -0.018353 0.004918 0.000000
v -0.019000 0.000000 0.000000
v -0.018353 -0.004918 0.000000
v -0.016454 -0.009500 0.000000
v -0.013435 -0.013435 0.000000
v -0.009500 -0.016454 0.000000
v -0.004918 -0.018353 0.000000
v -0.000000 -0.019000 0.000000
v 0.004918 -0.018353 0.000000
v 0.009500 -0.016454 0.000000
v 0.013435 -0.013435 0.000000
v 0.016454 -0.009500 0.000000
v 0.018353 -0.004918 0.000000
v 0.028000 0.000000 0.000000
v 0.028000 0.000000 0.012000
v 0.027046 0.007247 0.000000
v 0.027046 0.007247 0.012000
v 0.024249 0.014000 0.000000
v 0.024249 0.014000 0.012000
v 0.019799 0.019799 0.000000
v 0.019799 0.019799 0.012000
v 0.014000 0.024249 0.000000
v 0.014000 0.024249 0.012000
v 0.007247 0.027046 0.000000
v 0.007247 0.027046 0.012000
v 0.000000 0.028000 0.000000
v 0.000000 0.028000 0.012000
v -0.007247 0.027046 0.000000
v -0.007247 0.027046 0.012000
v -0.014000 0.024249 0.000000
v -0.014000 0.024249 0.012000
v -0.019799 0.019799 0.000000
v -0.019799 0.019799 0.012000
v -0.024249 0.014000 0.000000
v -0.024249 0.014000 0.012000
v -0.027046 0.007247 0.000000
v -0.027046 0.007247 0.012000
v -0.028000 0.000000 0.000000
v -0.028000 0.000000 0.012000
v -0.027046 -0.007247 0.000000
v -0.027046 -0.007247 0.012000
v -0.024249 -0.014000 0.000000
v -0.024249 -0.014000 0.012000
v -0.019799 -0.019799 0.000000
v -0.019799 -0.019799 0.012000
v -0.014000 -0.024249 0.000000
v -0.014000 -0.024249 0.012000
v -0.007247 -0.027046 0.000000
v -0.007247 -0.027046 0.012000
v -0.000000 -0.028000 0.000000
v -0.000000 -0.028000 0.012000
v 0.007247 -0.027046 0.000000
v 0.007247 -0.027046 0.012000
v 0.014000 -0.024249 0.000000
v 0.014000 -0.024249 0.012000
v 0.019799 -0.019799 0.000000
v 0.019799 -0.019799 0.012000
v 0.024249 -0.014000 0.000000
v 0.024249 -0.014000 0.012000
v 0.027046 -0.007247 0.000000
v 0.027046 -0.007247 0.012000
v 0.000000 0.000000 0.012000
v 0.028000 0.000000 0.012000
v 0.027046 0.007247 0.012000
v 0.024249 0.014000 0.012000
v 0.019799 0.019799 0.012000
v 0.014000 0.024249 0.012000
v 0.007247 0.027046 0.012000
v 0.000000 0.028000 0.012000
v -0.007247 0.027046 0.012000
v -0.014000 0.024249 0.012000
v -0.019799 0.019799 0.012000
v -0.024249 0.014000 0.012000
v -0.027046 0.007247 0.012000
v -0.028000 0.000000 0.012000
v -0.027046 -0.007247 0.012000
v -0.024249 -0.014000 0.012000
v -0.019799 -0.019799 0.012000
v -0.014000 -0.024249 0.012000
v -0.007247 -0.027046 0.012000
v -0.000000 -0.028000 0.012000
v 0.007247 -0.027046 0.012000
v 0.014000 -0.024249 0.012000
v 0.019799 -0.019799 0.012000
v 0.024249 -0.014000 0.012000
v 0.027046 -0.007247 0.012000
v 0.000000 0.000000 0.000000
v 0.028000 0.000000 0.000000
v 0.027046 0.007247 0.000000
v 0.024249 0.014000 0.000000
v 0.019799 0.019799 0.000000
v 0.014000 0.024249 0.000000
v 0.007247 0.027046 0.000000
v 0.000000 0.028000 0.000000
v -0.007247 0.027046 0.000000
v -0.014000 0.024249 0.000000
v -0.019799 0.019799 0.000000
v -0.024249 0.014000 0.000000
v -0.027046 0.007247 0.000000
v -0.028000 0.000000 0.000000
v -0.027046 -0.007247 0.000000
v -0.024249 -0.014000 0.000000
v -0.019799 -0.019799 0.000000
v -0.014000 -0.024249 0.000000
v -0.007247 -0.027046 0.000000
v -0.000000 -0.028000 0.000000
v 0.007247 -0.027046 0.000000
v 0.014000 -0.024249 0.000000
v 0.019799 -0.019799 0.000000
v 0.024249 -0.014000 0.000000
v 0.027046 -0.007247 0.000000
v 0.028000 0.000000 0.188000
v 0.028000 0.000000 0.200000
v 0.027046 0.007247 0.188000
v 0.027046 0.007247 0.200000
v 0.024249 0.014000 0.188000
v 0.024249 0.014000 0.200000
v 0.019799 0.019799 0.188000
v 0.019799 0.019799 0.200000
v 0.014000 0.024249 0.188000
v 0.014000 0.024249 0.200000
v 0.007247 0.027046 0.188000
v 0.007247 0.027046 0.200000
v 0.000000 0.028000 0.188000
v 0.000000 0.028000 0.200000
v -0.007247 0.027046 0.188000
v -0.007247 0.027046 0.200000
v -0.014000 0.024249 0.188000
v -0.014000 0.024249 0.200000
v -0.019799 0.019799 0.188000
v -0.019799 0.019799 0.200000
v -0.024249 0.014000 0.188000
v -0.024249 0.014000 0.200000
v -0.027046 0.007247 0.188000
v -0.027046 0.007247 0.200000
v -0.028000 0.000000 0.188000
v -0.028000 0.000000 0.200000
v -0.027046 -0.007247 0.188000
v -0.027046 -0.007247 0.200000
v -0.024249 -0.014000 0.188000
v -0.024249 -0.014000 0.200000
v -0.019799 -0.019799 0.188000
v -0.019799 -0.019799 0.200000
v -0.014000 -0.024249 0.188000
v -0.014000 -0.024249 0.200000
v -0.007247 -0.027046 0.188000
v -0.007247 -0.027046 0.200000
v -0.000000 -0.028000 0.188000
v -0.000000 -0.028000 0.200000
v 0.007247 -0.027046 0.188000
v 0.007247 -0.027046 0.200000
v 0.014000 -0.024249 0.188000
v 0.014000 -0.024249 0.200000
v 0.019799 -0.019799 0.188000
v 0.019799 -0.019799 0.200000
v 0.024249 -0.014000 0.188000
v 0.024249 -0.014000 0.200000
v 0.027046 -0.007247 0.188000
v 0.027046 -0.007247 0.200000
v 0.000000 0.000000 0.200000
v 0.028000 0.000000 0.200000
v 0.027046 0.007247 0.200000
v 0.024249 0.014000 0.200000
v 0.019799 0.019799 0.200000
v 0.014000 0.024249 0.200000
v 0.007247 0.027046 0.200000
v 0.000000 0.028000 0.200000
v -0.007247 0.027046 0.200000
v -0.014000 0.024249 0.200000
v -0.019799 0.019799 0.200000
v -0.024249 0.014000 0.200000
v -0.027046 0.007247 0.200000
v -0.028000 0.000000 0.200000
v -0.027046 -0.007247 0.200000
v -0.024249 -0.014000 0.200000
v -0.019799 -0.019799 0.200000
v -0.014000 -0.024249 0.200000
v -0.007247 -0.027046 0.200000
v -0.000000 -0.028000 0.200000
v 0.007247 -0.027046 0.200000
v 0.014000 -0.024249 0.200000
v 0.019799 -0.019799 0.200000
v 0.024249 -0.014000 0.200000
v 0.027046 -0.007247 0.200000
v 0.000000 0.000000 0.188000
v 0.028000 0.000000 0.188000
v 0.027046 0.007247 0.188000
v 0.024249 0.014000 0.188000
v 0.019799 0.019799 0.188000
v 0.014000 0.024249 0.188000
v 0.007247 0.027046 0.188000
v 0.000000 0.028000 0.188000
v -0.007247 0.027046 0.188000
v -0.014000 0.024249 0.188000
v -0.019799 0.019799 0.188000
v -0.024249 0.014000 0.188000
v -0.027046 0.007247 0.188000
v -0.028000 0.000000 0.188000
v -0.027046 -0.007247 0.188000
v -0.024249 -0.014000 0.188000
v -0.019799 -0.019799 0.188000
v -0.014000 -0.024249 0.188000
v -0.007247 -0.027046 0.188000
v -0.000000 -0.028000 0.188000
v 0.007247 -0.027046 0.188000
v 0.014000 -0.024249 0.188000
v 0.019799 -0.019799 0.188000
v 0.024249 -0.014000 0.188000
v 0.027046 -0.007247 0.188000
vt 0.000000 0.000000
vt 0.000000 1.000000
vt 0.041667 0.000000
vt 0.041667 1.000000
vt 0.083333 0.000000
vt 0.083333 1.000000
vt 0.125000 0.000000
vt 0.125000 1.000000
vt 0.166667 0.000000
vt 0.166667 1.000000
vt 0.208333 0.000000
vt 0.208333 1.000000
vt 0.250000 0.000000
vt 0.250000 1.000000
vt 0.291667 0.000000
vt 0.291667 1.000000
vt 0.333333 0.000000
vt 0.333333 1.000000
vt 0.375000 0.000000
vt 0.375000 1.000000
vt 0.416667 0.000000
vt 0.416667 1.000000
vt 0.458333 0.000000
vt 0.458333 1.000000
vt 0.500000 0.000000
vt 0.500000 1.000000
vt 0.541667 0.000000
vt 0.541667 1.000000
vt 0.583333 0.000000
vt 0.583333 1.000000
vt 0.625000 0.000000
vt 0.625000 1.000000
vt 0.666667 0.000000
vt 0.666667 1.000000
vt 0.708333 0.000000
vt 0.708333 1.000000
vt 0.750000 0.000000
vt 0.750000 1.000000
vt 0.791667 0.000000
vt 0.791667 1.000000
vt 0.833333 0.000000
vt 0.833333 1.000000
vt 0.875000 0.000000
vt 0.875000 1.000000
vt 0.916667 0.000000
vt 0.916667 1.000000
vt 0.958333 0.000000
vt 0.958333 1.000000
vt 0.500000 0.500000
vt 1.000000 0.500000
vt 0.982963 0.629410
vt 0.933013 0.750000
vt 0.853553 0.853553
vt 0.750000 0.933013
vt 0.629410 0.982963
vt 0.500000 1.000000
vt 0.370590 0.982963
vt 0.250000 0.933013
vt 0.146447 0.853553
vt 0.066987 0.750000
vt 0.017037 0.629410
vt 0.000000 0.500000
vt 0.017037 0.370590
vt 0.066987 0.250000
vt 0.146447 0.146447
vt 0.250000 0.066987
vt 0.370590 0.017037
vt 0.500000 0.000000
vt 0.629410 0.017037
vt 0.750000 0.066987
vt 0.853553 0.146447
vt 0.933013 0.250000
vt 0.982963 0.370590
vt 0.500000 0.500000
vt 1.000000 0.500000
vt 0.982963 0.629410
vt 0.933013 0.750000
vt 0.853553 0.853553
vt 0.750000 0.933013
vt 0.629410 0.982963
vt 0.500000 1.000000
vt 0.370590 0.982963
vt 0.250000 0.933013
vt 0.146447 0.853553
vt 0.066987 0.750000
vt 0.017037 0.629410
vt 0.000000 0.500000
vt 0.017037 0.370590
vt 0.066987 0.250000
vt 0.146447 0.146447
vt 0.250000 0.066987
vt 0.370590 0.017037
vt 0.500000 0.000000
vt 0.629410 0.017037
vt 0.750000 0.066987
vt 0.853553 0.146447
vt 0.933013 0.250000
vt 0.982963 0.370590
vt 0.000000 0.000000
vt 0.000000 1.000000
vt 0.041667 0.000000
vt 0.041667 1.000000
vt 0.083333 0.000000
vt 0.083333 1.000000
vt 0.125000 0.000000
vt 0.125000 1.000000
vt 0.166667 0.000000
vt 0.166667 1.000000
vt 0.208333 0.000000
vt 0.208333 1.000000
vt 0.250000 0.000000
vt 0.250000 1.000000
vt 0.291667 0.000000
vt 0.291667 1.000000
vt 0.333333 0.000000
vt 0.333333 1.000000
vt 0.375000 0.000000
vt 0.375000 1.000000
vt 0.416667 0.000000
vt 0.416667 1.000000
vt 0.458333 0.000000
vt 0.458333 1.000000
vt 0.500000 0.000000
vt 0.500000 1.000000
vt 0.541667 0.000000
vt 0.541667 1.000000
vt 0.583333 0.000000
vt 0.583333 1.000000
vt 0.625000 0.000000
vt 0.625000 1.000000
vt 0.666667 0.000000
vt 0.666667 1.000000
vt 0.708333 0.000000
vt 0.708333 1.000000
vt 0.750000 0.000000
vt 0.750000 1.000000
vt 0.791667 0.000000
vt 0.791667 1.000000
vt 0.833333 0.000000
vt 0.833333 1.000000
vt 0.875000 0.000000
vt 0.875000 1.000000
vt 0.916667 0.000000
vt 0.916667 1.000000
vt 0.958333 0.000000
vt 0.958333 1.000000
vt 0.500000 0.500000
vt 1.000000 0.500000
vt 0.982963 0.629410
vt 0.933013 0.750000
vt 0.853553 0.853553
vt 0.750000 0.933013
vt 0.629410 0.982963
vt 0.500000 1.000000
vt 0.370590 0.982963
vt 0.250000 0.933013
vt 0.146447 0.853553
vt 0.066987 0.750000
vt 0.017037 0.629410
vt 0.000000 0.500000
vt 0.017037 0.370590
vt 0.066987 0.250000
vt 0.146447 0.146447
vt 0.250000 0.066987
vt 0.370590 0.017037
vt 0.500000 0.000000
vt 0.629410 0.017037
vt 0.750000 0.066987
vt 0.853553 0.146447
vt 0.933013 0.250000
vt 0.982963 0.370590
vt 0.500000 0.500000
vt 1.000000 0.500000
vt 0.982963 0.629410
vt 0.933013 0.750000
vt 0.853553 0.853553
vt 0.750000 0.933013
vt 0.629410 0.982963
vt 0.500000 1.000000
vt 0.370590 0.982963
vt 0.250000 0.933013
vt 0.146447 0.853553
vt 0.066987 0.750000
vt 0.017037 0.629410
vt 0.000000 0.500000
vt 0.017037 0.370590
vt 0.066987 0.250000
vt 0.146447 0.146447
vt 0.250000 0.066987
vt 0.370590 0.017037
vt 0.500000 0.000000
vt 0.629410 0.017037
vt 0.750000 0.066987
vt 0.853553 0.146447
vt 0.933013 0.250000
vt 0.982963 0.370590
vt 0.000000 0.000000
vt 0.000000 1.000000
vt 0.041667 0.000000
vt 0.041667 1.000000
vt 0.083333 0.000000
vt 0.083333 1.000000
vt 0.125000 0.000000
vt 0.125000 1.000000
vt 0.166667 0.000000
vt 0.166667 1.000000
vt 0.208333 0.000000
vt 0.208333 1.000000
vt 0.250000 0.000000
vt 0.250000 1.000000
vt 0.291667 0.000000
vt 0.291667 1.000000
vt 0.333333 0.000000
vt 0.333333 1.000000
vt 0.375000 0.000000
vt 0.375000 1.000000
vt 0.416667 0.000000
vt 0.416667 1.000000
vt 0.458333 0.000000
vt 0.458333 1.000000
vt 0.500000 0.000000
vt 0.500000 1.000000
vt 0.541667 0.000000
vt 0.541667 1.000000
vt 0.583333 0.000000
vt 0.583333 1.000000
vt 0.625000 0.000000
vt 0.625000 1.000000
vt 0.666667 0.000000
vt 0.666667 1.000000
vt 0.708333 0.000000
vt 0.708333 1.000000
vt 0.750000 0.000000
vt 0.750000 1.000000
vt 0.791667 0.000000
vt 0.791667 1.000000
vt 0.833333 0.000000
vt 0.833333 1.000000
vt 0.875000 0.000000
vt 0.875000 1.000000
vt 0.916667 0.000000
vt 0.916667 1.000000
vt 0.958333 0.000000
vt 0.958333 1.000000
vt 0.500000 0.500000
vt 1.000000 0.500000
vt 0.982963 0.629410
vt 0.933013 0.750000
vt 0.853553 0.853553
vt 0.750000 0.933013
vt 0.629410 0.982963
vt 0.500000 1.000000
vt 0.370590 0.982963
vt 0.250000 0.933013
vt 0.146447 0.853553
vt 0.066987 0.750000
vt 0.017037 0.629410
vt 0.000000 0.500000
vt 0.017037 0.370590
vt 0.066987 0.250000
vt 0.146447 0.146447
vt 0.250000 0.066987
vt 0.370590 0.017037
vt 0.500000 0.000000
vt 0.629410 0.017037
vt 0.750000 0.066987
vt 0.853553 0.146447
vt 0.933013 0.250000
vt 0.982963 0.370590
vt 0.500000 0.500000
vt 1.000000 0.500000
vt 0.982963 0.629410
vt 0.933013 0.750000
vt 0.853553 0.853553
vt 0.750000 0.933013
vt 0.629410 0.982963
vt 0.500000 1.000000
vt 0.370590 0.982963
vt 0.250000 0.933013
vt 0.146447 0.853553
vt 0.066987 0.750000
vt 0.017037 0.629410
vt 0.000000 0.500000
vt 0.017037 0.370590
vt 0.066987 0.250000
vt 0.146447 0.146447
vt 0.250000 0.066987
vt 0.370590 0.017037
vt 0.500000 0.000000
vt 0.629410 0.017037
vt 0.750000 0.066987
vt 0.853553 0.146447
vt 0.933013 0.250000
vt 0.982963 0.370590
vn 1.000000 0.000000 0.000000
vn 1.000000 0.000000 0.000000
vn 0.965926 0.258819 0.000000
vn 0.965926 0.258819 0.000000
vn 0.866025 0.500000 0.000000
vn 0.866025 0.500000 0.000000
vn 0.707107 0.707107 0.000000
vn 0.707107 0.707107 0.000000
vn 0.500000 0.866025 0.000000
vn 0.500000 0.866025 0.000000
vn 0.258819 0.965926 0.000000
vn 0.258819 0.965926 0.000000
vn 0.000000 1.000000 0.000000
vn 0.000000 1.000000 0.000000
vn -0.258819 0.965926 0.000000
vn -0.258819 0.965926 0.000000
vn -0.500000 0.866025 0.000000
vn -0.500000 0.866025 0.000000
vn -0.707107 0.707107 0.000000
vn -0.707107 0.707107 0.000000
vn -0.866025 0.500000 0.000000
vn -0.866025 0.500000 0.000000
vn -0.965926 0.258819 0.000000
vn -0.965926 0.258819 0.000000
vn -1.000000 0.000000 0.000000
vn -1.000000 0.000000 0.000000
vn -0.965926 -0.258819 -0.000000
vn -0.965926 -0.258819 -0.000000
vn -0.866025 -0.500000 -0.000000
vn -0.866025 -0.500000 -0.000000
vn -0.707107 -0.707107 -0.000000
vn -0.707107 -0.707107 -0.000000
vn -0.500000 -0.866025 -0.000000
vn -0.500000 -0.866025 -0.000000
vn -0.258819 -0.965926 -0.000000
vn -0.258819 -0.965926 -0.000000
vn -0.000000 -1.000000 -0.000000
vn -0.000000 -1.000000 -0.000000
vn 0.258819 -0.965926 0.000000
vn 0.258819 -0.965926 0.000000
vn 0.500000 -0.866025 0.000000
vn 0.500000 -0.866025 0.000000
vn 0.707107 -0.707107 0.000000
vn 0.707107 -0.707107 0.000000
vn 0.866025 -0.500000 0.000000
vn 0.866025 -0.500000 0.000000
vn 0.965926 -0.258819 0.000000
vn 0.965926 -0.258819 0.000000
vn 0.000000 0.000000 1.000000
vn 0.000000 0.000000 1.000000
vn 0.000000 0.000000 1.000000
vn 0.000000 0.000000 1.000000
vn 0.000000 0.000000 1.000000
vn 0.000000 0.000000 1.000000
vn 0.000000 0.000000 1.000000
vn 0.000000 0.000000 1.000000
vn 0.000000 0.000000 1.000000
vn 0.000000 0.000000 1.000000
vn 0.000000 0.000000 1.000000
vn 0.000000 0.000000 1.000000
vn 0.000000 0.000000 1.000000
vn 0.000000 0.000000 1.000000
vn 0.000000 0.000000 1.000000
vn 0.000000 0.000000 1.000000
vn 0.000000 0.000000 1.000000
vn 0.000000 0.000000 1.000000
vn 0.000000 0.000000 1.000000
vn 0.000000 0.000000 1.000000
vn 0.000000 0.000000 1.000000
vn 0.000000 0.000000 1.000000
vn 0.000000 0.000000 1.000000
vn 0.000000 0.000000 1.000000
vn 0.000000 0.000000 1.000000
vn -0.000000 -0.000000 -1.000000
vn -0.000000 -0.000000 -1.000000
vn -0.000000 -0.000000 -1.000000
vn -0.000000 -0.000000 -1.000000
vn -0.000000 -0.000000 -1.000000
vn -0.000000 -0.000000 -1.000000
vn -0.000000 -0.000000 -1.000000
vn -0.000000 -0.000000 -1.000000
vn -0.000000 -0.000000 -1.000000
vn -0.000000 -0.000000 -1.000000
vn -0.000000 -0.000000 -1.000000
vn -0.000000 -0.000000 -1.000000
vn -0.000000 -0.000000 -1.000000
vn -0.000000 -0.000000 -1.000000
vn -0.000000 -0.000000 -1.000000
vn -0.000000 -0.000000 -1.000000
vn -0.000000 -0.000000 -1.000000
vn -0.000000 -0.000000 -1.000000
vn -0.000000 -0.000000 -1.000000
vn -0.000000 -0.000000 -1.000000
vn -0.000000 -0.000000 -1.000000
vn -0.000000 -0.000000 -1.000000
vn -0.000000 -0.000000 -1.000000
vn -0.000000 -0.000000 -1.000000
vn -0.000000 -0.000000 -1.000000
vn 1.000000 0.000000 0.000000
vn 1.000000 0.000000 0.000000
vn 0.965926 0.258819 0.000000
vn 0.965926 0.258819 0.000000
vn 0.866025 0.500000 0.000000
vn 0.866025 0.500000 0.000000
vn 0.707107 0.707107 0.000000
vn 0.707107 0.707107 0.000000
vn 0.500000 0.866025 0.000000
vn 0.500000 0.866025 0.000000
vn 0.258819 0.965926 0.000000
vn 0.258819 0.965926 0.000000
vn 0.000000 1.000000 0.000000
vn 0.000000 1.000000 0.000000
vn -0.258819 0.965926 0.000000
vn -0.258819 0.965926 0.000000
vn -0.500000 0.866025 0.000000
vn -0.500000 0.866025 0.000000
vn -0.707107 0.707107 0.000000
vn -0.707107 0.707107 0.000000
vn -0.866025 0.500000 0.000000
vn -0.866025 0.500000 0.000000
vn -0.965926 0.258819 0.000000
vn -0.965926 0.258819 0.000000
vn -1.000000 0.000000 0.000000
vn -1.000000 0.000000 0.000000
vn -0.965926 -0.258819 -0.000000
vn -0.965926 -0.258819 -0.000000
vn -0.866025 -0.500000 -0.000000
vn -0.866025 -0.500000 -0.000000
vn -0.707107 -0.707107 -0.000000
vn -0.707107 -0.707107 -0.000000
vn -0.500000 -0.866025 -0.000000
vn -0.500000 -0.866025 -0.000000
vn -0.258819 -0.965926 -0.000000
vn -0.258819 -0.965926 -0.000000
vn -0.000000 -1.000000 -0.000000
vn -0.000000 -1.000000 -0.000000
vn 0.258819 -0.965926 0.000000
vn 0.258819 -0.965926 0.000000
vn 0.500000 -0.866025 0.000000
vn 0.500000 -0.866025 0.000000
vn 0.707107 -0.707107 0.000000
vn 0.707107 -0.707107 0.000000
vn 0.866025 -0.500000 0.000000
vn 0.866025 -0.500000 0.000000
vn 0.965926 -0.258819 0.000000
vn 0.965926 -0.258819 0.000000
vn 0.000000 0.000000 1.000000
vn 0.000000 0.000000 1.000000
vn 0.000000 0.000000 1.000000
vn 0.000000 0.000000 1.000000
vn 0.000000 0.000000 1.000000
vn 0.000000 0.000000 1.000000
vn 0.000000 0.000000 1.000000
vn 0.000000 0.000000 1.000000
vn 0.000000 0.000000 1.000000
vn 0.000000 0.000000 1.000000
vn 0.000000 0.000000 1.000000
vn 0.000000 0.000000 1.000000
vn 0.000000 0.000000 1.000000
vn 0.000000 0.000000 1.000000
vn 0.000000 0.000000 1.000000
vn 0.000000 0.000000 1.000000
vn 0.000000 0.000000 1.000000
vn 0.000000 0.000000 1.000000
vn 0.000000 0.000000 1.000000
vn 0.000000 0.000000 1.000000
vn 0.000000 0.000000 1.000000
vn 0.000000 0.000000 1.000000
vn 0.000000 0.000000 1.000000
vn 0.000000 0.000000 1.000000
vn 0.000000 0.000000 1.000000
vn -0.000000 -0.000000 -1.000000
vn -0.000000 -0.000000 -1.000000
vn -0.000000 -0.000000 -1.000000
vn -0.000000 -0.000000 -1.000000
vn -0.000000 -0.000000 -1.000000
vn -0.000000 -0.000000 -1.000000
vn -0.000000 -0.000000 -1.000000
vn -0.000000 -0.000000 -1.000000
vn -0.000000 -0.000000 -1.000000
vn -0.000000 -0.000000 -1.000000
vn -0.000000 -0.000000 -1.000000
vn -0.000000 -0.000000 -1.000000
vn -0.000000 -0.000000 -1.000000
vn -0.000000 -0.000000 -1.000000
vn -0.000000 -0.000000 -1.000000
vn -0.000000 -0.000000 -1.000000
vn -0.000000 -0.000000 -1.000000
vn -0.000000 -0.000000 -1.000000
vn -0.000000 -0.000000 -1.000000
vn -0.000000 -0.000000 -1.000000
vn -0.000000 -0.000000 -1.000000
vn -0.000000 -0.000000 -1.000000
vn -0.000000 -0.000000 -1.000000
vn -0.000000 -0.000000 -1.000000
vn -0.000000 -0.000000 -1.000000
vn 1.000000 0.000000 0.000000
vn 1.000000 0.000000 0.000000
vn 0.965926 0.258819 0.000000
vn 0.965926 0.258819 0.000000
vn 0.866025 0.500000 0.000000
vn 0.866025 0.500000 0.000000
vn 0.707107 0.707107 0.000000
vn 0.707107 0.707107 0.000000
vn 0.500000 0.866025 0.000000
vn 0.500000 0.866025 0.000000
vn 0.258819 0.965926 0.000000
vn 0.258819 0.965926 0.000000
vn 0.000000 1.000000 0.000000
vn 0.000000 1.000000 0.000000
vn -0.258819 0.965926 0.000000
vn -0.258819 0.965926 0.000000
vn -0.500000 0.866025 0.000000
vn -0.500000 0.866025 0.000000
vn -0.707107 0.707107 0.000000
vn -0.707107 0.707107 0.000000
vn -0.866025 0.500000 0.000000
vn -0.866025 0.500000 0.000000
vn -0.965926 0.258819 0.000000
vn -0.965926 0.258819 0.000000
vn -1.000000 0.000000 0.000000
vn -1.000000 0.000000 0.000000
vn -0.965926 -0.258819 -0.000000
vn -0.965926 -0.258819 -0.000000
vn -0.866025 -0.500000 -0.000000
vn -0.866025 -0.500000 -0.000000
vn -0.707107 -0.707107 -0.000000
vn -0.707107 -0.707107 -0.000000
vn -0.500000 -0.866025 -0.000000
vn -0.500000 -0.866025 -0.000000
vn -0.258819 -0.965926 -0.000000
vn -0.258819 -0.965926 -0.000000
vn -0.000000 -1.000000 -0.000000
vn -0.000000 -1.000000 -0.000000
vn 0.258819 -0.965926 0.000000
vn 0.258819 -0.965926 0.000000
vn 0.500000 -0.866025 0.000000
vn 0.500000 -0.866025 0.000000
vn 0.707107 -0.707107 0.000000
vn 0.707107 -0.707107 0.000000
vn 0.866025 -0.500000 0.000000
vn 0.866025 -0.500000 0.000000
vn 0.965926 -0.258819 0.000000
vn 0.965926 -0.258819 0.000000
vn 0.000000 0.000000 1.000000
vn 0.000000 0.000000 1.000000
vn 0.000000 0.000000 1.000000
vn 0.000000 0.000000 1.000000
vn 0.000000 0.000000 1.000000
vn 0.000000 0.000000 1.000000
vn 0.000000 0.000000 1.000000
vn 0.000000 0.000000 1.000000
vn 0.000000 0.000000 1.000000
vn 0.000000 0.000000 1.000000
vn 0.000000 0.000000 1.000000
vn 0.000000 0.000000 1.000000
vn 0.000000 0.000000 1.000000
vn 0.000000 0.000000 1.000000
vn 0.000000 0.000000 1.000000
vn 0.000000 0.000000 1.000000
vn 0.000000 0.000000 1.000000
vn 0.000000 0.000000 1.000000
vn 0.000000 0.000000 1.000000
vn 0.000000 0.000000 1.000000
vn 0.000000 0.000000 1.000000
vn 0.000000 0.000000 1.000000
vn 0.000000 0.000000 1.000000
vn 0.000000 0.000000 1.000000
vn 0.000000 0.000000 1.000000
vn -0.000000 -0.000000 -1.000000
vn -0.000000 -0.000000 -1.000000
vn -0.000000 -0.000000 -1.000000
vn -0.000000 -0.000000 -1.000000
vn -0.000000 -0.000000 -1.000000
vn -0.000000 -0.000000 -1.000000
vn -0.000000 -0.000000 -1.000000
vn -0.000000 -0.000000 -1.000000
vn -0.000000 -0.000000 -1.000000
vn -0.000000 -0.000000 -1.000000
vn -0.000000 -0.000000 -1.000000
vn -0.000000 -0.000000 -1.000000
vn -0.000000 -0.000000 -1.000000
vn -0.000000 -0.000000 -1.000000
vn -0.000000 -0.000000 -1.000000
vn -0.000000 -0.000000 -1.000000
vn -0.000000 -0.000000 -1.000000
vn -0.000000 -0.000000 -1.000000
vn -0.000000 -0.000000 -1.000000
vn -0.000000 -0.000000 -1.000000
vn -0.000000 -0.000000 -1.000000
vn -0.000000 -0.000000 -1.000000
vn -0.000000 -0.000000 -1.000000
vn -0.000000 -0.000000 -1.000000
vn -0.000000 -0.000000 -1.000000
f 1/1/1 3/3/3 4/4/4 2/2/2
f 3/3/3 5/5/5 6/6/6 4/4/4
f 5/5/5 7/7/7 8/8/8 6/6/6
f 7/7/7 9/9/9 10/10/10 8/8/8
f 9/9/9 11/11/11 12/12/12 10/10/10
f 11/11/11 13/13/13 14/14/14 12/12/12
f 13/13/13 15/15/15 16/16/16 14/14/14
f 15/15/15 17/17/17 18/18/18 16/16/16
f 17/17/17 19/19/19 20/20/20 18/18/18
f 19/19/19 21/21/21 22/22/22 20/20/20
f 21/21/21 23/23/23 24/24/24 22/22/22
f 23/23/23 25/25/25 26/26/26 24/24/24
f 25/25/25 27/27/27 28/28/28 26/26/26
f 27/27/27 29/29/29 30/30/30 28/28/28
f 29/29/29 31/31/31 32/32/32 30/30/30
f 31/31/31 33/33/33 34/34/34 32/32/32
f 33/33/33 35/35/35 36/36/36 34/34/34
f 35/35/35 37/37/37 38/38/38 36/36/36
f 37/37/37 39/39/39 40/40/40 38/38/38
f 39/39/39 41/41/41 42/42/42 40/40/40
f 41/41/41 43/43/43 44/44/44 42/42/42
f 43/43/43 45/45/45 46/46/46 44/44/44
f 45/45/45 47/47/47 48/48/48 46/46/46
f 47/47/47 1/1/1 2/2/2 48/48/48
f 49/49/49 50/50/50 51/51/51
f 49/49/49 51/51/51 52/52/52
f 49/49/49 52/52/52 53/53/53
f 49/49/49 53/53/53 54/54/54
f 49/49/49 54/54/54 55/55/55
f 49/49/49 55/55/55 56/56/56
f 49/49/49 56/56/56 57/57/57
f 49/49/49 57/57/57 58/58/58
f 49/49/49 58/58/58 59/59/59
f 49/49/49 59/59/59 60/60/60
f 49/49/49 60/60/60 61/61/61
f 49/49/49 61/61/61 62/62/62
f 49/49/49 62/62/62 63/63/63
f 49/49/49 63/63/63 64/64/64
f 49/49/49 64/64/64 65/65/65
f 49/49/49 65/65/65 66/66/66
f 49/49/49 66/66/66 67/67/67
f 49/49/49 67/67/67 68/68/68
f 49/49/49 68/68/68 69/69/69
f 49/49/49 69/69/69 70/70/70
f 49/49/49 70/70/70 71/71/71
f 49/49/49 71/71/71 72/72/72
f 49/49/49 72/72/72 73/73/73
f 49/49/49 73/73/73 50/50/50
f 74/74/74 76/76/76 75/75/75
f 74/74/74 77/77/77 76/76/76
f 74/74/74 78/78/78 77/77/77
f 74/74/74 79/79/79 78/78/78
f 74/74/74 80/80/80 79/79/79
f 74/74/74 81/81/81 80/80/80
f 74/74/74 82/82/82 81/81/81
f 74/74/74 83/83/83 82/82/82
f 74/74/74 84/84/84 83/83/83
f 74/74/74 85/85/85 84/84/84
f 74/74/74 86/86/86 85/85/85
f 74/74/74 87/87/87 86/86/86
f 74/74/74 88/88/88 87/87/87
f 74/74/74 89/89/89 88/88/88
f 74/74/74 90/90/90 89/89/89
f 74/74/74 91/91/91 90/90/90
f 74/74/74 92/92/92 91/91/91
f 74/74/74 93/93/93 92/92/92
f 74/74/74 94/94/94 93/93/93
f 74/74/74 95/95/95 94/94/94
f 74/74/74 96/96/96 95/95/95
f 74/74/74 97/97/97 96/96/96
f 74/74/74 98/98/98 97/97/97
f 74/74/74 75/75/75 98/98/98
f 99/99/99 101/101/101 102/102/102 100/100/100
f 101/101/101 103/103/103 104/104/104 102/102/102
f 103/103/103 105/105/105 106/106/106 104/104/104
f 105/105/105 107/107/107 108/108/108 106/106/106
f 107/107/107 109/109/109 110/110/110 108/108/108
f 109/109/109 111/111/111 112/112/112 110/110/110
f 111/111/111 113/113/113 114/114/114 112/112/112
f 113/113/113 115/115/115 116/116/116 114/114/114
f 115/115/115 117/117/117 118/118/118 116/116/116
f 117/117/117 119/119/119 120/120/120 118/118/118
f 119/119/119 121/121/121 122/122/122 120/120/120
f 121/121/121 123/123/123 124/124/124 122/122/122
f 123/123/123 125/125/125 126/126/126 124/124/124
f 125/125/125 127/127/127 128/128/128 126/126/126
f 127/127/127 129/129/129 130/130/130 128/128/128
f 129/129/129 131/131/131 132/132/132 130/130/130
f 131/131/131 133/133/133 134/134/134 132/132/132
f 133/133/133 135/135/135 136/136/136 134/134/134
f 135/135/135 137/137/137 138/138/138 136/136/136
f 137/137/137 139/139/139 140/140/140 138/138/138
f 139/139/139 141/141/141 142/142/142 140/140/140
f 141/141/141 143/143/143 144/144/144 142/142/142
f 143/143/143 145/145/145 146/146/146 144/144/144
f 145/145/145 99/99/99 100/100/100 146/146/146
f 147/147/147 148/148/148 149/149/149
f 147/147/147 149/149/149 150/150/150
f 147/147/147 150/150/150 151/151/151
f 147/147/147 151/151/151 152/152/152
f 147/147/147 152/152/152 153/153/153
f 147/147/147 153/153/153 154/154/154
f 147/147/147 154/154/154 155/155/155
f 147/147/147 155/155/155 156/156/156
f 147/147/147 156/156/156 157/157/157
f 147/147/147 157/157/157 158/158/158
f 147/147/147 158/158/158 159/159/159
f 147/147/147 159/159/159 160/160/160
f 147/147/147 160/160/160 161/161/161
f 147/147/147 161/161/161 162/162/162
f 147/147/147 162/162/162 163/163/163
f 147/147/147 163/163/163 164/164/164
f 147/147/147 164/164/164 165/165/165
f 147/147/147 165/165/165 166/166/166
f 147/147/147 166/166/166 167/167/167
f 147/147/147 167/167/167 168/168/168
f 147/147/147 168/168/168 169/169/169
f 147/147/147 169/169/169 170/170/170
f 147/147/147 170/170/170 171/171/171
f 147/147/147 171/171/171 148/148/148
f 172/172/172 174/174/174 173/173/173
f 172/172/172 175/175/175 174/174/174
f 172/172/172 176/176/176 175/175/175
f 172/172/172 177/177/177 176/176/176
f 172/172/172 178/178/178 177/177/177
f 172/172/172 179/179/179 178/178/178
f 172/172/172 180/180/180 179/179/179
f 172/172/172 181/181/181 180/180/180
f 172/172/172 182/182/182 181/181/181
f 172/172/172 183/183/183 182/182/182
f 172/172/172 184/184/184 183/183/183
f 172/172/172 185/185/185 184/184/184
f 172/172/172 186/186/186 185/185/185
f 172/172/172 187/187/187 186/186/186
f 172/172/172 188/188/188 187/187/187
f 172/172/172 189/189/189 188/188/188
f 172/172/172 190/190/190 189/189/189
f 172/172/172 191/191/191 190/190/190
f 172/172/172 192/192/192 191/191/191
f 172/172/172 193/193/193 192/192/192
f 172/172/172 194/194/194 193/193/193
f 172/172/172 195/195/195 194/194/194
f 172/172/172 196/196/196 195/195/195
f 172/172/172 173/173/173 196/196/196
f 197/197/197 199/199/199 200/200/200 198/198/198
f 199/199/199 201/201/201 202/202/202 200/200/200
f 201/201/201 203/203/203 204/204/204 202/202/202
f 203/203/203 205/205/205 206/206/206 204/204/204
f 205/205/205 207/207/207 208/208/208 206/206/206
f 207/207/207 209/209/209 210/210/210 208/208/208
f 209/209/209 211/211/211 212/212/212 210/210/210
f 211/211/211 213/213/213 214/214/214 212/212/212
f 213/213/213 215/215/215 216/216/216 214/214/214
f 215/215/215 217/217/217 218/218/218 216/216/216
f 217/217/217 219/219/219 220/220/220 218/218/218
f 219/219/219 221/221/221 222/222/222 220/220/220
f 221/221/221 223/223/223 224/224/224 222/222/222
f 223/223/223 225/225/225 226/226/226 224/224/224
f 225/225/225 227/227/227 228/228/228 226/226/226
f 227/227/227 229/229/229 230/230/230 228/228/228
f 229/229/229 231/231/231 232/232/232 230/230/230
f 231/231/231 233/233/233 234/234/234 232/232/232
f 233/233/233 235/235/235 236/236/236 234/234/234
f 235/235/235 237/237/237 238/238/238 236/236/236
f 237/237/237 239/239/239 240/240/240 238/238/238
f 239/239/239 241/241/241 242/242/242 240/240/240
f 241/241/241 243/243/243 244/244/244 242/242/242
f 243/243/243 197/197/197 198/198/198 244/244/244
f 245/245/245 246/246/246 247/247/247
f 245/245/245 247/247/247 248/248/248
f 245/245/245 248/248/248 249/249/249
f 245/245/245 249/249/249 250/250/250
f 245/245/245 250/250/250 251/251/251
f 245/245/245 251/251/251 252/252/252
f 245/245/245 252/252/252 253/253/253
f 245/245/245 253/253/253 254/254/254
f 245/245/245 254/254/254 255/255/255
f 245/245/245 255/255/255 256/256/256
f 245/245/245 256/256/256 257/257/257
f 245/245/245 257/257/257 258/258/258
f 245/245/245 258/258/258 259/259/259
f 245/245/245 259/259/259 260/260/260
f 245/245/245 260/260/260 261/261/261
f 245/245/245 261/261/261 262/262/262
f 245/245/245 262/262/262 263/263/263
f 245/245/245 263/263/263 264/264/264
f 245/245/245 264/264/264 265/265/265
f 245/245/245 265/265/265 266/266/266
f 245/245/245 266/266/266 267/267/267
f 245/245/245 267/267/267 268/268/268
f 245/245/245 268/268/268 269/269/269
f 245/245/245 269/269/269 246/246/246
f 270/270/270 272/272/272 271/271/271
f 270/270/270 273/273/273 272/272/272
f 270/270/270 274/274/274 273/273/273
f 270/270/270 275/275/275 274/274/274
f 270/270/270 276/276/276 275/275/275
f 270/270/270 277/277/277 276/276/276
f 270/270/270 278/278/278 277/277/277
f 270/270/270 279/279/279 278/278/278
f 270/270/270 280/280/280 279/279/279
f 270/270/270 281/281/281 280/280/280
f 270/270/270 282/282/282 281/281/281
f 270/270/270 283/283/283 282/282/282
f 270/270/270 284/284/284 283/283/283
f 270/270/270 285/285/285 284/284/284
f 270/270/270 286/286/286 285/285/285
f 270/270/270 287/287/287 286/286/286
f 270/270/270 288/288/288 287/287/287
f 270/270/270 289/289/289 288/288/288
f 270/270/270 290/290/290 289/289/289
f 270/270/270 291/291/291 290/290/290
f 270/270/270 292/292/292 291/291/291
f 270/270/270 293/293/293 292/292/292
f 270/270/270 294/294/294 293/293/293
f 270/270/270 271/271/271 294/294/294
