# OBJ file: isolation_valve
o isolation_valve
v 0.019000 0.000000 0.000000
v 0.019000 0.000000 0.160000
v 0.018353 0.004918 0.000000
v 0.018353 0.004918 0.160000
v 0.016454 0.009500 0.000000
v 0.016454 0.009500 0.160000
v 0.013435 0.013435 0.000000
v 0.013435 0.013435 0.160000
v 0.009500 0.016454 0.000000
v 0.009500 0.016454 0.160000
v 0.004918 0.018353 0.000000
v 0.004918 0.018353 0.160000
v 0.000000 0.019000 0.000000
v 0.000000 0.019000 0.160000
v -0.004918 0.018353 0.000000
v -0.004918 0.018353 0.160000
v -0.009500 0.016454 0.000000
v -0.009500 0.016454 0.160000
v -0.013435 0.013435 0.000000
v -0.013435 0.013435 0.160000
v -0.016454 0.009500 0.000000
v -0.016454 0.009500 0.160000
v -0.018353 0.004918 0.000000
v -0.018353 0.004918 0.160000
v -0.019000 0.000000 0.000000
v -0.019000 0.000000 0.160000
v -0.018353 -0.004918 0.000000
v -0.018353 -0.004918 0.160000
v -0.016454 -0.009500 0.000000
v -0.016454 -0.009500 0.160000
v -0.013435 -0.013435 0.000000
v -0.013435 -0.013435 0.160000
v -0.009500 -0.016454 0.000000
v -0.009500 -0.016454 0.160000
v -0.004918 -0.018353 0.000000
v -0.004918 -0.018353 0.160000
v -0.000000 -0.019000 0.000000
v -0.000000 -0.019000 0.160000
v 0.004918 -0.018353 0.000000
v 0.004918 -0.018353 0.160000
v 0.009500 -0.016454 0.000000
v 0.009500 -0.016454 0.160000
v 0.013435 -0.013435 0.000000
v 0.013435 -0.013435 0.160000
v 0.016454 -0.009500 0.000000
v 0.016454 -0.009500 0.160000
v 0.018353 -0.004918 0.000000
v 0.018353 -0.004918 0.160000
v 0.000000 0.000000 0.160000
v 0.019000 0.000000 0.160000
v 0.018353 0.004918 0.160000
v 0.016454 0.009500 0.160000
v 0.013435 0.013435 0.160000
v 0.009500 0.016454 0.160000
v 0.004918 0.018353 0.160000
v 0.000000 0.019000 0.160000
v -0.004918 0.018353 0.160000
v -0.009500 0.016454 0.160000
v -0.013435 0.013435 0.160000
v -0.016454 0.009500 0.160000
v -0.018353 0.004918 0.160000
v -0.019000 0.000000 0.160000
v -0.018353 -0.004918 0.160000
v -0.016454 -0.009500 0.160000
v -0.013435 -0.013435 0.160000
v -0.009500 -0.016454 0.160000
v -0.004918 -0.018353 0.160000
v -0.000000 -0.019000 0.160000
v 0.004918 -0.018353 0.160000
v 0.009500 -0.016454 0.160000
v 0.013435 -0.013435 0.160000
v 0.016454 -0.009500 0.160000
v 0.018353 -0.004918 0.160000
v 0.000000 0.000000 0.000000
v 0.019000 0.000000 0.000000
v 0.018353 0.004918 0.000000
v 0.016454 0.009500 0.000000
v 0.013435 0.013435 0.000000
v 0.009500 0.016454 0.000000
v 0.004918 0.018353 0.000000
v 0.000000 0.019000 0.000000
v -0.004918 0.018353 0.000000
v -0.009500 0.016454 0.000000
v -0.013435 0.013435 0.000000
v -0.016454 0.009500 0.000000
v -0.018353 0.004918 0.000000
v -0.019000 0.000000 0.000000
v -0.018353 -0.004918 0.000000
v -0.016454 -0.009500 0.000000
v -0.013435 -0.013435 0.000000
v -0.009500 -0.016454 0.000000
v -0.004918 -0.018353 0.000000
v -0.000000 -0.019000 0.000000
v 0.004918 -0.018353 0.000000
v 0.009500 -0.016454 0.000000
v 0.013435 -0.013435 0.000000
v 0.016454 -0.009500 0.000000
v 0.018353 -0.004918 0.000000
v 0.028000 0.000000 0.000000
v 0.028000 0.000000 0.012000
v 0.027046 0.007247 0.000000
v 0.027046 0.007247 0.012000
v 0.024249 0.014000 0.000000
v 0.024249 0.014000 0.012000
v 0.019799 0.019799 0.000000
v 0.019799 0.019799 0.012000
v 0.014000 0.024249 0.000000
v 0.014000 0.024249 0.012000
v 0.007247 0.027046 0.000000
v 0.007247 0.027046 0.012000
v 0.000000 0.028000 0.000000
v 0.000000 0.028000 0.012000
v -0.007247 0.027046 0.000000
v -0.007247 0.027046 0.012000
v -0.014000 0.024249 0.000000
v -0.014000 0.024249 0.012000
v -0.019799 0.019799 0.000000
v -0.019799 0.019799 0.012000
v -0.024249 0.014000 0.000000
v -0.024249 0.014000 0.012000
v -0.027046 0.007247 0.000000
v -0.027046 0.007247 0.012000
v -0.028000 0.000000 0.000000
v -0.028000 0.000000 0.012000
v -0.027046 -0.007247 0.000000
v -0.027046 -0.007247 0.012000
v -0.024249 -0.014000 0.000000
v -0.024249 -0.014000 0.012000
v -0.019799 -0.019799 0.000000
v -0.019799 -0.019799 0.012000
v -0.014000 -0.024249 0.000000
v -0.014000 -0.024249 0.012000
v -0.007247 -0.027046 0.000000
v -0.007247 -0.027046 0.012000
v -0.000000 -0.028000 0.000000
v -0.000000 -0.028000 0.012000
v 0.007247 -0.027046 0.000000
v 0.007247 -0.027046 0.012000
v 0.014000 -0.024249 0.000000
v 0.014000 -0.024249 0.012000
v 0.019799 -0.019799 0.000000
v 0.019799 -0.019799 0.012000
v 0.024249 -0.014000 0.000000
v 0.024249 -0.014000 0.012000
v 0.027046 -0.007247 0.000000
v 0.027046 -0.007247 0.012000
v 0.000000 0.000000 0.012000
v 0.028000 0.000000 0.012000
v 0.027046 0.007247 0.012000
v 0.024249 0.014000 0.012000
v 0.019799 0.019799 0.012000
v 0.014000 0.024249 0.012000
v 0.007247 0.027046 0.012000
v 0.000000 0.028000 0.012000
v -0.007247 0.027046 0.012000
v -0.014000 0.024249 0.012000
v -0.019799 0.019799 0.012000
v -0.024249 0.014000 0.012000
v -0.027046 0.007247 0.012000
v -0.028000 0.000000 0.012000
v -0.027046 -0.007247 0.012000
v -0.024249 -0.014000 0.012000
v -0.019799 -0.019799 0.012000
v -0.014000 -0.024249 0.012000
v -0.007247 -0.027046 0.012000
v -0.000000 -0.028000 0.012000
v 0.007247 -0.027046 0.012000
v 0.014000 -0.024249 0.012000
v 0.019799 -0.019799 0.012000
v 0.024249 -0.014000 0.012000
v 0.027046 -0.007247 0.012000
v 0.000000 0.000000 0.000000
v 0.028000 0.000000 0.000000
v 0.027046 0.007247 0.000000
v 0.024249 0.014000 0.000000
v 0.019799 0.019799 0.000000
v 0.014000 0.024249 0.000000
v 0.007247 0.027046 0.000000
v 0.000000 0.028000 0.000000
v -0.007247 0.027046 0.000000
v -0.014000 0.024249 0.000000
v -0.019799 0.019799 0.000000
v -0.024249 0.014000 0.000000
v -0.027046 0.007247 0.000000
v -0.028000 0.000000 0.000000
v -0.027046 -0.007247 0.000000
v -0.024249 -0.014000 0.000000
v -0.019799 -0.019799 0.000000
v -0.014000 -0.024249 0.000000
v -0.007247 -0.027046 0.000000
v -0.000000 -0.028000 0.000000
v 0.007247 -0.027046 0.000000
v 0.014000 -0.024249 0.000000
v 0.019799 -0.019799 0.000000
v 0.024249 -0.014000 0.000000
v 0.027046 -0.007247 0.000000
v 0.028000 0.000000 0.148000
v 0.028000 0.000000 0.160000
v 0.027046 0.007247 0.148000
v 0.027046 0.007247 0.160000
v 0.024249 0.014000 0.148000
v 0.024249 0.014000 0.160000
v 0.019799 0.019799 0.148000
v 0.019799 0.019799 0.160000
v 0.014000 0.024249 0.148000
v 0.014000 0.024249 0.160000
v 0.007247 0.027046 0.148000
v 0.007247 0.027046 0.160000
v 0.000000 0.028000 0.148000
v 0.000000 0.028000 0.160000
v -0.007247 0.027046 0.148000
v -0.007247 0.027046 0.160000
v -0.014000 0.024249 0.148000
v -0.014000 0.024249 0.160000
v -0.019799 0.019799 0.148000
v -0.019799 0.019799 0.160000
v -0.024249 0.014000 0.148000
v -0.024249 0.014000 0.160000
v -0.027046 0.007247 0.148000
v -0.027046 0.007247 0.160000
v -0.028000 0.000000 0.148000
v -0.028000 0.000000 0.160000
v -0.027046 -0.007247 0.148000
v -0.027046 -0.007247 0.160000
v -0.024249 -0.014000 0.148000
v -0.024249 -0.014000 0.160000
v -0.019799 -0.019799 0.148000
v -0.019799 -0.019799 0.160000
v -0.014000 -0.024249 0.148000
v -0.014000 -0.024249 0.160000
v -0.007247 -0.027046 0.148000
v -0.007247 -0.027046 0.160000
v -0.000000 -0.028000 0.148000
v -0.000000 -0.028000 0.160000
v 0.007247 -0.027046 0.148000
v 0.007247 -0.027046 0.160000
v 0.014000 -0.024249 0.148000
v 0.014000 -0.024249 0.160000
v 0.019799 -0.019799 0.148000
v 0.019799 -0.019799 0.160000
v 0.024249 -0.014000 0.148000
v 0.024249 -0.014000 0.160000
v 0.027046 -0.007247 0.148000
v 0.027046 -0.007247 0.160000
v 0.000000 0.000000 0.160000
v 0.028000 0.000000 0.160000
v 0.027046 0.007247 0.160000
v 0.024249 0.014000 0.160000
v 0.019799 0.019799 0.160000
v 0.014000 0.024249 0.160000
v 0.007247 0.027046 0.160000
v 0.000000 0.028000 0.160000
v -0.007247 0.027046 0.160000
v -0.014000 0.024249 0.160000
v -0.019799 0.019799 0.160000
v -0.024249 0.014000 0.160000
v -0.027046 0.007247 0.160000
v -0.028000 0.000000 0.160000
v -0.027046 -0.007247 0.160000
v -0.024249 -0.014000 0.160000
v -0.019799 -0.019799 0.160000
v -0.014000 -0.024249 0.160000
v -0.007247 -0.027046 0.160000
v -0.000000 -0.028000 0.160000
v 0.007247 -0.027046 0.160000
v 0.014000 -0.024249 0.160000
v 0.019799 -0.019799 0.160000
v 0.024249 -0.014000 0.160000
v 0.027046 -0.007247 0.160000
v 0.000000 0.000000 0.148000
v 0.028000 0.000000 0.148000
v 0.027046 0.007247 0.148000
v 0.024249 0.014000 0.148000
v 0.019799 0.019799 0.148000
v 0.014000 0.024249 0.148000
v 0.007247 0.027046 0.148000
v 0.000000 0.028000 0.148000
v -0.007247 0.027046 0.148000
v -0.014000 0.024249 0.148000
v -0.019799 0.019799 0.148000
v -0.024249 0.014000 0.148000
v -0.027046 0.007247 0.148000
v -0.028000 0.000000 0.148000
v -0.027046 -0.007247 0.148000
v -0.024249 -0.014000 0.148000
v -0.019799 -0.019799 0.148000
v -0.014000 -0.024249 0.148000
v -0.007247 -0.027046 0.148000
v -0.000000 -0.028000 0.148000
v 0.007247 -0.027046 0.148000
v 0.014000 -0.024249 0.148000
v 0.019799 -0.019799 0.148000
v 0.024249 -0.014000 0.148000
v 0.027046 -0.007247 0.148000
v 0.034000 0.000000 0.057500
v 0.034000 0.000000 0.102500
v 0.031412 0.013011 0.057500
v 0.031412 0.013011 0.102500
v 0.024042 0.024042 0.057500
v 0.024042 0.024042 0.102500
v 0.013011 0.031412 0.057500
v 0.013011 0.031412 0.102500
v 0.000000 0.034000 0.057500
v 0.000000 0.034000 0.102500
v -0.013011 0.031412 0.057500
v -0.013011 0.031412 0.102500
v -0.024042 0.024042 0.057500
v -0.024042 0.024042 0.102500
v -0.031412 0.013011 0.057500
v -0.031412 0.013011 0.102500
v -0.034000 0.000000 0.057500
v -0.034000 0.000000 0.102500
v -0.031412 -0.013011 0.057500
v -0.031412 -0.013011 0.102500
v -0.024042 -0.024042 0.057500
v -0.024042 -0.024042 0.102500
v -0.013011 -0.031412 0.057500
v -0.013011 -0.031412 0.102500
v -0.000000 -0.034000 0.057500
v -0.000000 -0.034000 0.102500
v 0.013011 -0.031412 0.057500
v 0.013011 -0.031412 0.102500
v 0.024042 -0.024042 0.057500
v 0.024042 -0.024042 0.102500
v 0.031412 -0.013011 0.057500
v 0.031412 -0.013011 0.102500
v 0.000000 0.000000 0.102500
v 0.034000 0.000000 0.102500
v 0.031412 0.013011 0.102500
v 0.024042 0.024042 0.102500
v 0.013011 0.031412 0.102500
v 0.000000 0.034000 0.102500
v -0.013011 0.031412 0.102500
v -0.024042 0.024042 0.102500
v -0.031412 0.013011 0.102500
v -0.034000 0.000000 0.102500
v -0.031412 -0.013011 0.102500
v -0.024042 -0.024042 0.102500
v -0.013011 -0.031412 0.102500
v -0.000000 -0.034000 0.102500
v 0.013011 -0.031412 0.102500
v 0.024042 -0.024042 0.102500
v 0.031412 -0.013011 0.102500
v 0.000000 0.000000 0.057500
v 0.034000 0.000000 0.057500
v 0.031412 0.013011 0.057500
v 0.024042 0.024042 0.057500
v 0.013011 0.031412 0.057500
v 0.000000 0.034000 0.057500
v -0.013011 0.031412 0.057500
v -0.024042 0.024042 0.057500
v -0.031412 0.013011 0.057500
v -0.034000 0.000000 0.057500
v -0.031412 -0.013011 0.057500
v -0.024042 -0.024042 0.057500
v -0.013011 -0.031412 0.057500
v -0.000000 -0.034000 0.057500
v 0.013011 -0.031412 0.057500
v 0.024042 -0.024042 0.057500
v 0.031412 -0.013011 0.057500
v 0.010000 0.000000 0.071000
v 0.060000 0.000000 0.071000
v 0.010000 0.004500 0.072206
v 0.060000 0.004500 0.072206
v 0.010000 0.007794 0.075500
v 0.060000 0.007794 0.075500
v 0.010000 0.009000 0.080000
v 0.060000 0.009000 0.080000
v 0.010000 0.007794 0.084500
v 0.060000 0.007794 0.084500
v 0.010000 0.004500 0.087794
v 0.060000 0.004500 0.087794
v 0.010000 0.000000 0.089000
v 0.060000 0.000000 0.089000
v 0.010000 -0.004500 0.087794
v 0.060000 -0.004500 0.087794
v 0.010000 -0.007794 0.084500
v 0.060000 -0.007794 0.084500
v 0.010000 -0.009000 0.080000
v 0.060000 -0.009000 0.080000
v 0.010000 -0.007794 0.075500
v 0.060000 -0.007794 0.075500
v 0.010000 -0.004500 0.072206
v 0.060000 -0.004500 0.072206
v 0.060000 0.000000 0.080000
v 0.060000 0.000000 0.071000
v 0.060000 0.004500 0.072206
v 0.060000 0.007794 0.075500
v 0.060000 0.009000 0.080000
v 0.060000 0.007794 0.084500
v 0.060000 0.004500 0.087794
v 0.060000 0.000000 0.089000
v 0.060000 -0.004500 0.087794
v 0.060000 -0.007794 0.084500
v 0.060000 -0.009000 0.080000
v 0.060000 -0.007794 0.075500
v 0.060000 -0.004500 0.072206
v 0.010000 0.000000 0.080000
v 0.010000 0.000000 0.071000
v 0.010000 0.004500 0.072206
v 0.010000 0.007794 0.075500
v 0.010000 0.009000 0.080000
v 0.010000 0.007794 0.084500
v 0.010000 0.004500 0.087794
v 0.010000 0.000000 0.089000
v 0.010000 -0.004500 0.087794
v 0.010000 -0.007794 0.084500
v 0.010000 -0.009000 0.080000
v 0.010000 -0.007794 0.075500
v 0.010000 -0.004500 0.072206
v 0.055000 0.000000 0.035000
v 0.065000 0.000000 0.035000
v 0.055000 0.011647 0.036533
v 0.065000 0.011647 0.036533
v 0.055000 0.022500 0.041029
v 0.065000 0.022500 0.041029
v 0.055000 0.031820 0.048180
v 0.065000 0.031820 0.048180
v 0.055000 0.038971 0.057500
v 0.065000 0.038971 0.057500
v 0.055000 0.043467 0.068353
v 0.065000 0.043467 0.068353
v 0.055000 0.045000 0.080000
v 0.065000 0.045000 0.080000
v 0.055000 0.043467 0.091647
v 0.065000 0.043467 0.091647
v 0.055000 0.038971 0.102500
v 0.065000 0.038971 0.102500
v 0.055000 0.031820 0.111820
v 0.065000 0.031820 0.111820
v 0.055000 0.022500 0.118971
v 0.065000 0.022500 0.118971
v 0.055000 0.011647 0.123467
v 0.065000 0.011647 0.123467
v 0.055000 0.000000 0.125000
v 0.065000 0.000000 0.125000
v 0.055000 -0.011647 0.123467
v 0.065000 -0.011647 0.123467
v 0.055000 -0.022500 0.118971
v 0.065000 -0.022500 0.118971
v 0.055000 -0.031820 0.111820
v 0.065000 -0.031820 0.111820
v 0.055000 -0.038971 0.102500
v 0.065000 -0.038971 0.102500
v 0.055000 -0.043467 0.091647
v 0.065000 -0.043467 0.091647
v 0.055000 -0.045000 0.080000
v 0.065000 -0.045000 0.080000
v 0.055000 -0.043467 0.068353
v 0.065000 -0.043467 0.068353
v 0.055000 -0.038971 0.057500
v 0.065000 -0.038971 0.057500
v 0.055000 -0.031820 0.048180
v 0.065000 -0.031820 0.048180
v 0.055000 -0.022500 0.041029
v 0.065000 -0.022500 0.041029
v 0.055000 -0.011647 0.036533
v 0.065000 -0.011647 0.036533
v 0.065000 0.000000 0.080000
v 0.065000 0.000000 0.035000
v 0.065000 0.011647 0.036533
v 0.065000 0.022500 0.041029
v 0.065000 0.031820 0.048180
v 0.065000 0.038971 0.057500
v 0.065000 0.043467 0.068353
v 0.065000 0.045000 0.080000
v 0.065000 0.043467 0.091647
v 0.065000 0.038971 0.102500
v 0.065000 0.031820 0.111820
v 0.065000 0.022500 0.118971
v 0.065000 0.011647 0.123467
v 0.065000 0.000000 0.125000
v 0.065000 -0.011647 0.123467
v 0.065000 -0.022500 0.118971
v 0.065000 -0.031820 0.111820
v 0.065000 -0.038971 0.102500
v 0.065000 -0.043467 0.091647
v 0.065000 -0.045000 0.080000
v 0.065000 -0.043467 0.068353
v 0.065000 -0.038971 0.057500
v 0.065000 -0.031820 0.048180
v 0.065000 -0.022500 0.041029
v 0.065000 -0.011647 0.036533
v 0.055000 0.000000 0.080000
v 0.055000 0.000000 0.035000
v 0.055000 0.011647 0.036533
v 0.055000 0.022500 0.041029
v 0.055000 0.031820 0.048180
v 0.055000 0.038971 0.057500
v 0.055000 0.043467 0.068353
v 0.055000 0.045000 0.080000
v 0.055000 0.043467 0.091647
v 0.055000 0.038971 0.102500
v 0.055000 0.031820 0.111820
v 0.055000 0.022500 0.118971
v 0.055000 0.011647 0.123467
v 0.055000 0.000000 0.125000
v 0.055000 -0.011647 0.123467
v 0.055000 -0.022500 0.118971
v 0.055000 -0.031820 0.111820
v 0.055000 -0.038971 0.102500
v 0.055000 -0.043467 0.091647
v 0.055000 -0.045000 0.080000
v 0.055000 -0.043467 0.068353
v 0.055000 -0.038971 0.057500
v 0.055000 -0.031820 0.048180
v 0.055000 -0.022500 0.041029
v 0.055000 -0.011647 0.036533
v 0.054000 0.000000 0.068000
v 0.066000 0.000000 0.068000
v 0.054000 0.006000 0.069608
v 0.066000 0.006000 0.069608
v 0.054000 0.010392 0.074000
v 0.066000 0.010392 0.074000
v 0.054000 0.012000 0.080000
v 0.066000 0.012000 0.080000
v 0.054000 0.010392 0.086000
v 0.066000 0.010392 0.086000
v 0.054000 0.006000 0.090392
v 0.066000 0.006000 0.090392
v 0.054000 0.000000 0.092000
v 0.066000 0.000000 0.092000
v 0.054000 -0.006000 0.090392
v 0.066000 -0.006000 0.090392
v 0.054000 -0.010392 0.086000
v 0.066000 -0.010392 0.086000
v 0.054000 -0.012000 0.080000
v 0.066000 -0.012000 0.080000
v 0.054000 -0.010392 0.074000
v 0.066000 -0.010392 0.074000
v 0.054000 -0.006000 0.069608
v 0.066000 -0.006000 0.069608
v 0.066000 0.000000 0.080000
v 0.066000 0.000000 0.068000
v 0.066000 0.006000 0.069608
v 0.066000 0.010392 0.074000
v 0.066000 0.012000 0.080000
v 0.066000 0.010392 0.086000
v 0.066000 0.006000 0.090392
v 0.066000 0.000000 0.092000
v 0.066000 -0.006000 0.090392
v 0.066000 -0.010392 0.086000
v 0.066000 -0.012000 0.080000
v 0.066000 -0.010392 0.074000
v 0.066000 -0.006000 0.069608
v 0.054000 0.000000 0.080000
v 0.054000 0.000000 0.068000
v 0.054000 0.006000 0.069608
v 0.054000 0.010392 0.074000
v 0.054000 0.012000 0.080000
v 0.054000 0.010392 0.086000
v 0.054000 0.006000 0.090392
v 0.054000 0.000000 0.092000
v 0.054000 -0.006000 0.090392
v 0.054000 -0.010392 0.086000
v 0.054000 -0.012000 0.080000
v 0.054000 -0.010392 0.074000
v 0.054000 -0.006000 0.069608
vt 0.000000 0.000000
vt 0.000000 1.000000
vt 0.041667 0.000000
vt 0.041667 1.000000
vt 0.083333 0.000000
vt 0.083333 1.000000
vt 0.125000 0.000000
vt 0.125000 1.000000
vt 0.166667 0.000000
vt 0.166667 1.000000
vt 0.208333 0.000000
vt 0.208333 1.000000
vt 0.250000 0.000000
vt 0.250000 1.000000
vt 0.291667 0.000000
vt 0.291667 1.000000
vt 0.333333 0.000000
vt 0.333333 1.000000
vt 0.375000 0.000000
vt 0.375000 1.000000
vt 0.416667 0.000000
vt 0.416667 1.000000
vt 0.458333 0.000000
vt 0.458333 1.000000
vt 0.500000 0.000000
vt 0.500000 1.000000
vt 0.541667 0.000000
vt 0.541667 1.000000
vt 0.583333 0.000000
vt 0.583333 1.000000
vt 0.625000 0.000000
vt 0.625000 1.000000
vt 0.666667 0.000000
vt 0.666667 1.000000
vt 0.708333 0.000000
vt 0.708333 1.000000
vt 0.750000 0.000000
vt 0.750000 1.000000
vt 0.791667 0.000000
vt 0.791667 1.000000
vt 0.833333 0.000000
vt 0.833333 1.000000
vt 0.875000 0.000000
vt 0.875000 1.000000
vt 0.916667 0.000000
vt 0.916667 1.000000
vt 0.958333 0.000000
vt 0.958333 1.000000
vt 0.500000 0.500000
vt 1.000000 0.500000
vt 0.982963 0.629410
vt 0.933013 0.750000
vt 0.853553 0.853553
vt 0.750000 0.933013
vt 0.629410 0.982963
vt 0.500000 1.000000
vt 0.370590 0.982963
vt 0.250000 0.933013
vt 0.146447 0.853553
vt 0.066987 0.750000
vt 0.017037 0.629410
vt 0.000000 0.500000
vt 0.017037 0.370590
vt 0.066987 0.250000
vt 0.146447 0.146447
vt 0.250000 0.066987
vt 0.370590 0.017037
vt 0.500000 0.000000
vt 0.629410 0.017037
vt 0.750000 0.066987
vt 0.853553 0.146447
vt 0.933013 0.250000
vt 0.982963 0.370590
vt 0.500000 0.500000
vt 1.000000 0.500000
vt 0.982963 0.629410
vt 0.933013 0.750000
vt 0.853553 0.853553
vt 0.750000 0.933013
vt 0.629410 0.982963
vt 0.500000 1.000000
vt 0.370590 0.982963
vt 0.250000 0.933013
vt 0.146447 0.853553
vt 0.066987 0.750000
vt 0.017037 0.629410
vt 0.000000 0.500000
vt 0.017037 0.370590
vt 0.066987 0.250000
vt 0.146447 0.146447
vt 0.250000 0.066987
vt 0.370590 0.017037
vt 0.500000 0.000000
vt 0.629410 0.017037
vt 0.750000 0.066987
vt 0.853553 0.146447
vt 0.933013 0.250000
vt 0.982963 0.370590
vt 0.000000 0.000000
vt 0.000000 1.000000
vt 0.041667 0.000000
vt 0.041667 1.000000
vt 0.083333 0.000000
vt 0.083333 1.000000
vt 0.125000 0.000000
vt 0.125000 1.000000
vt 0.166667 0.000000
vt 0.166667 1.000000
vt 0.208333 0.000000
vt 0.208333 1.000000
vt 0.250000 0.000000
vt 0.250000 1.000000
vt 0.291667 0.000000
vt 0.291667 1.000000
vt 0.333333 0.000000
vt 0.333333 1.000000
vt 0.375000 0.000000
vt 0.375000 1.000000
vt 0.416667 0.000000
vt 0.416667 1.000000
vt 0.458333 0.000000
vt 0.458333 1.000000
vt 0.500000 0.000000
vt 0.500000 1.000000
vt 0.541667 0.000000
vt 0.541667 1.000000
vt 0.583333 0.000000
vt 0.583333 1.000000
vt 0.625000 0.000000
vt 0.625000 1.000000
vt 0.666667 0.000000
vt 0.666667 1.000000
vt 0.708333 0.000000
vt 0.708333 1.000000
vt 0.750000 0.000000
vt 0.750000 1.000000
vt 0.791667 0.000000
vt 0.791667 1.000000
vt 0.833333 0.000000
vt 0.833333 1.000000
vt 0.875000 0.000000
vt 0.875000 1.000000
vt 0.916667 0.000000
vt 0.916667 1.000000
vt 0.958333 0.000000
vt 0.958333 1.000000
vt 0.500000 0.500000
vt 1.000000 0.500000
vt 0.982963 0.629410
vt 0.933013 0.750000
vt 0.853553 0.853553
vt 0.750000 0.933013
vt 0.629410 0.982963
vt 0.500000 1.000000
vt 0.370590 0.982963
vt 0.250000 0.933013
vt 0.146447 0.853553
vt 0.066987 0.750000
vt 0.017037 0.629410
vt 0.000000 0.500000
vt 0.017037 0.370590
vt 0.066987 0.250000
vt 0.146447 0.146447
vt 0.250000 0.066987
vt 0.370590 0.017037
vt 0.500000 0.000000
vt 0.629410 0.017037
vt 0.750000 0.066987
vt 0.853553 0.146447
vt 0.933013 0.250000
vt 0.982963 0.370590
vt 0.500000 0.500000
vt 1.000000 0.500000
vt 0.982963 0.629410
vt 0.933013 0.750000
vt 0.853553 0.853553
vt 0.750000 0.933013
vt 0.629410 0.982963
vt 0.500000 1.000000
vt 0.370590 0.982963
vt 0.250000 0.933013
vt 0.146447 0.853553
vt 0.066987 0.750000
vt 0.017037 0.629410
vt 0.000000 0.500000
vt 0.017037 0.370590
vt 0.066987 0.250000
vt 0.146447 0.146447
vt 0.250000 0.066987
vt 0.370590 0.017037
vt 0.500000 0.000000
vt 0.629410 0.017037
vt 0.750000 0.066987
vt 0.853553 0.146447
vt 0.933013 0.250000
vt 0.982963 0.370590
vt 0.000000 0.000000
vt 0.000000 1.000000
vt 0.041667 0.000000
vt 0.041667 1.000000
vt 0.083333 0.000000
vt 0.083333 1.000000
vt 0.125000 0.000000
vt 0.125000 1.000000
vt 0.166667 0.000000
vt 0.166667 1.000000
vt 0.208333 0.000000
vt 0.208333 1.000000
vt 0.250000 0.000000
vt 0.250000 1.000000
vt 0.291667 0.000000
vt 0.291667 1.000000
vt 0.333333 0.000000
vt 0.333333 1.000000
vt 0.375000 0.000000
vt 0.375000 1.000000
vt 0.416667 0.000000
vt 0.416667 1.000000
vt 0.458333 0.000000
vt 0.458333 1.000000
vt 0.500000 0.000000
vt 0.500000 1.000000
vt 0.541667 0.000000
vt 0.541667 1.000000
vt 0.583333 0.000000
vt 0.583333 1.000000
vt 0.625000 0.000000
vt 0.625000 1.000000
vt 0.666667 0.000000
vt 0.666667 1.000000
vt 0.708333 0.000000
vt 0.708333 1.000000
vt 0.750000 0.000000
vt 0.750000 1.000000
vt 0.791667 0.000000
vt 0.791667 1.000000
vt 0.833333 0.000000
vt 0.833333 1.000000
vt 0.875000 0.000000
vt 0.875000 1.000000
vt 0.916667 0.000000
vt 0.916667 1.000000
vt 0.958333 0.000000
vt 0.958333 1.000000
vt 0.500000 0.500000
vt 1.000000 0.500000
vt 0.982963 0.629410
vt 0.933013 0.750000
vt 0.853553 0.853553
vt 0.750000 0.933013
vt 0.629410 0.982963
vt 0.500000 1.000000
vt 0.370590 0.982963
vt 0.250000 0.933013
vt 0.146447 0.853553
vt 0.066987 0.750000
vt 0.017037 0.629410
vt 0.000000 0.500000
vt 0.017037 0.370590
vt 0.066987 0.250000
vt 0.146447 0.146447
vt 0.250000 0.066987
vt 0.370590 0.017037
vt 0.500000 0.000000
vt 0.629410 0.017037
vt 0.750000 0.066987
vt 0.853553 0.146447
vt 0.933013 0.250000
vt 0.982963 0.370590
vt 0.500000 0.500000
vt 1.000000 0.500000
vt 0.982963 0.629410
vt 0.933013 0.750000
vt 0.853553 0.853553
vt 0.750000 0.933013
vt 0.629410 0.982963
vt 0.500000 1.000000
vt 0.370590 0.982963
vt 0.250000 0.933013
vt 0.146447 0.853553
vt 0.066987 0.750000
vt 0.017037 0.629410
vt 0.000000 0.500000
vt 0.017037 0.370590
vt 0.066987 0.250000
vt 0.146447 0.146447
vt 0.250000 0.066987
vt 0.370590 0.017037
vt 0.500000 0.000000
vt 0.629410 0.017037
vt 0.750000 0.066987
vt 0.853553 0.146447
vt 0.933013 0.250000
vt 0.982963 0.370590
vt 0.000000 0.000000
vt 0.000000 1.000000
vt 0.062500 0.000000
vt 0.062500 1.000000
vt 0.125000 0.000000
vt 0.125000 1.000000
vt 0.187500 0.000000
vt 0.187500 1.000000
vt 0.250000 0.000000
vt 0.250000 1.000000
vt 0.312500 0.000000
vt 0.312500 1.000000
vt 0.375000 0.000000
vt 0.375000 1.000000
vt 0.437500 0.000000
vt 0.437500 1.000000
vt 0.500000 0.000000
vt 0.500000 1.000000
vt 0.562500 0.000000
vt 0.562500 1.000000
vt 0.625000 0.000000
vt 0.625000 1.000000
vt 0.687500 0.000000
vt 0.687500 1.000000
vt 0.750000 0.000000
vt 0.750000 1.000000
vt 0.812500 0.000000
vt 0.812500 1.000000
vt 0.875000 0.000000
vt 0.875000 1.000000
vt 0.937500 0.000000
vt 0.937500 1.000000
vt 0.500000 0.500000
vt 1.000000 0.500000
vt 0.961940 0.691342
vt 0.853553 0.853553
vt 0.691342 0.961940
vt 0.500000 1.000000
vt 0.308658 0.961940
vt 0.146447 0.853553
vt 0.038060 0.691342
vt 0.000000 0.500000
vt 0.038060 0.308658
vt 0.146447 0.146447
vt 0.308658 0.038060
vt 0.500000 0.000000
vt 0.691342 0.038060
vt 0.853553 0.146447
vt 0.961940 0.308658
vt 0.500000 0.500000
vt 1.000000 0.500000
vt 0.961940 0.691342
vt 0.853553 0.853553
vt 0.691342 0.961940
vt 0.500000 1.000000
vt 0.308658 0.961940
vt 0.146447 0.853553
vt 0.038060 0.691342
vt 0.000000 0.500000
vt 0.038060 0.308658
vt 0.146447 0.146447
vt 0.308658 0.038060
vt 0.500000 0.000000
vt 0.691342 0.038060
vt 0.853553 0.146447
vt 0.961940 0.308658
vt 0.000000 0.000000
vt 0.000000 1.000000
vt 0.083333 0.000000
vt 0.083333 1.000000
vt 0.166667 0.000000
vt 0.166667 1.000000
vt 0.250000 0.000000
vt 0.250000 1.000000
vt 0.333333 0.000000
vt 0.333333 1.000000
vt 0.416667 0.000000
vt 0.416667 1.000000
vt 0.500000 0.000000
vt 0.500000 1.000000
vt 0.583333 0.000000
vt 0.583333 1.000000
vt 0.666667 0.000000
vt 0.666667 1.000000
vt 0.750000 0.000000
vt 0.750000 1.000000
vt 0.833333 0.000000
vt 0.833333 1.000000
vt 0.916667 0.000000
vt 0.916667 1.000000
vt 0.500000 0.500000
vt 1.000000 0.500000
vt 0.933013 0.750000
vt 0.750000 0.933013
vt 0.500000 1.000000
vt 0.250000 0.933013
vt 0.066987 0.750000
vt 0.000000 0.500000
vt 0.066987 0.250000
vt 0.250000 0.066987
vt 0.500000 0.000000
vt 0.750000 0.066987
vt 0.933013 0.250000
vt 0.500000 0.500000
vt 1.000000 0.500000
vt 0.933013 0.750000
vt 0.750000 0.933013
vt 0.500000 1.000000
vt 0.250000 0.933013
vt 0.066987 0.750000
vt 0.000000 0.500000
vt 0.066987 0.250000
vt 0.250000 0.066987
vt 0.500000 0.000000
vt 0.750000 0.066987
vt 0.933013 0.250000
vt 0.000000 0.000000
vt 0.000000 1.000000
vt 0.041667 0.000000
vt 0.041667 1.000000
vt 0.083333 0.000000
vt 0.083333 1.000000
vt 0.125000 0.000000
vt 0.125000 1.000000
vt 0.166667 0.000000
vt 0.166667 1.000000
vt 0.208333 0.000000
vt 0.208333 1.000000
vt 0.250000 0.000000
vt 0.250000 1.000000
vt 0.291667 0.000000
vt 0.291667 1.000000
vt 0.333333 0.000000
vt 0.333333 1.000000
vt 0.375000 0.000000
vt 0.375000 1.000000
vt 0.416667 0.000000
vt 0.416667 1.000000
vt 0.458333 0.000000
vt 0.458333 1.000000
vt 0.500000 0.000000
vt 0.500000 1.000000
vt 0.541667 0.000000
vt 0.541667 1.000000
vt 0.583333 0.000000
vt 0.583333 1.000000
vt 0.625000 0.000000
vt 0.625000 1.000000
vt 0.666667 0.000000
vt 0.666667 1.000000
vt 0.708333 0.000000
vt 0.708333 1.000000
vt 0.750000 0.000000
vt 0.750000 1.000000
vt 0.791667 0.000000
vt 0.791667 1.000000
vt 0.833333 0.000000
vt 0.833333 1.000000
vt 0.875000 0.000000
vt 0.875000 1.000000
vt 0.916667 0.000000
vt 0.916667 1.000000
vt 0.958333 0.000000
vt 0.958333 1.000000
vt 0.500000 0.500000
vt 1.000000 0.500000
vt 0.982963 0.629410
vt 0.933013 0.750000
vt 0.853553 0.853553
vt 0.750000 0.933013
vt 0.629410 0.982963
vt 0.500000 1.000000
vt 0.370590 0.982963
vt 0.250000 0.933013
vt 0.146447 0.853553
vt 0.066987 0.750000
vt 0.017037 0.629410
vt 0.000000 0.500000
vt 0.017037 0.370590
vt 0.066987 0.250000
vt 0.146447 0.146447
vt 0.250000 0.066987
vt 0.370590 0.017037
vt 0.500000 0.000000
vt 0.629410 0.017037
vt 0.750000 0.066987
vt 0.853553 0.146447
vt 0.933013 0.250000
vt 0.982963 0.370590
vt 0.500000 0.500000
vt 1.000000 0.500000
vt 0.982963 0.629410
vt 0.933013 0.750000
vt 0.853553 0.853553
vt 0.750000 0.933013
vt 0.629410 0.982963
vt 0.500000 1.000000
vt 0.370590 0.982963
vt 0.250000 0.933013
vt 0.146447 0.853553
vt 0.066987 0.750000
vt 0.017037 0.629410
vt 0.000000 0.500000
vt 0.017037 0.370590
vt 0.066987 0.250000
vt 0.146447 0.146447
vt 0.250000 0.066987
vt 0.370590 0.017037
vt 0.500000 0.000000
vt 0.629410 0.017037
vt 0.750000 0.066987
vt 0.853553 0.146447
vt 0.933013 0.250000
vt 0.982963 0.370590
vt 0.000000 0.000000
vt 0.000000 1.000000
vt 0.083333 0.000000
vt 0.083333 1.000000
vt 0.166667 0.000000
vt 0.166667 1.000000
vt 0.250000 0.000000
vt 0.250000 1.000000
vt 0.333333 0.000000
vt 0.333333 1.000000
vt 0.416667 0.000000
vt 0.416667 1.000000
vt 0.500000 0.000000
vt 0.500000 1.000000
vt 0.583333 0.000000
vt 0.583333 1.000000
vt 0.666667 0.000000
vt 0.666667 1.000000
vt 0.750000 0.000000
vt 0.750000 1.000000
vt 0.833333 0.000000
vt 0.833333 1.000000
vt 0.916667 0.000000
vt 0.916667 1.000000
vt 0.500000 0.500000
vt 1.000000 0.500000
vt 0.933013 0.750000
vt 0.750000 0.933013
vt 0.500000 1.000000
vt 0.250000 0.933013
vt 0.066987 0.750000
vt 0.000000 0.500000
vt 0.066987 0.250000
vt 0.250000 0.066987
vt 0.500000 0.000000
vt 0.750000 0.066987
vt 0.933013 0.250000
vt 0.500000 0.500000
vt 1.000000 0.500000
vt 0.933013 0.750000
vt 0.750000 0.933013
vt 0.500000 1.000000
vt 0.250000 0.933013
vt 0.066987 0.750000
vt 0.000000 0.500000
vt 0.066987 0.250000
vt 0.250000 0.066987
vt 0.500000 0.000000
vt 0.750000 0.066987
vt 0.933013 0.250000
vn 1.000000 0.000000 0.000000
vn 1.000000 0.000000 0.000000
vn 0.965926 0.258819 0.000000
vn 0.965926 0.258819 0.000000
vn 0.866025 0.500000 0.000000
vn 0.866025 0.500000 0.000000
vn 0.707107 0.707107 0.000000
vn 0.707107 0.707107 0.000000
vn 0.500000 0.866025 0.000000
vn 0.500000 0.866025 0.000000
vn 0.258819 0.965926 0.000000
vn 0.258819 0.965926 0.000000
vn 0.000000 1.000000 0.000000
vn 0.000000 1.000000 0.000000
vn -0.258819 0.965926 0.000000
vn -0.258819 0.965926 0.000000
vn -0.500000 0.866025 0.000000
vn -0.500000 0.866025 0.000000
vn -0.707107 0.707107 0.000000
vn -0.707107 0.707107 0.000000
vn -0.866025 0.500000 0.000000
vn -0.866025 0.500000 0.000000
vn -0.965926 0.258819 0.000000
vn -0.965926 0.258819 0.000000
vn -1.000000 0.000000 0.000000
vn -1.000000 0.000000 0.000000
vn -0.965926 -0.258819 -0.000000
vn -0.965926 -0.258819 -0.000000
vn -0.866025 -0.500000 -0.000000
vn -0.866025 -0.500000 -0.000000
vn -0.707107 -0.707107 -0.000000
vn -0.707107 -0.707107 -0.000000
vn -0.500000 -0.866025 -0.000000
vn -0.500000 -0.866025 -0.000000
vn -0.258819 -0.965926 -0.000000
vn -0.258819 -0.965926 -0.000000
vn -0.000000 -1.000000 -0.000000
vn -0.000000 -1.000000 -0.000000
vn 0.258819 -0.965926 0.000000
vn 0.258819 -0.965926 0.000000
vn 0.500000 -0.866025 0.000000
vn 0.500000 -0.866025 0.000000
vn 0.707107 -0.707107 0.000000
vn 0.707107 -0.707107 0.000000
vn 0.866025 -0.500000 0.000000
vn 0.866025 -0.500000 0.000000
vn 0.965926 -0.258819 0.000000
vn 0.965926 -0.258819 0.000000
vn 0.000000 0.000000 1.000000
vn 0.000000 0.000000 1.000000
vn 0.000000 0.000000 1.000000
vn 0.000000 0.000000 1.000000
vn 0.000000 0.000000 1.000000
vn 0.000000 0.000000 1.000000
vn 0.000000 0.000000 1.000000
vn 0.000000 0.000000 1.000000
vn 0.000000 0.000000 1.000000
vn 0.000000 0.000000 1.000000
vn 0.000000 0.000000 1.000000
vn 0.000000 0.000000 1.000000
vn 0.000000 0.000000 1.000000
vn 0.000000 0.000000 1.000000
vn 0.000000 0.000000 1.000000
vn 0.000000 0.000000 1.000000
vn 0.000000 0.000000 1.000000
vn 0.000000 0.000000 1.000000
vn 0.000000 0.000000 1.000000
vn 0.000000 0.000000 1.000000
vn 0.000000 0.000000 1.000000
vn 0.000000 0.000000 1.000000
vn 0.000000 0.000000 1.000000
vn 0.000000 0.000000 1.000000
vn 0.000000 0.000000 1.000000
vn -0.000000 -0.000000 -1.000000
vn -0.000000 -0.000000 -1.000000
vn -0.000000 -0.000000 -1.000000
vn -0.000000 -0.000000 -1.000000
vn -0.000000 -0.000000 -1.000000
vn -0.000000 -0.000000 -1.000000
vn -0.000000 -0.000000 -1.000000
vn -0.000000 -0.000000 -1.000000
vn -0.000000 -0.000000 -1.000000
vn -0.000000 -0.000000 -1.000000
vn -0.000000 -0.000000 -1.000000
vn -0.000000 -0.000000 -1.000000
vn -0.000000 -0.000000 -1.000000
vn -0.000000 -0.000000 -1.000000
vn -0.000000 -0.000000 -1.000000
vn -0.000000 -0.000000 -1.000000
vn -0.000000 -0.000000 -1.000000
vn -0.000000 -0.000000 -1.000000
vn -0.000000 -0.000000 -1.000000
vn -0.000000 -0.000000 -1.000000
vn -0.000000 -0.000000 -1.000000
vn -0.000000 -0.000000 -1.000000
vn -0.000000 -0.000000 -1.000000
vn -0.000000 -0.000000 -1.000000
vn -0.000000 -0.000000 -1.000000
vn 1.000000 0.000000 0.000000
vn 1.000000 0.000000 0.000000
vn 0.965926 0.258819 0.000000
vn 0.965926 0.258819 0.000000
vn 0.866025 0.500000 0.000000
vn 0.866025 0.500000 0.000000
vn 0.707107 0.707107 0.000000
vn 0.707107 0.707107 0.000000
vn 0.500000 0.866025 0.000000
vn 0.500000 0.866025 0.000000
vn 0.258819 0.965926 0.000000
vn 0.258819 0.965926 0.000000
vn 0.000000 1.000000 0.000000
vn 0.000000 1.000000 0.000000
vn -0.258819 0.965926 0.000000
vn -0.258819 0.965926 0.000000
vn -0.500000 0.866025 0.000000
vn -0.500000 0.866025 0.000000
vn -0.707107 0.707107 0.000000
vn -0.707107 0.707107 0.000000
vn -0.866025 0.500000 0.000000
vn -0.866025 0.500000 0.000000
vn -0.965926 0.258819 0.000000
vn -0.965926 0.258819 0.000000
vn -1.000000 0.000000 0.000000
vn -1.000000 0.000000 0.000000
vn -0.965926 -0.258819 -0.000000
vn -0.965926 -0.258819 -0.000000
vn -0.866025 -0.500000 -0.000000
vn -0.866025 -0.500000 -0.000000
vn -0.707107 -0.707107 -0.000000
vn -0.707107 -0.707107 -0.000000
vn -0.500000 -0.866025 -0.000000
vn -0.500000 -0.866025 -0.000000
vn -0.258819 -0.965926 -0.000000
vn -0.258819 -0.965926 -0.000000
vn -0.000000 -1.000000 -0.000000
vn -0.000000 -1.000000 -0.000000
vn 0.258819 -0.965926 0.000000
vn 0.258819 -0.965926 0.000000
vn 0.500000 -0.866025 0.000000
vn 0.500000 -0.866025 0.000000
vn 0.707107 -0.707107 0.000000
vn 0.707107 -0.707107 0.000000
vn 0.866025 -0.500000 0.000000
vn 0.866025 -0.500000 0.000000
vn 0.965926 -0.258819 0.000000
vn 0.965926 -0.258819 0.000000
vn 0.000000 0.000000 1.000000
vn 0.000000 0.000000 1.000000
vn 0.000000 0.000000 1.000000
vn 0.000000 0.000000 1.000000
vn 0.000000 0.000000 1.000000
vn 0.000000 0.000000 1.000000
vn 0.000000 0.000000 1.000000
vn 0.000000 0.000000 1.000000
vn 0.000000 0.000000 1.000000
vn 0.000000 0.000000 1.000000
vn 0.000000 0.000000 1.000000
vn 0.000000 0.000000 1.000000
vn 0.000000 0.000000 1.000000
vn 0.000000 0.000000 1.000000
vn 0.000000 0.000000 1.000000
vn 0.000000 0.000000 1.000000
vn 0.000000 0.000000 1.000000
vn 0.000000 0.000000 1.000000
vn 0.000000 0.000000 1.000000
vn 0.000000 0.000000 1.000000
vn 0.000000 0.000000 1.000000
vn 0.000000 0.000000 1.000000
vn 0.000000 0.000000 1.000000
vn 0.000000 0.000000 1.000000
vn 0.000000 0.000000 1.000000
vn -0.000000 -0.000000 -1.000000
vn -0.000000 -0.000000 -1.000000
vn -0.000000 -0.000000 -1.000000
vn -0.000000 -0.000000 -1.000000
vn -0.000000 -0.000000 -1.000000
vn -0.000000 -0.000000 -1.000000
vn -0.000000 -0.000000 -1.000000
vn -0.000000 -0.000000 -1.000000
vn -0.000000 -0.000000 -1.000000
vn -0.000000 -0.000000 -1.000000
vn -0.000000 -0.000000 -1.000000
vn -0.000000 -0.000000 -1.000000
vn -0.000000 -0.000000 -1.000000
vn -0.000000 -0.000000 -1.000000
vn -0.000000 -0.000000 -1.000000
vn -0.000000 -0.000000 -1.000000
vn -0.000000 -0.000000 -1.000000
vn -0.000000 -0.000000 -1.000000
vn -0.000000 -0.000000 -1.000000
vn -0.000000 -0.000000 -1.000000
vn -0.000000 -0.000000 -1.000000
vn -0.000000 -0.000000 -1.000000
vn -0.000000 -0.000000 -1.000000
vn -0.000000 -0.000000 -1.000000
vn -0.000000 -0.000000 -1.000000
vn 1.000000 0.000000 0.000000
vn 1.000000 0.000000 0.000000
vn 0.965926 0.258819 0.000000
vn 0.965926 0.258819 0.000000
vn 0.866025 0.500000 0.000000
vn 0.866025 0.500000 0.000000
vn 0.707107 0.707107 0.000000
vn 0.707107 0.707107 0.000000
vn 0.500000 0.866025 0.000000
vn 0.500000 0.866025 0.000000
vn 0.258819 0.965926 0.000000
vn 0.258819 0.965926 0.000000
vn 0.000000 1.000000 0.000000
vn 0.000000 1.000000 0.000000
vn -0.258819 0.965926 0.000000
vn -0.258819 0.965926 0.000000
vn -0.500000 0.866025 0.000000
vn -0.500000 0.866025 0.000000
vn -0.707107 0.707107 0.000000
vn -0.707107 0.707107 0.000000
vn -0.866025 0.500000 0.000000
vn -0.866025 0.500000 0.000000
vn -0.965926 0.258819 0.000000
vn -0.965926 0.258819 0.000000
vn -1.000000 0.000000 0.000000
vn -1.000000 0.000000 0.000000
vn -0.965926 -0.258819 -0.000000
vn -0.965926 -0.258819 -0.000000
vn -0.866025 -0.500000 -0.000000
vn -0.866025 -0.500000 -0.000000
vn -0.707107 -0.707107 -0.000000
vn -0.707107 -0.707107 -0.000000
vn -0.500000 -0.866025 -0.000000
vn -0.500000 -0.866025 -0.000000
vn -0.258819 -0.965926 -0.000000
vn -0.258819 -0.965926 -0.000000
vn -0.000000 -1.000000 -0.000000
vn -0.000000 -1.000000 -0.000000
vn 0.258819 -0.965926 0.000000
vn 0.258819 -0.965926 0.000000
vn 0.500000 -0.866025 0.000000
vn 0.500000 -0.866025 0.000000
vn 0.707107 -0.707107 0.000000
vn 0.707107 -0.707107 0.000000
vn 0.866025 -0.500000 0.000000
vn 0.866025 -0.500000 0.000000
vn 0.965926 -0.258819 0.000000
vn 0.965926 -0.258819 0.000000
vn 0.000000 0.000000 1.000000
vn 0.000000 0.000000 1.000000
vn 0.000000 0.000000 1.000000
vn 0.000000 0.000000 1.000000
vn 0.000000 0.000000 1.000000
vn 0.000000 0.000000 1.000000
vn 0.000000 0.000000 1.000000
vn 0.000000 0.000000 1.000000
vn 0.000000 0.000000 1.000000
vn 0.000000 0.000000 1.000000
vn 0.000000 0.000000 1.000000
vn 0.000000 0.000000 1.000000
vn 0.000000 0.000000 1.000000
vn 0.000000 0.000000 1.000000
vn 0.000000 0.000000 1.000000
vn 0.000000 0.000000 1.000000
vn 0.000000 0.000000 1.000000
vn 0.000000 0.000000 1.000000
vn 0.000000 0.000000 1.000000
vn 0.000000 0.000000 1.000000
vn 0.000000 0.000000 1.000000
vn 0.000000 0.000000 1.000000
vn 0.000000 0.000000 1.000000
vn 0.000000 0.000000 1.000000
vn 0.000000 0.000000 1.000000
vn -0.000000 -0.000000 -1.000000
vn -0.000000 -0.000000 -1.000000
vn -0.000000 -0.000000 -1.000000
vn -0.000000 -0.000000 -1.000000
vn -0.000000 -0.000000 -1.000000
vn -0.000000 -0.000000 -1.000000
vn -0.000000 -0.000000 -1.000000
vn -0.000000 -0.000000 -1.000000
vn -0.000000 -0.000000 -1.000000
vn -0.000000 -0.000000 -1.000000
vn -0.000000 -0.000000 -1.000000
vn -0.000000 -0.000000 -1.000000
vn -0.000000 -0.000000 -1.000000
vn -0.000000 -0.000000 -1.000000
vn -0.000000 -0.000000 -1.000000
vn -0.000000 -0.000000 -1.000000
vn -0.000000 -0.000000 -1.000000
vn -0.000000 -0.000000 -1.000000
vn -0.000000 -0.000000 -1.000000
vn -0.000000 -0.000000 -1.000000
vn -0.000000 -0.000000 -1.000000
vn -0.000000 -0.000000 -1.000000
vn -0.000000 -0.000000 -1.000000
vn -0.000000 -0.000000 -1.000000
vn -0.000000 -0.000000 -1.000000
vn 1.000000 0.000000 0.000000
vn 1.000000 0.000000 0.000000
vn 0.923880 0.382683 0.000000
vn 0.923880 0.382683 0.000000
vn 0.707107 0.707107 0.000000
vn 0.707107 0.707107 0.000000
vn 0.382683 0.923880 0.000000
vn 0.382683 0.923880 0.000000
vn 0.000000 1.000000 0.000000
vn 0.000000 1.000000 0.000000
vn -0.382683 0.923880 0.000000
vn -0.382683 0.923880 0.000000
vn -0.707107 0.707107 0.000000
vn -0.707107 0.707107 0.000000
vn -0.923880 0.382683 0.000000
vn -0.923880 0.382683 0.000000
vn -1.000000 0.000000 0.000000
vn -1.000000 0.000000 0.000000
vn -0.923880 -0.382683 -0.000000
vn -0.923880 -0.382683 -0.000000
vn -0.707107 -0.707107 -0.000000
vn -0.707107 -0.707107 -0.000000
vn -0.382683 -0.923880 -0.000000
vn -0.382683 -0.923880 -0.000000
vn -0.000000 -1.000000 -0.000000
vn -0.000000 -1.000000 -0.000000
vn 0.382683 -0.923880 0.000000
vn 0.382683 -0.923880 0.000000
vn 0.707107 -0.707107 0.000000
vn 0.707107 -0.707107 0.000000
vn 0.923880 -0.382683 0.000000
vn 0.923880 -0.382683 0.000000
vn 0.000000 0.000000 1.000000
vn 0.000000 0.000000 1.000000
vn 0.000000 0.000000 1.000000
vn 0.000000 0.000000 1.000000
vn 0.000000 0.000000 1.000000
vn 0.000000 0.000000 1.000000
vn 0.000000 0.000000 1.000000
vn 0.000000 0.000000 1.000000
vn 0.000000 0.000000 1.000000
vn 0.000000 0.000000 1.000000
vn 0.000000 0.000000 1.000000
vn 0.000000 0.000000 1.000000
vn 0.000000 0.000000 1.000000
vn 0.000000 0.000000 1.000000
vn 0.000000 0.000000 1.000000
vn 0.000000 0.000000 1.000000
vn 0.000000 0.000000 1.000000
vn -0.000000 -0.000000 -1.000000
vn -0.000000 -0.000000 -1.000000
vn -0.000000 -0.000000 -1.000000
vn -0.000000 -0.000000 -1.000000
vn -0.000000 -0.000000 -1.000000
vn -0.000000 -0.000000 -1.000000
vn -0.000000 -0.000000 -1.000000
vn -0.000000 -0.000000 -1.000000
vn -0.000000 -0.000000 -1.000000
vn -0.000000 -0.000000 -1.000000
vn -0.000000 -0.000000 -1.000000
vn -0.000000 -0.000000 -1.000000
vn -0.000000 -0.000000 -1.000000
vn -0.000000 -0.000000 -1.000000
vn -0.000000 -0.000000 -1.000000
vn -0.000000 -0.000000 -1.000000
vn -0.000000 -0.000000 -1.000000
vn 0.000000 0.000000 -1.000000
vn 0.000000 0.000000 -1.000000
vn 0.000000 0.500000 -0.866025
vn 0.000000 0.500000 -0.866025
vn 0.000000 0.866025 -0.500000
vn 0.000000 0.866025 -0.500000
vn 0.000000 1.000000 -0.000000
vn 0.000000 1.000000 -0.000000
vn -0.000000 0.866025 0.500000
vn -0.000000 0.866025 0.500000
vn -0.000000 0.500000 0.866025
vn -0.000000 0.500000 0.866025
vn -0.000000 0.000000 1.000000
vn -0.000000 0.000000 1.000000
vn 0.000000 -0.500000 0.866025
vn 0.000000 -0.500000 0.866025
vn 0.000000 -0.866025 0.500000
vn 0.000000 -0.866025 0.500000
vn 0.000000 -1.000000 0.000000
vn 0.000000 -1.000000 0.000000
vn 0.000000 -0.866025 -0.500000
vn 0.000000 -0.866025 -0.500000
vn 0.000000 -0.500000 -0.866025
vn 0.000000 -0.500000 -0.866025
vn 1.000000 0.000000 0.000000
vn 1.000000 0.000000 0.000000
vn 1.000000 0.000000 0.000000
vn 1.000000 0.000000 0.000000
vn 1.000000 0.000000 0.000000
vn 1.000000 0.000000 0.000000
vn 1.000000 0.000000 0.000000
vn 1.000000 0.000000 0.000000
vn 1.000000 0.000000 0.000000
vn 1.000000 0.000000 0.000000
vn 1.000000 0.000000 0.000000
vn 1.000000 0.000000 0.000000
vn 1.000000 0.000000 0.000000
vn -1.000000 -0.000000 -0.000000
vn -1.000000 -0.000000 -0.000000
vn -1.000000 -0.000000 -0.000000
vn -1.000000 -0.000000 -0.000000
vn -1.000000 -0.000000 -0.000000
vn -1.000000 -0.000000 -0.000000
vn -1.000000 -0.000000 -0.000000
vn -1.000000 -0.000000 -0.000000
vn -1.000000 -0.000000 -0.000000
vn -1.000000 -0.000000 -0.000000
vn -1.000000 -0.000000 -0.000000
vn -1.000000 -0.000000 -0.000000
vn -1.000000 -0.000000 -0.000000
vn 0.000000 0.000000 -1.000000
vn 0.000000 0.000000 -1.000000
vn 0.000000 0.258819 -0.965926
vn 0.000000 0.258819 -0.965926
vn 0.000000 0.500000 -0.866025
vn 0.000000 0.500000 -0.866025
vn 0.000000 0.707107 -0.707107
vn 0.000000 0.707107 -0.707107
vn 0.000000 0.866025 -0.500000
vn 0.000000 0.866025 -0.500000
vn 0.000000 0.965926 -0.258819
vn 0.000000 0.965926 -0.258819
vn 0.000000 1.000000 -0.000000
vn 0.000000 1.000000 -0.000000
vn -0.000000 0.965926 0.258819
vn -0.000000 0.965926 0.258819
vn -0.000000 0.866025 0.500000
vn -0.000000 0.866025 0.500000
vn -0.000000 0.707107 0.707107
vn -0.000000 0.707107 0.707107
vn -0.000000 0.500000 0.866025
vn -0.000000 0.500000 0.866025
vn -0.000000 0.258819 0.965926
vn -0.000000 0.258819 0.965926
vn -0.000000 0.000000 1.000000
vn -0.000000 0.000000 1.000000
vn 0.000000 -0.258819 0.965926
vn 0.000000 -0.258819 0.965926
vn 0.000000 -0.500000 0.866025
vn 0.000000 -0.500000 0.866025
vn 0.000000 -0.707107 0.707107
vn 0.000000 -0.707107 0.707107
vn 0.000000 -0.866025 0.500000
vn 0.000000 -0.866025 0.500000
vn 0.000000 -0.965926 0.258819
vn 0.000000 -0.965926 0.258819
vn 0.000000 -1.000000 0.000000
vn 0.000000 -1.000000 0.000000
vn 0.000000 -0.965926 -0.258819
vn 0.000000 -0.965926 -0.258819
vn 0.000000 -0.866025 -0.500000
vn 0.000000 -0.866025 -0.500000
vn 0.000000 -0.707107 -0.707107
vn 0.000000 -0.707107 -0.707107
vn 0.000000 -0.500000 -0.866025
vn 0.000000 -0.500000 -0.866025
vn 0.000000 -0.258819 -0.965926
vn 0.000000 -0.258819 -0.965926
vn 1.000000 0.000000 0.000000
vn 1.000000 0.000000 0.000000
vn 1.000000 0.000000 0.000000
vn 1.000000 0.000000 0.000000
vn 1.000000 0.000000 0.000000
vn 1.000000 0.000000 0.000000
vn 1.000000 0.000000 0.000000
vn 1.000000 0.000000 0.000000
vn 1.000000 0.000000 0.000000
vn 1.000000 0.000000 0.000000
vn 1.000000 0.000000 0.000000
vn 1.000000 0.000000 0.000000
vn 1.000000 0.000000 0.000000
vn 1.000000 0.000000 0.000000
vn 1.000000 0.000000 0.000000
vn 1.000000 0.000000 0.000000
vn 1.000000 0.000000 0.000000
vn 1.000000 0.000000 0.000000
vn 1.000000 0.000000 0.000000
vn 1.000000 0.000000 0.000000
vn 1.000000 0.000000 0.000000
vn 1.000000 0.000000 0.000000
vn 1.000000 0.000000 0.000000
vn 1.000000 0.000000 0.000000
vn 1.000000 0.000000 0.000000
vn -1.000000 -0.000000 -0.000000
vn -1.000000 -0.000000 -0.000000
vn -1.000000 -0.000000 -0.000000
vn -1.000000 -0.000000 -0.000000
vn -1.000000 -0.000000 -0.000000
vn -1.000000 -0.000000 -0.000000
vn -1.000000 -0.000000 -0.000000
vn -1.000000 -0.000000 -0.000000
vn -1.000000 -0.000000 -0.000000
vn -1.000000 -0.000000 -0.000000
vn -1.000000 -0.000000 -0.000000
vn -1.000000 -0.000000 -0.000000
vn -1.000000 -0.000000 -0.000000
vn -1.000000 -0.000000 -0.000000
vn -1.000000 -0.000000 -0.000000
vn -1.000000 -0.000000 -0.000000
vn -1.000000 -0.000000 -0.000000
vn -1.000000 -0.000000 -0.000000
vn -1.000000 -0.000000 -0.000000
vn -1.000000 -0.000000 -0.000000
vn -1.000000 -0.000000 -0.000000
vn -1.000000 -0.000000 -0.000000
vn -1.000000 -0.000000 -0.000000
vn -1.000000 -0.000000 -0.000000
vn -1.000000 -0.000000 -0.000000
vn 0.000000 0.000000 -1.000000
vn 0.000000 0.000000 -1.000000
vn 0.000000 0.500000 -0.866025
vn 0.000000 0.500000 -0.866025
vn 0.000000 0.866025 -0.500000
vn 0.000000 0.866025 -0.500000
vn 0.000000 1.000000 -0.000000
vn 0.000000 1.000000 -0.000000
vn -0.000000 0.866025 0.500000
vn -0.000000 0.866025 0.500000
vn -0.000000 0.500000 0.866025
vn -0.000000 0.500000 0.866025
vn -0.000000 0.000000 1.000000
vn -0.000000 0.000000 1.000000
vn 0.000000 -0.500000 0.866025
vn 0.000000 -0.500000 0.866025
vn 0.000000 -0.866025 0.500000
vn 0.000000 -0.866025 0.500000
vn 0.000000 -1.000000 0.000000
vn 0.000000 -1.000000 0.000000
vn 0.000000 -0.866025 -0.500000
vn 0.000000 -0.866025 -0.500000
vn 0.000000 -0.500000 -0.866025
vn 0.000000 -0.500000 -0.866025
vn 1.000000 0.000000 0.000000
vn 1.000000 0.000000 0.000000
vn 1.000000 0.000000 0.000000
vn 1.000000 0.000000 0.000000
vn 1.000000 0.000000 0.000000
vn 1.000000 0.000000 0.000000
vn 1.000000 0.000000 0.000000
vn 1.000000 0.000000 0.000000
vn 1.000000 0.000000 0.000000
vn 1.000000 0.000000 0.000000
vn 1.000000 0.000000 0.000000
vn 1.000000 0.000000 0.000000
vn 1.000000 0.000000 0.000000
vn -1.000000 -0.000000 -0.000000
vn -1.000000 -0.000000 -0.000000
vn -1.000000 -0.000000 -0.000000
vn -1.000000 -0.000000 -0.000000
vn -1.000000 -0.000000 -0.000000
vn -1.000000 -0.000000 -0.000000
vn -1.000000 -0.000000 -0.000000
vn -1.000000 -0.000000 -0.000000
vn -1.000000 -0.000000 -0.000000
vn -1.000000 -0.000000 -0.000000
vn -1.000000 -0.000000 -0.000000
vn -1.000000 -0.000000 -0.000000
vn -1.000000 -0.000000 -0.000000
f 1/1/1 3/3/3 4/4/4 2/2/2
f 3/3/3 5/5/5 6/6/6 4/4/4
f 5/5/5 7/7/7 8/8/8 6/6/6
f 7/7/7 9/9/9 10/10/10 8/8/8
f 9/9/9 11/11/11 12/12/12 10/10/10
f 11/11/11 13/13/13 14/14/14 12/12/12
f 13/13/13 15/15/15 16/16/16 14/14/14
f 15/15/15 17/17/17 18/18/18 16/16/16
f 17/17/17 19/19/19 20/20/20 18/18/18
f 19/19/19 21/21/21 22/22/22 20/20/20
f 21/21/21 23/23/23 24/24/24 22/22/22
f 23/23/23 25/25/25 26/26/26 24/24/24
f 25/25/25 27/27/27 28/28/28 26/26/26
f 27/27/27 29/29/29 30/30/30 28/28/28
f 29/29/29 31/31/31 32/32/32 30/30/30
f 31/31/31 33/33/33 34/34/34 32/32/32
f 33/33/33 35/35/35 36/36/36 34/34/34
f 35/35/35 37/37/37 38/38/38 36/36/36
f 37/37/37 39/39/39 40/40/40 38/38/38
f 39/39/39 41/41/41 42/42/42 40/40/40
f 41/41/41 43/43/43 44/44/44 42/42/42
f 43/43/43 45/45/45 46/46/46 44/44/44
f 45/45/45 47/47/47 48/48/48 46/46/46
f 47/47/47 1/1/1 2/2/2 48/48/48
f 49/49/49 50/50/50 51/51/51
f 49/49/49 51/51/51 52/52/52
f 49/49/49 52/52/52 53/53/53
f 49/49/49 53/53/53 54/54/54
f 49/49/49 54/54/54 55/55/55
f 49/49/49 55/55/55 56/56/56
f 49/49/49 56/56/56 57/57/57
f 49/49/49 57/57/57 58/58/58
f 49/49/49 58/58/58 59/59/59
f 49/49/49 59/59/59 60/60/60
f 49/49/49 60/60/60 61/61/61
f 49/49/49 61/61/61 62/62/62
f 49/49/49 62/62/62 63/63/63
f 49/49/49 63/63/63 64/64/64
f 49/49/49 64/64/64 65/65/65
f 49/49/49 65/65/65 66/66/66
f 49/49/49 66/66/66 67/67/67
f 49/49/49 67/67/67 68/68/68
f 49/49/49 68/68/68 69/69/69
f 49/49/49 69/69/69 70/70/70
f 49/49/49 70/70/70 71/71/71
f 49/49/49 71/71/71 72/72/72
f 49/49/49 72/72/72 73/73/73
f 49/49/49 73/73/73 50/50/50
f 74/74/74 76/76/76 75/75/75
f 74/74/74 77/77/77 76/76/76
f 74/74/74 78/78/78 77/77/77
f 74/74/74 79/79/79 78/78/78
f 74/74/74 80/80/80 79/79/79
f 74/74/74 81/81/81 80/80/80
f 74/74/74 82/82/82 81/81/81
f 74/74/74 83/83/83 82/82/82
f 74/74/74 84/84/84 83/83/83
f 74/74/74 85/85/85 84/84/84
f 74/74/74 86/86/86 85/85/85
f 74/74/74 87/87/87 86/86/86
f 74/74/74 88/88/88 87/87/87
f 74/74/74 89/89/89 88/88/88
f 74/74/74 90/90/90 89/89/89
f 74/74/74 91/91/91 90/90/90
f 74/74/74 92/92/92 91/91/91
f 74/74/74 93/93/93 92/92/92
f 74/74/74 94/94/94 93/93/93
f 74/74/74 95/95/95 94/94/94
f 74/74/74 96/96/96 95/95/95
f 74/74/74 97/97/97 96/96/96
f 74/74/74 98/98/98 97/97/97
f 74/74/74 75/75/75 98/98/98
f 99/99/99 101/101/101 102/102/102 100/100/100
f 101/101/101 103/103/103 104/104/104 102/102/102
f 103/103/103 105/105/105 106/106/106 104/104/104
f 105/105/105 107/107/107 108/108/108 106/106/106
f 107/107/107 109/109/109 110/110/110 108/108/108
f 109/109/109 111/111/111 112/112/112 110/110/110
f 111/111/111 113/113/113 114/114/114 112/112/112
f 113/113/113 115/115/115 116/116/116 114/114/114
f 115/115/115 117/117/117 118/118/118 116/116/116
f 117/117/117 119/119/119 120/120/120 118/118/118
f 119/119/119 121/121/121 122/122/122 120/120/120
f 121/121/121 123/123/123 124/124/124 122/122/122
f 123/123/123 125/125/125 126/126/126 124/124/124
f 125/125/125 127/127/127 128/128/128 126/126/126
f 127/127/127 129/129/129 130/130/130 128/128/128
f 129/129/129 131/131/131 132/132/132 130/130/130
f 131/131/131 133/133/133 134/134/134 132/132/132
f 133/133/133 135/135/135 136/136/136 134/134/134
f 135/135/135 137/137/137 138/138/138 136/136/136
f 137/137/137 139/139/139 140/140/140 138/138/138
f 139/139/139 141/141/141 142/142/142 140/140/140
f 141/141/141 143/143/143 144/144/144 142/142/142
f 143/143/143 145/145/145 146/146/146 144/144/144
f 145/145/145 99/99/99 100/100/100 146/146/146
f 147/147/147 148/148/148 149/149/149
f 147/147/147 149/149/149 150/150/150
f 147/147/147 150/150/150 151/151/151
f 147/147/147 151/151/151 152/152/152
f 147/147/147 152/152/152 153/153/153
f 147/147/147 153/153/153 154/154/154
f 147/147/147 154/154/154 155/155/155
f 147/147/147 155/155/155 156/156/156
f 147/147/147 156/156/156 157/157/157
f 147/147/147 157/157/157 158/158/158
f 147/147/147 158/158/158 159/159/159
f 147/147/147 159/159/159 160/160/160
f 147/147/147 160/160/160 161/161/161
f 147/147/147 161/161/161 162/162/162
f 147/147/147 162/162/162 163/163/163
f 147/147/147 163/163/163 164/164/164
f 147/147/147 164/164/164 165/165/165
f 147/147/147 165/165/165 166/166/166
f 147/147/147 166/166/166 167/167/167
f 147/147/147 167/167/167 168/168/168
f 147/147/147 168/168/168 169/169/169
f 147/147/147 169/169/169 170/170/170
f 147/147/147 170/170/170 171/171/171
f 147/147/147 171/171/171 148/148/148
f 172/172/172 174/174/174 173/173/173
f 172/172/172 175/175/175 174/174/174
f 172/172/172 176/176/176 175/175/175
f 172/172/172 177/177/177 176/176/176
f 172/172/172 178/178/178 177/177/177
f 172/172/172 179/179/179 178/178/178
f 172/172/172 180/180/180 179/179/179
f 172/172/172 181/181/181 180/180/180
f 172/172/172 182/182/182 181/181/181
f 172/172/172 183/183/183 182/182/182
f 172/172/172 184/184/184 183/183/183
f 172/172/172 185/185/185 184/184/184
f 172/172/172 186/186/186 185/185/185
f 172/172/172 187/187/187 186/186/186
f 172/172/172 188/188/188 187/187/187
f 172/172/172 189/189/189 188/188/188
f 172/172/172 190/190/190 189/189/189
f 172/172/172 191/191/191 190/190/190
f 172/172/172 192/192/192 191/191/191
f 172/172/172 193/193/193 192/192/192
f 172/172/172 194/194/194 193/193/193
f 172/172/172 195/195/195 194/194/194
f 172/172/172 196/196/196 195/195/195
f 172/172/172 173/173/173 196/196/196
f 197/197/197 199/199/199 200/200/200 198/198/198
f 199/199/199 201/201/201 202/202/202 200/200/200
f 201/201/201 203/203/203 204/204/204 202/202/202
f 203/203/203 205/205/205 206/206/206 204/204/204
f 205/205/205 207/207/207 208/208/208 206/206/206
f 207/207/207 209/209/209 210/210/210 208/208/208
f 209/209/209 211/211/211 212/212/212 210/210/210
f 211/211/211 213/213/213 214/214/214 212/212/212
f 213/213/213 215/215/215 216/216/216 214/214/214
f 215/215/215 217/217/217 218/218/218 216/216/216
f 217/217/217 219/219/219 220/220/220 218/218/218
f 219/219/219 221/221/221 222/222/222 220/220/220
f 221/221/221 223/223/223 224/224/224 222/222/222
f 223/223/223 225/225/225 226/226/226 224/224/224
f 225/225/225 227/227/227 228/228/228 226/226/226
f 227/227/227 229/229/229 230/230/230 228/228/228
f 229/229/229 231/231/231 232/232/232 230/230/230
f 231/231/231 233/233/233 234/234/234 232/232/232
f 233/233/233 235/235/235 236/236/236 234/234/234
f 235/235/235 237/237/237 238/238/238 236/236/236
f 237/237/237 239/239/239 240/240/240 238/238/238
f 239/239/239 241/241/241 242/242/242 240/240/240
f 241/241/241 243/243/243 244/244/244 242/242/242
f 243/243/243 197/197/197 198/198/198 244/244/244
f 245/245/245 246/246/246 247/247/247
f 245/245/245 247/247/247 248/248/248
f 245/245/245 248/248/248 249/249/249
f 245/245/245 249/249/249 250/250/250
f 245/245/245 250/250/250 251/251/251
f 245/245/245 251/251/251 252/252/252
f 245/245/245 252/252/252 253/253/253
f 245/245/245 253/253/253 254/254/254
f 245/245/245 254/254/254 255/255/255
f 245/245/245 255/255/255 256/256/256
f 245/245/245 256/256/256 257/257/257
f 245/245/245 257/257/257 258/258/258
f 245/245/245 258/258/258 259/259/259
f 245/245/245 259/259/259 260/260/260
f 245/245/245 260/260/260 261/261/261
f 245/245/245 261/261/261 262/262/262
f 245/245/245 262/262/262 263/263/263
f 245/245/245 263/263/263 264/264/264
f 245/245/245 264/264/264 265/265/265
f 245/245/245 265/265/265 266/266/266
f 245/245/245 266/266/266 267/267/267
f 245/245/245 267/267/267 268/268/268
f 245/245/245 268/268/268 269/269/269
f 245/245/245 269/269/269 246/246/246
f 270/270/270 272/272/272 271/271/271
f 270/270/270 273/273/273 272/272/272
f 270/270/270 274/274/274 273/273/273
f 270/270/270 275/275/275 274/274/274
f 270/270/270 276/276/276 275/275/275
f 270/270/270 277/277/277 276/276/276
f 270/270/270 278/278/278 277/277/277
f 270/270/270 279/279/279 278/278/278
f 270/270/270 280/280/280 279/279/279
f 270/270/270 281/281/281 280/280/280
f 270/270/270 282/282/282 281/281/281
f 270/270/270 283/283/283 282/282/282
f 270/270/270 284/284/284 283/283/283
f 270/270/270 285/285/285 284/284/284
f 270/270/270 286/286/286 285/285/285
f 270/270/270 287/287/287 286/286/286
f 270/270/270 288/288/288 287/287/287
f 270/270/270 289/289/289 288/288/288
f 270/270/270 290/290/290 289/289/289
f 270/270/270 291/291/291 290/290/290
f 270/270/270 292/292/292 291/291/291
f 270/270/270 293/293/293 292/292/292
f 270/270/270 294/294/294 293/293/293
f 270/270/270 271/271/271 294/294/294
f 295/295/295 297/297/297 298/298/298 296/296/296
f 297/297/297 299/299/299 300/300/300 298/298/298
f 299/299/299 301/301/301 302/302/302 300/300/300
f 301/301/301 303/303/303 304/304/304 302/302/302
f 303/303/303 305/305/305 306/306/306 304/304/304
f 305/305/305 307/307/307 308/308/308 306/306/306
f 307/307/307 309/309/309 310/310/310 308/308/308
f 309/309/309 311/311/311 312/312/312 310/310/310
f 311/311/311 313/313/313 314/314/314 312/312/312
f 313/313/313 315/315/315 316/316/316 314/314/314
f 315/315/315 317/317/317 318/318/318 316/316/316
f 317/317/317 319/319/319 320/320/320 318/318/318
f 319/319/319 321/321/321 322/322/322 320/320/320
f 321/321/321 323/323/323 324/324/324 322/322/322
f 323/323/323 325/325/325 326/326/326 324/324/324
f 325/325/325 295/295/295 296/296/296 326/326/326
f 327/327/327 328/328/328 329/329/329
f 327/327/327 329/329/329 330/330/330
f 327/327/327 330/330/330 331/331/331
f 327/327/327 331/331/331 332/332/332
f 327/327/327 332/332/332 333/333/333
f 327/327/327 333/333/333 334/334/334
f 327/327/327 334/334/334 335/335/335
f 327/327/327 335/335/335 336/336/336
f 327/327/327 336/336/336 337/337/337
f 327/327/327 337/337/337 338/338/338
f 327/327/327 338/338/338 339/339/339
f 327/327/327 339/339/339 340/340/340
f 327/327/327 340/340/340 341/341/341
f 327/327/327 341/341/341 342/342/342
f 327/327/327 342/342/342 343/343/343
f 327/327/327 343/343/343 328/328/328
f 344/344/344 346/346/346 345/345/345
f 344/344/344 347/347/347 346/346/346
f 344/344/344 348/348/348 347/347/347
f 344/344/344 349/349/349 348/348/348
f 344/344/344 350/350/350 349/349/349
f 344/344/344 351/351/351 350/350/350
f 344/344/344 352/352/352 351/351/351
f 344/344/344 353/353/353 352/352/352
f 344/344/344 354/354/354 353/353/353
f 344/344/344 355/355/355 354/354/354
f 344/344/344 356/356/356 355/355/355
f 344/344/344 357/357/357 356/356/356
f 344/344/344 358/358/358 357/357/357
f 344/344/344 359/359/359 358/358/358
f 344/344/344 360/360/360 359/359/359
f 344/344/344 345/345/345 360/360/360
f 361/361/361 363/363/363 364/364/364 362/362/362
f 363/363/363 365/365/365 366/366/366 364/364/364
f 365/365/365 367/367/367 368/368/368 366/366/366
f 367/367/367 369/369/369 370/370/370 368/368/368
f 369/369/369 371/371/371 372/372/372 370/370/370
f 371/371/371 373/373/373 374/374/374 372/372/372
f 373/373/373 375/375/375 376/376/376 374/374/374
f 375/375/375 377/377/377 378/378/378 376/376/376
f 377/377/377 379/379/379 380/380/380 378/378/378
f 379/379/379 381/381/381 382/382/382 380/380/380
f 381/381/381 383/383/383 384/384/384 382/382/382
f 383/383/383 361/361/361 362/362/362 384/384/384
f 385/385/385 386/386/386 387/387/387
f 385/385/385 387/387/387 388/388/388
f 385/385/385 388/388/388 389/389/389
f 385/385/385 389/389/389 390/390/390
f 385/385/385 390/390/390 391/391/391
f 385/385/385 391/391/391 392/392/392
f 385/385/385 392/392/392 393/393/393
f 385/385/385 393/393/393 394/394/394
f 385/385/385 394/394/394 395/395/395
f 385/385/385 395/395/395 396/396/396
f 385/385/385 396/396/396 397/397/397
f 385/385/385 397/397/397 386/386/386
f 398/398/398 400/400/400 399/399/399
f 398/398/398 401/401/401 400/400/400
f 398/398/398 402/402/402 401/401/401
f 398/398/398 403/403/403 402/402/402
f 398/398/398 404/404/404 403/403/403
f 398/398/398 405/405/405 404/404/404
f 398/398/398 406/406/406 405/405/405
f 398/398/398 407/407/407 406/406/406
f 398/398/398 408/408/408 407/407/407
f 398/398/398 409/409/409 408/408/408
f 398/398/398 410/410/410 409/409/409
f 398/398/398 399/399/399 410/410/410
f 411/411/411 413/413/413 414/414/414 412/412/412
f 413/413/413 415/415/415 416/416/416 414/414/414
f 415/415/415 417/417/417 418/418/418 416/416/416
f 417/417/417 419/419/419 420/420/420 418/418/418
f 419/419/419 421/421/421 422/422/422 420/420/420
f 421/421/421 423/423/423 424/424/424 422/422/422
f 423/423/423 425/425/425 426/426/426 424/424/424
f 425/425/425 427/427/427 428/428/428 426/426/426
f 427/427/427 429/429/429 430/430/430 428/428/428
f 429/429/429 431/431/431 432/432/432 430/430/430
f 431/431/431 433/433/433 434/434/434 432/432/432
f 433/433/433 435/435/435 436/436/436 434/434/434
f 435/435/435 437/437/437 438/438/438 436/436/436
f 437/437/437 439/439/439 440/440/440 438/438/438
f 439/439/439 441/441/441 442/442/442 440/440/440
f 441/441/441 443/443/443 444/444/444 442/442/442
f 443/443/443 445/445/445 446/446/446 444/444/444
f 445/445/445 447/447/447 448/448/448 446/446/446
f 447/447/447 449/449/449 450/450/450 448/448/448
f 449/449/449 451/451/451 452/452/452 450/450/450
f 451/451/451 453/453/453 454/454/454 452/452/452
f 453/453/453 455/455/455 456/456/456 454/454/454
f 455/455/455 457/457/457 458/458/458 456/456/456
f 457/457/457 411/411/411 412/412/412 458/458/458
f 459/459/459 460/460/460 461/461/461
f 459/459/459 461/461/461 462/462/462
f 459/459/459 462/462/462 463/463/463
f 459/459/459 463/463/463 464/464/464
f 459/459/459 464/464/464 465/465/465
f 459/459/459 465/465/465 466/466/466
f 459/459/459 466/466/466 467/467/467
f 459/459/459 467/467/467 468/468/468
f 459/459/459 468/468/468 469/469/469
f 459/459/459 469/469/469 470/470/470
f 459/459/459 470/470/470 471/471/471
f 459/459/459 471/471/471 472/472/472
f 459/459/459 472/472/472 473/473/473
f 459/459/459 473/473/473 474/474/474
f 459/459/459 474/474/474 475/475/475
f 459/459/459 475/475/475 476/476/476
f 459/459/459 476/476/476 477/477/477
f 459/459/459 477/477/477 478/478/478
f 459/459/459 478/478/478 479/479/479
f 459/459/459 479/479/479 480/480/480
f 459/459/459 480/480/480 481/481/481
f 459/459/459 481/481/481 482/482/482
f 459/459/459 482/482/482 483/483/483
f 459/459/459 483/483/483 460/460/460
f 484/484/484 486/486/486 485/485/485
f 484/484/484 487/487/487 486/486/486
f 484/484/484 488/488/488 487/487/487
f 484/484/484 489/489/489 488/488/488
f 484/484/484 490/490/490 489/489/489
f 484/484/484 491/491/491 490/490/490
f 484/484/484 492/492/492 491/491/491
f 484/484/484 493/493/493 492/492/492
f 484/484/484 494/494/494 493/493/493
f 484/484/484 495/495/495 494/494/494
f 484/484/484 496/496/496 495/495/495
f 484/484/484 497/497/497 496/496/496
f 484/484/484 498/498/498 497/497/497
f 484/484/484 499/499/499 498/498/498
f 484/484/484 500/500/500 499/499/499
f 484/484/484 501/501/501 500/500/500
f 484/484/484 502/502/502 501/501/501
f 484/484/484 503/503/503 502/502/502
f 484/484/484 504/504/504 503/503/503
f 484/484/484 505/505/505 504/504/504
f 484/484/484 506/506/506 505/505/505
f 484/484/484 507/507/507 506/506/506
f 484/484/484 508/508/508 507/507/507
f 484/484/484 485/485/485 508/508/508
f 509/509/509 511/511/511 512/512/512 510/510/510
f 511/511/511 513/513/513 514/514/514 512/512/512
f 513/513/513 515/515/515 516/516/516 514/514/514
f 515/515/515 517/517/517 518/518/518 516/516/516
f 517/517/517 519/519/519 520/520/520 518/518/518
f 519/519/519 521/521/521 522/522/522 520/520/520
f 521/521/521 523/523/523 524/524/524 522/522/522
f 523/523/523 525/525/525 526/526/526 524/524/524
f 525/525/525 527/527/527 528/528/528 526/526/526
f 527/527/527 529/529/529 530/530/530 528/528/528
f 529/529/529 531/531/531 532/532/532 530/530/530
f 531/531/531 509/509/509 510/510/510 532/532/532
f 533/533/533 534/534/534 535/535/535
f 533/533/533 535/535/535 536/536/536
f 533/533/533 536/536/536 537/537/537
f 533/533/533 537/537/537 538/538/538
f 533/533/533 538/538/538 539/539/539
f 533/533/533 539/539/539 540/540/540
f 533/533/533 540/540/540 541/541/541
f 533/533/533 541/541/541 542/542/542
f 533/533/533 542/542/542 543/543/543
f 533/533/533 543/543/543 544/544/544
f 533/533/533 544/544/544 545/545/545
f 533/533/533 545/545/545 534/534/534
f 546/546/546 548/548/548 547/547/547
f 546/546/546 549/549/549 548/548/548
f 546/546/546 550/550/550 549/549/549
f 546/546/546 551/551/551 550/550/550
f 546/546/546 552/552/552 551/551/551
f 546/546/546 553/553/553 552/552/552
f 546/546/546 554/554/554 553/553/553
f 546/546/546 555/555/555 554/554/554
f 546/546/546 556/556/556 555/555/555
f 546/546/546 557/557/557 556/556/556
f 546/546/546 558/558/558 557/557/557
f 546/546/546 547/547/547 558/558/558
