# OBJ file: pipe_elbow
o pipe_elbow
v 0.069000 0.000000 0.000000
v 0.067554 0.000000 0.007271
v 0.063435 0.000000 0.013435
v 0.057271 0.000000 0.017554
v 0.050000 0.000000 0.019000
v 0.042729 0.000000 0.017554
v 0.036565 0.000000 0.013435
v 0.032446 0.000000 0.007271
v 0.031000 0.000000 0.000000
v 0.032446 0.000000 -0.007271
v 0.036565 0.000000 -0.013435
v 0.042729 0.000000 -0.017554
v 0.050000 0.000000 -0.019000
v 0.057271 0.000000 -0.017554
v 0.063435 0.000000 -0.013435
v 0.067554 0.000000 -0.007271
v 0.068668 -0.006763 0.000000
v 0.067228 -0.006621 0.007271
v 0.063130 -0.006218 0.013435
v 0.056995 -0.005614 0.017554
v 0.049759 -0.004901 0.019000
v 0.042523 -0.004188 0.017554
v 0.036389 -0.003584 0.013435
v 0.032290 -0.003180 0.007271
v 0.030851 -0.003039 0.000000
v 0.032290 -0.003180 -0.007271
v 0.036389 -0.003584 -0.013435
v 0.042523 -0.004188 -0.017554
v 0.049759 -0.004901 -0.019000
v 0.056995 -0.005614 -0.017554
v 0.063130 -0.006218 -0.013435
v 0.067228 -0.006621 -0.007271
v 0.067674 -0.013461 0.000000
v 0.066256 -0.013179 0.007271
v 0.062216 -0.012376 0.013435
v 0.056171 -0.011173 0.017554
v 0.049039 -0.009755 0.019000
v 0.041908 -0.008336 0.017554
v 0.035862 -0.007133 0.013435
v 0.031823 -0.006330 0.007271
v 0.030404 -0.006048 0.000000
v 0.031823 -0.006330 -0.007271
v 0.035862 -0.007133 -0.013435
v 0.041908 -0.008336 -0.017554
v 0.049039 -0.009755 -0.019000
v 0.056171 -0.011173 -0.017554
v 0.062216 -0.012376 -0.013435
v 0.066256 -0.013179 -0.007271
v 0.066029 -0.020030 0.000000
v 0.064645 -0.019610 0.007271
v 0.060704 -0.018414 0.013435
v 0.054805 -0.016625 0.017554
v 0.047847 -0.014514 0.019000
v 0.040889 -0.012404 0.017554
v 0.034990 -0.010614 0.013435
v 0.031049 -0.009419 0.007271
v 0.029665 -0.008999 0.000000
v 0.031049 -0.009419 -0.007271
v 0.034990 -0.010614 -0.013435
v 0.040889 -0.012404 -0.017554
v 0.047847 -0.014514 -0.019000
v 0.054805 -0.016625 -0.017554
v 0.060704 -0.018414 -0.013435
v 0.064645 -0.019610 -0.007271
v 0.063748 -0.026405 0.000000
v 0.062411 -0.025852 0.007271
v 0.058606 -0.024276 0.013435
v 0.052911 -0.021917 0.017554
v 0.046194 -0.019134 0.019000
v 0.039476 -0.016352 0.017554
v 0.033782 -0.013993 0.013435
v 0.029976 -0.012417 0.007271
v 0.028640 -0.011863 0.000000
v 0.029976 -0.012417 -0.007271
v 0.033782 -0.013993 -0.013435
v 0.039476 -0.016352 -0.017554
v 0.046194 -0.019134 -0.019000
v 0.052911 -0.021917 -0.017554
v 0.058606 -0.024276 -0.013435
v 0.062411 -0.025852 -0.007271
v 0.060853 -0.032526 0.000000
v 0.059577 -0.031845 0.007271
v 0.055945 -0.029903 0.013435
v 0.050508 -0.026997 0.017554
v 0.044096 -0.023570 0.019000
v 0.037684 -0.020142 0.017554
v 0.032247 -0.017237 0.013435
v 0.028615 -0.015295 0.007271
v 0.027340 -0.014613 0.000000
v 0.028615 -0.015295 -0.007271
v 0.032247 -0.017237 -0.013435
v 0.037684 -0.020142 -0.017554
v 0.044096 -0.023570 -0.019000
v 0.050508 -0.026997 -0.017554
v 0.055945 -0.029903 -0.013435
v 0.059577 -0.031845 -0.007271
v 0.057371 -0.038334 0.000000
v 0.056169 -0.037531 0.007271
v 0.052744 -0.035243 0.013435
v 0.047619 -0.031818 0.017554
v 0.041573 -0.027779 0.019000
v 0.035528 -0.023739 0.017554
v 0.030403 -0.020314 0.013435
v 0.026978 -0.018026 0.007271
v 0.025776 -0.017223 0.000000
v 0.026978 -0.018026 -0.007271
v 0.030403 -0.020314 -0.013435
v 0.035528 -0.023739 -0.017554
v 0.041573 -0.027779 -0.019000
v 0.047619 -0.031818 -0.017554
v 0.052744 -0.035243 -0.013435
v 0.056169 -0.037531 -0.007271
v 0.053338 -0.043773 0.000000
v 0.052220 -0.042856 0.007271
v 0.049036 -0.040243 0.013435
v 0.044271 -0.036332 0.017554
v 0.038651 -0.031720 0.019000
v 0.033030 -0.027107 0.017554
v 0.028265 -0.023197 0.013435
v 0.025081 -0.020584 0.007271
v 0.023963 -0.019666 0.000000
v 0.025081 -0.020584 -0.007271
v 0.028265 -0.023197 -0.013435
v 0.033030 -0.027107 -0.017554
v 0.038651 -0.031720 -0.019000
v 0.044271 -0.036332 -0.017554
v 0.049036 -0.040243 -0.013435
v 0.052220 -0.042856 -0.007271
v 0.048790 -0.048790 0.000000
v 0.047768 -0.047768 0.007271
v 0.044855 -0.044855 0.013435
v 0.040497 -0.040497 0.017554
v 0.035355 -0.035355 0.019000
v 0.030214 -0.030214 0.017554
v 0.025855 -0.025855 0.013435
v 0.022943 -0.022943 0.007271
v 0.021920 -0.021920 0.000000
v 0.022943 -0.022943 -0.007271
v 0.025855 -0.025855 -0.013435
v 0.030214 -0.030214 -0.017554
v 0.035355 -0.035355 -0.019000
v 0.040497 -0.040497 -0.017554
v 0.044855 -0.044855 -0.013435
v 0.047768 -0.047768 -0.007271
v 0.043773 -0.053338 0.000000
v 0.042856 -0.052220 0.007271
v 0.040243 -0.049036 0.013435
v 0.036332 -0.044271 0.017554
v 0.031720 -0.038651 0.019000
v 0.027107 -0.033030 0.017554
v 0.023197 -0.028265 0.013435
v 0.020584 -0.025081 0.007271
v 0.019666 -0.023963 0.000000
v 0.020584 -0.025081 -0.007271
v 0.023197 -0.028265 -0.013435
v 0.027107 -0.033030 -0.017554
v 0.031720 -0.038651 -0.019000
v 0.036332 -0.044271 -0.017554
v 0.040243 -0.049036 -0.013435
v 0.042856 -0.052220 -0.007271
v 0.038334 -0.057371 0.000000
v 0.037531 -0.056169 0.007271
v 0.035243 -0.052744 0.013435
v 0.031818 -0.047619 0.017554
v 0.027779 -0.041573 0.019000
v 0.023739 -0.035528 0.017554
v 0.020314 -0.030403 0.013435
v 0.018026 -0.026978 0.007271
v 0.017223 -0.025776 0.000000
v 0.018026 -0.026978 -0.007271
v 0.020314 -0.030403 -0.013435
v 0.023739 -0.035528 -0.017554
v 0.027779 -0.041573 -0.019000
v 0.031818 -0.047619 -0.017554
v 0.035243 -0.052744 -0.013435
v 0.037531 -0.056169 -0.007271
v 0.032526 -0.060853 0.000000
v 0.031845 -0.059577 0.007271
v 0.029903 -0.055945 0.013435
v 0.026997 -0.050508 0.017554
v 0.023570 -0.044096 0.019000
v 0.020142 -0.037684 0.017554
v 0.017237 -0.032247 0.013435
v 0.015295 -0.028615 0.007271
v 0.014613 -0.027340 0.000000
v 0.015295 -0.028615 -0.007271
v 0.017237 -0.032247 -0.013435
v 0.020142 -0.037684 -0.017554
v 0.023570 -0.044096 -0.019000
v 0.026997 -0.050508 -0.017554
v 0.029903 -0.055945 -0.013435
v 0.031845 -0.059577 -0.007271
v 0.026405 -0.063748 0.000000
v 0.025852 -0.062411 0.007271
v 0.024276 -0.058606 0.013435
v 0.021917 -0.052911 0.017554
v 0.019134 -0.046194 0.019000
v 0.016352 -0.039476 0.017554
v 0.013993 -0.033782 0.013435
v 0.012417 -0.029976 0.007271
v 0.011863 -0.028640 0.000000
v 0.012417 -0.029976 -0.007271
v 0.013993 -0.033782 -0.013435
v 0.016352 -0.039476 -0.017554
v 0.019134 -0.046194 -0.019000
v 0.021917 -0.052911 -0.017554
v 0.024276 -0.058606 -0.013435
v 0.025852 -0.062411 -0.007271
v 0.020030 -0.066029 0.000000
v 0.019610 -0.064645 0.007271
v 0.018414 -0.060704 0.013435
v 0.016625 -0.054805 0.017554
v 0.014514 -0.047847 0.019000
v 0.012404 -0.040889 0.017554
v 0.010614 -0.034990 0.013435
v 0.009419 -0.031049 0.007271
v 0.008999 -0.029665 0.000000
v 0.009419 -0.031049 -0.007271
v 0.010614 -0.034990 -0.013435
v 0.012404 -0.040889 -0.017554
v 0.014514 -0.047847 -0.019000
v 0.016625 -0.054805 -0.017554
v 0.018414 -0.060704 -0.013435
v 0.019610 -0.064645 -0.007271
v 0.013461 -0.067674 0.000000
v 0.013179 -0.066256 0.007271
v 0.012376 -0.062216 0.013435
v 0.011173 -0.056171 0.017554
v 0.009755 -0.049039 0.019000
v 0.008336 -0.041908 0.017554
v 0.007133 -0.035862 0.013435
v 0.006330 -0.031823 0.007271
v 0.006048 -0.030404 0.000000
v 0.006330 -0.031823 -0.007271
v 0.007133 -0.035862 -0.013435
v 0.008336 -0.041908 -0.017554
v 0.009755 -0.049039 -0.019000
v 0.011173 -0.056171 -0.017554
v 0.012376 -0.062216 -0.013435
v 0.013179 -0.066256 -0.007271
v 0.006763 -0.068668 0.000000
v 0.006621 -0.067228 0.007271
v 0.006218 -0.063130 0.013435
v 0.005614 -0.056995 0.017554
v 0.004901 -0.049759 0.019000
v 0.004188 -0.042523 0.017554
v 0.003584 -0.036389 0.013435
v 0.003180 -0.032290 0.007271
v 0.003039 -0.030851 0.000000
v 0.003180 -0.032290 -0.007271
v 0.003584 -0.036389 -0.013435
v 0.004188 -0.042523 -0.017554
v 0.004901 -0.049759 -0.019000
v 0.005614 -0.056995 -0.017554
v 0.006218 -0.063130 -0.013435
v 0.006621 -0.067228 -0.007271
v 0.000000 -0.069000 0.000000
v 0.000000 -0.067554 0.007271
v 0.000000 -0.063435 0.013435
v 0.000000 -0.057271 0.017554
v 0.000000 -0.050000 0.019000
v 0.000000 -0.042729 0.017554
v 0.000000 -0.036565 0.013435
v 0.000000 -0.032446 0.007271
v 0.000000 -0.031000 0.000000
v 0.000000 -0.032446 -0.007271
v 0.000000 -0.036565 -0.013435
v 0.000000 -0.042729 -0.017554
v 0.000000 -0.050000 -0.019000
v 0.000000 -0.057271 -0.017554
v 0.000000 -0.063435 -0.013435
v 0.000000 -0.067554 -0.007271
v 0.044000 0.000000 -0.028000
v 0.056000 0.000000 -0.028000
v 0.044000 0.007247 -0.027046
v 0.056000 0.007247 -0.027046
v 0.044000 0.014000 -0.024249
v 0.056000 0.014000 -0.024249
v 0.044000 0.019799 -0.019799
v 0.056000 0.019799 -0.019799
v 0.044000 0.024249 -0.014000
v 0.056000 0.024249 -0.014000
v 0.044000 0.027046 -0.007247
v 0.056000 0.027046 -0.007247
v 0.044000 0.028000 -0.000000
v 0.056000 0.028000 -0.000000
v 0.044000 0.027046 0.007247
v 0.056000 0.027046 0.007247
v 0.044000 0.024249 0.014000
v 0.056000 0.024249 0.014000
v 0.044000 0.019799 0.019799
v 0.056000 0.019799 0.019799
v 0.044000 0.014000 0.024249
v 0.056000 0.014000 0.024249
v 0.044000 0.007247 0.027046
v 0.056000 0.007247 0.027046
v 0.044000 0.000000 0.028000
v 0.056000 0.000000 0.028000
v 0.044000 -0.007247 0.027046
v 0.056000 -0.007247 0.027046
v 0.044000 -0.014000 0.024249
v 0.056000 -0.014000 0.024249
v 0.044000 -0.019799 0.019799
v 0.056000 -0.019799 0.019799
v 0.044000 -0.024249 0.014000
v 0.056000 -0.024249 0.014000
v 0.044000 -0.027046 0.007247
v 0.056000 -0.027046 0.007247
v 0.044000 -0.028000 0.000000
v 0.056000 -0.028000 0.000000
v 0.044000 -0.027046 -0.007247
v 0.056000 -0.027046 -0.007247
v 0.044000 -0.024249 -0.014000
v 0.056000 -0.024249 -0.014000
v 0.044000 -0.019799 -0.019799
v 0.056000 -0.019799 -0.019799
v 0.044000 -0.014000 -0.024249
v 0.056000 -0.014000 -0.024249
v 0.044000 -0.007247 -0.027046
v 0.056000 -0.007247 -0.027046
v 0.056000 0.000000 0.000000
v 0.056000 0.000000 -0.028000
v 0.056000 0.007247 -0.027046
v 0.056000 0.014000 -0.024249
v 0.056000 0.019799 -0.019799
v 0.056000 0.024249 -0.014000
v 0.056000 0.027046 -0.007247
v 0.056000 0.028000 -0.000000
v 0.056000 0.027046 0.007247
v 0.056000 0.024249 0.014000
v 0.056000 0.019799 0.019799
v 0.056000 0.014000 0.024249
v 0.056000 0.007247 0.027046
v 0.056000 0.000000 0.028000
v 0.056000 -0.007247 0.027046
v 0.056000 -0.014000 0.024249
v 0.056000 -0.019799 0.019799
v 0.056000 -0.024249 0.014000
v 0.056000 -0.027046 0.007247
v 0.056000 -0.028000 0.000000
v 0.056000 -0.027046 -0.007247
v 0.056000 -0.024249 -0.014000
v 0.056000 -0.019799 -0.019799
v 0.056000 -0.014000 -0.024249
v 0.056000 -0.007247 -0.027046
v 0.044000 0.000000 0.000000
v 0.044000 0.000000 -0.028000
v 0.044000 0.007247 -0.027046
v 0.044000 0.014000 -0.024249
v 0.044000 0.019799 -0.019799
v 0.044000 0.024249 -0.014000
v 0.044000 0.027046 -0.007247
v 0.044000 0.028000 -0.000000
v 0.044000 0.027046 0.007247
v 0.044000 0.024249 0.014000
v 0.044000 0.019799 0.019799
v 0.044000 0.014000 0.024249
v 0.044000 0.007247 0.027046
v 0.044000 0.000000 0.028000
v 0.044000 -0.007247 0.027046
v 0.044000 -0.014000 0.024249
v 0.044000 -0.019799 0.019799
v 0.044000 -0.024249 0.014000
v 0.044000 -0.027046 0.007247
v 0.044000 -0.028000 0.000000
v 0.044000 -0.027046 -0.007247
v 0.044000 -0.024249 -0.014000
v 0.044000 -0.019799 -0.019799
v 0.044000 -0.014000 -0.024249
v 0.044000 -0.007247 -0.027046
v 0.000000 -0.044000 -0.028000
v 0.000000 -0.056000 -0.028000
v 0.007247 -0.044000 -0.027046
v 0.007247 -0.056000 -0.027046
v 0.014000 -0.044000 -0.024249
v 0.014000 -0.056000 -0.024249
v 0.019799 -0.044000 -0.019799
v 0.019799 -0.056000 -0.019799
v 0.024249 -0.044000 -0.014000
v 0.024249 -0.056000 -0.014000
v 0.027046 -0.044000 -0.007247
v 0.027046 -0.056000 -0.007247
v 0.028000 -0.044000 -0.000000
v 0.028000 -0.056000 -0.000000
v 0.027046 -0.044000 0.007247
v 0.027046 -0.056000 0.007247
v 0.024249 -0.044000 0.014000
v 0.024249 -0.056000 0.014000
v 0.019799 -0.044000 0.019799
v 0.019799 -0.056000 0.019799
v 0.014000 -0.044000 0.024249
v 0.014000 -0.056000 0.024249
v 0.007247 -0.044000 0.027046
v 0.007247 -0.056000 0.027046
v 0.000000 -0.044000 0.028000
v 0.000000 -0.056000 0.028000
v -0.007247 -0.044000 0.027046
v -0.007247 -0.056000 0.027046
v -0.014000 -0.044000 0.024249
v -0.014000 -0.056000 0.024249
v -0.019799 -0.044000 0.019799
v -0.019799 -0.056000 0.019799
v -0.024249 -0.044000 0.014000
v -0.024249 -0.056000 0.014000
v -0.027046 -0.044000 0.007247
v -0.027046 -0.056000 0.007247
v -0.028000 -0.044000 0.000000
v -0.028000 -0.056000 0.000000
v -0.027046 -0.044000 -0.007247
v -0.027046 -0.056000 -0.007247
v -0.024249 -0.044000 -0.014000
v -0.024249 -0.056000 -0.014000
v -0.019799 -0.044000 -0.019799
v -0.019799 -0.056000 -0.019799
v -0.014000 -0.044000 -0.024249
v -0.014000 -0.056000 -0.024249
v -0.007247 -0.044000 -0.027046
v -0.007247 -0.056000 -0.027046
v 0.000000 -0.056000 0.000000
v 0.000000 -0.056000 -0.028000
v 0.007247 -0.056000 -0.027046
v 0.014000 -0.056000 -0.024249
v 0.019799 -0.056000 -0.019799
v 0.024249 -0.056000 -0.014000
v 0.027046 -0.056000 -0.007247
v 0.028000 -0.056000 -0.000000
v 0.027046 -0.056000 0.007247
v 0.024249 -0.056000 0.014000
v 0.019799 -0.056000 0.019799
v 0.014000 -0.056000 0.024249
v 0.007247 -0.056000 0.027046
v 0.000000 -0.056000 0.028000
v -0.007247 -0.056000 0.027046
v -0.014000 -0.056000 0.024249
v -0.019799 -0.056000 0.019799
v -0.024249 -0.056000 0.014000
v -0.027046 -0.056000 0.007247
v -0.028000 -0.056000 0.000000
v -0.027046 -0.056000 -0.007247
v -0.024249 -0.056000 -0.014000
v -0.019799 -0.056000 -0.019799
v -0.014000 -0.056000 -0.024249
v -0.007247 -0.056000 -0.027046
v 0.000000 -0.044000 0.000000
v 0.000000 -0.044000 -0.028000
v 0.007247 -0.044000 -0.027046
v 0.014000 -0.044000 -0.024249
v 0.019799 -0.044000 -0.019799
v 0.024249 -0.044000 -0.014000
v 0.027046 -0.044000 -0.007247
v 0.028000 -0.044000 -0.000000
v 0.027046 -0.044000 0.007247
v 0.024249 -0.044000 0.014000
v 0.019799 -0.044000 0.019799
v 0.014000 -0.044000 0.024249
v 0.007247 -0.044000 0.027046
v 0.000000 -0.044000 0.028000
v -0.007247 -0.044000 0.027046
v -0.014000 -0.044000 0.024249
v -0.019799 -0.044000 0.019799
v -0.024249 -0.044000 0.014000
v -0.027046 -0.044000 0.007247
v -0.028000 -0.044000 0.000000
v -0.027046 -0.044000 -0.007247
v -0.024249 -0.044000 -0.014000
v -0.019799 -0.044000 -0.019799
v -0.014000 -0.044000 -0.024249
v -0.007247 -0.044000 -0.027046
vt 0.000000 0.000000
vt 0.000000 0.062500
vt 0.000000 0.125000
vt 0.000000 0.187500
vt 0.000000 0.250000
vt 0.000000 0.312500
vt 0.000000 0.375000
vt 0.000000 0.437500
vt 0.000000 0.500000
vt 0.000000 0.562500
vt 0.000000 0.625000
vt 0.000000 0.687500
vt 0.000000 0.750000
vt 0.000000 0.812500
vt 0.000000 0.875000
vt 0.000000 0.937500
vt 0.062500 0.000000
vt 0.062500 0.062500
vt 0.062500 0.125000
vt 0.062500 0.187500
vt 0.062500 0.250000
vt 0.062500 0.312500
vt 0.062500 0.375000
vt 0.062500 0.437500
vt 0.062500 0.500000
vt 0.062500 0.562500
vt 0.062500 0.625000
vt 0.062500 0.687500
vt 0.062500 0.750000
vt 0.062500 0.812500
vt 0.062500 0.875000
vt 0.062500 0.937500
vt 0.125000 0.000000
vt 0.125000 0.062500
vt 0.125000 0.125000
vt 0.125000 0.187500
vt 0.125000 0.250000
vt 0.125000 0.312500
vt 0.125000 0.375000
vt 0.125000 0.437500
vt 0.125000 0.500000
vt 0.125000 0.562500
vt 0.125000 0.625000
vt 0.125000 0.687500
vt 0.125000 0.750000
vt 0.125000 0.812500
vt 0.125000 0.875000
vt 0.125000 0.937500
vt 0.187500 0.000000
vt 0.187500 0.062500
vt 0.187500 0.125000
vt 0.187500 0.187500
vt 0.187500 0.250000
vt 0.187500 0.312500
vt 0.187500 0.375000
vt 0.187500 0.437500
vt 0.187500 0.500000
vt 0.187500 0.562500
vt 0.187500 0.625000
vt 0.187500 0.687500
vt 0.187500 0.750000
vt 0.187500 0.812500
vt 0.187500 0.875000
vt 0.187500 0.937500
vt 0.250000 0.000000
vt 0.250000 0.062500
vt 0.250000 0.125000
vt 0.250000 0.187500
vt 0.250000 0.250000
vt 0.250000 0.312500
vt 0.250000 0.375000
vt 0.250000 0.437500
vt 0.250000 0.500000
vt 0.250000 0.562500
vt 0.250000 0.625000
vt 0.250000 0.687500
vt 0.250000 0.750000
vt 0.250000 0.812500
vt 0.250000 0.875000
vt 0.250000 0.937500
vt 0.312500 0.000000
vt 0.312500 0.062500
vt 0.312500 0.125000
vt 0.312500 0.187500
vt 0.312500 0.250000
vt 0.312500 0.312500
vt 0.312500 0.375000
vt 0.312500 0.437500
vt 0.312500 0.500000
vt 0.312500 0.562500
vt 0.312500 0.625000
vt 0.312500 0.687500
vt 0.312500 0.750000
vt 0.312500 0.812500
vt 0.312500 0.875000
vt 0.312500 0.937500
vt 0.375000 0.000000
vt 0.375000 0.062500
vt 0.375000 0.125000
vt 0.375000 0.187500
vt 0.375000 0.250000
vt 0.375000 0.312500
vt 0.375000 0.375000
vt 0.375000 0.437500
vt 0.375000 0.500000
vt 0.375000 0.562500
vt 0.375000 0.625000
vt 0.375000 0.687500
vt 0.375000 0.750000
vt 0.375000 0.812500
vt 0.375000 0.875000
vt 0.375000 0.937500
vt 0.437500 0.000000
vt 0.437500 0.062500
vt 0.437500 0.125000
vt 0.437500 0.187500
vt 0.437500 0.250000
vt 0.437500 0.312500
vt 0.437500 0.375000
vt 0.437500 0.437500
vt 0.437500 0.500000
vt 0.437500 0.562500
vt 0.437500 0.625000
vt 0.437500 0.687500
vt 0.437500 0.750000
vt 0.437500 0.812500
vt 0.437500 0.875000
vt 0.437500 0.937500
vt 0.500000 0.000000
vt 0.500000 0.062500
vt 0.500000 0.125000
vt 0.500000 0.187500
vt 0.500000 0.250000
vt 0.500000 0.312500
vt 0.500000 0.375000
vt 0.500000 0.437500
vt 0.500000 0.500000
vt 0.500000 0.562500
vt 0.500000 0.625000
vt 0.500000 0.687500
vt 0.500000 0.750000
vt 0.500000 0.812500
vt 0.500000 0.875000
vt 0.500000 0.937500
vt 0.562500 0.000000
vt 0.562500 0.062500
vt 0.562500 0.125000
vt 0.562500 0.187500
vt 0.562500 0.250000
vt 0.562500 0.312500
vt 0.562500 0.375000
vt 0.562500 0.437500
vt 0.562500 0.500000
vt 0.562500 0.562500
vt 0.562500 0.625000
vt 0.562500 0.687500
vt 0.562500 0.750000
vt 0.562500 0.812500
vt 0.562500 0.875000
vt 0.562500 0.937500
vt 0.625000 0.000000
vt 0.625000 0.062500
vt 0.625000 0.125000
vt 0.625000 0.187500
vt 0.625000 0.250000
vt 0.625000 0.312500
vt 0.625000 0.375000
vt 0.625000 0.437500
vt 0.625000 0.500000
vt 0.625000 0.562500
vt 0.625000 0.625000
vt 0.625000 0.687500
vt 0.625000 0.750000
vt 0.625000 0.812500
vt 0.625000 0.875000
vt 0.625000 0.937500
vt 0.687500 0.000000
vt 0.687500 0.062500
vt 0.687500 0.125000
vt 0.687500 0.187500
vt 0.687500 0.250000
vt 0.687500 0.312500
vt 0.687500 0.375000
vt 0.687500 0.437500
vt 0.687500 0.500000
vt 0.687500 0.562500
vt 0.687500 0.625000
vt 0.687500 0.687500
vt 0.687500 0.750000
vt 0.687500 0.812500
vt 0.687500 0.875000
vt 0.687500 0.937500
vt 0.750000 0.000000
vt 0.750000 0.062500
vt 0.750000 0.125000
vt 0.750000 0.187500
vt 0.750000 0.250000
vt 0.750000 0.312500
vt 0.750000 0.375000
vt 0.750000 0.437500
vt 0.750000 0.500000
vt 0.750000 0.562500
vt 0.750000 0.625000
vt 0.750000 0.687500
vt 0.750000 0.750000
vt 0.750000 0.812500
vt 0.750000 0.875000
vt 0.750000 0.937500
vt 0.812500 0.000000
vt 0.812500 0.062500
vt 0.812500 0.125000
vt 0.812500 0.187500
vt 0.812500 0.250000
vt 0.812500 0.312500
vt 0.812500 0.375000
vt 0.812500 0.437500
vt 0.812500 0.500000
vt 0.812500 0.562500
vt 0.812500 0.625000
vt 0.812500 0.687500
vt 0.812500 0.750000
vt 0.812500 0.812500
vt 0.812500 0.875000
vt 0.812500 0.937500
vt 0.875000 0.000000
vt 0.875000 0.062500
vt 0.875000 0.125000
vt 0.875000 0.187500
vt 0.875000 0.250000
vt 0.875000 0.312500
vt 0.875000 0.375000
vt 0.875000 0.437500
vt 0.875000 0.500000
vt 0.875000 0.562500
vt 0.875000 0.625000
vt 0.875000 0.687500
vt 0.875000 0.750000
vt 0.875000 0.812500
vt 0.875000 0.875000
vt 0.875000 0.937500
vt 0.937500 0.000000
vt 0.937500 0.062500
vt 0.937500 0.125000
vt 0.937500 0.187500
vt 0.937500 0.250000
vt 0.937500 0.312500
vt 0.937500 0.375000
vt 0.937500 0.437500
vt 0.937500 0.500000
vt 0.937500 0.562500
vt 0.937500 0.625000
vt 0.937500 0.687500
vt 0.937500 0.750000
vt 0.937500 0.812500
vt 0.937500 0.875000
vt 0.937500 0.937500
vt 1.000000 0.000000
vt 1.000000 0.062500
vt 1.000000 0.125000
vt 1.000000 0.187500
vt 1.000000 0.250000
vt 1.000000 0.312500
vt 1.000000 0.375000
vt 1.000000 0.437500
vt 1.000000 0.500000
vt 1.000000 0.562500
vt 1.000000 0.625000
vt 1.000000 0.687500
vt 1.000000 0.750000
vt 1.000000 0.812500
vt 1.000000 0.875000
vt 1.000000 0.937500
vt 0.000000 0.000000
vt 0.000000 1.000000
vt 0.041667 0.000000
vt 0.041667 1.000000
vt 0.083333 0.000000
vt 0.083333 1.000000
vt 0.125000 0.000000
vt 0.125000 1.000000
vt 0.166667 0.000000
vt 0.166667 1.000000
vt 0.208333 0.000000
vt 0.208333 1.000000
vt 0.250000 0.000000
vt 0.250000 1.000000
vt 0.291667 0.000000
vt 0.291667 1.000000
vt 0.333333 0.000000
vt 0.333333 1.000000
vt 0.375000 0.000000
vt 0.375000 1.000000
vt 0.416667 0.000000
vt 0.416667 1.000000
vt 0.458333 0.000000
vt 0.458333 1.000000
vt 0.500000 0.000000
vt 0.500000 1.000000
vt 0.541667 0.000000
vt 0.541667 1.000000
vt 0.583333 0.000000
vt 0.583333 1.000000
vt 0.625000 0.000000
vt 0.625000 1.000000
vt 0.666667 0.000000
vt 0.666667 1.000000
vt 0.708333 0.000000
vt 0.708333 1.000000
vt 0.750000 0.000000
vt 0.750000 1.000000
vt 0.791667 0.000000
vt 0.791667 1.000000
vt 0.833333 0.000000
vt 0.833333 1.000000
vt 0.875000 0.000000
vt 0.875000 1.000000
vt 0.916667 0.000000
vt 0.916667 1.000000
vt 0.958333 0.000000
vt 0.958333 1.000000
vt 0.500000 0.500000
vt 1.000000 0.500000
vt 0.982963 0.629410
vt 0.933013 0.750000
vt 0.853553 0.853553
vt 0.750000 0.933013
vt 0.629410 0.982963
vt 0.500000 1.000000
vt 0.370590 0.982963
vt 0.250000 0.933013
vt 0.146447 0.853553
vt 0.066987 0.750000
vt 0.017037 0.629410
vt 0.000000 0.500000
vt 0.017037 0.370590
vt 0.066987 0.250000
vt 0.146447 0.146447
vt 0.250000 0.066987
vt 0.370590 0.017037
vt 0.500000 0.000000
vt 0.629410 0.017037
vt 0.750000 0.066987
vt 0.853553 0.146447
vt 0.933013 0.250000
vt 0.982963 0.370590
vt 0.500000 0.500000
vt 1.000000 0.500000
vt 0.982963 0.629410
vt 0.933013 0.750000
vt 0.853553 0.853553
vt 0.750000 0.933013
vt 0.629410 0.982963
vt 0.500000 1.000000
vt 0.370590 0.982963
vt 0.250000 0.933013
vt 0.146447 0.853553
vt 0.066987 0.750000
vt 0.017037 0.629410
vt 0.000000 0.500000
vt 0.017037 0.370590
vt 0.066987 0.250000
vt 0.146447 0.146447
vt 0.250000 0.066987
vt 0.370590 0.017037
vt 0.500000 0.000000
vt 0.629410 0.017037
vt 0.750000 0.066987
vt 0.853553 0.146447
vt 0.933013 0.250000
vt 0.982963 0.370590
vt 0.000000 0.000000
vt 0.000000 1.000000
vt 0.041667 0.000000
vt 0.041667 1.000000
vt 0.083333 0.000000
vt 0.083333 1.000000
vt 0.125000 0.000000
vt 0.125000 1.000000
vt 0.166667 0.000000
vt 0.166667 1.000000
vt 0.208333 0.000000
vt 0.208333 1.000000
vt 0.250000 0.000000
vt 0.250000 1.000000
vt 0.291667 0.000000
vt 0.291667 1.000000
vt 0.333333 0.000000
vt 0.333333 1.000000
vt 0.375000 0.000000
vt 0.375000 1.000000
vt 0.416667 0.000000
vt 0.416667 1.000000
vt 0.458333 0.000000
vt 0.458333 1.000000
vt 0.500000 0.000000
vt 0.500000 1.000000
vt 0.541667 0.000000
vt 0.541667 1.000000
vt 0.583333 0.000000
vt 0.583333 1.000000
vt 0.625000 0.000000
vt 0.625000 1.000000
vt 0.666667 0.000000
vt 0.666667 1.000000
vt 0.708333 0.000000
vt 0.708333 1.000000
vt 0.750000 0.000000
vt 0.750000 1.000000
vt 0.791667 0.000000
vt 0.791667 1.000000
vt 0.833333 0.000000
vt 0.833333 1.000000
vt 0.875000 0.000000
vt 0.875000 1.000000
vt 0.916667 0.000000
vt 0.916667 1.000000
vt 0.958333 0.000000
vt 0.958333 1.000000
vt 0.500000 0.500000
vt 1.000000 0.500000
vt 0.982963 0.629410
vt 0.933013 0.750000
vt 0.853553 0.853553
vt 0.750000 0.933013
vt 0.629410 0.982963
vt 0.500000 1.000000
vt 0.370590 0.982963
vt 0.250000 0.933013
vt 0.146447 0.853553
vt 0.066987 0.750000
vt 0.017037 0.629410
vt 0.000000 0.500000
vt 0.017037 0.370590
vt 0.066987 0.250000
vt 0.146447 0.146447
vt 0.250000 0.066987
vt 0.370590 0.017037
vt 0.500000 0.000000
vt 0.629410 0.017037
vt 0.750000 0.066987
vt 0.853553 0.146447
vt 0.933013 0.250000
vt 0.982963 0.370590
vt 0.500000 0.500000
vt 1.000000 0.500000
vt 0.982963 0.629410
vt 0.933013 0.750000
vt 0.853553 0.853553
vt 0.750000 0.933013
vt 0.629410 0.982963
vt 0.500000 1.000000
vt 0.370590 0.982963
vt 0.250000 0.933013
vt 0.146447 0.853553
vt 0.066987 0.750000
vt 0.017037 0.629410
vt 0.000000 0.500000
vt 0.017037 0.370590
vt 0.066987 0.250000
vt 0.146447 0.146447
vt 0.250000 0.066987
vt 0.370590 0.017037
vt 0.500000 0.000000
vt 0.629410 0.017037
vt 0.750000 0.066987
vt 0.853553 0.146447
vt 0.933013 0.250000
vt 0.982963 0.370590
vn 1.000000 0.000000 0.000000
vn 0.923880 0.000000 0.382683
vn 0.707107 0.000000 0.707107
vn 0.382683 0.000000 0.923880
vn 0.000000 0.000000 1.000000
vn -0.382683 0.000000 0.923880
vn -0.707107 0.000000 0.707107
vn -0.923880 0.000000 0.382683
vn -1.000000 0.000000 0.000000
vn -0.923880 0.000000 -0.382683
vn -0.707107 0.000000 -0.707107
vn -0.382683 0.000000 -0.923880
vn -0.000000 0.000000 -1.000000
vn 0.382683 -0.000000 -0.923880
vn 0.707107 -0.000000 -0.707107
vn 0.923880 -0.000000 -0.382683
vn 0.995185 -0.098017 0.000000
vn 0.919431 -0.090556 0.382683
vn 0.703702 -0.069309 0.707107
vn 0.380841 -0.037510 0.923880
vn 0.000000 -0.000000 1.000000
vn -0.380841 0.037510 0.923880
vn -0.703702 0.069309 0.707107
vn -0.919431 0.090556 0.382683
vn -0.995185 0.098017 0.000000
vn -0.919431 0.090556 -0.382683
vn -0.703702 0.069309 -0.707107
vn -0.380841 0.037510 -0.923880
vn -0.000000 0.000000 -1.000000
vn 0.380841 -0.037510 -0.923880
vn 0.703702 -0.069309 -0.707107
vn 0.919431 -0.090556 -0.382683
vn 0.980785 -0.195090 0.000000
vn 0.906127 -0.180240 0.382683
vn 0.693520 -0.137950 0.707107
vn 0.375330 -0.074658 0.923880
vn 0.000000 -0.000000 1.000000
vn -0.375330 0.074658 0.923880
vn -0.693520 0.137950 0.707107
vn -0.906127 0.180240 0.382683
vn -0.980785 0.195090 0.000000
vn -0.906127 0.180240 -0.382683
vn -0.693520 0.137950 -0.707107
vn -0.375330 0.074658 -0.923880
vn -0.000000 0.000000 -1.000000
vn 0.375330 -0.074658 -0.923880
vn 0.693520 -0.137950 -0.707107
vn 0.906127 -0.180240 -0.382683
vn 0.956940 -0.290285 0.000000
vn 0.884098 -0.268188 0.382683
vn 0.676659 -0.205262 0.707107
vn 0.366205 -0.111087 0.923880
vn 0.000000 -0.000000 1.000000
vn -0.366205 0.111087 0.923880
vn -0.676659 0.205262 0.707107
vn -0.884098 0.268188 0.382683
vn -0.956940 0.290285 0.000000
vn -0.884098 0.268188 -0.382683
vn -0.676659 0.205262 -0.707107
vn -0.366205 0.111087 -0.923880
vn -0.000000 0.000000 -1.000000
vn 0.366205 -0.111087 -0.923880
vn 0.676659 -0.205262 -0.707107
vn 0.884098 -0.268188 -0.382683
vn 0.923880 -0.382683 0.000000
vn 0.853553 -0.353553 0.382683
vn 0.653281 -0.270598 0.707107
vn 0.353553 -0.146447 0.923880
vn 0.000000 -0.000000 1.000000
vn -0.353553 0.146447 0.923880
vn -0.653281 0.270598 0.707107
vn -0.853553 0.353553 0.382683
vn -0.923880 0.382683 0.000000
vn -0.853553 0.353553 -0.382683
vn -0.653281 0.270598 -0.707107
vn -0.353553 0.146447 -0.923880
vn -0.000000 0.000000 -1.000000
vn 0.353553 -0.146447 -0.923880
vn 0.653281 -0.270598 -0.707107
vn 0.853553 -0.353553 -0.382683
vn 0.881921 -0.471397 0.000000
vn 0.814789 -0.435514 0.382683
vn 0.623613 -0.333328 0.707107
vn 0.337497 -0.180396 0.923880
vn 0.000000 -0.000000 1.000000
vn -0.337497 0.180396 0.923880
vn -0.623613 0.333328 0.707107
vn -0.814789 0.435514 0.382683
vn -0.881921 0.471397 0.000000
vn -0.814789 0.435514 -0.382683
vn -0.623613 0.333328 -0.707107
vn -0.337497 0.180396 -0.923880
vn -0.000000 0.000000 -1.000000
vn 0.337497 -0.180396 -0.923880
vn 0.623613 -0.333328 -0.707107
vn 0.814789 -0.435514 -0.382683
vn 0.831470 -0.555570 0.000000
vn 0.768178 -0.513280 0.382683
vn 0.587938 -0.392847 0.707107
vn 0.318190 -0.212608 0.923880
vn 0.000000 -0.000000 1.000000
vn -0.318190 0.212608 0.923880
vn -0.587938 0.392847 0.707107
vn -0.768178 0.513280 0.382683
vn -0.831470 0.555570 0.000000
vn -0.768178 0.513280 -0.382683
vn -0.587938 0.392847 -0.707107
vn -0.318190 0.212608 -0.923880
vn -0.000000 0.000000 -1.000000
vn 0.318190 -0.212608 -0.923880
vn 0.587938 -0.392847 -0.707107
vn 0.768178 -0.513280 -0.382683
vn 0.773010 -0.634393 0.000000
vn 0.714169 -0.586103 0.382683
vn 0.546601 -0.448584 0.707107
vn 0.295818 -0.242772 0.923880
vn 0.000000 -0.000000 1.000000
vn -0.295818 0.242772 0.923880
vn -0.546601 0.448584 0.707107
vn -0.714169 0.586103 0.382683
vn -0.773010 0.634393 0.000000
vn -0.714169 0.586103 -0.382683
vn -0.546601 0.448584 -0.707107
vn -0.295818 0.242772 -0.923880
vn -0.000000 0.000000 -1.000000
vn 0.295818 -0.242772 -0.923880
vn 0.546601 -0.448584 -0.707107
vn 0.714169 -0.586103 -0.382683
vn 0.707107 -0.707107 0.000000
vn 0.653281 -0.653281 0.382683
vn 0.500000 -0.500000 0.707107
vn 0.270598 -0.270598 0.923880
vn 0.000000 -0.000000 1.000000
vn -0.270598 0.270598 0.923880
vn -0.500000 0.500000 0.707107
vn -0.653281 0.653281 0.382683
vn -0.707107 0.707107 0.000000
vn -0.653281 0.653281 -0.382683
vn -0.500000 0.500000 -0.707107
vn -0.270598 0.270598 -0.923880
vn -0.000000 0.000000 -1.000000
vn 0.270598 -0.270598 -0.923880
vn 0.500000 -0.500000 -0.707107
vn 0.653281 -0.653281 -0.382683
vn 0.634393 -0.773010 0.000000
vn 0.586103 -0.714169 0.382683
vn 0.448584 -0.546601 0.707107
vn 0.242772 -0.295818 0.923880
vn 0.000000 -0.000000 1.000000
vn -0.242772 0.295818 0.923880
vn -0.448584 0.546601 0.707107
vn -0.586103 0.714169 0.382683
vn -0.634393 0.773010 0.000000
vn -0.586103 0.714169 -0.382683
vn -0.448584 0.546601 -0.707107
vn -0.242772 0.295818 -0.923880
vn -0.000000 0.000000 -1.000000
vn 0.242772 -0.295818 -0.923880
vn 0.448584 -0.546601 -0.707107
vn 0.586103 -0.714169 -0.382683
vn 0.555570 -0.831470 0.000000
vn 0.513280 -0.768178 0.382683
vn 0.392847 -0.587938 0.707107
vn 0.212608 -0.318190 0.923880
vn 0.000000 -0.000000 1.000000
vn -0.212608 0.318190 0.923880
vn -0.392847 0.587938 0.707107
vn -0.513280 0.768178 0.382683
vn -0.555570 0.831470 0.000000
vn -0.513280 0.768178 -0.382683
vn -0.392847 0.587938 -0.707107
vn -0.212608 0.318190 -0.923880
vn -0.000000 0.000000 -1.000000
vn 0.212608 -0.318190 -0.923880
vn 0.392847 -0.587938 -0.707107
vn 0.513280 -0.768178 -0.382683
vn 0.471397 -0.881921 0.000000
vn 0.435514 -0.814789 0.382683
vn 0.333328 -0.623613 0.707107
vn 0.180396 -0.337497 0.923880
vn 0.000000 -0.000000 1.000000
vn -0.180396 0.337497 0.923880
vn -0.333328 0.623613 0.707107
vn -0.435514 0.814789 0.382683
vn -0.471397 0.881921 0.000000
vn -0.435514 0.814789 -0.382683
vn -0.333328 0.623613 -0.707107
vn -0.180396 0.337497 -0.923880
vn -0.000000 0.000000 -1.000000
vn 0.180396 -0.337497 -0.923880
vn 0.333328 -0.623613 -0.707107
vn 0.435514 -0.814789 -0.382683
vn 0.382683 -0.923880 0.000000
vn 0.353553 -0.853553 0.382683
vn 0.270598 -0.653281 0.707107
vn 0.146447 -0.353553 0.923880
vn 0.000000 -0.000000 1.000000
vn -0.146447 0.353553 0.923880
vn -0.270598 0.653281 0.707107
vn -0.353553 0.853553 0.382683
vn -0.382683 0.923880 0.000000
vn -0.353553 0.853553 -0.382683
vn -0.270598 0.653281 -0.707107
vn -0.146447 0.353553 -0.923880
vn -0.000000 0.000000 -1.000000
vn 0.146447 -0.353553 -0.923880
vn 0.270598 -0.653281 -0.707107
vn 0.353553 -0.853553 -0.382683
vn 0.290285 -0.956940 0.000000
vn 0.268188 -0.884098 0.382683
vn 0.205262 -0.676659 0.707107
vn 0.111087 -0.366205 0.923880
vn 0.000000 -0.000000 1.000000
vn -0.111087 0.366205 0.923880
vn -0.205262 0.676659 0.707107
vn -0.268188 0.884098 0.382683
vn -0.290285 0.956940 0.000000
vn -0.268188 0.884098 -0.382683
vn -0.205262 0.676659 -0.707107
vn -0.111087 0.366205 -0.923880
vn -0.000000 0.000000 -1.000000
vn 0.111087 -0.366205 -0.923880
vn 0.205262 -0.676659 -0.707107
vn 0.268188 -0.884098 -0.382683
vn 0.195090 -0.980785 0.000000
vn 0.180240 -0.906127 0.382683
vn 0.137950 -0.693520 0.707107
vn 0.074658 -0.375330 0.923880
vn 0.000000 -0.000000 1.000000
vn -0.074658 0.375330 0.923880
vn -0.137950 0.693520 0.707107
vn -0.180240 0.906127 0.382683
vn -0.195090 0.980785 0.000000
vn -0.180240 0.906127 -0.382683
vn -0.137950 0.693520 -0.707107
vn -0.074658 0.375330 -0.923880
vn -0.000000 0.000000 -1.000000
vn 0.074658 -0.375330 -0.923880
vn 0.137950 -0.693520 -0.707107
vn 0.180240 -0.906127 -0.382683
vn 0.098017 -0.995185 0.000000
vn 0.090556 -0.919431 0.382683
vn 0.069309 -0.703702 0.707107
vn 0.037510 -0.380841 0.923880
vn 0.000000 -0.000000 1.000000
vn -0.037510 0.380841 0.923880
vn -0.069309 0.703702 0.707107
vn -0.090556 0.919431 0.382683
vn -0.098017 0.995185 0.000000
vn -0.090556 0.919431 -0.382683
vn -0.069309 0.703702 -0.707107
vn -0.037510 0.380841 -0.923880
vn -0.000000 0.000000 -1.000000
vn 0.037510 -0.380841 -0.923880
vn 0.069309 -0.703702 -0.707107
vn 0.090556 -0.919431 -0.382683
vn 0.000000 -1.000000 0.000000
vn 0.000000 -0.923880 0.382683
vn 0.000000 -0.707107 0.707107
vn 0.000000 -0.382683 0.923880
vn 0.000000 -0.000000 1.000000
vn -0.000000 0.382683 0.923880
vn -0.000000 0.707107 0.707107
vn -0.000000 0.923880 0.382683
vn -0.000000 1.000000 0.000000
vn -0.000000 0.923880 -0.382683
vn -0.000000 0.707107 -0.707107
vn -0.000000 0.382683 -0.923880
vn -0.000000 0.000000 -1.000000
vn 0.000000 -0.382683 -0.923880
vn 0.000000 -0.707107 -0.707107
vn 0.000000 -0.923880 -0.382683
vn 0.000000 0.000000 -1.000000
vn 0.000000 0.000000 -1.000000
vn 0.000000 0.258819 -0.965926
vn 0.000000 0.258819 -0.965926
vn 0.000000 0.500000 -0.866025
vn 0.000000 0.500000 -0.866025
vn 0.000000 0.707107 -0.707107
vn 0.000000 0.707107 -0.707107
vn 0.000000 0.866025 -0.500000
vn 0.000000 0.866025 -0.500000
vn 0.000000 0.965926 -0.258819
vn 0.000000 0.965926 -0.258819
vn 0.000000 1.000000 -0.000000
vn 0.000000 1.000000 -0.000000
vn -0.000000 0.965926 0.258819
vn -0.000000 0.965926 0.258819
vn -0.000000 0.866025 0.500000
vn -0.000000 0.866025 0.500000
vn -0.000000 0.707107 0.707107
vn -0.000000 0.707107 0.707107
vn -0.000000 0.500000 0.866025
vn -0.000000 0.500000 0.866025
vn -0.000000 0.258819 0.965926
vn -0.000000 0.258819 0.965926
vn -0.000000 0.000000 1.000000
vn -0.000000 0.000000 1.000000
vn 0.000000 -0.258819 0.965926
vn 0.000000 -0.258819 0.965926
vn 0.000000 -0.500000 0.866025
vn 0.000000 -0.500000 0.866025
vn 0.000000 -0.707107 0.707107
vn 0.000000 -0.707107 0.707107
vn 0.000000 -0.866025 0.500000
vn 0.000000 -0.866025 0.500000
vn 0.000000 -0.965926 0.258819
vn 0.000000 -0.965926 0.258819
vn 0.000000 -1.000000 0.000000
vn 0.000000 -1.000000 0.000000
vn 0.000000 -0.965926 -0.258819
vn 0.000000 -0.965926 -0.258819
vn 0.000000 -0.866025 -0.500000
vn 0.000000 -0.866025 -0.500000
vn 0.000000 -0.707107 -0.707107
vn 0.000000 -0.707107 -0.707107
vn 0.000000 -0.500000 -0.866025
vn 0.000000 -0.500000 -0.866025
vn 0.000000 -0.258819 -0.965926
vn 0.000000 -0.258819 -0.965926
vn 1.000000 0.000000 0.000000
vn 1.000000 0.000000 0.000000
vn 1.000000 0.000000 0.000000
vn 1.000000 0.000000 0.000000
vn 1.000000 0.000000 0.000000
vn 1.000000 0.000000 0.000000
vn 1.000000 0.000000 0.000000
vn 1.000000 0.000000 0.000000
vn 1.000000 0.000000 0.000000
vn 1.000000 0.000000 0.000000
vn 1.000000 0.000000 0.000000
vn 1.000000 0.000000 0.000000
vn 1.000000 0.000000 0.000000
vn 1.000000 0.000000 0.000000
vn 1.000000 0.000000 0.000000
vn 1.000000 0.000000 0.000000
vn 1.000000 0.000000 0.000000
vn 1.000000 0.000000 0.000000
vn 1.000000 0.000000 0.000000
vn 1.000000 0.000000 0.000000
vn 1.000000 0.000000 0.000000
vn 1.000000 0.000000 0.000000
vn 1.000000 0.000000 0.000000
vn 1.000000 0.000000 0.000000
vn 1.000000 0.000000 0.000000
vn -1.000000 -0.000000 -0.000000
vn -1.000000 -0.000000 -0.000000
vn -1.000000 -0.000000 -0.000000
vn -1.000000 -0.000000 -0.000000
vn -1.000000 -0.000000 -0.000000
vn -1.000000 -0.000000 -0.000000
vn -1.000000 -0.000000 -0.000000
vn -1.000000 -0.000000 -0.000000
vn -1.000000 -0.000000 -0.000000
vn -1.000000 -0.000000 -0.000000
vn -1.000000 -0.000000 -0.000000
vn -1.000000 -0.000000 -0.000000
vn -1.000000 -0.000000 -0.000000
vn -1.000000 -0.000000 -0.000000
vn -1.000000 -0.000000 -0.000000
vn -1.000000 -0.000000 -0.000000
vn -1.000000 -0.000000 -0.000000
vn -1.000000 -0.000000 -0.000000
vn -1.000000 -0.000000 -0.000000
vn -1.000000 -0.000000 -0.000000
vn -1.000000 -0.000000 -0.000000
vn -1.000000 -0.000000 -0.000000
vn -1.000000 -0.000000 -0.000000
vn -1.000000 -0.000000 -0.000000
vn -1.000000 -0.000000 -0.000000
vn 0.000000 0.000000 -1.000000
vn 0.000000 0.000000 -1.000000
vn 0.258819 0.000000 -0.965926
vn 0.258819 0.000000 -0.965926
vn 0.500000 0.000000 -0.866025
vn 0.500000 0.000000 -0.866025
vn 0.707107 0.000000 -0.707107
vn 0.707107 0.000000 -0.707107
vn 0.866025 0.000000 -0.500000
vn 0.866025 0.000000 -0.500000
vn 0.965926 0.000000 -0.258819
vn 0.965926 0.000000 -0.258819
vn 1.000000 0.000000 -0.000000
vn 1.000000 0.000000 -0.000000
vn 0.965926 0.000000 0.258819
vn 0.965926 0.000000 0.258819
vn 0.866025 0.000000 0.500000
vn 0.866025 0.000000 0.500000
vn 0.707107 0.000000 0.707107
vn 0.707107 0.000000 0.707107
vn 0.500000 0.000000 0.866025
vn 0.500000 0.000000 0.866025
vn 0.258819 0.000000 0.965926
vn 0.258819 0.000000 0.965926
vn 0.000000 0.000000 1.000000
vn 0.000000 0.000000 1.000000
vn -0.258819 -0.000000 0.965926
vn -0.258819 -0.000000 0.965926
vn -0.500000 -0.000000 0.866025
vn -0.500000 -0.000000 0.866025
vn -0.707107 -0.000000 0.707107
vn -0.707107 -0.000000 0.707107
vn -0.866025 -0.000000 0.500000
vn -0.866025 -0.000000 0.500000
vn -0.965926 -0.000000 0.258819
vn -0.965926 -0.000000 0.258819
vn -1.000000 -0.000000 0.000000
vn -1.000000 -0.000000 0.000000
vn -0.965926 0.000000 -0.258819
vn -0.965926 0.000000 -0.258819
vn -0.866025 0.000000 -0.500000
vn -0.866025 0.000000 -0.500000
vn -0.707107 0.000000 -0.707107
vn -0.707107 0.000000 -0.707107
vn -0.500000 0.000000 -0.866025
vn -0.500000 0.000000 -0.866025
vn -0.258819 0.000000 -0.965926
vn -0.258819 0.000000 -0.965926
vn 0.000000 -1.000000 0.000000
vn 0.000000 -1.000000 0.000000
vn 0.000000 -1.000000 0.000000
vn 0.000000 -1.000000 0.000000
vn 0.000000 -1.000000 0.000000
vn 0.000000 -1.000000 0.000000
vn 0.000000 -1.000000 0.000000
vn 0.000000 -1.000000 0.000000
vn 0.000000 -1.000000 0.000000
vn 0.000000 -1.000000 0.000000
vn 0.000000 -1.000000 0.000000
vn 0.000000 -1.000000 0.000000
vn 0.000000 -1.000000 0.000000
vn 0.000000 -1.000000 0.000000
vn 0.000000 -1.000000 0.000000
vn 0.000000 -1.000000 0.000000
vn 0.000000 -1.000000 0.000000
vn 0.000000 -1.000000 0.000000
vn 0.000000 -1.000000 0.000000
vn 0.000000 -1.000000 0.000000
vn 0.000000 -1.000000 0.000000
vn 0.000000 -1.000000 0.000000
vn 0.000000 -1.000000 0.000000
vn 0.000000 -1.000000 0.000000
vn 0.000000 -1.000000 0.000000
vn -0.000000 1.000000 -0.000000
vn -0.000000 1.000000 -0.000000
vn -0.000000 1.000000 -0.000000
vn -0.000000 1.000000 -0.000000
vn -0.000000 1.000000 -0.000000
vn -0.000000 1.000000 -0.000000
vn -0.000000 1.000000 -0.000000
vn -0.000000 1.000000 -0.000000
vn -0.000000 1.000000 -0.000000
vn -0.000000 1.000000 -0.000000
vn -0.000000 1.000000 -0.000000
vn -0.000000 1.000000 -0.000000
vn -0.000000 1.000000 -0.000000
vn -0.000000 1.000000 -0.000000
vn -0.000000 1.000000 -0.000000
vn -0.000000 1.000000 -0.000000
vn -0.000000 1.000000 -0.000000
vn -0.000000 1.000000 -0.000000
vn -0.000000 1.000000 -0.000000
vn -0.000000 1.000000 -0.000000
vn -0.000000 1.000000 -0.000000
vn -0.000000 1.000000 -0.000000
vn -0.000000 1.000000 -0.000000
vn -0.000000 1.000000 -0.000000
vn -0.000000 1.000000 -0.000000
f 1/1/1 2/2/2 18/18/18 17/17/17
f 2/2/2 3/3/3 19/19/19 18/18/18
f 3/3/3 4/4/4 20/20/20 19/19/19
f 4/4/4 5/5/5 21/21/21 20/20/20
f 5/5/5 6/6/6 22/22/22 21/21/21
f 6/6/6 7/7/7 23/23/23 22/22/22
f 7/7/7 8/8/8 24/24/24 23/23/23
f 8/8/8 9/9/9 25/25/25 24/24/24
f 9/9/9 10/10/10 26/26/26 25/25/25
f 10/10/10 11/11/11 27/27/27 26/26/26
f 11/11/11 12/12/12 28/28/28 27/27/27
f 12/12/12 13/13/13 29/29/29 28/28/28
f 13/13/13 14/14/14 30/30/30 29/29/29
f 14/14/14 15/15/15 31/31/31 30/30/30
f 15/15/15 16/16/16 32/32/32 31/31/31
f 16/16/16 1/1/1 17/17/17 32/32/32
f 17/17/17 18/18/18 34/34/34 33/33/33
f 18/18/18 19/19/19 35/35/35 34/34/34
f 19/19/19 20/20/20 36/36/36 35/35/35
f 20/20/20 21/21/21 37/37/37 36/36/36
f 21/21/21 22/22/22 38/38/38 37/37/37
f 22/22/22 23/23/23 39/39/39 38/38/38
f 23/23/23 24/24/24 40/40/40 39/39/39
f 24/24/24 25/25/25 41/41/41 40/40/40
f 25/25/25 26/26/26 42/42/42 41/41/41
f 26/26/26 27/27/27 43/43/43 42/42/42
f 27/27/27 28/28/28 44/44/44 43/43/43
f 28/28/28 29/29/29 45/45/45 44/44/44
f 29/29/29 30/30/30 46/46/46 45/45/45
f 30/30/30 31/31/31 47/47/47 46/46/46
f 31/31/31 32/32/32 48/48/48 47/47/47
f 32/32/32 17/17/17 33/33/33 48/48/48
f 33/33/33 34/34/34 50/50/50 49/49/49
f 34/34/34 35/35/35 51/51/51 50/50/50
f 35/35/35 36/36/36 52/52/52 51/51/51
f 36/36/36 37/37/37 53/53/53 52/52/52
f 37/37/37 38/38/38 54/54/54 53/53/53
f 38/38/38 39/39/39 55/55/55 54/54/54
f 39/39/39 40/40/40 56/56/56 55/55/55
f 40/40/40 41/41/41 57/57/57 56/56/56
f 41/41/41 42/42/42 58/58/58 57/57/57
f 42/42/42 43/43/43 59/59/59 58/58/58
f 43/43/43 44/44/44 60/60/60 59/59/59
f 44/44/44 45/45/45 61/61/61 60/60/60
f 45/45/45 46/46/46 62/62/62 61/61/61
f 46/46/46 47/47/47 63/63/63 62/62/62
f 47/47/47 48/48/48 64/64/64 63/63/63
f 48/48/48 33/33/33 49/49/49 64/64/64
f 49/49/49 50/50/50 66/66/66 65/65/65
f 50/50/50 51/51/51 67/67/67 66/66/66
f 51/51/51 52/52/52 68/68/68 67/67/67
f 52/52/52 53/53/53 69/69/69 68/68/68
f 53/53/53 54/54/54 70/70/70 69/69/69
f 54/54/54 55/55/55 71/71/71 70/70/70
f 55/55/55 56/56/56 72/72/72 71/71/71
f 56/56/56 57/57/57 73/73/73 72/72/72
f 57/57/57 58/58/58 74/74/74 73/73/73
f 58/58/58 59/59/59 75/75/75 74/74/74
f 59/59/59 60/60/60 76/76/76 75/75/75
f 60/60/60 61/61/61 77/77/77 76/76/76
f 61/61/61 62/62/62 78/78/78 77/77/77
f 62/62/62 63/63/63 79/79/79 78/78/78
f 63/63/63 64/64/64 80/80/80 79/79/79
f 64/64/64 49/49/49 65/65/65 80/80/80
f 65/65/65 66/66/66 82/82/82 81/81/81
f 66/66/66 67/67/67 83/83/83 82/82/82
f 67/67/67 68/68/68 84/84/84 83/83/83
f 68/68/68 69/69/69 85/85/85 84/84/84
f 69/69/69 70/70/70 86/86/86 85/85/85
f 70/70/70 71/71/71 87/87/87 86/86/86
f 71/71/71 72/72/72 88/88/88 87/87/87
f 72/72/72 73/73/73 89/89/89 88/88/88
f 73/73/73 74/74/74 90/90/90 89/89/89
f 74/74/74 75/75/75 91/91/91 90/90/90
f 75/75/75 76/76/76 92/92/92 91/91/91
f 76/76/76 77/77/77 93/93/93 92/92/92
f 77/77/77 78/78/78 94/94/94 93/93/93
f 78/78/78 79/79/79 95/95/95 94/94/94
f 79/79/79 80/80/80 96/96/96 95/95/95
f 80/80/80 65/65/65 81/81/81 96/96/96
f 81/81/81 82/82/82 98/98/98 97/97/97
f 82/82/82 83/83/83 99/99/99 98/98/98
f 83/83/83 84/84/84 100/100/100 99/99/99
f 84/84/84 85/85/85 101/101/101 100/100/100
f 85/85/85 86/86/86 102/102/102 101/101/101
f 86/86/86 87/87/87 103/103/103 102/102/102
f 87/87/87 88/88/88 104/104/104 103/103/103
f 88/88/88 89/89/89 105/105/105 104/104/104
f 89/89/89 90/90/90 106/106/106 105/105/105
f 90/90/90 91/91/91 107/107/107 106/106/106
f 91/91/91 92/92/92 108/108/108 107/107/107
f 92/92/92 93/93/93 109/109/109 108/108/108
f 93/93/93 94/94/94 110/110/110 109/109/109
f 94/94/94 95/95/95 111/111/111 110/110/110
f 95/95/95 96/96/96 112/112/112 111/111/111
f 96/96/96 81/81/81 97/97/97 112/112/112
f 97/97/97 98/98/98 114/114/114 113/113/113
f 98/98/98 99/99/99 115/115/115 114/114/114
f 99/99/99 100/100/100 116/116/116 115/115/115
f 100/100/100 101/101/101 117/117/117 116/116/116
f 101/101/101 102/102/102 118/118/118 117/117/117
f 102/102/102 103/103/103 119/119/119 118/118/118
f 103/103/103 104/104/104 120/120/120 119/119/119
f 104/104/104 105/105/105 121/121/121 120/120/120
f 105/105/105 106/106/106 122/122/122 121/121/121
f 106/106/106 107/107/107 123/123/123 122/122/122
f 107/107/107 108/108/108 124/124/124 123/123/123
f 108/108/108 109/109/109 125/125/125 124/124/124
f 109/109/109 110/110/110 126/126/126 125/125/125
f 110/110/110 111/111/111 127/127/127 126/126/126
f 111/111/111 112/112/112 128/128/128 127/127/127
f 112/112/112 97/97/97 113/113/113 128/128/128
f 113/113/113 114/114/114 130/130/130 129/129/129
f 114/114/114 115/115/115 131/131/131 130/130/130
f 115/115/115 116/116/116 132/132/132 131/131/131
f 116/116/116 117/117/117 133/133/133 132/132/132
f 117/117/117 118/118/118 134/134/134 133/133/133
f 118/118/118 119/119/119 135/135/135 134/134/134
f 119/119/119 120/120/120 136/136/136 135/135/135
f 120/120/120 121/121/121 137/137/137 136/136/136
f 121/121/121 122/122/122 138/138/138 137/137/137
f 122/122/122 123/123/123 139/139/139 138/138/138
f 123/123/123 124/124/124 140/140/140 139/139/139
f 124/124/124 125/125/125 141/141/141 140/140/140
f 125/125/125 126/126/126 142/142/142 141/141/141
f 126/126/126 127/127/127 143/143/143 142/142/142
f 127/127/127 128/128/128 144/144/144 143/143/143
f 128/128/128 113/113/113 129/129/129 144/144/144
f 129/129/129 130/130/130 146/146/146 145/145/145
f 130/130/130 131/131/131 147/147/147 146/146/146
f 131/131/131 132/132/132 148/148/148 147/147/147
f 132/132/132 133/133/133 149/149/149 148/148/148
f 133/133/133 134/134/134 150/150/150 149/149/149
f 134/134/134 135/135/135 151/151/151 150/150/150
f 135/135/135 136/136/136 152/152/152 151/151/151
f 136/136/136 137/137/137 153/153/153 152/152/152
f 137/137/137 138/138/138 154/154/154 153/153/153
f 138/138/138 139/139/139 155/155/155 154/154/154
f 139/139/139 140/140/140 156/156/156 155/155/155
f 140/140/140 141/141/141 157/157/157 156/156/156
f 141/141/141 142/142/142 158/158/158 157/157/157
f 142/142/142 143/143/143 159/159/159 158/158/158
f 143/143/143 144/144/144 160/160/160 159/159/159
f 144/144/144 129/129/129 145/145/145 160/160/160
f 145/145/145 146/146/146 162/162/162 161/161/161
f 146/146/146 147/147/147 163/163/163 162/162/162
f 147/147/147 148/148/148 164/164/164 163/163/163
f 148/148/148 149/149/149 165/165/165 164/164/164
f 149/149/149 150/150/150 166/166/166 165/165/165
f 150/150/150 151/151/151 167/167/167 166/166/166
f 151/151/151 152/152/152 168/168/168 167/167/167
f 152/152/152 153/153/153 169/169/169 168/168/168
f 153/153/153 154/154/154 170/170/170 169/169/169
f 154/154/154 155/155/155 171/171/171 170/170/170
f 155/155/155 156/156/156 172/172/172 171/171/171
f 156/156/156 157/157/157 173/173/173 172/172/172
f 157/157/157 158/158/158 174/174/174 173/173/173
f 158/158/158 159/159/159 175/175/175 174/174/174
f 159/159/159 160/160/160 176/176/176 175/175/175
f 160/160/160 145/145/145 161/161/161 176/176/176
f 161/161/161 162/162/162 178/178/178 177/177/177
f 162/162/162 163/163/163 179/179/179 178/178/178
f 163/163/163 164/164/164 180/180/180 179/179/179
f 164/164/164 165/165/165 181/181/181 180/180/180
f 165/165/165 166/166/166 182/182/182 181/181/181
f 166/166/166 167/167/167 183/183/183 182/182/182
f 167/167/167 168/168/168 184/184/184 183/183/183
f 168/168/168 169/169/169 185/185/185 184/184/184
f 169/169/169 170/170/170 186/186/186 185/185/185
f 170/170/170 171/171/171 187/187/187 186/186/186
f 171/171/171 172/172/172 188/188/188 187/187/187
f 172/172/172 173/173/173 189/189/189 188/188/188
f 173/173/173 174/174/174 190/190/190 189/189/189
f 174/174/174 175/175/175 191/191/191 190/190/190
f 175/175/175 176/176/176 192/192/192 191/191/191
f 176/176/176 161/161/161 177/177/177 192/192/192
f 177/177/177 178/178/178 194/194/194 193/193/193
f 178/178/178 179/179/179 195/195/195 194/194/194
f 179/179/179 180/180/180 196/196/196 195/195/195
f 180/180/180 181/181/181 197/197/197 196/196/196
f 181/181/181 182/182/182 198/198/198 197/197/197
f 182/182/182 183/183/183 199/199/199 198/198/198
f 183/183/183 184/184/184 200/200/200 199/199/199
f 184/184/184 185/185/185 201/201/201 200/200/200
f 185/185/185 186/186/186 202/202/202 201/201/201
f 186/186/186 187/187/187 203/203/203 202/202/202
f 187/187/187 188/188/188 204/204/204 203/203/203
f 188/188/188 189/189/189 205/205/205 204/204/204
f 189/189/189 190/190/190 206/206/206 205/205/205
f 190/190/190 191/191/191 207/207/207 206/206/206
f 191/191/191 192/192/192 208/208/208 207/207/207
f 192/192/192 177/177/177 193/193/193 208/208/208
f 193/193/193 194/194/194 210/210/210 209/209/209
f 194/194/194 195/195/195 211/211/211 210/210/210
f 195/195/195 196/196/196 212/212/212 211/211/211
f 196/196/196 197/197/197 213/213/213 212/212/212
f 197/197/197 198/198/198 214/214/214 213/213/213
f 198/198/198 199/199/199 215/215/215 214/214/214
f 199/199/199 200/200/200 216/216/216 215/215/215
f 200/200/200 201/201/201 217/217/217 216/216/216
f 201/201/201 202/202/202 218/218/218 217/217/217
f 202/202/202 203/203/203 219/219/219 218/218/218
f 203/203/203 204/204/204 220/220/220 219/219/219
f 204/204/204 205/205/205 221/221/221 220/220/220
f 205/205/205 206/206/206 222/222/222 221/221/221
f 206/206/206 207/207/207 223/223/223 222/222/222
f 207/207/207 208/208/208 224/224/224 223/223/223
f 208/208/208 193/193/193 209/209/209 224/224/224
f 209/209/209 210/210/210 226/226/226 225/225/225
f 210/210/210 211/211/211 227/227/227 226/226/226
f 211/211/211 212/212/212 228/228/228 227/227/227
f 212/212/212 213/213/213 229/229/229 228/228/228
f 213/213/213 214/214/214 230/230/230 229/229/229
f 214/214/214 215/215/215 231/231/231 230/230/230
f 215/215/215 216/216/216 232/232/232 231/231/231
f 216/216/216 217/217/217 233/233/233 232/232/232
f 217/217/217 218/218/218 234/234/234 233/233/233
f 218/218/218 219/219/219 235/235/235 234/234/234
f 219/219/219 220/220/220 236/236/236 235/235/235
f 220/220/220 221/221/221 237/237/237 236/236/236
f 221/221/221 222/222/222 238/238/238 237/237/237
f 222/222/222 223/223/223 239/239/239 238/238/238
f 223/223/223 224/224/224 240/240/240 239/239/239
f 224/224/224 209/209/209 225/225/225 240/240/240
f 225/225/225 226/226/226 242/242/242 241/241/241
f 226/226/226 227/227/227 243/243/243 242/242/242
f 227/227/227 228/228/228 244/244/244 243/243/243
f 228/228/228 229/229/229 245/245/245 244/244/244
f 229/229/229 230/230/230 246/246/246 245/245/245
f 230/230/230 231/231/231 247/247/247 246/246/246
f 231/231/231 232/232/232 248/248/248 247/247/247
f 232/232/232 233/233/233 249/249/249 248/248/248
f 233/233/233 234/234/234 250/250/250 249/249/249
f 234/234/234 235/235/235 251/251/251 250/250/250
f 235/235/235 236/236/236 252/252/252 251/251/251
f 236/236/236 237/237/237 253/253/253 252/252/252
f 237/237/237 238/238/238 254/254/254 253/253/253
f 238/238/238 239/239/239 255/255/255 254/254/254
f 239/239/239 240/240/240 256/256/256 255/255/255
f 240/240/240 225/225/225 241/241/241 256/256/256
f 241/241/241 242/242/242 258/258/258 257/257/257
f 242/242/242 243/243/243 259/259/259 258/258/258
f 243/243/243 244/244/244 260/260/260 259/259/259
f 244/244/244 245/245/245 261/261/261 260/260/260
f 245/245/245 246/246/246 262/262/262 261/261/261
f 246/246/246 247/247/247 263/263/263 262/262/262
f 247/247/247 248/248/248 264/264/264 263/263/263
f 248/248/248 249/249/249 265/265/265 264/264/264
f 249/249/249 250/250/250 266/266/266 265/265/265
f 250/250/250 251/251/251 267/267/267 266/266/266
f 251/251/251 252/252/252 268/268/268 267/267/267
f 252/252/252 253/253/253 269/269/269 268/268/268
f 253/253/253 254/254/254 270/270/270 269/269/269
f 254/254/254 255/255/255 271/271/271 270/270/270
f 255/255/255 256/256/256 272/272/272 271/271/271
f 256/256/256 241/241/241 257/257/257 272/272/272
f 273/273/273 275/275/275 276/276/276 274/274/274
f 275/275/275 277/277/277 278/278/278 276/276/276
f 277/277/277 279/279/279 280/280/280 278/278/278
f 279/279/279 281/281/281 282/282/282 280/280/280
f 281/281/281 283/283/283 284/284/284 282/282/282
f 283/283/283 285/285/285 286/286/286 284/284/284
f 285/285/285 287/287/287 288/288/288 286/286/286
f 287/287/287 289/289/289 290/290/290 288/288/288
f 289/289/289 291/291/291 292/292/292 290/290/290
f 291/291/291 293/293/293 294/294/294 292/292/292
f 293/293/293 295/295/295 296/296/296 294/294/294
f 295/295/295 297/297/297 298/298/298 296/296/296
f 297/297/297 299/299/299 300/300/300 298/298/298
f 299/299/299 301/301/301 302/302/302 300/300/300
f 301/301/301 303/303/303 304/304/304 302/302/302
f 303/303/303 305/305/305 306/306/306 304/304/304
f 305/305/305 307/307/307 308/308/308 306/306/306
f 307/307/307 309/309/309 310/310/310 308/308/308
f 309/309/309 311/311/311 312/312/312 310/310/310
f 311/311/311 313/313/313 314/314/314 312/312/312
f 313/313/313 315/315/315 316/316/316 314/314/314
f 315/315/315 317/317/317 318/318/318 316/316/316
f 317/317/317 319/319/319 320/320/320 318/318/318
f 319/319/319 273/273/273 274/274/274 320/320/320
f 321/321/321 322/322/322 323/323/323
f 321/321/321 323/323/323 324/324/324
f 321/321/321 324/324/324 325/325/325
f 321/321/321 325/325/325 326/326/326
f 321/321/321 326/326/326 327/327/327
f 321/321/321 327/327/327 328/328/328
f 321/321/321 328/328/328 329/329/329
f 321/321/321 329/329/329 330/330/330
f 321/321/321 330/330/330 331/331/331
f 321/321/321 331/331/331 332/332/332
f 321/321/321 332/332/332 333/333/333
f 321/321/321 333/333/333 334/334/334
f 321/321/321 334/334/334 335/335/335
f 321/321/321 335/335/335 336/336/336
f 321/321/321 336/336/336 337/337/337
f 321/321/321 337/337/337 338/338/338
f 321/321/321 338/338/338 339/339/339
f 321/321/321 339/339/339 340/340/340
f 321/321/321 340/340/340 341/341/341
f 321/321/321 341/341/341 342/342/342
f 321/321/321 342/342/342 343/343/343
f 321/321/321 343/343/343 344/344/344
f 321/321/321 344/344/344 345/345/345
f 321/321/321 345/345/345 322/322/322
f 346/346/346 348/348/348 347/347/347
f 346/346/346 349/349/349 348/348/348
f 346/346/346 350/350/350 349/349/349
f 346/346/346 351/351/351 350/350/350
f 346/346/346 352/352/352 351/351/351
f 346/346/346 353/353/353 352/352/352
f 346/346/346 354/354/354 353/353/353
f 346/346/346 355/355/355 354/354/354
f 346/346/346 356/356/356 355/355/355
f 346/346/346 357/357/357 356/356/356
f 346/346/346 358/358/358 357/357/357
f 346/346/346 359/359/359 358/358/358
f 346/346/346 360/360/360 359/359/359
f 346/346/346 361/361/361 360/360/360
f 346/346/346 362/362/362 361/361/361
f 346/346/346 363/363/363 362/362/362
f 346/346/346 364/364/364 363/363/363
f 346/346/346 365/365/365 364/364/364
f 346/346/346 366/366/366 365/365/365
f 346/346/346 367/367/367 366/366/366
f 346/346/346 368/368/368 367/367/367
f 346/346/346 369/369/369 368/368/368
f 346/346/346 370/370/370 369/369/369
f 346/346/346 347/347/347 370/370/370
f 371/371/371 373/373/373 374/374/374 372/372/372
f 373/373/373 375/375/375 376/376/376 374/374/374
f 375/375/375 377/377/377 378/378/378 376/376/376
f 377/377/377 379/379/379 380/380/380 378/378/378
f 379/379/379 381/381/381 382/382/382 380/380/380
f 381/381/381 383/383/383 384/384/384 382/382/382
f 383/383/383 385/385/385 386/386/386 384/384/384
f 385/385/385 387/387/387 388/388/388 386/386/386
f 387/387/387 389/389/389 390/390/390 388/388/388
f 389/389/389 391/391/391 392/392/392 390/390/390
f 391/391/391 393/393/393 394/394/394 392/392/392
f 393/393/393 395/395/395 396/396/396 394/394/394
f 395/395/395 397/397/397 398/398/398 396/396/396
f 397/397/397 399/399/399 400/400/400 398/398/398
f 399/399/399 401/401/401 402/402/402 400/400/400
f 401/401/401 403/403/403 404/404/404 402/402/402
f 403/403/403 405/405/405 406/406/406 404/404/404
f 405/405/405 407/407/407 408/408/408 406/406/406
f 407/407/407 409/409/409 410/410/410 408/408/408
f 409/409/409 411/411/411 412/412/412 410/410/410
f 411/411/411 413/413/413 414/414/414 412/412/412
f 413/413/413 415/415/415 416/416/416 414/414/414
f 415/415/415 417/417/417 418/418/418 416/416/416
f 417/417/417 371/371/371 372/372/372 418/418/418
f 419/419/419 420/420/420 421/421/421
f 419/419/419 421/421/421 422/422/422
f 419/419/419 422/422/422 423/423/423
f 419/419/419 423/423/423 424/424/424
f 419/419/419 424/424/424 425/425/425
f 419/419/419 425/425/425 426/426/426
f 419/419/419 426/426/426 427/427/427
f 419/419/419 427/427/427 428/428/428
f 419/419/419 428/428/428 429/429/429
f 419/419/419 429/429/429 430/430/430
f 419/419/419 430/430/430 431/431/431
f 419/419/419 431/431/431 432/432/432
f 419/419/419 432/432/432 433/433/433
f 419/419/419 433/433/433 434/434/434
f 419/419/419 434/434/434 435/435/435
f 419/419/419 435/435/435 436/436/436
f 419/419/419 436/436/436 437/437/437
f 419/419/419 437/437/437 438/438/438
f 419/419/419 438/438/438 439/439/439
f 419/419/419 439/439/439 440/440/440
f 419/419/419 440/440/440 441/441/441
f 419/419/419 441/441/441 442/442/442
f 419/419/419 442/442/442 443/443/443
f 419/419/419 443/443/443 420/420/420
f 444/444/444 446/446/446 445/445/445
f 444/444/444 447/447/447 446/446/446
f 444/444/444 448/448/448 447/447/447
f 444/444/444 449/449/449 448/448/448
f 444/444/444 450/450/450 449/449/449
f 444/444/444 451/451/451 450/450/450
f 444/444/444 452/452/452 451/451/451
f 444/444/444 453/453/453 452/452/452
f 444/444/444 454/454/454 453/453/453
f 444/444/444 455/455/455 454/454/454
f 444/444/444 456/456/456 455/455/455
f 444/444/444 457/457/457 456/456/456
f 444/444/444 458/458/458 457/457/457
f 444/444/444 459/459/459 458/458/458
f 444/444/444 460/460/460 459/459/459
f 444/444/444 461/461/461 460/460/460
f 444/444/444 462/462/462 461/461/461
f 444/444/444 463/463/463 462/462/462
f 444/444/444 464/464/464 463/463/463
f 444/444/444 465/465/465 464/464/464
f 444/444/444 466/466/466 465/465/465
f 444/444/444 467/467/467 466/466/466
f 444/444/444 468/468/468 467/467/467
f 444/444/444 445/445/445 468/468/468
