# High-Detail Industrial 3D Asset: pipe_elbow_hd.obj
v 0.030000 0.000000 0.000000
v 0.030000 0.000000 -0.056000
v 0.028978 0.007765 0.000000
v 0.028978 0.007765 -0.056000
v 0.025981 0.015000 0.000000
v 0.025981 0.015000 -0.056000
v 0.021213 0.021213 0.000000
v 0.021213 0.021213 -0.056000
v 0.015000 0.025981 0.000000
v 0.015000 0.025981 -0.056000
v 0.007765 0.028978 0.000000
v 0.007765 0.028978 -0.056000
v 0.000000 0.030000 0.000000
v 0.000000 0.030000 -0.056000
v -0.007765 0.028978 0.000000
v -0.007765 0.028978 -0.056000
v -0.015000 0.025981 0.000000
v -0.015000 0.025981 -0.056000
v -0.021213 0.021213 0.000000
v -0.021213 0.021213 -0.056000
v -0.025981 0.015000 0.000000
v -0.025981 0.015000 -0.056000
v -0.028978 0.007765 0.000000
v -0.028978 0.007765 -0.056000
v -0.030000 0.000000 0.000000
v -0.030000 0.000000 -0.056000
v -0.028978 -0.007765 0.000000
v -0.028978 -0.007765 -0.056000
v -0.025981 -0.015000 0.000000
v -0.025981 -0.015000 -0.056000
v -0.021213 -0.021213 0.000000
v -0.021213 -0.021213 -0.056000
v -0.015000 -0.025981 0.000000
v -0.015000 -0.025981 -0.056000
v -0.007765 -0.028978 0.000000
v -0.007765 -0.028978 -0.056000
v -0.000000 -0.030000 0.000000
v -0.000000 -0.030000 -0.056000
v 0.007765 -0.028978 0.000000
v 0.007765 -0.028978 -0.056000
v 0.015000 -0.025981 0.000000
v 0.015000 -0.025981 -0.056000
v 0.021213 -0.021213 0.000000
v 0.021213 -0.021213 -0.056000
v 0.025981 -0.015000 0.000000
v 0.025981 -0.015000 -0.056000
v 0.028978 -0.007765 0.000000
v 0.028978 -0.007765 -0.056000
v 0.000000 0.000000 0.000000
v 0.000000 0.000000 -0.056000
v 0.030000 0.000000 0.000000
v 0.030000 0.000000 -0.056000
v 0.028978 0.007765 0.000000
v 0.028978 0.007765 -0.056000
v 0.025981 0.015000 0.000000
v 0.025981 0.015000 -0.056000
v 0.021213 0.021213 0.000000
v 0.021213 0.021213 -0.056000
v 0.015000 0.025981 0.000000
v 0.015000 0.025981 -0.056000
v 0.007765 0.028978 0.000000
v 0.007765 0.028978 -0.056000
v 0.000000 0.030000 0.000000
v 0.000000 0.030000 -0.056000
v -0.007765 0.028978 0.000000
v -0.007765 0.028978 -0.056000
v -0.015000 0.025981 0.000000
v -0.015000 0.025981 -0.056000
v -0.021213 0.021213 0.000000
v -0.021213 0.021213 -0.056000
v -0.025981 0.015000 0.000000
v -0.025981 0.015000 -0.056000
v -0.028978 0.007765 0.000000
v -0.028978 0.007765 -0.056000
v -0.030000 0.000000 0.000000
v -0.030000 0.000000 -0.056000
v -0.028978 -0.007765 0.000000
v -0.028978 -0.007765 -0.056000
v -0.025981 -0.015000 0.000000
v -0.025981 -0.015000 -0.056000
v -0.021213 -0.021213 0.000000
v -0.021213 -0.021213 -0.056000
v -0.015000 -0.025981 0.000000
v -0.015000 -0.025981 -0.056000
v -0.007765 -0.028978 0.000000
v -0.007765 -0.028978 -0.056000
v -0.000000 -0.030000 0.000000
v -0.000000 -0.030000 -0.056000
v 0.007765 -0.028978 0.000000
v 0.007765 -0.028978 -0.056000
v 0.015000 -0.025981 0.000000
v 0.015000 -0.025981 -0.056000
v 0.021213 -0.021213 0.000000
v 0.021213 -0.021213 -0.056000
v 0.025981 -0.015000 0.000000
v 0.025981 -0.015000 -0.056000
v 0.028978 -0.007765 0.000000
v 0.028978 -0.007765 -0.056000
v 0.030000 0.000000 0.000000
v 0.030000 -0.056000 0.000000
v 0.028978 0.000000 0.007765
v 0.028978 -0.056000 0.007765
v 0.025981 0.000000 0.015000
v 0.025981 -0.056000 0.015000
v 0.021213 0.000000 0.021213
v 0.021213 -0.056000 0.021213
v 0.015000 0.000000 0.025981
v 0.015000 -0.056000 0.025981
v 0.007765 0.000000 0.028978
v 0.007765 -0.056000 0.028978
v 0.000000 0.000000 0.030000
v 0.000000 -0.056000 0.030000
v -0.007765 0.000000 0.028978
v -0.007765 -0.056000 0.028978
v -0.015000 0.000000 0.025981
v -0.015000 -0.056000 0.025981
v -0.021213 0.000000 0.021213
v -0.021213 -0.056000 0.021213
v -0.025981 0.000000 0.015000
v -0.025981 -0.056000 0.015000
v -0.028978 0.000000 0.007765
v -0.028978 -0.056000 0.007765
v -0.030000 0.000000 0.000000
v -0.030000 -0.056000 0.000000
v -0.028978 0.000000 -0.007765
v -0.028978 -0.056000 -0.007765
v -0.025981 0.000000 -0.015000
v -0.025981 -0.056000 -0.015000
v -0.021213 0.000000 -0.021213
v -0.021213 -0.056000 -0.021213
v -0.015000 0.000000 -0.025981
v -0.015000 -0.056000 -0.025981
v -0.007765 0.000000 -0.028978
v -0.007765 -0.056000 -0.028978
v -0.000000 0.000000 -0.030000
v -0.000000 -0.056000 -0.030000
v 0.007765 0.000000 -0.028978
v 0.007765 -0.056000 -0.028978
v 0.015000 0.000000 -0.025981
v 0.015000 -0.056000 -0.025981
v 0.021213 0.000000 -0.021213
v 0.021213 -0.056000 -0.021213
v 0.025981 0.000000 -0.015000
v 0.025981 -0.056000 -0.015000
v 0.028978 0.000000 -0.007765
v 0.028978 -0.056000 -0.007765
v 0.000000 0.000000 0.000000
v 0.000000 -0.056000 0.000000
v 0.030000 0.000000 0.000000
v 0.030000 -0.056000 0.000000
v 0.028978 0.000000 0.007765
v 0.028978 -0.056000 0.007765
v 0.025981 0.000000 0.015000
v 0.025981 -0.056000 0.015000
v 0.021213 0.000000 0.021213
v 0.021213 -0.056000 0.021213
v 0.015000 0.000000 0.025981
v 0.015000 -0.056000 0.025981
v 0.007765 0.000000 0.028978
v 0.007765 -0.056000 0.028978
v 0.000000 0.000000 0.030000
v 0.000000 -0.056000 0.030000
v -0.007765 0.000000 0.028978
v -0.007765 -0.056000 0.028978
v -0.015000 0.000000 0.025981
v -0.015000 -0.056000 0.025981
v -0.021213 0.000000 0.021213
v -0.021213 -0.056000 0.021213
v -0.025981 0.000000 0.015000
v -0.025981 -0.056000 0.015000
v -0.028978 0.000000 0.007765
v -0.028978 -0.056000 0.007765
v -0.030000 0.000000 0.000000
v -0.030000 -0.056000 0.000000
v -0.028978 0.000000 -0.007765
v -0.028978 -0.056000 -0.007765
v -0.025981 0.000000 -0.015000
v -0.025981 -0.056000 -0.015000
v -0.021213 0.000000 -0.021213
v -0.021213 -0.056000 -0.021213
v -0.015000 0.000000 -0.025981
v -0.015000 -0.056000 -0.025981
v -0.007765 0.000000 -0.028978
v -0.007765 -0.056000 -0.028978
v -0.000000 0.000000 -0.030000
v -0.000000 -0.056000 -0.030000
v 0.007765 0.000000 -0.028978
v 0.007765 -0.056000 -0.028978
v 0.015000 0.000000 -0.025981
v 0.015000 -0.056000 -0.025981
v 0.021213 0.000000 -0.021213
v 0.021213 -0.056000 -0.021213
v 0.025981 0.000000 -0.015000
v 0.025981 -0.056000 -0.015000
v 0.028978 0.000000 -0.007765
v 0.028978 -0.056000 -0.007765
v 0.058000 -0.028000 -0.028000
v 0.055716 -0.016519 -0.028000
v 0.049213 -0.006787 -0.028000
v 0.039481 -0.000284 -0.028000
v 0.028000 0.002000 -0.028000
v 0.016519 -0.000284 -0.028000
v 0.006787 -0.006787 -0.028000
v 0.000284 -0.016519 -0.028000
v -0.002000 -0.028000 -0.028000
v 0.000284 -0.039481 -0.028000
v 0.006787 -0.049213 -0.028000
v 0.016519 -0.055716 -0.028000
v 0.028000 -0.058000 -0.028000
v 0.039481 -0.055716 -0.028000
v 0.049213 -0.049213 -0.028000
v 0.055716 -0.039481 -0.028000
v 0.053585 -0.028000 -0.005804
v 0.051475 -0.016519 -0.006678
v 0.045467 -0.006787 -0.009167
v 0.036475 -0.000284 -0.012891
v 0.025869 0.002000 -0.017285
v 0.015262 -0.000284 -0.021678
v 0.006270 -0.006787 -0.025403
v 0.000262 -0.016519 -0.027891
v -0.001848 -0.028000 -0.028765
v 0.000262 -0.039481 -0.027891
v 0.006270 -0.049213 -0.025403
v 0.015262 -0.055716 -0.021678
v 0.025869 -0.058000 -0.017285
v 0.036475 -0.055716 -0.012891
v 0.045467 -0.049213 -0.009167
v 0.051475 -0.039481 -0.006678
v 0.041012 -0.028000 0.013012
v 0.039397 -0.016519 0.011397
v 0.034799 -0.006787 0.006799
v 0.027917 -0.000284 -0.000083
v 0.019799 0.002000 -0.008201
v 0.011681 -0.000284 -0.016319
v 0.004799 -0.006787 -0.023201
v 0.000201 -0.016519 -0.027799
v -0.001414 -0.028000 -0.029414
v 0.000201 -0.039481 -0.027799
v 0.004799 -0.049213 -0.023201
v 0.011681 -0.055716 -0.016319
v 0.019799 -0.058000 -0.008201
v 0.027917 -0.055716 -0.000083
v 0.034799 -0.049213 0.006799
v 0.039397 -0.039481 0.011397
v 0.022196 -0.028000 0.025585
v 0.021322 -0.016519 0.023475
v 0.018833 -0.006787 0.017467
v 0.015109 -0.000284 0.008475
v 0.010715 0.002000 -0.002131
v 0.006322 -0.000284 -0.012738
v 0.002597 -0.006787 -0.021730
v 0.000109 -0.016519 -0.027738
v -0.000765 -0.028000 -0.029848
v 0.000109 -0.039481 -0.027738
v 0.002597 -0.049213 -0.021730
v 0.006322 -0.055716 -0.012738
v 0.010715 -0.058000 -0.002131
v 0.015109 -0.055716 0.008475
v 0.018833 -0.049213 0.017467
v 0.021322 -0.039481 0.023475
v 0.000000 -0.028000 0.030000
v 0.000000 -0.016519 0.027716
v 0.000000 -0.006787 0.021213
v 0.000000 -0.000284 0.011481
v 0.000000 0.002000 0.000000
v 0.000000 -0.000284 -0.011481
v 0.000000 -0.006787 -0.021213
v 0.000000 -0.016519 -0.027716
v -0.000000 -0.028000 -0.030000
v 0.000000 -0.039481 -0.027716
v 0.000000 -0.049213 -0.021213
v 0.000000 -0.055716 -0.011481
v 0.000000 -0.058000 -0.000000
v 0.000000 -0.055716 0.011481
v 0.000000 -0.049213 0.021213
v 0.000000 -0.039481 0.027716
v -0.022196 -0.028000 0.025585
v -0.021322 -0.016519 0.023475
v -0.018833 -0.006787 0.017467
v -0.015109 -0.000284 0.008475
v -0.010715 0.002000 -0.002131
v -0.006322 -0.000284 -0.012738
v -0.002597 -0.006787 -0.021730
v -0.000109 -0.016519 -0.027738
v 0.000765 -0.028000 -0.029848
v -0.000109 -0.039481 -0.027738
v -0.002597 -0.049213 -0.021730
v -0.006322 -0.055716 -0.012738
v -0.010715 -0.058000 -0.002131
v -0.015109 -0.055716 0.008475
v -0.018833 -0.049213 0.017467
v -0.021322 -0.039481 0.023475
v -0.041012 -0.028000 0.013012
v -0.039397 -0.016519 0.011397
v -0.034799 -0.006787 0.006799
v -0.027917 -0.000284 -0.000083
v -0.019799 0.002000 -0.008201
v -0.011681 -0.000284 -0.016319
v -0.004799 -0.006787 -0.023201
v -0.000201 -0.016519 -0.027799
v 0.001414 -0.028000 -0.029414
v -0.000201 -0.039481 -0.027799
v -0.004799 -0.049213 -0.023201
v -0.011681 -0.055716 -0.016319
v -0.019799 -0.058000 -0.008201
v -0.027917 -0.055716 -0.000083
v -0.034799 -0.049213 0.006799
v -0.039397 -0.039481 0.011397
v -0.053585 -0.028000 -0.005804
v -0.051475 -0.016519 -0.006678
v -0.045467 -0.006787 -0.009167
v -0.036475 -0.000284 -0.012891
v -0.025869 0.002000 -0.017285
v -0.015262 -0.000284 -0.021678
v -0.006270 -0.006787 -0.025403
v -0.000262 -0.016519 -0.027891
v 0.001848 -0.028000 -0.028765
v -0.000262 -0.039481 -0.027891
v -0.006270 -0.049213 -0.025403
v -0.015262 -0.055716 -0.021678
v -0.025869 -0.058000 -0.017285
v -0.036475 -0.055716 -0.012891
v -0.045467 -0.049213 -0.009167
v -0.051475 -0.039481 -0.006678
v -0.058000 -0.028000 -0.028000
v -0.055716 -0.016519 -0.028000
v -0.049213 -0.006787 -0.028000
v -0.039481 -0.000284 -0.028000
v -0.028000 0.002000 -0.028000
v -0.016519 -0.000284 -0.028000
v -0.006787 -0.006787 -0.028000
v -0.000284 -0.016519 -0.028000
v 0.002000 -0.028000 -0.028000
v -0.000284 -0.039481 -0.028000
v -0.006787 -0.049213 -0.028000
v -0.016519 -0.055716 -0.028000
v -0.028000 -0.058000 -0.028000
v -0.039481 -0.055716 -0.028000
v -0.049213 -0.049213 -0.028000
v -0.055716 -0.039481 -0.028000
v -0.053585 -0.028000 -0.050196
v -0.051475 -0.016519 -0.049322
v -0.045467 -0.006787 -0.046833
v -0.036475 -0.000284 -0.043109
v -0.025869 0.002000 -0.038715
v -0.015262 -0.000284 -0.034322
v -0.006270 -0.006787 -0.030597
v -0.000262 -0.016519 -0.028109
v 0.001848 -0.028000 -0.027235
v -0.000262 -0.039481 -0.028109
v -0.006270 -0.049213 -0.030597
v -0.015262 -0.055716 -0.034322
v -0.025869 -0.058000 -0.038715
v -0.036475 -0.055716 -0.043109
v -0.045467 -0.049213 -0.046833
v -0.051475 -0.039481 -0.049322
v -0.041012 -0.028000 -0.069012
v -0.039397 -0.016519 -0.067397
v -0.034799 -0.006787 -0.062799
v -0.027917 -0.000284 -0.055917
v -0.019799 0.002000 -0.047799
v -0.011681 -0.000284 -0.039681
v -0.004799 -0.006787 -0.032799
v -0.000201 -0.016519 -0.028201
v 0.001414 -0.028000 -0.026586
v -0.000201 -0.039481 -0.028201
v -0.004799 -0.049213 -0.032799
v -0.011681 -0.055716 -0.039681
v -0.019799 -0.058000 -0.047799
v -0.027917 -0.055716 -0.055917
v -0.034799 -0.049213 -0.062799
v -0.039397 -0.039481 -0.067397
v -0.022196 -0.028000 -0.081585
v -0.021322 -0.016519 -0.079475
v -0.018833 -0.006787 -0.073467
v -0.015109 -0.000284 -0.064475
v -0.010715 0.002000 -0.053869
v -0.006322 -0.000284 -0.043262
v -0.002597 -0.006787 -0.034270
v -0.000109 -0.016519 -0.028262
v 0.000765 -0.028000 -0.026152
v -0.000109 -0.039481 -0.028262
v -0.002597 -0.049213 -0.034270
v -0.006322 -0.055716 -0.043262
v -0.010715 -0.058000 -0.053869
v -0.015109 -0.055716 -0.064475
v -0.018833 -0.049213 -0.073467
v -0.021322 -0.039481 -0.079475
v -0.000000 -0.028000 -0.086000
v -0.000000 -0.016519 -0.083716
v -0.000000 -0.006787 -0.077213
v -0.000000 -0.000284 -0.067481
v -0.000000 0.002000 -0.056000
v -0.000000 -0.000284 -0.044519
v -0.000000 -0.006787 -0.034787
v -0.000000 -0.016519 -0.028284
v 0.000000 -0.028000 -0.026000
v -0.000000 -0.039481 -0.028284
v -0.000000 -0.049213 -0.034787
v -0.000000 -0.055716 -0.044519
v -0.000000 -0.058000 -0.056000
v -0.000000 -0.055716 -0.067481
v -0.000000 -0.049213 -0.077213
v -0.000000 -0.039481 -0.083716
v 0.022196 -0.028000 -0.081585
v 0.021322 -0.016519 -0.079475
v 0.018833 -0.006787 -0.073467
v 0.015109 -0.000284 -0.064475
v 0.010715 0.002000 -0.053869
v 0.006322 -0.000284 -0.043262
v 0.002597 -0.006787 -0.034270
v 0.000109 -0.016519 -0.028262
v -0.000765 -0.028000 -0.026152
v 0.000109 -0.039481 -0.028262
v 0.002597 -0.049213 -0.034270
v 0.006322 -0.055716 -0.043262
v 0.010715 -0.058000 -0.053869
v 0.015109 -0.055716 -0.064475
v 0.018833 -0.049213 -0.073467
v 0.021322 -0.039481 -0.079475
v 0.041012 -0.028000 -0.069012
v 0.039397 -0.016519 -0.067397
v 0.034799 -0.006787 -0.062799
v 0.027917 -0.000284 -0.055917
v 0.019799 0.002000 -0.047799
v 0.011681 -0.000284 -0.039681
v 0.004799 -0.006787 -0.032799
v 0.000201 -0.016519 -0.028201
v -0.001414 -0.028000 -0.026586
v 0.000201 -0.039481 -0.028201
v 0.004799 -0.049213 -0.032799
v 0.011681 -0.055716 -0.039681
v 0.019799 -0.058000 -0.047799
v 0.027917 -0.055716 -0.055917
v 0.034799 -0.049213 -0.062799
v 0.039397 -0.039481 -0.067397
v 0.053585 -0.028000 -0.050196
v 0.051475 -0.016519 -0.049322
v 0.045467 -0.006787 -0.046833
v 0.036475 -0.000284 -0.043109
v 0.025869 0.002000 -0.038715
v 0.015262 -0.000284 -0.034322
v 0.006270 -0.006787 -0.030597
v 0.000262 -0.016519 -0.028109
v -0.001848 -0.028000 -0.027235
v 0.000262 -0.039481 -0.028109
v 0.006270 -0.049213 -0.030597
v 0.015262 -0.055716 -0.034322
v 0.025869 -0.058000 -0.038715
v 0.036475 -0.055716 -0.043109
v 0.045467 -0.049213 -0.046833
v 0.051475 -0.039481 -0.049322
v 0.055000 0.000000 -0.048000
v 0.055000 0.000000 -0.064000
v 0.053126 0.014235 -0.048000
v 0.053126 0.014235 -0.064000
v 0.047631 0.027500 -0.048000
v 0.047631 0.027500 -0.064000
v 0.038891 0.038891 -0.048000
v 0.038891 0.038891 -0.064000
v 0.027500 0.047631 -0.048000
v 0.027500 0.047631 -0.064000
v 0.014235 0.053126 -0.048000
v 0.014235 0.053126 -0.064000
v 0.000000 0.055000 -0.048000
v 0.000000 0.055000 -0.064000
v -0.014235 0.053126 -0.048000
v -0.014235 0.053126 -0.064000
v -0.027500 0.047631 -0.048000
v -0.027500 0.047631 -0.064000
v -0.038891 0.038891 -0.048000
v -0.038891 0.038891 -0.064000
v -0.047631 0.027500 -0.048000
v -0.047631 0.027500 -0.064000
v -0.053126 0.014235 -0.048000
v -0.053126 0.014235 -0.064000
v -0.055000 0.000000 -0.048000
v -0.055000 0.000000 -0.064000
v -0.053126 -0.014235 -0.048000
v -0.053126 -0.014235 -0.064000
v -0.047631 -0.027500 -0.048000
v -0.047631 -0.027500 -0.064000
v -0.038891 -0.038891 -0.048000
v -0.038891 -0.038891 -0.064000
v -0.027500 -0.047631 -0.048000
v -0.027500 -0.047631 -0.064000
v -0.014235 -0.053126 -0.048000
v -0.014235 -0.053126 -0.064000
v -0.000000 -0.055000 -0.048000
v -0.000000 -0.055000 -0.064000
v 0.014235 -0.053126 -0.048000
v 0.014235 -0.053126 -0.064000
v 0.027500 -0.047631 -0.048000
v 0.027500 -0.047631 -0.064000
v 0.038891 -0.038891 -0.048000
v 0.038891 -0.038891 -0.064000
v 0.047631 -0.027500 -0.048000
v 0.047631 -0.027500 -0.064000
v 0.053126 -0.014235 -0.048000
v 0.053126 -0.014235 -0.064000
v 0.000000 0.000000 -0.048000
v 0.000000 0.000000 -0.064000
v 0.055000 0.000000 -0.048000
v 0.055000 0.000000 -0.064000
v 0.053126 0.014235 -0.048000
v 0.053126 0.014235 -0.064000
v 0.047631 0.027500 -0.048000
v 0.047631 0.027500 -0.064000
v 0.038891 0.038891 -0.048000
v 0.038891 0.038891 -0.064000
v 0.027500 0.047631 -0.048000
v 0.027500 0.047631 -0.064000
v 0.014235 0.053126 -0.048000
v 0.014235 0.053126 -0.064000
v 0.000000 0.055000 -0.048000
v 0.000000 0.055000 -0.064000
v -0.014235 0.053126 -0.048000
v -0.014235 0.053126 -0.064000
v -0.027500 0.047631 -0.048000
v -0.027500 0.047631 -0.064000
v -0.038891 0.038891 -0.048000
v -0.038891 0.038891 -0.064000
v -0.047631 0.027500 -0.048000
v -0.047631 0.027500 -0.064000
v -0.053126 0.014235 -0.048000
v -0.053126 0.014235 -0.064000
v -0.055000 0.000000 -0.048000
v -0.055000 0.000000 -0.064000
v -0.053126 -0.014235 -0.048000
v -0.053126 -0.014235 -0.064000
v -0.047631 -0.027500 -0.048000
v -0.047631 -0.027500 -0.064000
v -0.038891 -0.038891 -0.048000
v -0.038891 -0.038891 -0.064000
v -0.027500 -0.047631 -0.048000
v -0.027500 -0.047631 -0.064000
v -0.014235 -0.053126 -0.048000
v -0.014235 -0.053126 -0.064000
v -0.000000 -0.055000 -0.048000
v -0.000000 -0.055000 -0.064000
v 0.014235 -0.053126 -0.048000
v 0.014235 -0.053126 -0.064000
v 0.027500 -0.047631 -0.048000
v 0.027500 -0.047631 -0.064000
v 0.038891 -0.038891 -0.048000
v 0.038891 -0.038891 -0.064000
v 0.047631 -0.027500 -0.048000
v 0.047631 -0.027500 -0.064000
v 0.053126 -0.014235 -0.048000
v 0.053126 -0.014235 -0.064000
v 0.055000 -0.048000 0.000000
v 0.055000 -0.064000 0.000000
v 0.053126 -0.048000 0.014235
v 0.053126 -0.064000 0.014235
v 0.047631 -0.048000 0.027500
v 0.047631 -0.064000 0.027500
v 0.038891 -0.048000 0.038891
v 0.038891 -0.064000 0.038891
v 0.027500 -0.048000 0.047631
v 0.027500 -0.064000 0.047631
v 0.014235 -0.048000 0.053126
v 0.014235 -0.064000 0.053126
v 0.000000 -0.048000 0.055000
v 0.000000 -0.064000 0.055000
v -0.014235 -0.048000 0.053126
v -0.014235 -0.064000 0.053126
v -0.027500 -0.048000 0.047631
v -0.027500 -0.064000 0.047631
v -0.038891 -0.048000 0.038891
v -0.038891 -0.064000 0.038891
v -0.047631 -0.048000 0.027500
v -0.047631 -0.064000 0.027500
v -0.053126 -0.048000 0.014235
v -0.053126 -0.064000 0.014235
v -0.055000 -0.048000 0.000000
v -0.055000 -0.064000 0.000000
v -0.053126 -0.048000 -0.014235
v -0.053126 -0.064000 -0.014235
v -0.047631 -0.048000 -0.027500
v -0.047631 -0.064000 -0.027500
v -0.038891 -0.048000 -0.038891
v -0.038891 -0.064000 -0.038891
v -0.027500 -0.048000 -0.047631
v -0.027500 -0.064000 -0.047631
v -0.014235 -0.048000 -0.053126
v -0.014235 -0.064000 -0.053126
v -0.000000 -0.048000 -0.055000
v -0.000000 -0.064000 -0.055000
v 0.014235 -0.048000 -0.053126
v 0.014235 -0.064000 -0.053126
v 0.027500 -0.048000 -0.047631
v 0.027500 -0.064000 -0.047631
v 0.038891 -0.048000 -0.038891
v 0.038891 -0.064000 -0.038891
v 0.047631 -0.048000 -0.027500
v 0.047631 -0.064000 -0.027500
v 0.053126 -0.048000 -0.014235
v 0.053126 -0.064000 -0.014235
v 0.000000 -0.048000 0.000000
v 0.000000 -0.064000 0.000000
v 0.055000 -0.048000 0.000000
v 0.055000 -0.064000 0.000000
v 0.053126 -0.048000 0.014235
v 0.053126 -0.064000 0.014235
v 0.047631 -0.048000 0.027500
v 0.047631 -0.064000 0.027500
v 0.038891 -0.048000 0.038891
v 0.038891 -0.064000 0.038891
v 0.027500 -0.048000 0.047631
v 0.027500 -0.064000 0.047631
v 0.014235 -0.048000 0.053126
v 0.014235 -0.064000 0.053126
v 0.000000 -0.048000 0.055000
v 0.000000 -0.064000 0.055000
v -0.014235 -0.048000 0.053126
v -0.014235 -0.064000 0.053126
v -0.027500 -0.048000 0.047631
v -0.027500 -0.064000 0.047631
v -0.038891 -0.048000 0.038891
v -0.038891 -0.064000 0.038891
v -0.047631 -0.048000 0.027500
v -0.047631 -0.064000 0.027500
v -0.053126 -0.048000 0.014235
v -0.053126 -0.064000 0.014235
v -0.055000 -0.048000 0.000000
v -0.055000 -0.064000 0.000000
v -0.053126 -0.048000 -0.014235
v -0.053126 -0.064000 -0.014235
v -0.047631 -0.048000 -0.027500
v -0.047631 -0.064000 -0.027500
v -0.038891 -0.048000 -0.038891
v -0.038891 -0.064000 -0.038891
v -0.027500 -0.048000 -0.047631
v -0.027500 -0.064000 -0.047631
v -0.014235 -0.048000 -0.053126
v -0.014235 -0.064000 -0.053126
v -0.000000 -0.048000 -0.055000
v -0.000000 -0.064000 -0.055000
v 0.014235 -0.048000 -0.053126
v 0.014235 -0.064000 -0.053126
v 0.027500 -0.048000 -0.047631
v 0.027500 -0.064000 -0.047631
v 0.038891 -0.048000 -0.038891
v 0.038891 -0.064000 -0.038891
v 0.047631 -0.048000 -0.027500
v 0.047631 -0.064000 -0.027500
v 0.053126 -0.048000 -0.014235
v 0.053126 -0.064000 -0.014235
vt 0.000000 1.000000
vt 0.000000 0.000000
vt 0.041667 1.000000
vt 0.041667 0.000000
vt 0.083333 1.000000
vt 0.083333 0.000000
vt 0.125000 1.000000
vt 0.125000 0.000000
vt 0.166667 1.000000
vt 0.166667 0.000000
vt 0.208333 1.000000
vt 0.208333 0.000000
vt 0.250000 1.000000
vt 0.250000 0.000000
vt 0.291667 1.000000
vt 0.291667 0.000000
vt 0.333333 1.000000
vt 0.333333 0.000000
vt 0.375000 1.000000
vt 0.375000 0.000000
vt 0.416667 1.000000
vt 0.416667 0.000000
vt 0.458333 1.000000
vt 0.458333 0.000000
vt 0.500000 1.000000
vt 0.500000 0.000000
vt 0.541667 1.000000
vt 0.541667 0.000000
vt 0.583333 1.000000
vt 0.583333 0.000000
vt 0.625000 1.000000
vt 0.625000 0.000000
vt 0.666667 1.000000
vt 0.666667 0.000000
vt 0.708333 1.000000
vt 0.708333 0.000000
vt 0.750000 1.000000
vt 0.750000 0.000000
vt 0.791667 1.000000
vt 0.791667 0.000000
vt 0.833333 1.000000
vt 0.833333 0.000000
vt 0.875000 1.000000
vt 0.875000 0.000000
vt 0.916667 1.000000
vt 0.916667 0.000000
vt 0.958333 1.000000
vt 0.958333 0.000000
vt 0.500000 0.500000
vt 0.500000 0.500000
vt 1.000000 0.500000
vt 1.000000 0.500000
vt 0.982963 0.629410
vt 0.982963 0.629410
vt 0.933013 0.750000
vt 0.933013 0.750000
vt 0.853553 0.853553
vt 0.853553 0.853553
vt 0.750000 0.933013
vt 0.750000 0.933013
vt 0.629410 0.982963
vt 0.629410 0.982963
vt 0.500000 1.000000
vt 0.500000 1.000000
vt 0.370590 0.982963
vt 0.370590 0.982963
vt 0.250000 0.933013
vt 0.250000 0.933013
vt 0.146447 0.853553
vt 0.146447 0.853553
vt 0.066987 0.750000
vt 0.066987 0.750000
vt 0.017037 0.629410
vt 0.017037 0.629410
vt 0.000000 0.500000
vt 0.000000 0.500000
vt 0.017037 0.370590
vt 0.017037 0.370590
vt 0.066987 0.250000
vt 0.066987 0.250000
vt 0.146447 0.146447
vt 0.146447 0.146447
vt 0.250000 0.066987
vt 0.250000 0.066987
vt 0.370590 0.017037
vt 0.370590 0.017037
vt 0.500000 0.000000
vt 0.500000 0.000000
vt 0.629410 0.017037
vt 0.629410 0.017037
vt 0.750000 0.066987
vt 0.750000 0.066987
vt 0.853553 0.146447
vt 0.853553 0.146447
vt 0.933013 0.250000
vt 0.933013 0.250000
vt 0.982963 0.370590
vt 0.982963 0.370590
vt 0.000000 1.000000
vt 0.000000 0.000000
vt 0.041667 1.000000
vt 0.041667 0.000000
vt 0.083333 1.000000
vt 0.083333 0.000000
vt 0.125000 1.000000
vt 0.125000 0.000000
vt 0.166667 1.000000
vt 0.166667 0.000000
vt 0.208333 1.000000
vt 0.208333 0.000000
vt 0.250000 1.000000
vt 0.250000 0.000000
vt 0.291667 1.000000
vt 0.291667 0.000000
vt 0.333333 1.000000
vt 0.333333 0.000000
vt 0.375000 1.000000
vt 0.375000 0.000000
vt 0.416667 1.000000
vt 0.416667 0.000000
vt 0.458333 1.000000
vt 0.458333 0.000000
vt 0.500000 1.000000
vt 0.500000 0.000000
vt 0.541667 1.000000
vt 0.541667 0.000000
vt 0.583333 1.000000
vt 0.583333 0.000000
vt 0.625000 1.000000
vt 0.625000 0.000000
vt 0.666667 1.000000
vt 0.666667 0.000000
vt 0.708333 1.000000
vt 0.708333 0.000000
vt 0.750000 1.000000
vt 0.750000 0.000000
vt 0.791667 1.000000
vt 0.791667 0.000000
vt 0.833333 1.000000
vt 0.833333 0.000000
vt 0.875000 1.000000
vt 0.875000 0.000000
vt 0.916667 1.000000
vt 0.916667 0.000000
vt 0.958333 1.000000
vt 0.958333 0.000000
vt 0.500000 0.500000
vt 0.500000 0.500000
vt 1.000000 0.500000
vt 1.000000 0.500000
vt 0.982963 0.629410
vt 0.982963 0.629410
vt 0.933013 0.750000
vt 0.933013 0.750000
vt 0.853553 0.853553
vt 0.853553 0.853553
vt 0.750000 0.933013
vt 0.750000 0.933013
vt 0.629410 0.982963
vt 0.629410 0.982963
vt 0.500000 1.000000
vt 0.500000 1.000000
vt 0.370590 0.982963
vt 0.370590 0.982963
vt 0.250000 0.933013
vt 0.250000 0.933013
vt 0.146447 0.853553
vt 0.146447 0.853553
vt 0.066987 0.750000
vt 0.066987 0.750000
vt 0.017037 0.629410
vt 0.017037 0.629410
vt 0.000000 0.500000
vt 0.000000 0.500000
vt 0.017037 0.370590
vt 0.017037 0.370590
vt 0.066987 0.250000
vt 0.066987 0.250000
vt 0.146447 0.146447
vt 0.146447 0.146447
vt 0.250000 0.066987
vt 0.250000 0.066987
vt 0.370590 0.017037
vt 0.370590 0.017037
vt 0.500000 0.000000
vt 0.500000 0.000000
vt 0.629410 0.017037
vt 0.629410 0.017037
vt 0.750000 0.066987
vt 0.750000 0.066987
vt 0.853553 0.146447
vt 0.853553 0.146447
vt 0.933013 0.250000
vt 0.933013 0.250000
vt 0.982963 0.370590
vt 0.982963 0.370590
vt 0.000000 0.000000
vt 0.000000 0.062500
vt 0.000000 0.125000
vt 0.000000 0.187500
vt 0.000000 0.250000
vt 0.000000 0.312500
vt 0.000000 0.375000
vt 0.000000 0.437500
vt 0.000000 0.500000
vt 0.000000 0.562500
vt 0.000000 0.625000
vt 0.000000 0.687500
vt 0.000000 0.750000
vt 0.000000 0.812500
vt 0.000000 0.875000
vt 0.000000 0.937500
vt 0.062500 0.000000
vt 0.062500 0.062500
vt 0.062500 0.125000
vt 0.062500 0.187500
vt 0.062500 0.250000
vt 0.062500 0.312500
vt 0.062500 0.375000
vt 0.062500 0.437500
vt 0.062500 0.500000
vt 0.062500 0.562500
vt 0.062500 0.625000
vt 0.062500 0.687500
vt 0.062500 0.750000
vt 0.062500 0.812500
vt 0.062500 0.875000
vt 0.062500 0.937500
vt 0.125000 0.000000
vt 0.125000 0.062500
vt 0.125000 0.125000
vt 0.125000 0.187500
vt 0.125000 0.250000
vt 0.125000 0.312500
vt 0.125000 0.375000
vt 0.125000 0.437500
vt 0.125000 0.500000
vt 0.125000 0.562500
vt 0.125000 0.625000
vt 0.125000 0.687500
vt 0.125000 0.750000
vt 0.125000 0.812500
vt 0.125000 0.875000
vt 0.125000 0.937500
vt 0.187500 0.000000
vt 0.187500 0.062500
vt 0.187500 0.125000
vt 0.187500 0.187500
vt 0.187500 0.250000
vt 0.187500 0.312500
vt 0.187500 0.375000
vt 0.187500 0.437500
vt 0.187500 0.500000
vt 0.187500 0.562500
vt 0.187500 0.625000
vt 0.187500 0.687500
vt 0.187500 0.750000
vt 0.187500 0.812500
vt 0.187500 0.875000
vt 0.187500 0.937500
vt 0.250000 0.000000
vt 0.250000 0.062500
vt 0.250000 0.125000
vt 0.250000 0.187500
vt 0.250000 0.250000
vt 0.250000 0.312500
vt 0.250000 0.375000
vt 0.250000 0.437500
vt 0.250000 0.500000
vt 0.250000 0.562500
vt 0.250000 0.625000
vt 0.250000 0.687500
vt 0.250000 0.750000
vt 0.250000 0.812500
vt 0.250000 0.875000
vt 0.250000 0.937500
vt 0.312500 0.000000
vt 0.312500 0.062500
vt 0.312500 0.125000
vt 0.312500 0.187500
vt 0.312500 0.250000
vt 0.312500 0.312500
vt 0.312500 0.375000
vt 0.312500 0.437500
vt 0.312500 0.500000
vt 0.312500 0.562500
vt 0.312500 0.625000
vt 0.312500 0.687500
vt 0.312500 0.750000
vt 0.312500 0.812500
vt 0.312500 0.875000
vt 0.312500 0.937500
vt 0.375000 0.000000
vt 0.375000 0.062500
vt 0.375000 0.125000
vt 0.375000 0.187500
vt 0.375000 0.250000
vt 0.375000 0.312500
vt 0.375000 0.375000
vt 0.375000 0.437500
vt 0.375000 0.500000
vt 0.375000 0.562500
vt 0.375000 0.625000
vt 0.375000 0.687500
vt 0.375000 0.750000
vt 0.375000 0.812500
vt 0.375000 0.875000
vt 0.375000 0.937500
vt 0.437500 0.000000
vt 0.437500 0.062500
vt 0.437500 0.125000
vt 0.437500 0.187500
vt 0.437500 0.250000
vt 0.437500 0.312500
vt 0.437500 0.375000
vt 0.437500 0.437500
vt 0.437500 0.500000
vt 0.437500 0.562500
vt 0.437500 0.625000
vt 0.437500 0.687500
vt 0.437500 0.750000
vt 0.437500 0.812500
vt 0.437500 0.875000
vt 0.437500 0.937500
vt 0.500000 0.000000
vt 0.500000 0.062500
vt 0.500000 0.125000
vt 0.500000 0.187500
vt 0.500000 0.250000
vt 0.500000 0.312500
vt 0.500000 0.375000
vt 0.500000 0.437500
vt 0.500000 0.500000
vt 0.500000 0.562500
vt 0.500000 0.625000
vt 0.500000 0.687500
vt 0.500000 0.750000
vt 0.500000 0.812500
vt 0.500000 0.875000
vt 0.500000 0.937500
vt 0.562500 0.000000
vt 0.562500 0.062500
vt 0.562500 0.125000
vt 0.562500 0.187500
vt 0.562500 0.250000
vt 0.562500 0.312500
vt 0.562500 0.375000
vt 0.562500 0.437500
vt 0.562500 0.500000
vt 0.562500 0.562500
vt 0.562500 0.625000
vt 0.562500 0.687500
vt 0.562500 0.750000
vt 0.562500 0.812500
vt 0.562500 0.875000
vt 0.562500 0.937500
vt 0.625000 0.000000
vt 0.625000 0.062500
vt 0.625000 0.125000
vt 0.625000 0.187500
vt 0.625000 0.250000
vt 0.625000 0.312500
vt 0.625000 0.375000
vt 0.625000 0.437500
vt 0.625000 0.500000
vt 0.625000 0.562500
vt 0.625000 0.625000
vt 0.625000 0.687500
vt 0.625000 0.750000
vt 0.625000 0.812500
vt 0.625000 0.875000
vt 0.625000 0.937500
vt 0.687500 0.000000
vt 0.687500 0.062500
vt 0.687500 0.125000
vt 0.687500 0.187500
vt 0.687500 0.250000
vt 0.687500 0.312500
vt 0.687500 0.375000
vt 0.687500 0.437500
vt 0.687500 0.500000
vt 0.687500 0.562500
vt 0.687500 0.625000
vt 0.687500 0.687500
vt 0.687500 0.750000
vt 0.687500 0.812500
vt 0.687500 0.875000
vt 0.687500 0.937500
vt 0.750000 0.000000
vt 0.750000 0.062500
vt 0.750000 0.125000
vt 0.750000 0.187500
vt 0.750000 0.250000
vt 0.750000 0.312500
vt 0.750000 0.375000
vt 0.750000 0.437500
vt 0.750000 0.500000
vt 0.750000 0.562500
vt 0.750000 0.625000
vt 0.750000 0.687500
vt 0.750000 0.750000
vt 0.750000 0.812500
vt 0.750000 0.875000
vt 0.750000 0.937500
vt 0.812500 0.000000
vt 0.812500 0.062500
vt 0.812500 0.125000
vt 0.812500 0.187500
vt 0.812500 0.250000
vt 0.812500 0.312500
vt 0.812500 0.375000
vt 0.812500 0.437500
vt 0.812500 0.500000
vt 0.812500 0.562500
vt 0.812500 0.625000
vt 0.812500 0.687500
vt 0.812500 0.750000
vt 0.812500 0.812500
vt 0.812500 0.875000
vt 0.812500 0.937500
vt 0.875000 0.000000
vt 0.875000 0.062500
vt 0.875000 0.125000
vt 0.875000 0.187500
vt 0.875000 0.250000
vt 0.875000 0.312500
vt 0.875000 0.375000
vt 0.875000 0.437500
vt 0.875000 0.500000
vt 0.875000 0.562500
vt 0.875000 0.625000
vt 0.875000 0.687500
vt 0.875000 0.750000
vt 0.875000 0.812500
vt 0.875000 0.875000
vt 0.875000 0.937500
vt 0.937500 0.000000
vt 0.937500 0.062500
vt 0.937500 0.125000
vt 0.937500 0.187500
vt 0.937500 0.250000
vt 0.937500 0.312500
vt 0.937500 0.375000
vt 0.937500 0.437500
vt 0.937500 0.500000
vt 0.937500 0.562500
vt 0.937500 0.625000
vt 0.937500 0.687500
vt 0.937500 0.750000
vt 0.937500 0.812500
vt 0.937500 0.875000
vt 0.937500 0.937500
vt 0.000000 1.000000
vt 0.000000 0.000000
vt 0.041667 1.000000
vt 0.041667 0.000000
vt 0.083333 1.000000
vt 0.083333 0.000000
vt 0.125000 1.000000
vt 0.125000 0.000000
vt 0.166667 1.000000
vt 0.166667 0.000000
vt 0.208333 1.000000
vt 0.208333 0.000000
vt 0.250000 1.000000
vt 0.250000 0.000000
vt 0.291667 1.000000
vt 0.291667 0.000000
vt 0.333333 1.000000
vt 0.333333 0.000000
vt 0.375000 1.000000
vt 0.375000 0.000000
vt 0.416667 1.000000
vt 0.416667 0.000000
vt 0.458333 1.000000
vt 0.458333 0.000000
vt 0.500000 1.000000
vt 0.500000 0.000000
vt 0.541667 1.000000
vt 0.541667 0.000000
vt 0.583333 1.000000
vt 0.583333 0.000000
vt 0.625000 1.000000
vt 0.625000 0.000000
vt 0.666667 1.000000
vt 0.666667 0.000000
vt 0.708333 1.000000
vt 0.708333 0.000000
vt 0.750000 1.000000
vt 0.750000 0.000000
vt 0.791667 1.000000
vt 0.791667 0.000000
vt 0.833333 1.000000
vt 0.833333 0.000000
vt 0.875000 1.000000
vt 0.875000 0.000000
vt 0.916667 1.000000
vt 0.916667 0.000000
vt 0.958333 1.000000
vt 0.958333 0.000000
vt 0.500000 0.500000
vt 0.500000 0.500000
vt 1.000000 0.500000
vt 1.000000 0.500000
vt 0.982963 0.629410
vt 0.982963 0.629410
vt 0.933013 0.750000
vt 0.933013 0.750000
vt 0.853553 0.853553
vt 0.853553 0.853553
vt 0.750000 0.933013
vt 0.750000 0.933013
vt 0.629410 0.982963
vt 0.629410 0.982963
vt 0.500000 1.000000
vt 0.500000 1.000000
vt 0.370590 0.982963
vt 0.370590 0.982963
vt 0.250000 0.933013
vt 0.250000 0.933013
vt 0.146447 0.853553
vt 0.146447 0.853553
vt 0.066987 0.750000
vt 0.066987 0.750000
vt 0.017037 0.629410
vt 0.017037 0.629410
vt 0.000000 0.500000
vt 0.000000 0.500000
vt 0.017037 0.370590
vt 0.017037 0.370590
vt 0.066987 0.250000
vt 0.066987 0.250000
vt 0.146447 0.146447
vt 0.146447 0.146447
vt 0.250000 0.066987
vt 0.250000 0.066987
vt 0.370590 0.017037
vt 0.370590 0.017037
vt 0.500000 0.000000
vt 0.500000 0.000000
vt 0.629410 0.017037
vt 0.629410 0.017037
vt 0.750000 0.066987
vt 0.750000 0.066987
vt 0.853553 0.146447
vt 0.853553 0.146447
vt 0.933013 0.250000
vt 0.933013 0.250000
vt 0.982963 0.370590
vt 0.982963 0.370590
vt 0.000000 1.000000
vt 0.000000 0.000000
vt 0.041667 1.000000
vt 0.041667 0.000000
vt 0.083333 1.000000
vt 0.083333 0.000000
vt 0.125000 1.000000
vt 0.125000 0.000000
vt 0.166667 1.000000
vt 0.166667 0.000000
vt 0.208333 1.000000
vt 0.208333 0.000000
vt 0.250000 1.000000
vt 0.250000 0.000000
vt 0.291667 1.000000
vt 0.291667 0.000000
vt 0.333333 1.000000
vt 0.333333 0.000000
vt 0.375000 1.000000
vt 0.375000 0.000000
vt 0.416667 1.000000
vt 0.416667 0.000000
vt 0.458333 1.000000
vt 0.458333 0.000000
vt 0.500000 1.000000
vt 0.500000 0.000000
vt 0.541667 1.000000
vt 0.541667 0.000000
vt 0.583333 1.000000
vt 0.583333 0.000000
vt 0.625000 1.000000
vt 0.625000 0.000000
vt 0.666667 1.000000
vt 0.666667 0.000000
vt 0.708333 1.000000
vt 0.708333 0.000000
vt 0.750000 1.000000
vt 0.750000 0.000000
vt 0.791667 1.000000
vt 0.791667 0.000000
vt 0.833333 1.000000
vt 0.833333 0.000000
vt 0.875000 1.000000
vt 0.875000 0.000000
vt 0.916667 1.000000
vt 0.916667 0.000000
vt 0.958333 1.000000
vt 0.958333 0.000000
vt 0.500000 0.500000
vt 0.500000 0.500000
vt 1.000000 0.500000
vt 1.000000 0.500000
vt 0.982963 0.629410
vt 0.982963 0.629410
vt 0.933013 0.750000
vt 0.933013 0.750000
vt 0.853553 0.853553
vt 0.853553 0.853553
vt 0.750000 0.933013
vt 0.750000 0.933013
vt 0.629410 0.982963
vt 0.629410 0.982963
vt 0.500000 1.000000
vt 0.500000 1.000000
vt 0.370590 0.982963
vt 0.370590 0.982963
vt 0.250000 0.933013
vt 0.250000 0.933013
vt 0.146447 0.853553
vt 0.146447 0.853553
vt 0.066987 0.750000
vt 0.066987 0.750000
vt 0.017037 0.629410
vt 0.017037 0.629410
vt 0.000000 0.500000
vt 0.000000 0.500000
vt 0.017037 0.370590
vt 0.017037 0.370590
vt 0.066987 0.250000
vt 0.066987 0.250000
vt 0.146447 0.146447
vt 0.146447 0.146447
vt 0.250000 0.066987
vt 0.250000 0.066987
vt 0.370590 0.017037
vt 0.370590 0.017037
vt 0.500000 0.000000
vt 0.500000 0.000000
vt 0.629410 0.017037
vt 0.629410 0.017037
vt 0.750000 0.066987
vt 0.750000 0.066987
vt 0.853553 0.146447
vt 0.853553 0.146447
vt 0.933013 0.250000
vt 0.933013 0.250000
vt 0.982963 0.370590
vt 0.982963 0.370590
vn 1.000000 0.000000 0.000000
vn 1.000000 0.000000 0.000000
vn 0.965926 0.258819 0.000000
vn 0.965926 0.258819 0.000000
vn 0.866025 0.500000 0.000000
vn 0.866025 0.500000 0.000000
vn 0.707107 0.707107 0.000000
vn 0.707107 0.707107 0.000000
vn 0.500000 0.866025 0.000000
vn 0.500000 0.866025 0.000000
vn 0.258819 0.965926 0.000000
vn 0.258819 0.965926 0.000000
vn 0.000000 1.000000 0.000000
vn 0.000000 1.000000 0.000000
vn -0.258819 0.965926 0.000000
vn -0.258819 0.965926 0.000000
vn -0.500000 0.866025 0.000000
vn -0.500000 0.866025 0.000000
vn -0.707107 0.707107 0.000000
vn -0.707107 0.707107 0.000000
vn -0.866025 0.500000 0.000000
vn -0.866025 0.500000 0.000000
vn -0.965926 0.258819 0.000000
vn -0.965926 0.258819 0.000000
vn -1.000000 0.000000 0.000000
vn -1.000000 0.000000 0.000000
vn -0.965926 -0.258819 0.000000
vn -0.965926 -0.258819 0.000000
vn -0.866025 -0.500000 0.000000
vn -0.866025 -0.500000 0.000000
vn -0.707107 -0.707107 0.000000
vn -0.707107 -0.707107 0.000000
vn -0.500000 -0.866025 0.000000
vn -0.500000 -0.866025 0.000000
vn -0.258819 -0.965926 0.000000
vn -0.258819 -0.965926 0.000000
vn -0.000000 -1.000000 0.000000
vn -0.000000 -1.000000 0.000000
vn 0.258819 -0.965926 0.000000
vn 0.258819 -0.965926 0.000000
vn 0.500000 -0.866025 0.000000
vn 0.500000 -0.866025 0.000000
vn 0.707107 -0.707107 0.000000
vn 0.707107 -0.707107 0.000000
vn 0.866025 -0.500000 0.000000
vn 0.866025 -0.500000 0.000000
vn 0.965926 -0.258819 0.000000
vn 0.965926 -0.258819 0.000000
vn 0.000000 0.000000 1.000000
vn 0.000000 0.000000 -1.000000
vn 0.000000 0.000000 1.000000
vn 0.000000 0.000000 -1.000000
vn 0.000000 0.000000 1.000000
vn 0.000000 0.000000 -1.000000
vn 0.000000 0.000000 1.000000
vn 0.000000 0.000000 -1.000000
vn 0.000000 0.000000 1.000000
vn 0.000000 0.000000 -1.000000
vn 0.000000 0.000000 1.000000
vn 0.000000 0.000000 -1.000000
vn 0.000000 0.000000 1.000000
vn 0.000000 0.000000 -1.000000
vn 0.000000 0.000000 1.000000
vn 0.000000 0.000000 -1.000000
vn 0.000000 0.000000 1.000000
vn 0.000000 0.000000 -1.000000
vn 0.000000 0.000000 1.000000
vn 0.000000 0.000000 -1.000000
vn 0.000000 0.000000 1.000000
vn 0.000000 0.000000 -1.000000
vn 0.000000 0.000000 1.000000
vn 0.000000 0.000000 -1.000000
vn 0.000000 0.000000 1.000000
vn 0.000000 0.000000 -1.000000
vn 0.000000 0.000000 1.000000
vn 0.000000 0.000000 -1.000000
vn 0.000000 0.000000 1.000000
vn 0.000000 0.000000 -1.000000
vn 0.000000 0.000000 1.000000
vn 0.000000 0.000000 -1.000000
vn 0.000000 0.000000 1.000000
vn 0.000000 0.000000 -1.000000
vn 0.000000 0.000000 1.000000
vn 0.000000 0.000000 -1.000000
vn 0.000000 0.000000 1.000000
vn 0.000000 0.000000 -1.000000
vn 0.000000 0.000000 1.000000
vn 0.000000 0.000000 -1.000000
vn 0.000000 0.000000 1.000000
vn 0.000000 0.000000 -1.000000
vn 0.000000 0.000000 1.000000
vn 0.000000 0.000000 -1.000000
vn 0.000000 0.000000 1.000000
vn 0.000000 0.000000 -1.000000
vn 0.000000 0.000000 1.000000
vn 0.000000 0.000000 -1.000000
vn 0.000000 0.000000 1.000000
vn 0.000000 0.000000 -1.000000
vn 1.000000 0.000000 0.000000
vn 1.000000 0.000000 0.000000
vn 0.965926 0.000000 0.258819
vn 0.965926 0.000000 0.258819
vn 0.866025 0.000000 0.500000
vn 0.866025 0.000000 0.500000
vn 0.707107 0.000000 0.707107
vn 0.707107 0.000000 0.707107
vn 0.500000 0.000000 0.866025
vn 0.500000 0.000000 0.866025
vn 0.258819 0.000000 0.965926
vn 0.258819 0.000000 0.965926
vn 0.000000 0.000000 1.000000
vn 0.000000 0.000000 1.000000
vn -0.258819 0.000000 0.965926
vn -0.258819 0.000000 0.965926
vn -0.500000 0.000000 0.866025
vn -0.500000 0.000000 0.866025
vn -0.707107 0.000000 0.707107
vn -0.707107 0.000000 0.707107
vn -0.866025 0.000000 0.500000
vn -0.866025 0.000000 0.500000
vn -0.965926 0.000000 0.258819
vn -0.965926 0.000000 0.258819
vn -1.000000 0.000000 0.000000
vn -1.000000 0.000000 0.000000
vn -0.965926 0.000000 -0.258819
vn -0.965926 0.000000 -0.258819
vn -0.866025 0.000000 -0.500000
vn -0.866025 0.000000 -0.500000
vn -0.707107 0.000000 -0.707107
vn -0.707107 0.000000 -0.707107
vn -0.500000 0.000000 -0.866025
vn -0.500000 0.000000 -0.866025
vn -0.258819 0.000000 -0.965926
vn -0.258819 0.000000 -0.965926
vn -0.000000 0.000000 -1.000000
vn -0.000000 0.000000 -1.000000
vn 0.258819 0.000000 -0.965926
vn 0.258819 0.000000 -0.965926
vn 0.500000 0.000000 -0.866025
vn 0.500000 0.000000 -0.866025
vn 0.707107 0.000000 -0.707107
vn 0.707107 0.000000 -0.707107
vn 0.866025 0.000000 -0.500000
vn 0.866025 0.000000 -0.500000
vn 0.965926 0.000000 -0.258819
vn 0.965926 0.000000 -0.258819
vn 0.000000 1.000000 0.000000
vn 0.000000 -1.000000 0.000000
vn 0.000000 1.000000 0.000000
vn 0.000000 -1.000000 0.000000
vn 0.000000 1.000000 0.000000
vn 0.000000 -1.000000 0.000000
vn 0.000000 1.000000 0.000000
vn 0.000000 -1.000000 0.000000
vn 0.000000 1.000000 0.000000
vn 0.000000 -1.000000 0.000000
vn 0.000000 1.000000 0.000000
vn 0.000000 -1.000000 0.000000
vn 0.000000 1.000000 0.000000
vn 0.000000 -1.000000 0.000000
vn 0.000000 1.000000 0.000000
vn 0.000000 -1.000000 0.000000
vn 0.000000 1.000000 0.000000
vn 0.000000 -1.000000 0.000000
vn 0.000000 1.000000 0.000000
vn 0.000000 -1.000000 0.000000
vn 0.000000 1.000000 0.000000
vn 0.000000 -1.000000 0.000000
vn 0.000000 1.000000 0.000000
vn 0.000000 -1.000000 0.000000
vn 0.000000 1.000000 0.000000
vn 0.000000 -1.000000 0.000000
vn 0.000000 1.000000 0.000000
vn 0.000000 -1.000000 0.000000
vn 0.000000 1.000000 0.000000
vn 0.000000 -1.000000 0.000000
vn 0.000000 1.000000 0.000000
vn 0.000000 -1.000000 0.000000
vn 0.000000 1.000000 0.000000
vn 0.000000 -1.000000 0.000000
vn 0.000000 1.000000 0.000000
vn 0.000000 -1.000000 0.000000
vn 0.000000 1.000000 0.000000
vn 0.000000 -1.000000 0.000000
vn 0.000000 1.000000 0.000000
vn 0.000000 -1.000000 0.000000
vn 0.000000 1.000000 0.000000
vn 0.000000 -1.000000 0.000000
vn 0.000000 1.000000 0.000000
vn 0.000000 -1.000000 0.000000
vn 0.000000 1.000000 0.000000
vn 0.000000 -1.000000 0.000000
vn 0.000000 1.000000 0.000000
vn 0.000000 -1.000000 0.000000
vn 0.000000 1.000000 0.000000
vn 0.000000 -1.000000 0.000000
vn 1.000000 0.000000 0.000000
vn 0.923880 0.382683 0.000000
vn 0.707107 0.707107 0.000000
vn 0.382683 0.923880 0.000000
vn 0.000000 1.000000 0.000000
vn -0.382683 0.923880 -0.000000
vn -0.707107 0.707107 -0.000000
vn -0.923880 0.382683 -0.000000
vn -1.000000 0.000000 -0.000000
vn -0.923880 -0.382683 -0.000000
vn -0.707107 -0.707107 -0.000000
vn -0.382683 -0.923880 -0.000000
vn -0.000000 -1.000000 -0.000000
vn 0.382683 -0.923880 0.000000
vn 0.707107 -0.707107 0.000000
vn 0.923880 -0.382683 0.000000
vn 0.923880 0.000000 0.382683
vn 0.853553 0.382683 0.353553
vn 0.653281 0.707107 0.270598
vn 0.353553 0.923880 0.146447
vn 0.000000 1.000000 0.000000
vn -0.353553 0.923880 -0.146447
vn -0.653281 0.707107 -0.270598
vn -0.853553 0.382683 -0.353553
vn -0.923880 0.000000 -0.382683
vn -0.853553 -0.382683 -0.353553
vn -0.653281 -0.707107 -0.270598
vn -0.353553 -0.923880 -0.146447
vn -0.000000 -1.000000 -0.000000
vn 0.353553 -0.923880 0.146447
vn 0.653281 -0.707107 0.270598
vn 0.853553 -0.382683 0.353553
vn 0.707107 0.000000 0.707107
vn 0.653281 0.382683 0.653281
vn 0.500000 0.707107 0.500000
vn 0.270598 0.923880 0.270598
vn 0.000000 1.000000 0.000000
vn -0.270598 0.923880 -0.270598
vn -0.500000 0.707107 -0.500000
vn -0.653281 0.382683 -0.653281
vn -0.707107 0.000000 -0.707107
vn -0.653281 -0.382683 -0.653281
vn -0.500000 -0.707107 -0.500000
vn -0.270598 -0.923880 -0.270598
vn -0.000000 -1.000000 -0.000000
vn 0.270598 -0.923880 0.270598
vn 0.500000 -0.707107 0.500000
vn 0.653281 -0.382683 0.653281
vn 0.382683 0.000000 0.923880
vn 0.353553 0.382683 0.853553
vn 0.270598 0.707107 0.653281
vn 0.146447 0.923880 0.353553
vn 0.000000 1.000000 0.000000
vn -0.146447 0.923880 -0.353553
vn -0.270598 0.707107 -0.653281
vn -0.353553 0.382683 -0.853553
vn -0.382683 0.000000 -0.923880
vn -0.353553 -0.382683 -0.853553
vn -0.270598 -0.707107 -0.653281
vn -0.146447 -0.923880 -0.353553
vn -0.000000 -1.000000 -0.000000
vn 0.146447 -0.923880 0.353553
vn 0.270598 -0.707107 0.653281
vn 0.353553 -0.382683 0.853553
vn 0.000000 0.000000 1.000000
vn 0.000000 0.382683 0.923880
vn 0.000000 0.707107 0.707107
vn 0.000000 0.923880 0.382683
vn 0.000000 1.000000 0.000000
vn -0.000000 0.923880 -0.382683
vn -0.000000 0.707107 -0.707107
vn -0.000000 0.382683 -0.923880
vn -0.000000 0.000000 -1.000000
vn -0.000000 -0.382683 -0.923880
vn -0.000000 -0.707107 -0.707107
vn -0.000000 -0.923880 -0.382683
vn -0.000000 -1.000000 -0.000000
vn 0.000000 -0.923880 0.382683
vn 0.000000 -0.707107 0.707107
vn 0.000000 -0.382683 0.923880
vn -0.382683 0.000000 0.923880
vn -0.353553 0.382683 0.853553
vn -0.270598 0.707107 0.653281
vn -0.146447 0.923880 0.353553
vn -0.000000 1.000000 0.000000
vn 0.146447 0.923880 -0.353553
vn 0.270598 0.707107 -0.653281
vn 0.353553 0.382683 -0.853553
vn 0.382683 0.000000 -0.923880
vn 0.353553 -0.382683 -0.853553
vn 0.270598 -0.707107 -0.653281
vn 0.146447 -0.923880 -0.353553
vn 0.000000 -1.000000 -0.000000
vn -0.146447 -0.923880 0.353553
vn -0.270598 -0.707107 0.653281
vn -0.353553 -0.382683 0.853553
vn -0.707107 0.000000 0.707107
vn -0.653281 0.382683 0.653281
vn -0.500000 0.707107 0.500000
vn -0.270598 0.923880 0.270598
vn -0.000000 1.000000 0.000000
vn 0.270598 0.923880 -0.270598
vn 0.500000 0.707107 -0.500000
vn 0.653281 0.382683 -0.653281
vn 0.707107 0.000000 -0.707107
vn 0.653281 -0.382683 -0.653281
vn 0.500000 -0.707107 -0.500000
vn 0.270598 -0.923880 -0.270598
vn 0.000000 -1.000000 -0.000000
vn -0.270598 -0.923880 0.270598
vn -0.500000 -0.707107 0.500000
vn -0.653281 -0.382683 0.653281
vn -0.923880 0.000000 0.382683
vn -0.853553 0.382683 0.353553
vn -0.653281 0.707107 0.270598
vn -0.353553 0.923880 0.146447
vn -0.000000 1.000000 0.000000
vn 0.353553 0.923880 -0.146447
vn 0.653281 0.707107 -0.270598
vn 0.853553 0.382683 -0.353553
vn 0.923880 0.000000 -0.382683
vn 0.853553 -0.382683 -0.353553
vn 0.653281 -0.707107 -0.270598
vn 0.353553 -0.923880 -0.146447
vn 0.000000 -1.000000 -0.000000
vn -0.353553 -0.923880 0.146447
vn -0.653281 -0.707107 0.270598
vn -0.853553 -0.382683 0.353553
vn -1.000000 0.000000 0.000000
vn -0.923880 0.382683 0.000000
vn -0.707107 0.707107 0.000000
vn -0.382683 0.923880 0.000000
vn -0.000000 1.000000 0.000000
vn 0.382683 0.923880 -0.000000
vn 0.707107 0.707107 -0.000000
vn 0.923880 0.382683 -0.000000
vn 1.000000 0.000000 -0.000000
vn 0.923880 -0.382683 -0.000000
vn 0.707107 -0.707107 -0.000000
vn 0.382683 -0.923880 -0.000000
vn 0.000000 -1.000000 -0.000000
vn -0.382683 -0.923880 0.000000
vn -0.707107 -0.707107 0.000000
vn -0.923880 -0.382683 0.000000
vn -0.923880 0.000000 -0.382683
vn -0.853553 0.382683 -0.353553
vn -0.653281 0.707107 -0.270598
vn -0.353553 0.923880 -0.146447
vn -0.000000 1.000000 -0.000000
vn 0.353553 0.923880 0.146447
vn 0.653281 0.707107 0.270598
vn 0.853553 0.382683 0.353553
vn 0.923880 0.000000 0.382683
vn 0.853553 -0.382683 0.353553
vn 0.653281 -0.707107 0.270598
vn 0.353553 -0.923880 0.146447
vn 0.000000 -1.000000 0.000000
vn -0.353553 -0.923880 -0.146447
vn -0.653281 -0.707107 -0.270598
vn -0.853553 -0.382683 -0.353553
vn -0.707107 0.000000 -0.707107
vn -0.653281 0.382683 -0.653281
vn -0.500000 0.707107 -0.500000
vn -0.270598 0.923880 -0.270598
vn -0.000000 1.000000 -0.000000
vn 0.270598 0.923880 0.270598
vn 0.500000 0.707107 0.500000
vn 0.653281 0.382683 0.653281
vn 0.707107 0.000000 0.707107
vn 0.653281 -0.382683 0.653281
vn 0.500000 -0.707107 0.500000
vn 0.270598 -0.923880 0.270598
vn 0.000000 -1.000000 0.000000
vn -0.270598 -0.923880 -0.270598
vn -0.500000 -0.707107 -0.500000
vn -0.653281 -0.382683 -0.653281
vn -0.382683 0.000000 -0.923880
vn -0.353553 0.382683 -0.853553
vn -0.270598 0.707107 -0.653281
vn -0.146447 0.923880 -0.353553
vn -0.000000 1.000000 -0.000000
vn 0.146447 0.923880 0.353553
vn 0.270598 0.707107 0.653281
vn 0.353553 0.382683 0.853553
vn 0.382683 0.000000 0.923880
vn 0.353553 -0.382683 0.853553
vn 0.270598 -0.707107 0.653281
vn 0.146447 -0.923880 0.353553
vn 0.000000 -1.000000 0.000000
vn -0.146447 -0.923880 -0.353553
vn -0.270598 -0.707107 -0.653281
vn -0.353553 -0.382683 -0.853553
vn -0.000000 0.000000 -1.000000
vn -0.000000 0.382683 -0.923880
vn -0.000000 0.707107 -0.707107
vn -0.000000 0.923880 -0.382683
vn -0.000000 1.000000 -0.000000
vn 0.000000 0.923880 0.382683
vn 0.000000 0.707107 0.707107
vn 0.000000 0.382683 0.923880
vn 0.000000 0.000000 1.000000
vn 0.000000 -0.382683 0.923880
vn 0.000000 -0.707107 0.707107
vn 0.000000 -0.923880 0.382683
vn 0.000000 -1.000000 0.000000
vn -0.000000 -0.923880 -0.382683
vn -0.000000 -0.707107 -0.707107
vn -0.000000 -0.382683 -0.923880
vn 0.382683 0.000000 -0.923880
vn 0.353553 0.382683 -0.853553
vn 0.270598 0.707107 -0.653281
vn 0.146447 0.923880 -0.353553
vn 0.000000 1.000000 -0.000000
vn -0.146447 0.923880 0.353553
vn -0.270598 0.707107 0.653281
vn -0.353553 0.382683 0.853553
vn -0.382683 0.000000 0.923880
vn -0.353553 -0.382683 0.853553
vn -0.270598 -0.707107 0.653281
vn -0.146447 -0.923880 0.353553
vn -0.000000 -1.000000 0.000000
vn 0.146447 -0.923880 -0.353553
vn 0.270598 -0.707107 -0.653281
vn 0.353553 -0.382683 -0.853553
vn 0.707107 0.000000 -0.707107
vn 0.653281 0.382683 -0.653281
vn 0.500000 0.707107 -0.500000
vn 0.270598 0.923880 -0.270598
vn 0.000000 1.000000 -0.000000
vn -0.270598 0.923880 0.270598
vn -0.500000 0.707107 0.500000
vn -0.653281 0.382683 0.653281
vn -0.707107 0.000000 0.707107
vn -0.653281 -0.382683 0.653281
vn -0.500000 -0.707107 0.500000
vn -0.270598 -0.923880 0.270598
vn -0.000000 -1.000000 0.000000
vn 0.270598 -0.923880 -0.270598
vn 0.500000 -0.707107 -0.500000
vn 0.653281 -0.382683 -0.653281
vn 0.923880 0.000000 -0.382683
vn 0.853553 0.382683 -0.353553
vn 0.653281 0.707107 -0.270598
vn 0.353553 0.923880 -0.146447
vn 0.000000 1.000000 -0.000000
vn -0.353553 0.923880 0.146447
vn -0.653281 0.707107 0.270598
vn -0.853553 0.382683 0.353553
vn -0.923880 0.000000 0.382683
vn -0.853553 -0.382683 0.353553
vn -0.653281 -0.707107 0.270598
vn -0.353553 -0.923880 0.146447
vn -0.000000 -1.000000 0.000000
vn 0.353553 -0.923880 -0.146447
vn 0.653281 -0.707107 -0.270598
vn 0.853553 -0.382683 -0.353553
vn 1.000000 0.000000 0.000000
vn 1.000000 0.000000 0.000000
vn 0.965926 0.258819 0.000000
vn 0.965926 0.258819 0.000000
vn 0.866025 0.500000 0.000000
vn 0.866025 0.500000 0.000000
vn 0.707107 0.707107 0.000000
vn 0.707107 0.707107 0.000000
vn 0.500000 0.866025 0.000000
vn 0.500000 0.866025 0.000000
vn 0.258819 0.965926 0.000000
vn 0.258819 0.965926 0.000000
vn 0.000000 1.000000 0.000000
vn 0.000000 1.000000 0.000000
vn -0.258819 0.965926 0.000000
vn -0.258819 0.965926 0.000000
vn -0.500000 0.866025 0.000000
vn -0.500000 0.866025 0.000000
vn -0.707107 0.707107 0.000000
vn -0.707107 0.707107 0.000000
vn -0.866025 0.500000 0.000000
vn -0.866025 0.500000 0.000000
vn -0.965926 0.258819 0.000000
vn -0.965926 0.258819 0.000000
vn -1.000000 0.000000 0.000000
vn -1.000000 0.000000 0.000000
vn -0.965926 -0.258819 0.000000
vn -0.965926 -0.258819 0.000000
vn -0.866025 -0.500000 0.000000
vn -0.866025 -0.500000 0.000000
vn -0.707107 -0.707107 0.000000
vn -0.707107 -0.707107 0.000000
vn -0.500000 -0.866025 0.000000
vn -0.500000 -0.866025 0.000000
vn -0.258819 -0.965926 0.000000
vn -0.258819 -0.965926 0.000000
vn -0.000000 -1.000000 0.000000
vn -0.000000 -1.000000 0.000000
vn 0.258819 -0.965926 0.000000
vn 0.258819 -0.965926 0.000000
vn 0.500000 -0.866025 0.000000
vn 0.500000 -0.866025 0.000000
vn 0.707107 -0.707107 0.000000
vn 0.707107 -0.707107 0.000000
vn 0.866025 -0.500000 0.000000
vn 0.866025 -0.500000 0.000000
vn 0.965926 -0.258819 0.000000
vn 0.965926 -0.258819 0.000000
vn 0.000000 0.000000 1.000000
vn 0.000000 0.000000 -1.000000
vn 0.000000 0.000000 1.000000
vn 0.000000 0.000000 -1.000000
vn 0.000000 0.000000 1.000000
vn 0.000000 0.000000 -1.000000
vn 0.000000 0.000000 1.000000
vn 0.000000 0.000000 -1.000000
vn 0.000000 0.000000 1.000000
vn 0.000000 0.000000 -1.000000
vn 0.000000 0.000000 1.000000
vn 0.000000 0.000000 -1.000000
vn 0.000000 0.000000 1.000000
vn 0.000000 0.000000 -1.000000
vn 0.000000 0.000000 1.000000
vn 0.000000 0.000000 -1.000000
vn 0.000000 0.000000 1.000000
vn 0.000000 0.000000 -1.000000
vn 0.000000 0.000000 1.000000
vn 0.000000 0.000000 -1.000000
vn 0.000000 0.000000 1.000000
vn 0.000000 0.000000 -1.000000
vn 0.000000 0.000000 1.000000
vn 0.000000 0.000000 -1.000000
vn 0.000000 0.000000 1.000000
vn 0.000000 0.000000 -1.000000
vn 0.000000 0.000000 1.000000
vn 0.000000 0.000000 -1.000000
vn 0.000000 0.000000 1.000000
vn 0.000000 0.000000 -1.000000
vn 0.000000 0.000000 1.000000
vn 0.000000 0.000000 -1.000000
vn 0.000000 0.000000 1.000000
vn 0.000000 0.000000 -1.000000
vn 0.000000 0.000000 1.000000
vn 0.000000 0.000000 -1.000000
vn 0.000000 0.000000 1.000000
vn 0.000000 0.000000 -1.000000
vn 0.000000 0.000000 1.000000
vn 0.000000 0.000000 -1.000000
vn 0.000000 0.000000 1.000000
vn 0.000000 0.000000 -1.000000
vn 0.000000 0.000000 1.000000
vn 0.000000 0.000000 -1.000000
vn 0.000000 0.000000 1.000000
vn 0.000000 0.000000 -1.000000
vn 0.000000 0.000000 1.000000
vn 0.000000 0.000000 -1.000000
vn 0.000000 0.000000 1.000000
vn 0.000000 0.000000 -1.000000
vn 1.000000 0.000000 0.000000
vn 1.000000 0.000000 0.000000
vn 0.965926 0.000000 0.258819
vn 0.965926 0.000000 0.258819
vn 0.866025 0.000000 0.500000
vn 0.866025 0.000000 0.500000
vn 0.707107 0.000000 0.707107
vn 0.707107 0.000000 0.707107
vn 0.500000 0.000000 0.866025
vn 0.500000 0.000000 0.866025
vn 0.258819 0.000000 0.965926
vn 0.258819 0.000000 0.965926
vn 0.000000 0.000000 1.000000
vn 0.000000 0.000000 1.000000
vn -0.258819 0.000000 0.965926
vn -0.258819 0.000000 0.965926
vn -0.500000 0.000000 0.866025
vn -0.500000 0.000000 0.866025
vn -0.707107 0.000000 0.707107
vn -0.707107 0.000000 0.707107
vn -0.866025 0.000000 0.500000
vn -0.866025 0.000000 0.500000
vn -0.965926 0.000000 0.258819
vn -0.965926 0.000000 0.258819
vn -1.000000 0.000000 0.000000
vn -1.000000 0.000000 0.000000
vn -0.965926 0.000000 -0.258819
vn -0.965926 0.000000 -0.258819
vn -0.866025 0.000000 -0.500000
vn -0.866025 0.000000 -0.500000
vn -0.707107 0.000000 -0.707107
vn -0.707107 0.000000 -0.707107
vn -0.500000 0.000000 -0.866025
vn -0.500000 0.000000 -0.866025
vn -0.258819 0.000000 -0.965926
vn -0.258819 0.000000 -0.965926
vn -0.000000 0.000000 -1.000000
vn -0.000000 0.000000 -1.000000
vn 0.258819 0.000000 -0.965926
vn 0.258819 0.000000 -0.965926
vn 0.500000 0.000000 -0.866025
vn 0.500000 0.000000 -0.866025
vn 0.707107 0.000000 -0.707107
vn 0.707107 0.000000 -0.707107
vn 0.866025 0.000000 -0.500000
vn 0.866025 0.000000 -0.500000
vn 0.965926 0.000000 -0.258819
vn 0.965926 0.000000 -0.258819
vn 0.000000 1.000000 0.000000
vn 0.000000 -1.000000 0.000000
vn 0.000000 1.000000 0.000000
vn 0.000000 -1.000000 0.000000
vn 0.000000 1.000000 0.000000
vn 0.000000 -1.000000 0.000000
vn 0.000000 1.000000 0.000000
vn 0.000000 -1.000000 0.000000
vn 0.000000 1.000000 0.000000
vn 0.000000 -1.000000 0.000000
vn 0.000000 1.000000 0.000000
vn 0.000000 -1.000000 0.000000
vn 0.000000 1.000000 0.000000
vn 0.000000 -1.000000 0.000000
vn 0.000000 1.000000 0.000000
vn 0.000000 -1.000000 0.000000
vn 0.000000 1.000000 0.000000
vn 0.000000 -1.000000 0.000000
vn 0.000000 1.000000 0.000000
vn 0.000000 -1.000000 0.000000
vn 0.000000 1.000000 0.000000
vn 0.000000 -1.000000 0.000000
vn 0.000000 1.000000 0.000000
vn 0.000000 -1.000000 0.000000
vn 0.000000 1.000000 0.000000
vn 0.000000 -1.000000 0.000000
vn 0.000000 1.000000 0.000000
vn 0.000000 -1.000000 0.000000
vn 0.000000 1.000000 0.000000
vn 0.000000 -1.000000 0.000000
vn 0.000000 1.000000 0.000000
vn 0.000000 -1.000000 0.000000
vn 0.000000 1.000000 0.000000
vn 0.000000 -1.000000 0.000000
vn 0.000000 1.000000 0.000000
vn 0.000000 -1.000000 0.000000
vn 0.000000 1.000000 0.000000
vn 0.000000 -1.000000 0.000000
vn 0.000000 1.000000 0.000000
vn 0.000000 -1.000000 0.000000
vn 0.000000 1.000000 0.000000
vn 0.000000 -1.000000 0.000000
vn 0.000000 1.000000 0.000000
vn 0.000000 -1.000000 0.000000
vn 0.000000 1.000000 0.000000
vn 0.000000 -1.000000 0.000000
vn 0.000000 1.000000 0.000000
vn 0.000000 -1.000000 0.000000
vn 0.000000 1.000000 0.000000
vn 0.000000 -1.000000 0.000000
f 1/1/1 2/2/2 4/4/4
f 1/1/1 4/4/4 3/3/3
f 3/3/3 4/4/4 6/6/6
f 3/3/3 6/6/6 5/5/5
f 5/5/5 6/6/6 8/8/8
f 5/5/5 8/8/8 7/7/7
f 7/7/7 8/8/8 10/10/10
f 7/7/7 10/10/10 9/9/9
f 9/9/9 10/10/10 12/12/12
f 9/9/9 12/12/12 11/11/11
f 11/11/11 12/12/12 14/14/14
f 11/11/11 14/14/14 13/13/13
f 13/13/13 14/14/14 16/16/16
f 13/13/13 16/16/16 15/15/15
f 15/15/15 16/16/16 18/18/18
f 15/15/15 18/18/18 17/17/17
f 17/17/17 18/18/18 20/20/20
f 17/17/17 20/20/20 19/19/19
f 19/19/19 20/20/20 22/22/22
f 19/19/19 22/22/22 21/21/21
f 21/21/21 22/22/22 24/24/24
f 21/21/21 24/24/24 23/23/23
f 23/23/23 24/24/24 26/26/26
f 23/23/23 26/26/26 25/25/25
f 25/25/25 26/26/26 28/28/28
f 25/25/25 28/28/28 27/27/27
f 27/27/27 28/28/28 30/30/30
f 27/27/27 30/30/30 29/29/29
f 29/29/29 30/30/30 32/32/32
f 29/29/29 32/32/32 31/31/31
f 31/31/31 32/32/32 34/34/34
f 31/31/31 34/34/34 33/33/33
f 33/33/33 34/34/34 36/36/36
f 33/33/33 36/36/36 35/35/35
f 35/35/35 36/36/36 38/38/38
f 35/35/35 38/38/38 37/37/37
f 37/37/37 38/38/38 40/40/40
f 37/37/37 40/40/40 39/39/39
f 39/39/39 40/40/40 42/42/42
f 39/39/39 42/42/42 41/41/41
f 41/41/41 42/42/42 44/44/44
f 41/41/41 44/44/44 43/43/43
f 43/43/43 44/44/44 46/46/46
f 43/43/43 46/46/46 45/45/45
f 45/45/45 46/46/46 48/48/48
f 45/45/45 48/48/48 47/47/47
f 47/47/47 48/48/48 2/2/2
f 47/47/47 2/2/2 1/1/1
f 49/49/49 51/51/51 53/53/53
f 50/50/50 54/54/54 52/52/52
f 49/49/49 53/53/53 55/55/55
f 50/50/50 56/56/56 54/54/54
f 49/49/49 55/55/55 57/57/57
f 50/50/50 58/58/58 56/56/56
f 49/49/49 57/57/57 59/59/59
f 50/50/50 60/60/60 58/58/58
f 49/49/49 59/59/59 61/61/61
f 50/50/50 62/62/62 60/60/60
f 49/49/49 61/61/61 63/63/63
f 50/50/50 64/64/64 62/62/62
f 49/49/49 63/63/63 65/65/65
f 50/50/50 66/66/66 64/64/64
f 49/49/49 65/65/65 67/67/67
f 50/50/50 68/68/68 66/66/66
f 49/49/49 67/67/67 69/69/69
f 50/50/50 70/70/70 68/68/68
f 49/49/49 69/69/69 71/71/71
f 50/50/50 72/72/72 70/70/70
f 49/49/49 71/71/71 73/73/73
f 50/50/50 74/74/74 72/72/72
f 49/49/49 73/73/73 75/75/75
f 50/50/50 76/76/76 74/74/74
f 49/49/49 75/75/75 77/77/77
f 50/50/50 78/78/78 76/76/76
f 49/49/49 77/77/77 79/79/79
f 50/50/50 80/80/80 78/78/78
f 49/49/49 79/79/79 81/81/81
f 50/50/50 82/82/82 80/80/80
f 49/49/49 81/81/81 83/83/83
f 50/50/50 84/84/84 82/82/82
f 49/49/49 83/83/83 85/85/85
f 50/50/50 86/86/86 84/84/84
f 49/49/49 85/85/85 87/87/87
f 50/50/50 88/88/88 86/86/86
f 49/49/49 87/87/87 89/89/89
f 50/50/50 90/90/90 88/88/88
f 49/49/49 89/89/89 91/91/91
f 50/50/50 92/92/92 90/90/90
f 49/49/49 91/91/91 93/93/93
f 50/50/50 94/94/94 92/92/92
f 49/49/49 93/93/93 95/95/95
f 50/50/50 96/96/96 94/94/94
f 49/49/49 95/95/95 97/97/97
f 50/50/50 98/98/98 96/96/96
f 49/49/49 97/97/97 51/51/51
f 50/50/50 52/52/52 98/98/98
f 99/99/99 100/100/100 102/102/102
f 99/99/99 102/102/102 101/101/101
f 101/101/101 102/102/102 104/104/104
f 101/101/101 104/104/104 103/103/103
f 103/103/103 104/104/104 106/106/106
f 103/103/103 106/106/106 105/105/105
f 105/105/105 106/106/106 108/108/108
f 105/105/105 108/108/108 107/107/107
f 107/107/107 108/108/108 110/110/110
f 107/107/107 110/110/110 109/109/109
f 109/109/109 110/110/110 112/112/112
f 109/109/109 112/112/112 111/111/111
f 111/111/111 112/112/112 114/114/114
f 111/111/111 114/114/114 113/113/113
f 113/113/113 114/114/114 116/116/116
f 113/113/113 116/116/116 115/115/115
f 115/115/115 116/116/116 118/118/118
f 115/115/115 118/118/118 117/117/117
f 117/117/117 118/118/118 120/120/120
f 117/117/117 120/120/120 119/119/119
f 119/119/119 120/120/120 122/122/122
f 119/119/119 122/122/122 121/121/121
f 121/121/121 122/122/122 124/124/124
f 121/121/121 124/124/124 123/123/123
f 123/123/123 124/124/124 126/126/126
f 123/123/123 126/126/126 125/125/125
f 125/125/125 126/126/126 128/128/128
f 125/125/125 128/128/128 127/127/127
f 127/127/127 128/128/128 130/130/130
f 127/127/127 130/130/130 129/129/129
f 129/129/129 130/130/130 132/132/132
f 129/129/129 132/132/132 131/131/131
f 131/131/131 132/132/132 134/134/134
f 131/131/131 134/134/134 133/133/133
f 133/133/133 134/134/134 136/136/136
f 133/133/133 136/136/136 135/135/135
f 135/135/135 136/136/136 138/138/138
f 135/135/135 138/138/138 137/137/137
f 137/137/137 138/138/138 140/140/140
f 137/137/137 140/140/140 139/139/139
f 139/139/139 140/140/140 142/142/142
f 139/139/139 142/142/142 141/141/141
f 141/141/141 142/142/142 144/144/144
f 141/141/141 144/144/144 143/143/143
f 143/143/143 144/144/144 146/146/146
f 143/143/143 146/146/146 145/145/145
f 145/145/145 146/146/146 100/100/100
f 145/145/145 100/100/100 99/99/99
f 147/147/147 149/149/149 151/151/151
f 148/148/148 152/152/152 150/150/150
f 147/147/147 151/151/151 153/153/153
f 148/148/148 154/154/154 152/152/152
f 147/147/147 153/153/153 155/155/155
f 148/148/148 156/156/156 154/154/154
f 147/147/147 155/155/155 157/157/157
f 148/148/148 158/158/158 156/156/156
f 147/147/147 157/157/157 159/159/159
f 148/148/148 160/160/160 158/158/158
f 147/147/147 159/159/159 161/161/161
f 148/148/148 162/162/162 160/160/160
f 147/147/147 161/161/161 163/163/163
f 148/148/148 164/164/164 162/162/162
f 147/147/147 163/163/163 165/165/165
f 148/148/148 166/166/166 164/164/164
f 147/147/147 165/165/165 167/167/167
f 148/148/148 168/168/168 166/166/166
f 147/147/147 167/167/167 169/169/169
f 148/148/148 170/170/170 168/168/168
f 147/147/147 169/169/169 171/171/171
f 148/148/148 172/172/172 170/170/170
f 147/147/147 171/171/171 173/173/173
f 148/148/148 174/174/174 172/172/172
f 147/147/147 173/173/173 175/175/175
f 148/148/148 176/176/176 174/174/174
f 147/147/147 175/175/175 177/177/177
f 148/148/148 178/178/178 176/176/176
f 147/147/147 177/177/177 179/179/179
f 148/148/148 180/180/180 178/178/178
f 147/147/147 179/179/179 181/181/181
f 148/148/148 182/182/182 180/180/180
f 147/147/147 181/181/181 183/183/183
f 148/148/148 184/184/184 182/182/182
f 147/147/147 183/183/183 185/185/185
f 148/148/148 186/186/186 184/184/184
f 147/147/147 185/185/185 187/187/187
f 148/148/148 188/188/188 186/186/186
f 147/147/147 187/187/187 189/189/189
f 148/148/148 190/190/190 188/188/188
f 147/147/147 189/189/189 191/191/191
f 148/148/148 192/192/192 190/190/190
f 147/147/147 191/191/191 193/193/193
f 148/148/148 194/194/194 192/192/192
f 147/147/147 193/193/193 195/195/195
f 148/148/148 196/196/196 194/194/194
f 147/147/147 195/195/195 149/149/149
f 148/148/148 150/150/150 196/196/196
f 197/197/197 213/213/213 214/214/214
f 197/197/197 214/214/214 198/198/198
f 198/198/198 214/214/214 215/215/215
f 198/198/198 215/215/215 199/199/199
f 199/199/199 215/215/215 216/216/216
f 199/199/199 216/216/216 200/200/200
f 200/200/200 216/216/216 217/217/217
f 200/200/200 217/217/217 201/201/201
f 201/201/201 217/217/217 218/218/218
f 201/201/201 218/218/218 202/202/202
f 202/202/202 218/218/218 219/219/219
f 202/202/202 219/219/219 203/203/203
f 203/203/203 219/219/219 220/220/220
f 203/203/203 220/220/220 204/204/204
f 204/204/204 220/220/220 221/221/221
f 204/204/204 221/221/221 205/205/205
f 205/205/205 221/221/221 222/222/222
f 205/205/205 222/222/222 206/206/206
f 206/206/206 222/222/222 223/223/223
f 206/206/206 223/223/223 207/207/207
f 207/207/207 223/223/223 224/224/224
f 207/207/207 224/224/224 208/208/208
f 208/208/208 224/224/224 225/225/225
f 208/208/208 225/225/225 209/209/209
f 209/209/209 225/225/225 226/226/226
f 209/209/209 226/226/226 210/210/210
f 210/210/210 226/226/226 227/227/227
f 210/210/210 227/227/227 211/211/211
f 211/211/211 227/227/227 228/228/228
f 211/211/211 228/228/228 212/212/212
f 212/212/212 228/228/228 213/213/213
f 212/212/212 213/213/213 197/197/197
f 213/213/213 229/229/229 230/230/230
f 213/213/213 230/230/230 214/214/214
f 214/214/214 230/230/230 231/231/231
f 214/214/214 231/231/231 215/215/215
f 215/215/215 231/231/231 232/232/232
f 215/215/215 232/232/232 216/216/216
f 216/216/216 232/232/232 233/233/233
f 216/216/216 233/233/233 217/217/217
f 217/217/217 233/233/233 234/234/234
f 217/217/217 234/234/234 218/218/218
f 218/218/218 234/234/234 235/235/235
f 218/218/218 235/235/235 219/219/219
f 219/219/219 235/235/235 236/236/236
f 219/219/219 236/236/236 220/220/220
f 220/220/220 236/236/236 237/237/237
f 220/220/220 237/237/237 221/221/221
f 221/221/221 237/237/237 238/238/238
f 221/221/221 238/238/238 222/222/222
f 222/222/222 238/238/238 239/239/239
f 222/222/222 239/239/239 223/223/223
f 223/223/223 239/239/239 240/240/240
f 223/223/223 240/240/240 224/224/224
f 224/224/224 240/240/240 241/241/241
f 224/224/224 241/241/241 225/225/225
f 225/225/225 241/241/241 242/242/242
f 225/225/225 242/242/242 226/226/226
f 226/226/226 242/242/242 243/243/243
f 226/226/226 243/243/243 227/227/227
f 227/227/227 243/243/243 244/244/244
f 227/227/227 244/244/244 228/228/228
f 228/228/228 244/244/244 229/229/229
f 228/228/228 229/229/229 213/213/213
f 229/229/229 245/245/245 246/246/246
f 229/229/229 246/246/246 230/230/230
f 230/230/230 246/246/246 247/247/247
f 230/230/230 247/247/247 231/231/231
f 231/231/231 247/247/247 248/248/248
f 231/231/231 248/248/248 232/232/232
f 232/232/232 248/248/248 249/249/249
f 232/232/232 249/249/249 233/233/233
f 233/233/233 249/249/249 250/250/250
f 233/233/233 250/250/250 234/234/234
f 234/234/234 250/250/250 251/251/251
f 234/234/234 251/251/251 235/235/235
f 235/235/235 251/251/251 252/252/252
f 235/235/235 252/252/252 236/236/236
f 236/236/236 252/252/252 253/253/253
f 236/236/236 253/253/253 237/237/237
f 237/237/237 253/253/253 254/254/254
f 237/237/237 254/254/254 238/238/238
f 238/238/238 254/254/254 255/255/255
f 238/238/238 255/255/255 239/239/239
f 239/239/239 255/255/255 256/256/256
f 239/239/239 256/256/256 240/240/240
f 240/240/240 256/256/256 257/257/257
f 240/240/240 257/257/257 241/241/241
f 241/241/241 257/257/257 258/258/258
f 241/241/241 258/258/258 242/242/242
f 242/242/242 258/258/258 259/259/259
f 242/242/242 259/259/259 243/243/243
f 243/243/243 259/259/259 260/260/260
f 243/243/243 260/260/260 244/244/244
f 244/244/244 260/260/260 245/245/245
f 244/244/244 245/245/245 229/229/229
f 245/245/245 261/261/261 262/262/262
f 245/245/245 262/262/262 246/246/246
f 246/246/246 262/262/262 263/263/263
f 246/246/246 263/263/263 247/247/247
f 247/247/247 263/263/263 264/264/264
f 247/247/247 264/264/264 248/248/248
f 248/248/248 264/264/264 265/265/265
f 248/248/248 265/265/265 249/249/249
f 249/249/249 265/265/265 266/266/266
f 249/249/249 266/266/266 250/250/250
f 250/250/250 266/266/266 267/267/267
f 250/250/250 267/267/267 251/251/251
f 251/251/251 267/267/267 268/268/268
f 251/251/251 268/268/268 252/252/252
f 252/252/252 268/268/268 269/269/269
f 252/252/252 269/269/269 253/253/253
f 253/253/253 269/269/269 270/270/270
f 253/253/253 270/270/270 254/254/254
f 254/254/254 270/270/270 271/271/271
f 254/254/254 271/271/271 255/255/255
f 255/255/255 271/271/271 272/272/272
f 255/255/255 272/272/272 256/256/256
f 256/256/256 272/272/272 273/273/273
f 256/256/256 273/273/273 257/257/257
f 257/257/257 273/273/273 274/274/274
f 257/257/257 274/274/274 258/258/258
f 258/258/258 274/274/274 275/275/275
f 258/258/258 275/275/275 259/259/259
f 259/259/259 275/275/275 276/276/276
f 259/259/259 276/276/276 260/260/260
f 260/260/260 276/276/276 261/261/261
f 260/260/260 261/261/261 245/245/245
f 261/261/261 277/277/277 278/278/278
f 261/261/261 278/278/278 262/262/262
f 262/262/262 278/278/278 279/279/279
f 262/262/262 279/279/279 263/263/263
f 263/263/263 279/279/279 280/280/280
f 263/263/263 280/280/280 264/264/264
f 264/264/264 280/280/280 281/281/281
f 264/264/264 281/281/281 265/265/265
f 265/265/265 281/281/281 282/282/282
f 265/265/265 282/282/282 266/266/266
f 266/266/266 282/282/282 283/283/283
f 266/266/266 283/283/283 267/267/267
f 267/267/267 283/283/283 284/284/284
f 267/267/267 284/284/284 268/268/268
f 268/268/268 284/284/284 285/285/285
f 268/268/268 285/285/285 269/269/269
f 269/269/269 285/285/285 286/286/286
f 269/269/269 286/286/286 270/270/270
f 270/270/270 286/286/286 287/287/287
f 270/270/270 287/287/287 271/271/271
f 271/271/271 287/287/287 288/288/288
f 271/271/271 288/288/288 272/272/272
f 272/272/272 288/288/288 289/289/289
f 272/272/272 289/289/289 273/273/273
f 273/273/273 289/289/289 290/290/290
f 273/273/273 290/290/290 274/274/274
f 274/274/274 290/290/290 291/291/291
f 274/274/274 291/291/291 275/275/275
f 275/275/275 291/291/291 292/292/292
f 275/275/275 292/292/292 276/276/276
f 276/276/276 292/292/292 277/277/277
f 276/276/276 277/277/277 261/261/261
f 277/277/277 293/293/293 294/294/294
f 277/277/277 294/294/294 278/278/278
f 278/278/278 294/294/294 295/295/295
f 278/278/278 295/295/295 279/279/279
f 279/279/279 295/295/295 296/296/296
f 279/279/279 296/296/296 280/280/280
f 280/280/280 296/296/296 297/297/297
f 280/280/280 297/297/297 281/281/281
f 281/281/281 297/297/297 298/298/298
f 281/281/281 298/298/298 282/282/282
f 282/282/282 298/298/298 299/299/299
f 282/282/282 299/299/299 283/283/283
f 283/283/283 299/299/299 300/300/300
f 283/283/283 300/300/300 284/284/284
f 284/284/284 300/300/300 301/301/301
f 284/284/284 301/301/301 285/285/285
f 285/285/285 301/301/301 302/302/302
f 285/285/285 302/302/302 286/286/286
f 286/286/286 302/302/302 303/303/303
f 286/286/286 303/303/303 287/287/287
f 287/287/287 303/303/303 304/304/304
f 287/287/287 304/304/304 288/288/288
f 288/288/288 304/304/304 305/305/305
f 288/288/288 305/305/305 289/289/289
f 289/289/289 305/305/305 306/306/306
f 289/289/289 306/306/306 290/290/290
f 290/290/290 306/306/306 307/307/307
f 290/290/290 307/307/307 291/291/291
f 291/291/291 307/307/307 308/308/308
f 291/291/291 308/308/308 292/292/292
f 292/292/292 308/308/308 293/293/293
f 292/292/292 293/293/293 277/277/277
f 293/293/293 309/309/309 310/310/310
f 293/293/293 310/310/310 294/294/294
f 294/294/294 310/310/310 311/311/311
f 294/294/294 311/311/311 295/295/295
f 295/295/295 311/311/311 312/312/312
f 295/295/295 312/312/312 296/296/296
f 296/296/296 312/312/312 313/313/313
f 296/296/296 313/313/313 297/297/297
f 297/297/297 313/313/313 314/314/314
f 297/297/297 314/314/314 298/298/298
f 298/298/298 314/314/314 315/315/315
f 298/298/298 315/315/315 299/299/299
f 299/299/299 315/315/315 316/316/316
f 299/299/299 316/316/316 300/300/300
f 300/300/300 316/316/316 317/317/317
f 300/300/300 317/317/317 301/301/301
f 301/301/301 317/317/317 318/318/318
f 301/301/301 318/318/318 302/302/302
f 302/302/302 318/318/318 319/319/319
f 302/302/302 319/319/319 303/303/303
f 303/303/303 319/319/319 320/320/320
f 303/303/303 320/320/320 304/304/304
f 304/304/304 320/320/320 321/321/321
f 304/304/304 321/321/321 305/305/305
f 305/305/305 321/321/321 322/322/322
f 305/305/305 322/322/322 306/306/306
f 306/306/306 322/322/322 323/323/323
f 306/306/306 323/323/323 307/307/307
f 307/307/307 323/323/323 324/324/324
f 307/307/307 324/324/324 308/308/308
f 308/308/308 324/324/324 309/309/309
f 308/308/308 309/309/309 293/293/293
f 309/309/309 325/325/325 326/326/326
f 309/309/309 326/326/326 310/310/310
f 310/310/310 326/326/326 327/327/327
f 310/310/310 327/327/327 311/311/311
f 311/311/311 327/327/327 328/328/328
f 311/311/311 328/328/328 312/312/312
f 312/312/312 328/328/328 329/329/329
f 312/312/312 329/329/329 313/313/313
f 313/313/313 329/329/329 330/330/330
f 313/313/313 330/330/330 314/314/314
f 314/314/314 330/330/330 331/331/331
f 314/314/314 331/331/331 315/315/315
f 315/315/315 331/331/331 332/332/332
f 315/315/315 332/332/332 316/316/316
f 316/316/316 332/332/332 333/333/333
f 316/316/316 333/333/333 317/317/317
f 317/317/317 333/333/333 334/334/334
f 317/317/317 334/334/334 318/318/318
f 318/318/318 334/334/334 335/335/335
f 318/318/318 335/335/335 319/319/319
f 319/319/319 335/335/335 336/336/336
f 319/319/319 336/336/336 320/320/320
f 320/320/320 336/336/336 337/337/337
f 320/320/320 337/337/337 321/321/321
f 321/321/321 337/337/337 338/338/338
f 321/321/321 338/338/338 322/322/322
f 322/322/322 338/338/338 339/339/339
f 322/322/322 339/339/339 323/323/323
f 323/323/323 339/339/339 340/340/340
f 323/323/323 340/340/340 324/324/324
f 324/324/324 340/340/340 325/325/325
f 324/324/324 325/325/325 309/309/309
f 325/325/325 341/341/341 342/342/342
f 325/325/325 342/342/342 326/326/326
f 326/326/326 342/342/342 343/343/343
f 326/326/326 343/343/343 327/327/327
f 327/327/327 343/343/343 344/344/344
f 327/327/327 344/344/344 328/328/328
f 328/328/328 344/344/344 345/345/345
f 328/328/328 345/345/345 329/329/329
f 329/329/329 345/345/345 346/346/346
f 329/329/329 346/346/346 330/330/330
f 330/330/330 346/346/346 347/347/347
f 330/330/330 347/347/347 331/331/331
f 331/331/331 347/347/347 348/348/348
f 331/331/331 348/348/348 332/332/332
f 332/332/332 348/348/348 349/349/349
f 332/332/332 349/349/349 333/333/333
f 333/333/333 349/349/349 350/350/350
f 333/333/333 350/350/350 334/334/334
f 334/334/334 350/350/350 351/351/351
f 334/334/334 351/351/351 335/335/335
f 335/335/335 351/351/351 352/352/352
f 335/335/335 352/352/352 336/336/336
f 336/336/336 352/352/352 353/353/353
f 336/336/336 353/353/353 337/337/337
f 337/337/337 353/353/353 354/354/354
f 337/337/337 354/354/354 338/338/338
f 338/338/338 354/354/354 355/355/355
f 338/338/338 355/355/355 339/339/339
f 339/339/339 355/355/355 356/356/356
f 339/339/339 356/356/356 340/340/340
f 340/340/340 356/356/356 341/341/341
f 340/340/340 341/341/341 325/325/325
f 341/341/341 357/357/357 358/358/358
f 341/341/341 358/358/358 342/342/342
f 342/342/342 358/358/358 359/359/359
f 342/342/342 359/359/359 343/343/343
f 343/343/343 359/359/359 360/360/360
f 343/343/343 360/360/360 344/344/344
f 344/344/344 360/360/360 361/361/361
f 344/344/344 361/361/361 345/345/345
f 345/345/345 361/361/361 362/362/362
f 345/345/345 362/362/362 346/346/346
f 346/346/346 362/362/362 363/363/363
f 346/346/346 363/363/363 347/347/347
f 347/347/347 363/363/363 364/364/364
f 347/347/347 364/364/364 348/348/348
f 348/348/348 364/364/364 365/365/365
f 348/348/348 365/365/365 349/349/349
f 349/349/349 365/365/365 366/366/366
f 349/349/349 366/366/366 350/350/350
f 350/350/350 366/366/366 367/367/367
f 350/350/350 367/367/367 351/351/351
f 351/351/351 367/367/367 368/368/368
f 351/351/351 368/368/368 352/352/352
f 352/352/352 368/368/368 369/369/369
f 352/352/352 369/369/369 353/353/353
f 353/353/353 369/369/369 370/370/370
f 353/353/353 370/370/370 354/354/354
f 354/354/354 370/370/370 371/371/371
f 354/354/354 371/371/371 355/355/355
f 355/355/355 371/371/371 372/372/372
f 355/355/355 372/372/372 356/356/356
f 356/356/356 372/372/372 357/357/357
f 356/356/356 357/357/357 341/341/341
f 357/357/357 373/373/373 374/374/374
f 357/357/357 374/374/374 358/358/358
f 358/358/358 374/374/374 375/375/375
f 358/358/358 375/375/375 359/359/359
f 359/359/359 375/375/375 376/376/376
f 359/359/359 376/376/376 360/360/360
f 360/360/360 376/376/376 377/377/377
f 360/360/360 377/377/377 361/361/361
f 361/361/361 377/377/377 378/378/378
f 361/361/361 378/378/378 362/362/362
f 362/362/362 378/378/378 379/379/379
f 362/362/362 379/379/379 363/363/363
f 363/363/363 379/379/379 380/380/380
f 363/363/363 380/380/380 364/364/364
f 364/364/364 380/380/380 381/381/381
f 364/364/364 381/381/381 365/365/365
f 365/365/365 381/381/381 382/382/382
f 365/365/365 382/382/382 366/366/366
f 366/366/366 382/382/382 383/383/383
f 366/366/366 383/383/383 367/367/367
f 367/367/367 383/383/383 384/384/384
f 367/367/367 384/384/384 368/368/368
f 368/368/368 384/384/384 385/385/385
f 368/368/368 385/385/385 369/369/369
f 369/369/369 385/385/385 386/386/386
f 369/369/369 386/386/386 370/370/370
f 370/370/370 386/386/386 387/387/387
f 370/370/370 387/387/387 371/371/371
f 371/371/371 387/387/387 388/388/388
f 371/371/371 388/388/388 372/372/372
f 372/372/372 388/388/388 373/373/373
f 372/372/372 373/373/373 357/357/357
f 373/373/373 389/389/389 390/390/390
f 373/373/373 390/390/390 374/374/374
f 374/374/374 390/390/390 391/391/391
f 374/374/374 391/391/391 375/375/375
f 375/375/375 391/391/391 392/392/392
f 375/375/375 392/392/392 376/376/376
f 376/376/376 392/392/392 393/393/393
f 376/376/376 393/393/393 377/377/377
f 377/377/377 393/393/393 394/394/394
f 377/377/377 394/394/394 378/378/378
f 378/378/378 394/394/394 395/395/395
f 378/378/378 395/395/395 379/379/379
f 379/379/379 395/395/395 396/396/396
f 379/379/379 396/396/396 380/380/380
f 380/380/380 396/396/396 397/397/397
f 380/380/380 397/397/397 381/381/381
f 381/381/381 397/397/397 398/398/398
f 381/381/381 398/398/398 382/382/382
f 382/382/382 398/398/398 399/399/399
f 382/382/382 399/399/399 383/383/383
f 383/383/383 399/399/399 400/400/400
f 383/383/383 400/400/400 384/384/384
f 384/384/384 400/400/400 401/401/401
f 384/384/384 401/401/401 385/385/385
f 385/385/385 401/401/401 402/402/402
f 385/385/385 402/402/402 386/386/386
f 386/386/386 402/402/402 403/403/403
f 386/386/386 403/403/403 387/387/387
f 387/387/387 403/403/403 404/404/404
f 387/387/387 404/404/404 388/388/388
f 388/388/388 404/404/404 389/389/389
f 388/388/388 389/389/389 373/373/373
f 389/389/389 405/405/405 406/406/406
f 389/389/389 406/406/406 390/390/390
f 390/390/390 406/406/406 407/407/407
f 390/390/390 407/407/407 391/391/391
f 391/391/391 407/407/407 408/408/408
f 391/391/391 408/408/408 392/392/392
f 392/392/392 408/408/408 409/409/409
f 392/392/392 409/409/409 393/393/393
f 393/393/393 409/409/409 410/410/410
f 393/393/393 410/410/410 394/394/394
f 394/394/394 410/410/410 411/411/411
f 394/394/394 411/411/411 395/395/395
f 395/395/395 411/411/411 412/412/412
f 395/395/395 412/412/412 396/396/396
f 396/396/396 412/412/412 413/413/413
f 396/396/396 413/413/413 397/397/397
f 397/397/397 413/413/413 414/414/414
f 397/397/397 414/414/414 398/398/398
f 398/398/398 414/414/414 415/415/415
f 398/398/398 415/415/415 399/399/399
f 399/399/399 415/415/415 416/416/416
f 399/399/399 416/416/416 400/400/400
f 400/400/400 416/416/416 417/417/417
f 400/400/400 417/417/417 401/401/401
f 401/401/401 417/417/417 418/418/418
f 401/401/401 418/418/418 402/402/402
f 402/402/402 418/418/418 419/419/419
f 402/402/402 419/419/419 403/403/403
f 403/403/403 419/419/419 420/420/420
f 403/403/403 420/420/420 404/404/404
f 404/404/404 420/420/420 405/405/405
f 404/404/404 405/405/405 389/389/389
f 405/405/405 421/421/421 422/422/422
f 405/405/405 422/422/422 406/406/406
f 406/406/406 422/422/422 423/423/423
f 406/406/406 423/423/423 407/407/407
f 407/407/407 423/423/423 424/424/424
f 407/407/407 424/424/424 408/408/408
f 408/408/408 424/424/424 425/425/425
f 408/408/408 425/425/425 409/409/409
f 409/409/409 425/425/425 426/426/426
f 409/409/409 426/426/426 410/410/410
f 410/410/410 426/426/426 427/427/427
f 410/410/410 427/427/427 411/411/411
f 411/411/411 427/427/427 428/428/428
f 411/411/411 428/428/428 412/412/412
f 412/412/412 428/428/428 429/429/429
f 412/412/412 429/429/429 413/413/413
f 413/413/413 429/429/429 430/430/430
f 413/413/413 430/430/430 414/414/414
f 414/414/414 430/430/430 431/431/431
f 414/414/414 431/431/431 415/415/415
f 415/415/415 431/431/431 432/432/432
f 415/415/415 432/432/432 416/416/416
f 416/416/416 432/432/432 433/433/433
f 416/416/416 433/433/433 417/417/417
f 417/417/417 433/433/433 434/434/434
f 417/417/417 434/434/434 418/418/418
f 418/418/418 434/434/434 435/435/435
f 418/418/418 435/435/435 419/419/419
f 419/419/419 435/435/435 436/436/436
f 419/419/419 436/436/436 420/420/420
f 420/420/420 436/436/436 421/421/421
f 420/420/420 421/421/421 405/405/405
f 421/421/421 437/437/437 438/438/438
f 421/421/421 438/438/438 422/422/422
f 422/422/422 438/438/438 439/439/439
f 422/422/422 439/439/439 423/423/423
f 423/423/423 439/439/439 440/440/440
f 423/423/423 440/440/440 424/424/424
f 424/424/424 440/440/440 441/441/441
f 424/424/424 441/441/441 425/425/425
f 425/425/425 441/441/441 442/442/442
f 425/425/425 442/442/442 426/426/426
f 426/426/426 442/442/442 443/443/443
f 426/426/426 443/443/443 427/427/427
f 427/427/427 443/443/443 444/444/444
f 427/427/427 444/444/444 428/428/428
f 428/428/428 444/444/444 445/445/445
f 428/428/428 445/445/445 429/429/429
f 429/429/429 445/445/445 446/446/446
f 429/429/429 446/446/446 430/430/430
f 430/430/430 446/446/446 447/447/447
f 430/430/430 447/447/447 431/431/431
f 431/431/431 447/447/447 448/448/448
f 431/431/431 448/448/448 432/432/432
f 432/432/432 448/448/448 449/449/449
f 432/432/432 449/449/449 433/433/433
f 433/433/433 449/449/449 450/450/450
f 433/433/433 450/450/450 434/434/434
f 434/434/434 450/450/450 451/451/451
f 434/434/434 451/451/451 435/435/435
f 435/435/435 451/451/451 452/452/452
f 435/435/435 452/452/452 436/436/436
f 436/436/436 452/452/452 437/437/437
f 436/436/436 437/437/437 421/421/421
f 437/437/437 197/197/197 198/198/198
f 437/437/437 198/198/198 438/438/438
f 438/438/438 198/198/198 199/199/199
f 438/438/438 199/199/199 439/439/439
f 439/439/439 199/199/199 200/200/200
f 439/439/439 200/200/200 440/440/440
f 440/440/440 200/200/200 201/201/201
f 440/440/440 201/201/201 441/441/441
f 441/441/441 201/201/201 202/202/202
f 441/441/441 202/202/202 442/442/442
f 442/442/442 202/202/202 203/203/203
f 442/442/442 203/203/203 443/443/443
f 443/443/443 203/203/203 204/204/204
f 443/443/443 204/204/204 444/444/444
f 444/444/444 204/204/204 205/205/205
f 444/444/444 205/205/205 445/445/445
f 445/445/445 205/205/205 206/206/206
f 445/445/445 206/206/206 446/446/446
f 446/446/446 206/206/206 207/207/207
f 446/446/446 207/207/207 447/447/447
f 447/447/447 207/207/207 208/208/208
f 447/447/447 208/208/208 448/448/448
f 448/448/448 208/208/208 209/209/209
f 448/448/448 209/209/209 449/449/449
f 449/449/449 209/209/209 210/210/210
f 449/449/449 210/210/210 450/450/450
f 450/450/450 210/210/210 211/211/211
f 450/450/450 211/211/211 451/451/451
f 451/451/451 211/211/211 212/212/212
f 451/451/451 212/212/212 452/452/452
f 452/452/452 212/212/212 197/197/197
f 452/452/452 197/197/197 437/437/437
f 453/453/453 454/454/454 456/456/456
f 453/453/453 456/456/456 455/455/455
f 455/455/455 456/456/456 458/458/458
f 455/455/455 458/458/458 457/457/457
f 457/457/457 458/458/458 460/460/460
f 457/457/457 460/460/460 459/459/459
f 459/459/459 460/460/460 462/462/462
f 459/459/459 462/462/462 461/461/461
f 461/461/461 462/462/462 464/464/464
f 461/461/461 464/464/464 463/463/463
f 463/463/463 464/464/464 466/466/466
f 463/463/463 466/466/466 465/465/465
f 465/465/465 466/466/466 468/468/468
f 465/465/465 468/468/468 467/467/467
f 467/467/467 468/468/468 470/470/470
f 467/467/467 470/470/470 469/469/469
f 469/469/469 470/470/470 472/472/472
f 469/469/469 472/472/472 471/471/471
f 471/471/471 472/472/472 474/474/474
f 471/471/471 474/474/474 473/473/473
f 473/473/473 474/474/474 476/476/476
f 473/473/473 476/476/476 475/475/475
f 475/475/475 476/476/476 478/478/478
f 475/475/475 478/478/478 477/477/477
f 477/477/477 478/478/478 480/480/480
f 477/477/477 480/480/480 479/479/479
f 479/479/479 480/480/480 482/482/482
f 479/479/479 482/482/482 481/481/481
f 481/481/481 482/482/482 484/484/484
f 481/481/481 484/484/484 483/483/483
f 483/483/483 484/484/484 486/486/486
f 483/483/483 486/486/486 485/485/485
f 485/485/485 486/486/486 488/488/488
f 485/485/485 488/488/488 487/487/487
f 487/487/487 488/488/488 490/490/490
f 487/487/487 490/490/490 489/489/489
f 489/489/489 490/490/490 492/492/492
f 489/489/489 492/492/492 491/491/491
f 491/491/491 492/492/492 494/494/494
f 491/491/491 494/494/494 493/493/493
f 493/493/493 494/494/494 496/496/496
f 493/493/493 496/496/496 495/495/495
f 495/495/495 496/496/496 498/498/498
f 495/495/495 498/498/498 497/497/497
f 497/497/497 498/498/498 500/500/500
f 497/497/497 500/500/500 499/499/499
f 499/499/499 500/500/500 454/454/454
f 499/499/499 454/454/454 453/453/453
f 501/501/501 503/503/503 505/505/505
f 502/502/502 506/506/506 504/504/504
f 501/501/501 505/505/505 507/507/507
f 502/502/502 508/508/508 506/506/506
f 501/501/501 507/507/507 509/509/509
f 502/502/502 510/510/510 508/508/508
f 501/501/501 509/509/509 511/511/511
f 502/502/502 512/512/512 510/510/510
f 501/501/501 511/511/511 513/513/513
f 502/502/502 514/514/514 512/512/512
f 501/501/501 513/513/513 515/515/515
f 502/502/502 516/516/516 514/514/514
f 501/501/501 515/515/515 517/517/517
f 502/502/502 518/518/518 516/516/516
f 501/501/501 517/517/517 519/519/519
f 502/502/502 520/520/520 518/518/518
f 501/501/501 519/519/519 521/521/521
f 502/502/502 522/522/522 520/520/520
f 501/501/501 521/521/521 523/523/523
f 502/502/502 524/524/524 522/522/522
f 501/501/501 523/523/523 525/525/525
f 502/502/502 526/526/526 524/524/524
f 501/501/501 525/525/525 527/527/527
f 502/502/502 528/528/528 526/526/526
f 501/501/501 527/527/527 529/529/529
f 502/502/502 530/530/530 528/528/528
f 501/501/501 529/529/529 531/531/531
f 502/502/502 532/532/532 530/530/530
f 501/501/501 531/531/531 533/533/533
f 502/502/502 534/534/534 532/532/532
f 501/501/501 533/533/533 535/535/535
f 502/502/502 536/536/536 534/534/534
f 501/501/501 535/535/535 537/537/537
f 502/502/502 538/538/538 536/536/536
f 501/501/501 537/537/537 539/539/539
f 502/502/502 540/540/540 538/538/538
f 501/501/501 539/539/539 541/541/541
f 502/502/502 542/542/542 540/540/540
f 501/501/501 541/541/541 543/543/543
f 502/502/502 544/544/544 542/542/542
f 501/501/501 543/543/543 545/545/545
f 502/502/502 546/546/546 544/544/544
f 501/501/501 545/545/545 547/547/547
f 502/502/502 548/548/548 546/546/546
f 501/501/501 547/547/547 549/549/549
f 502/502/502 550/550/550 548/548/548
f 501/501/501 549/549/549 503/503/503
f 502/502/502 504/504/504 550/550/550
f 551/551/551 552/552/552 554/554/554
f 551/551/551 554/554/554 553/553/553
f 553/553/553 554/554/554 556/556/556
f 553/553/553 556/556/556 555/555/555
f 555/555/555 556/556/556 558/558/558
f 555/555/555 558/558/558 557/557/557
f 557/557/557 558/558/558 560/560/560
f 557/557/557 560/560/560 559/559/559
f 559/559/559 560/560/560 562/562/562
f 559/559/559 562/562/562 561/561/561
f 561/561/561 562/562/562 564/564/564
f 561/561/561 564/564/564 563/563/563
f 563/563/563 564/564/564 566/566/566
f 563/563/563 566/566/566 565/565/565
f 565/565/565 566/566/566 568/568/568
f 565/565/565 568/568/568 567/567/567
f 567/567/567 568/568/568 570/570/570
f 567/567/567 570/570/570 569/569/569
f 569/569/569 570/570/570 572/572/572
f 569/569/569 572/572/572 571/571/571
f 571/571/571 572/572/572 574/574/574
f 571/571/571 574/574/574 573/573/573
f 573/573/573 574/574/574 576/576/576
f 573/573/573 576/576/576 575/575/575
f 575/575/575 576/576/576 578/578/578
f 575/575/575 578/578/578 577/577/577
f 577/577/577 578/578/578 580/580/580
f 577/577/577 580/580/580 579/579/579
f 579/579/579 580/580/580 582/582/582
f 579/579/579 582/582/582 581/581/581
f 581/581/581 582/582/582 584/584/584
f 581/581/581 584/584/584 583/583/583
f 583/583/583 584/584/584 586/586/586
f 583/583/583 586/586/586 585/585/585
f 585/585/585 586/586/586 588/588/588
f 585/585/585 588/588/588 587/587/587
f 587/587/587 588/588/588 590/590/590
f 587/587/587 590/590/590 589/589/589
f 589/589/589 590/590/590 592/592/592
f 589/589/589 592/592/592 591/591/591
f 591/591/591 592/592/592 594/594/594
f 591/591/591 594/594/594 593/593/593
f 593/593/593 594/594/594 596/596/596
f 593/593/593 596/596/596 595/595/595
f 595/595/595 596/596/596 598/598/598
f 595/595/595 598/598/598 597/597/597
f 597/597/597 598/598/598 552/552/552
f 597/597/597 552/552/552 551/551/551
f 599/599/599 601/601/601 603/603/603
f 600/600/600 604/604/604 602/602/602
f 599/599/599 603/603/603 605/605/605
f 600/600/600 606/606/606 604/604/604
f 599/599/599 605/605/605 607/607/607
f 600/600/600 608/608/608 606/606/606
f 599/599/599 607/607/607 609/609/609
f 600/600/600 610/610/610 608/608/608
f 599/599/599 609/609/609 611/611/611
f 600/600/600 612/612/612 610/610/610
f 599/599/599 611/611/611 613/613/613
f 600/600/600 614/614/614 612/612/612
f 599/599/599 613/613/613 615/615/615
f 600/600/600 616/616/616 614/614/614
f 599/599/599 615/615/615 617/617/617
f 600/600/600 618/618/618 616/616/616
f 599/599/599 617/617/617 619/619/619
f 600/600/600 620/620/620 618/618/618
f 599/599/599 619/619/619 621/621/621
f 600/600/600 622/622/622 620/620/620
f 599/599/599 621/621/621 623/623/623
f 600/600/600 624/624/624 622/622/622
f 599/599/599 623/623/623 625/625/625
f 600/600/600 626/626/626 624/624/624
f 599/599/599 625/625/625 627/627/627
f 600/600/600 628/628/628 626/626/626
f 599/599/599 627/627/627 629/629/629
f 600/600/600 630/630/630 628/628/628
f 599/599/599 629/629/629 631/631/631
f 600/600/600 632/632/632 630/630/630
f 599/599/599 631/631/631 633/633/633
f 600/600/600 634/634/634 632/632/632
f 599/599/599 633/633/633 635/635/635
f 600/600/600 636/636/636 634/634/634
f 599/599/599 635/635/635 637/637/637
f 600/600/600 638/638/638 636/636/636
f 599/599/599 637/637/637 639/639/639
f 600/600/600 640/640/640 638/638/638
f 599/599/599 639/639/639 641/641/641
f 600/600/600 642/642/642 640/640/640
f 599/599/599 641/641/641 643/643/643
f 600/600/600 644/644/644 642/642/642
f 599/599/599 643/643/643 645/645/645
f 600/600/600 646/646/646 644/644/644
f 599/599/599 645/645/645 647/647/647
f 600/600/600 648/648/648 646/646/646
f 599/599/599 647/647/647 601/601/601
f 600/600/600 602/602/602 648/648/648
