# OBJ file: gas_regulator
o gas_regulator
v 0.060000 0.000000 -0.035000
v 0.100000 0.000000 -0.035000
v 0.060000 0.009059 -0.033807
v 0.100000 0.009059 -0.033807
v 0.060000 0.017500 -0.030311
v 0.100000 0.017500 -0.030311
v 0.060000 0.024749 -0.024749
v 0.100000 0.024749 -0.024749
v 0.060000 0.030311 -0.017500
v 0.100000 0.030311 -0.017500
v 0.060000 0.033807 -0.009059
v 0.100000 0.033807 -0.009059
v 0.060000 0.035000 -0.000000
v 0.100000 0.035000 -0.000000
v 0.060000 0.033807 0.009059
v 0.100000 0.033807 0.009059
v 0.060000 0.030311 0.017500
v 0.100000 0.030311 0.017500
v 0.060000 0.024749 0.024749
v 0.100000 0.024749 0.024749
v 0.060000 0.017500 0.030311
v 0.100000 0.017500 0.030311
v 0.060000 0.009059 0.033807
v 0.100000 0.009059 0.033807
v 0.060000 0.000000 0.035000
v 0.100000 0.000000 0.035000
v 0.060000 -0.009059 0.033807
v 0.100000 -0.009059 0.033807
v 0.060000 -0.017500 0.030311
v 0.100000 -0.017500 0.030311
v 0.060000 -0.024749 0.024749
v 0.100000 -0.024749 0.024749
v 0.060000 -0.030311 0.017500
v 0.100000 -0.030311 0.017500
v 0.060000 -0.033807 0.009059
v 0.100000 -0.033807 0.009059
v 0.060000 -0.035000 0.000000
v 0.100000 -0.035000 0.000000
v 0.060000 -0.033807 -0.009059
v 0.100000 -0.033807 -0.009059
v 0.060000 -0.030311 -0.017500
v 0.100000 -0.030311 -0.017500
v 0.060000 -0.024749 -0.024749
v 0.100000 -0.024749 -0.024749
v 0.060000 -0.017500 -0.030311
v 0.100000 -0.017500 -0.030311
v 0.060000 -0.009059 -0.033807
v 0.100000 -0.009059 -0.033807
v 0.100000 0.000000 0.000000
v 0.100000 0.000000 -0.035000
v 0.100000 0.009059 -0.033807
v 0.100000 0.017500 -0.030311
v 0.100000 0.024749 -0.024749
v 0.100000 0.030311 -0.017500
v 0.100000 0.033807 -0.009059
v 0.100000 0.035000 -0.000000
v 0.100000 0.033807 0.009059
v 0.100000 0.030311 0.017500
v 0.100000 0.024749 0.024749
v 0.100000 0.017500 0.030311
v 0.100000 0.009059 0.033807
v 0.100000 0.000000 0.035000
v 0.100000 -0.009059 0.033807
v 0.100000 -0.017500 0.030311
v 0.100000 -0.024749 0.024749
v 0.100000 -0.030311 0.017500
v 0.100000 -0.033807 0.009059
v 0.100000 -0.035000 0.000000
v 0.100000 -0.033807 -0.009059
v 0.100000 -0.030311 -0.017500
v 0.100000 -0.024749 -0.024749
v 0.100000 -0.017500 -0.030311
v 0.100000 -0.009059 -0.033807
v 0.060000 0.000000 0.000000
v 0.060000 0.000000 -0.035000
v 0.060000 0.009059 -0.033807
v 0.060000 0.017500 -0.030311
v 0.060000 0.024749 -0.024749
v 0.060000 0.030311 -0.017500
v 0.060000 0.033807 -0.009059
v 0.060000 0.035000 -0.000000
v 0.060000 0.033807 0.009059
v 0.060000 0.030311 0.017500
v 0.060000 0.024749 0.024749
v 0.060000 0.017500 0.030311
v 0.060000 0.009059 0.033807
v 0.060000 0.000000 0.035000
v 0.060000 -0.009059 0.033807
v 0.060000 -0.017500 0.030311
v 0.060000 -0.024749 0.024749
v 0.060000 -0.030311 0.017500
v 0.060000 -0.033807 0.009059
v 0.060000 -0.035000 0.000000
v 0.060000 -0.033807 -0.009059
v 0.060000 -0.030311 -0.017500
v 0.060000 -0.024749 -0.024749
v 0.060000 -0.017500 -0.030311
v 0.060000 -0.009059 -0.033807
v 0.000000 0.000000 -0.012000
v 0.060000 0.000000 -0.012000
v 0.000000 0.004592 -0.011087
v 0.060000 0.004592 -0.011087
v 0.000000 0.008485 -0.008485
v 0.060000 0.008485 -0.008485
v 0.000000 0.011087 -0.004592
v 0.060000 0.011087 -0.004592
v 0.000000 0.012000 -0.000000
v 0.060000 0.012000 -0.000000
v 0.000000 0.011087 0.004592
v 0.060000 0.011087 0.004592
v 0.000000 0.008485 0.008485
v 0.060000 0.008485 0.008485
v 0.000000 0.004592 0.011087
v 0.060000 0.004592 0.011087
v 0.000000 0.000000 0.012000
v 0.060000 0.000000 0.012000
v 0.000000 -0.004592 0.011087
v 0.060000 -0.004592 0.011087
v 0.000000 -0.008485 0.008485
v 0.060000 -0.008485 0.008485
v 0.000000 -0.011087 0.004592
v 0.060000 -0.011087 0.004592
v 0.000000 -0.012000 0.000000
v 0.060000 -0.012000 0.000000
v 0.000000 -0.011087 -0.004592
v 0.060000 -0.011087 -0.004592
v 0.000000 -0.008485 -0.008485
v 0.060000 -0.008485 -0.008485
v 0.000000 -0.004592 -0.011087
v 0.060000 -0.004592 -0.011087
v 0.060000 0.000000 0.000000
v 0.060000 0.000000 -0.012000
v 0.060000 0.004592 -0.011087
v 0.060000 0.008485 -0.008485
v 0.060000 0.011087 -0.004592
v 0.060000 0.012000 -0.000000
v 0.060000 0.011087 0.004592
v 0.060000 0.008485 0.008485
v 0.060000 0.004592 0.011087
v 0.060000 0.000000 0.012000
v 0.060000 -0.004592 0.011087
v 0.060000 -0.008485 0.008485
v 0.060000 -0.011087 0.004592
v 0.060000 -0.012000 0.000000
v 0.060000 -0.011087 -0.004592
v 0.060000 -0.008485 -0.008485
v 0.060000 -0.004592 -0.011087
v 0.000000 0.000000 0.000000
v 0.000000 0.000000 -0.012000
v 0.000000 0.004592 -0.011087
v 0.000000 0.008485 -0.008485
v 0.000000 0.011087 -0.004592
v 0.000000 0.012000 -0.000000
v 0.000000 0.011087 0.004592
v 0.000000 0.008485 0.008485
v 0.000000 0.004592 0.011087
v 0.000000 0.000000 0.012000
v 0.000000 -0.004592 0.011087
v 0.000000 -0.008485 0.008485
v 0.000000 -0.011087 0.004592
v 0.000000 -0.012000 0.000000
v 0.000000 -0.011087 -0.004592
v 0.000000 -0.008485 -0.008485
v 0.000000 -0.004592 -0.011087
v 0.006000 0.000000 -0.018000
v 0.024000 0.000000 -0.018000
v 0.006000 0.015588 -0.009000
v 0.024000 0.015588 -0.009000
v 0.006000 0.015588 0.009000
v 0.024000 0.015588 0.009000
v 0.006000 0.000000 0.018000
v 0.024000 0.000000 0.018000
v 0.006000 -0.015588 0.009000
v 0.024000 -0.015588 0.009000
v 0.006000 -0.015588 -0.009000
v 0.024000 -0.015588 -0.009000
v 0.024000 0.000000 0.000000
v 0.024000 0.000000 -0.018000
v 0.024000 0.015588 -0.009000
v 0.024000 0.015588 0.009000
v 0.024000 0.000000 0.018000
v 0.024000 -0.015588 0.009000
v 0.024000 -0.015588 -0.009000
v 0.006000 0.000000 0.000000
v 0.006000 0.000000 -0.018000
v 0.006000 0.015588 -0.009000
v 0.006000 0.015588 0.009000
v 0.006000 0.000000 0.018000
v 0.006000 -0.015588 0.009000
v 0.006000 -0.015588 -0.009000
v 0.100000 0.000000 -0.011000
v 0.150000 0.000000 -0.011000
v 0.100000 0.004210 -0.010163
v 0.150000 0.004210 -0.010163
v 0.100000 0.007778 -0.007778
v 0.150000 0.007778 -0.007778
v 0.100000 0.010163 -0.004210
v 0.150000 0.010163 -0.004210
v 0.100000 0.011000 -0.000000
v 0.150000 0.011000 -0.000000
v 0.100000 0.010163 0.004210
v 0.150000 0.010163 0.004210
v 0.100000 0.007778 0.007778
v 0.150000 0.007778 0.007778
v 0.100000 0.004210 0.010163
v 0.150000 0.004210 0.010163
v 0.100000 0.000000 0.011000
v 0.150000 0.000000 0.011000
v 0.100000 -0.004210 0.010163
v 0.150000 -0.004210 0.010163
v 0.100000 -0.007778 0.007778
v 0.150000 -0.007778 0.007778
v 0.100000 -0.010163 0.004210
v 0.150000 -0.010163 0.004210
v 0.100000 -0.011000 0.000000
v 0.150000 -0.011000 0.000000
v 0.100000 -0.010163 -0.004210
v 0.150000 -0.010163 -0.004210
v 0.100000 -0.007778 -0.007778
v 0.150000 -0.007778 -0.007778
v 0.100000 -0.004210 -0.010163
v 0.150000 -0.004210 -0.010163
v 0.150000 0.000000 0.000000
v 0.150000 0.000000 -0.011000
v 0.150000 0.004210 -0.010163
v 0.150000 0.007778 -0.007778
v 0.150000 0.010163 -0.004210
v 0.150000 0.011000 -0.000000
v 0.150000 0.010163 0.004210
v 0.150000 0.007778 0.007778
v 0.150000 0.004210 0.010163
v 0.150000 0.000000 0.011000
v 0.150000 -0.004210 0.010163
v 0.150000 -0.007778 0.007778
v 0.150000 -0.010163 0.004210
v 0.150000 -0.011000 0.000000
v 0.150000 -0.010163 -0.004210
v 0.150000 -0.007778 -0.007778
v 0.150000 -0.004210 -0.010163
v 0.100000 0.000000 0.000000
v 0.100000 0.000000 -0.011000
v 0.100000 0.004210 -0.010163
v 0.100000 0.007778 -0.007778
v 0.100000 0.010163 -0.004210
v 0.100000 0.011000 -0.000000
v 0.100000 0.010163 0.004210
v 0.100000 0.007778 0.007778
v 0.100000 0.004210 0.010163
v 0.100000 0.000000 0.011000
v 0.100000 -0.004210 0.010163
v 0.100000 -0.007778 0.007778
v 0.100000 -0.010163 0.004210
v 0.100000 -0.011000 0.000000
v 0.100000 -0.010163 -0.004210
v 0.100000 -0.007778 -0.007778
v 0.100000 -0.004210 -0.010163
v 0.139000 0.000000 -0.016000
v 0.151000 0.000000 -0.016000
v 0.139000 0.013856 -0.008000
v 0.151000 0.013856 -0.008000
v 0.139000 0.013856 0.008000
v 0.151000 0.013856 0.008000
v 0.139000 0.000000 0.016000
v 0.151000 0.000000 0.016000
v 0.139000 -0.013856 0.008000
v 0.151000 -0.013856 0.008000
v 0.139000 -0.013856 -0.008000
v 0.151000 -0.013856 -0.008000
v 0.151000 0.000000 0.000000
v 0.151000 0.000000 -0.016000
v 0.151000 0.013856 -0.008000
v 0.151000 0.013856 0.008000
v 0.151000 0.000000 0.016000
v 0.151000 -0.013856 0.008000
v 0.151000 -0.013856 -0.008000
v 0.139000 0.000000 0.000000
v 0.139000 0.000000 -0.016000
v 0.139000 0.013856 -0.008000
v 0.139000 0.013856 0.008000
v 0.139000 0.000000 0.016000
v 0.139000 -0.013856 0.008000
v 0.139000 -0.013856 -0.008000
v 0.080000 0.020000 0.014000
v 0.080000 0.050000 0.014000
v 0.085358 0.020000 0.012934
v 0.085358 0.050000 0.012934
v 0.089899 0.020000 0.009899
v 0.089899 0.050000 0.009899
v 0.092934 0.020000 0.005358
v 0.092934 0.050000 0.005358
v 0.094000 0.020000 0.000000
v 0.094000 0.050000 0.000000
v 0.092934 0.020000 -0.005358
v 0.092934 0.050000 -0.005358
v 0.089899 0.020000 -0.009899
v 0.089899 0.050000 -0.009899
v 0.085358 0.020000 -0.012934
v 0.085358 0.050000 -0.012934
v 0.080000 0.020000 -0.014000
v 0.080000 0.050000 -0.014000
v 0.074642 0.020000 -0.012934
v 0.074642 0.050000 -0.012934
v 0.070101 0.020000 -0.009899
v 0.070101 0.050000 -0.009899
v 0.067066 0.020000 -0.005358
v 0.067066 0.050000 -0.005358
v 0.066000 0.020000 -0.000000
v 0.066000 0.050000 -0.000000
v 0.067066 0.020000 0.005358
v 0.067066 0.050000 0.005358
v 0.070101 0.020000 0.009899
v 0.070101 0.050000 0.009899
v 0.074642 0.020000 0.012934
v 0.074642 0.050000 0.012934
v 0.080000 0.050000 0.000000
v 0.080000 0.050000 0.014000
v 0.085358 0.050000 0.012934
v 0.089899 0.050000 0.009899
v 0.092934 0.050000 0.005358
v 0.094000 0.050000 0.000000
v 0.092934 0.050000 -0.005358
v 0.089899 0.050000 -0.009899
v 0.085358 0.050000 -0.012934
v 0.080000 0.050000 -0.014000
v 0.074642 0.050000 -0.012934
v 0.070101 0.050000 -0.009899
v 0.067066 0.050000 -0.005358
v 0.066000 0.050000 -0.000000
v 0.067066 0.050000 0.005358
v 0.070101 0.050000 0.009899
v 0.074642 0.050000 0.012934
v 0.080000 0.020000 0.000000
v 0.080000 0.020000 0.014000
v 0.085358 0.020000 0.012934
v 0.089899 0.020000 0.009899
v 0.092934 0.020000 0.005358
v 0.094000 0.020000 0.000000
v 0.092934 0.020000 -0.005358
v 0.089899 0.020000 -0.009899
v 0.085358 0.020000 -0.012934
v 0.080000 0.020000 -0.014000
v 0.074642 0.020000 -0.012934
v 0.070101 0.020000 -0.009899
v 0.067066 0.020000 -0.005358
v 0.066000 0.020000 -0.000000
v 0.067066 0.020000 0.005358
v 0.070101 0.020000 0.009899
v 0.074642 0.020000 0.012934
v 0.080000 0.049000 0.022000
v 0.080000 0.061000 0.022000
v 0.091000 0.049000 0.019053
v 0.091000 0.061000 0.019053
v 0.099053 0.049000 0.011000
v 0.099053 0.061000 0.011000
v 0.102000 0.049000 0.000000
v 0.102000 0.061000 0.000000
v 0.099053 0.049000 -0.011000
v 0.099053 0.061000 -0.011000
v 0.091000 0.049000 -0.019053
v 0.091000 0.061000 -0.019053
v 0.080000 0.049000 -0.022000
v 0.080000 0.061000 -0.022000
v 0.069000 0.049000 -0.019053
v 0.069000 0.061000 -0.019053
v 0.060947 0.049000 -0.011000
v 0.060947 0.061000 -0.011000
v 0.058000 0.049000 -0.000000
v 0.058000 0.061000 -0.000000
v 0.060947 0.049000 0.011000
v 0.060947 0.061000 0.011000
v 0.069000 0.049000 0.019053
v 0.069000 0.061000 0.019053
v 0.080000 0.061000 0.000000
v 0.080000 0.061000 0.022000
v 0.091000 0.061000 0.019053
v 0.099053 0.061000 0.011000
v 0.102000 0.061000 0.000000
v 0.099053 0.061000 -0.011000
v 0.091000 0.061000 -0.019053
v 0.080000 0.061000 -0.022000
v 0.069000 0.061000 -0.019053
v 0.060947 0.061000 -0.011000
v 0.058000 0.061000 -0.000000
v 0.060947 0.061000 0.011000
v 0.069000 0.061000 0.019053
v 0.080000 0.049000 0.000000
v 0.080000 0.049000 0.022000
v 0.091000 0.049000 0.019053
v 0.099053 0.049000 0.011000
v 0.102000 0.049000 0.000000
v 0.099053 0.049000 -0.011000
v 0.091000 0.049000 -0.019053
v 0.080000 0.049000 -0.022000
v 0.069000 0.049000 -0.019053
v 0.060947 0.049000 -0.011000
v 0.058000 0.049000 -0.000000
v 0.060947 0.049000 0.011000
v 0.069000 0.049000 0.019053
v 0.050000 0.017500 0.009000
v 0.050000 0.042500 0.009000
v 0.054500 0.017500 0.007794
v 0.054500 0.042500 0.007794
v 0.057794 0.017500 0.004500
v 0.057794 0.042500 0.004500
v 0.059000 0.017500 0.000000
v 0.059000 0.042500 0.000000
v 0.057794 0.017500 -0.004500
v 0.057794 0.042500 -0.004500
v 0.054500 0.017500 -0.007794
v 0.054500 0.042500 -0.007794
v 0.050000 0.017500 -0.009000
v 0.050000 0.042500 -0.009000
v 0.045500 0.017500 -0.007794
v 0.045500 0.042500 -0.007794
v 0.042206 0.017500 -0.004500
v 0.042206 0.042500 -0.004500
v 0.041000 0.017500 -0.000000
v 0.041000 0.042500 -0.000000
v 0.042206 0.017500 0.004500
v 0.042206 0.042500 0.004500
v 0.045500 0.017500 0.007794
v 0.045500 0.042500 0.007794
v 0.050000 0.042500 0.000000
v 0.050000 0.042500 0.009000
v 0.054500 0.042500 0.007794
v 0.057794 0.042500 0.004500
v 0.059000 0.042500 0.000000
v 0.057794 0.042500 -0.004500
v 0.054500 0.042500 -0.007794
v 0.050000 0.042500 -0.009000
v 0.045500 0.042500 -0.007794
v 0.042206 0.042500 -0.004500
v 0.041000 0.042500 -0.000000
v 0.042206 0.042500 0.004500
v 0.045500 0.042500 0.007794
v 0.050000 0.017500 0.000000
v 0.050000 0.017500 0.009000
v 0.054500 0.017500 0.007794
v 0.057794 0.017500 0.004500
v 0.059000 0.017500 0.000000
v 0.057794 0.017500 -0.004500
v 0.054500 0.017500 -0.007794
v 0.050000 0.017500 -0.009000
v 0.045500 0.017500 -0.007794
v 0.042206 0.017500 -0.004500
v 0.041000 0.017500 -0.000000
v 0.042206 0.017500 0.004500
v 0.045500 0.017500 0.007794
vt 0.000000 0.000000
vt 0.000000 1.000000
vt 0.041667 0.000000
vt 0.041667 1.000000
vt 0.083333 0.000000
vt 0.083333 1.000000
vt 0.125000 0.000000
vt 0.125000 1.000000
vt 0.166667 0.000000
vt 0.166667 1.000000
vt 0.208333 0.000000
vt 0.208333 1.000000
vt 0.250000 0.000000
vt 0.250000 1.000000
vt 0.291667 0.000000
vt 0.291667 1.000000
vt 0.333333 0.000000
vt 0.333333 1.000000
vt 0.375000 0.000000
vt 0.375000 1.000000
vt 0.416667 0.000000
vt 0.416667 1.000000
vt 0.458333 0.000000
vt 0.458333 1.000000
vt 0.500000 0.000000
vt 0.500000 1.000000
vt 0.541667 0.000000
vt 0.541667 1.000000
vt 0.583333 0.000000
vt 0.583333 1.000000
vt 0.625000 0.000000
vt 0.625000 1.000000
vt 0.666667 0.000000
vt 0.666667 1.000000
vt 0.708333 0.000000
vt 0.708333 1.000000
vt 0.750000 0.000000
vt 0.750000 1.000000
vt 0.791667 0.000000
vt 0.791667 1.000000
vt 0.833333 0.000000
vt 0.833333 1.000000
vt 0.875000 0.000000
vt 0.875000 1.000000
vt 0.916667 0.000000
vt 0.916667 1.000000
vt 0.958333 0.000000
vt 0.958333 1.000000
vt 0.500000 0.500000
vt 1.000000 0.500000
vt 0.982963 0.629410
vt 0.933013 0.750000
vt 0.853553 0.853553
vt 0.750000 0.933013
vt 0.629410 0.982963
vt 0.500000 1.000000
vt 0.370590 0.982963
vt 0.250000 0.933013
vt 0.146447 0.853553
vt 0.066987 0.750000
vt 0.017037 0.629410
vt 0.000000 0.500000
vt 0.017037 0.370590
vt 0.066987 0.250000
vt 0.146447 0.146447
vt 0.250000 0.066987
vt 0.370590 0.017037
vt 0.500000 0.000000
vt 0.629410 0.017037
vt 0.750000 0.066987
vt 0.853553 0.146447
vt 0.933013 0.250000
vt 0.982963 0.370590
vt 0.500000 0.500000
vt 1.000000 0.500000
vt 0.982963 0.629410
vt 0.933013 0.750000
vt 0.853553 0.853553
vt 0.750000 0.933013
vt 0.629410 0.982963
vt 0.500000 1.000000
vt 0.370590 0.982963
vt 0.250000 0.933013
vt 0.146447 0.853553
vt 0.066987 0.750000
vt 0.017037 0.629410
vt 0.000000 0.500000
vt 0.017037 0.370590
vt 0.066987 0.250000
vt 0.146447 0.146447
vt 0.250000 0.066987
vt 0.370590 0.017037
vt 0.500000 0.000000
vt 0.629410 0.017037
vt 0.750000 0.066987
vt 0.853553 0.146447
vt 0.933013 0.250000
vt 0.982963 0.370590
vt 0.000000 0.000000
vt 0.000000 1.000000
vt 0.062500 0.000000
vt 0.062500 1.000000
vt 0.125000 0.000000
vt 0.125000 1.000000
vt 0.187500 0.000000
vt 0.187500 1.000000
vt 0.250000 0.000000
vt 0.250000 1.000000
vt 0.312500 0.000000
vt 0.312500 1.000000
vt 0.375000 0.000000
vt 0.375000 1.000000
vt 0.437500 0.000000
vt 0.437500 1.000000
vt 0.500000 0.000000
vt 0.500000 1.000000
vt 0.562500 0.000000
vt 0.562500 1.000000
vt 0.625000 0.000000
vt 0.625000 1.000000
vt 0.687500 0.000000
vt 0.687500 1.000000
vt 0.750000 0.000000
vt 0.750000 1.000000
vt 0.812500 0.000000
vt 0.812500 1.000000
vt 0.875000 0.000000
vt 0.875000 1.000000
vt 0.937500 0.000000
vt 0.937500 1.000000
vt 0.500000 0.500000
vt 1.000000 0.500000
vt 0.961940 0.691342
vt 0.853553 0.853553
vt 0.691342 0.961940
vt 0.500000 1.000000
vt 0.308658 0.961940
vt 0.146447 0.853553
vt 0.038060 0.691342
vt 0.000000 0.500000
vt 0.038060 0.308658
vt 0.146447 0.146447
vt 0.308658 0.038060
vt 0.500000 0.000000
vt 0.691342 0.038060
vt 0.853553 0.146447
vt 0.961940 0.308658
vt 0.500000 0.500000
vt 1.000000 0.500000
vt 0.961940 0.691342
vt 0.853553 0.853553
vt 0.691342 0.961940
vt 0.500000 1.000000
vt 0.308658 0.961940
vt 0.146447 0.853553
vt 0.038060 0.691342
vt 0.000000 0.500000
vt 0.038060 0.308658
vt 0.146447 0.146447
vt 0.308658 0.038060
vt 0.500000 0.000000
vt 0.691342 0.038060
vt 0.853553 0.146447
vt 0.961940 0.308658
vt 0.000000 0.000000
vt 0.000000 1.000000
vt 0.166667 0.000000
vt 0.166667 1.000000
vt 0.333333 0.000000
vt 0.333333 1.000000
vt 0.500000 0.000000
vt 0.500000 1.000000
vt 0.666667 0.000000
vt 0.666667 1.000000
vt 0.833333 0.000000
vt 0.833333 1.000000
vt 0.500000 0.500000
vt 1.000000 0.500000
vt 0.750000 0.933013
vt 0.250000 0.933013
vt 0.000000 0.500000
vt 0.250000 0.066987
vt 0.750000 0.066987
vt 0.500000 0.500000
vt 1.000000 0.500000
vt 0.750000 0.933013
vt 0.250000 0.933013
vt 0.000000 0.500000
vt 0.250000 0.066987
vt 0.750000 0.066987
vt 0.000000 0.000000
vt 0.000000 1.000000
vt 0.062500 0.000000
vt 0.062500 1.000000
vt 0.125000 0.000000
vt 0.125000 1.000000
vt 0.187500 0.000000
vt 0.187500 1.000000
vt 0.250000 0.000000
vt 0.250000 1.000000
vt 0.312500 0.000000
vt 0.312500 1.000000
vt 0.375000 0.000000
vt 0.375000 1.000000
vt 0.437500 0.000000
vt 0.437500 1.000000
vt 0.500000 0.000000
vt 0.500000 1.000000
vt 0.562500 0.000000
vt 0.562500 1.000000
vt 0.625000 0.000000
vt 0.625000 1.000000
vt 0.687500 0.000000
vt 0.687500 1.000000
vt 0.750000 0.000000
vt 0.750000 1.000000
vt 0.812500 0.000000
vt 0.812500 1.000000
vt 0.875000 0.000000
vt 0.875000 1.000000
vt 0.937500 0.000000
vt 0.937500 1.000000
vt 0.500000 0.500000
vt 1.000000 0.500000
vt 0.961940 0.691342
vt 0.853553 0.853553
vt 0.691342 0.961940
vt 0.500000 1.000000
vt 0.308658 0.961940
vt 0.146447 0.853553
vt 0.038060 0.691342
vt 0.000000 0.500000
vt 0.038060 0.308658
vt 0.146447 0.146447
vt 0.308658 0.038060
vt 0.500000 0.000000
vt 0.691342 0.038060
vt 0.853553 0.146447
vt 0.961940 0.308658
vt 0.500000 0.500000
vt 1.000000 0.500000
vt 0.961940 0.691342
vt 0.853553 0.853553
vt 0.691342 0.961940
vt 0.500000 1.000000
vt 0.308658 0.961940
vt 0.146447 0.853553
vt 0.038060 0.691342
vt 0.000000 0.500000
vt 0.038060 0.308658
vt 0.146447 0.146447
vt 0.308658 0.038060
vt 0.500000 0.000000
vt 0.691342 0.038060
vt 0.853553 0.146447
vt 0.961940 0.308658
vt 0.000000 0.000000
vt 0.000000 1.000000
vt 0.166667 0.000000
vt 0.166667 1.000000
vt 0.333333 0.000000
vt 0.333333 1.000000
vt 0.500000 0.000000
vt 0.500000 1.000000
vt 0.666667 0.000000
vt 0.666667 1.000000
vt 0.833333 0.000000
vt 0.833333 1.000000
vt 0.500000 0.500000
vt 1.000000 0.500000
vt 0.750000 0.933013
vt 0.250000 0.933013
vt 0.000000 0.500000
vt 0.250000 0.066987
vt 0.750000 0.066987
vt 0.500000 0.500000
vt 1.000000 0.500000
vt 0.750000 0.933013
vt 0.250000 0.933013
vt 0.000000 0.500000
vt 0.250000 0.066987
vt 0.750000 0.066987
vt 0.000000 0.000000
vt 0.000000 1.000000
vt 0.062500 0.000000
vt 0.062500 1.000000
vt 0.125000 0.000000
vt 0.125000 1.000000
vt 0.187500 0.000000
vt 0.187500 1.000000
vt 0.250000 0.000000
vt 0.250000 1.000000
vt 0.312500 0.000000
vt 0.312500 1.000000
vt 0.375000 0.000000
vt 0.375000 1.000000
vt 0.437500 0.000000
vt 0.437500 1.000000
vt 0.500000 0.000000
vt 0.500000 1.000000
vt 0.562500 0.000000
vt 0.562500 1.000000
vt 0.625000 0.000000
vt 0.625000 1.000000
vt 0.687500 0.000000
vt 0.687500 1.000000
vt 0.750000 0.000000
vt 0.750000 1.000000
vt 0.812500 0.000000
vt 0.812500 1.000000
vt 0.875000 0.000000
vt 0.875000 1.000000
vt 0.937500 0.000000
vt 0.937500 1.000000
vt 0.500000 0.500000
vt 1.000000 0.500000
vt 0.961940 0.691342
vt 0.853553 0.853553
vt 0.691342 0.961940
vt 0.500000 1.000000
vt 0.308658 0.961940
vt 0.146447 0.853553
vt 0.038060 0.691342
vt 0.000000 0.500000
vt 0.038060 0.308658
vt 0.146447 0.146447
vt 0.308658 0.038060
vt 0.500000 0.000000
vt 0.691342 0.038060
vt 0.853553 0.146447
vt 0.961940 0.308658
vt 0.500000 0.500000
vt 1.000000 0.500000
vt 0.961940 0.691342
vt 0.853553 0.853553
vt 0.691342 0.961940
vt 0.500000 1.000000
vt 0.308658 0.961940
vt 0.146447 0.853553
vt 0.038060 0.691342
vt 0.000000 0.500000
vt 0.038060 0.308658
vt 0.146447 0.146447
vt 0.308658 0.038060
vt 0.500000 0.000000
vt 0.691342 0.038060
vt 0.853553 0.146447
vt 0.961940 0.308658
vt 0.000000 0.000000
vt 0.000000 1.000000
vt 0.083333 0.000000
vt 0.083333 1.000000
vt 0.166667 0.000000
vt 0.166667 1.000000
vt 0.250000 0.000000
vt 0.250000 1.000000
vt 0.333333 0.000000
vt 0.333333 1.000000
vt 0.416667 0.000000
vt 0.416667 1.000000
vt 0.500000 0.000000
vt 0.500000 1.000000
vt 0.583333 0.000000
vt 0.583333 1.000000
vt 0.666667 0.000000
vt 0.666667 1.000000
vt 0.750000 0.000000
vt 0.750000 1.000000
vt 0.833333 0.000000
vt 0.833333 1.000000
vt 0.916667 0.000000
vt 0.916667 1.000000
vt 0.500000 0.500000
vt 1.000000 0.500000
vt 0.933013 0.750000
vt 0.750000 0.933013
vt 0.500000 1.000000
vt 0.250000 0.933013
vt 0.066987 0.750000
vt 0.000000 0.500000
vt 0.066987 0.250000
vt 0.250000 0.066987
vt 0.500000 0.000000
vt 0.750000 0.066987
vt 0.933013 0.250000
vt 0.500000 0.500000
vt 1.000000 0.500000
vt 0.933013 0.750000
vt 0.750000 0.933013
vt 0.500000 1.000000
vt 0.250000 0.933013
vt 0.066987 0.750000
vt 0.000000 0.500000
vt 0.066987 0.250000
vt 0.250000 0.066987
vt 0.500000 0.000000
vt 0.750000 0.066987
vt 0.933013 0.250000
vt 0.000000 0.000000
vt 0.000000 1.000000
vt 0.083333 0.000000
vt 0.083333 1.000000
vt 0.166667 0.000000
vt 0.166667 1.000000
vt 0.250000 0.000000
vt 0.250000 1.000000
vt 0.333333 0.000000
vt 0.333333 1.000000
vt 0.416667 0.000000
vt 0.416667 1.000000
vt 0.500000 0.000000
vt 0.500000 1.000000
vt 0.583333 0.000000
vt 0.583333 1.000000
vt 0.666667 0.000000
vt 0.666667 1.000000
vt 0.750000 0.000000
vt 0.750000 1.000000
vt 0.833333 0.000000
vt 0.833333 1.000000
vt 0.916667 0.000000
vt 0.916667 1.000000
vt 0.500000 0.500000
vt 1.000000 0.500000
vt 0.933013 0.750000
vt 0.750000 0.933013
vt 0.500000 1.000000
vt 0.250000 0.933013
vt 0.066987 0.750000
vt 0.000000 0.500000
vt 0.066987 0.250000
vt 0.250000 0.066987
vt 0.500000 0.000000
vt 0.750000 0.066987
vt 0.933013 0.250000
vt 0.500000 0.500000
vt 1.000000 0.500000
vt 0.933013 0.750000
vt 0.750000 0.933013
vt 0.500000 1.000000
vt 0.250000 0.933013
vt 0.066987 0.750000
vt 0.000000 0.500000
vt 0.066987 0.250000
vt 0.250000 0.066987
vt 0.500000 0.000000
vt 0.750000 0.066987
vt 0.933013 0.250000
vn 0.000000 0.000000 -1.000000
vn 0.000000 0.000000 -1.000000
vn 0.000000 0.258819 -0.965926
vn 0.000000 0.258819 -0.965926
vn 0.000000 0.500000 -0.866025
vn 0.000000 0.500000 -0.866025
vn 0.000000 0.707107 -0.707107
vn 0.000000 0.707107 -0.707107
vn 0.000000 0.866025 -0.500000
vn 0.000000 0.866025 -0.500000
vn 0.000000 0.965926 -0.258819
vn 0.000000 0.965926 -0.258819
vn 0.000000 1.000000 -0.000000
vn 0.000000 1.000000 -0.000000
vn -0.000000 0.965926 0.258819
vn -0.000000 0.965926 0.258819
vn -0.000000 0.866025 0.500000
vn -0.000000 0.866025 0.500000
vn -0.000000 0.707107 0.707107
vn -0.000000 0.707107 0.707107
vn -0.000000 0.500000 0.866025
vn -0.000000 0.500000 0.866025
vn -0.000000 0.258819 0.965926
vn -0.000000 0.258819 0.965926
vn -0.000000 0.000000 1.000000
vn -0.000000 0.000000 1.000000
vn 0.000000 -0.258819 0.965926
vn 0.000000 -0.258819 0.965926
vn 0.000000 -0.500000 0.866025
vn 0.000000 -0.500000 0.866025
vn 0.000000 -0.707107 0.707107
vn 0.000000 -0.707107 0.707107
vn 0.000000 -0.866025 0.500000
vn 0.000000 -0.866025 0.500000
vn 0.000000 -0.965926 0.258819
vn 0.000000 -0.965926 0.258819
vn 0.000000 -1.000000 0.000000
vn 0.000000 -1.000000 0.000000
vn 0.000000 -0.965926 -0.258819
vn 0.000000 -0.965926 -0.258819
vn 0.000000 -0.866025 -0.500000
vn 0.000000 -0.866025 -0.500000
vn 0.000000 -0.707107 -0.707107
vn 0.000000 -0.707107 -0.707107
vn 0.000000 -0.500000 -0.866025
vn 0.000000 -0.500000 -0.866025
vn 0.000000 -0.258819 -0.965926
vn 0.000000 -0.258819 -0.965926
vn 1.000000 0.000000 0.000000
vn 1.000000 0.000000 0.000000
vn 1.000000 0.000000 0.000000
vn 1.000000 0.000000 0.000000
vn 1.000000 0.000000 0.000000
vn 1.000000 0.000000 0.000000
vn 1.000000 0.000000 0.000000
vn 1.000000 0.000000 0.000000
vn 1.000000 0.000000 0.000000
vn 1.000000 0.000000 0.000000
vn 1.000000 0.000000 0.000000
vn 1.000000 0.000000 0.000000
vn 1.000000 0.000000 0.000000
vn 1.000000 0.000000 0.000000
vn 1.000000 0.000000 0.000000
vn 1.000000 0.000000 0.000000
vn 1.000000 0.000000 0.000000
vn 1.000000 0.000000 0.000000
vn 1.000000 0.000000 0.000000
vn 1.000000 0.000000 0.000000
vn 1.000000 0.000000 0.000000
vn 1.000000 0.000000 0.000000
vn 1.000000 0.000000 0.000000
vn 1.000000 0.000000 0.000000
vn 1.000000 0.000000 0.000000
vn -1.000000 -0.000000 -0.000000
vn -1.000000 -0.000000 -0.000000
vn -1.000000 -0.000000 -0.000000
vn -1.000000 -0.000000 -0.000000
vn -1.000000 -0.000000 -0.000000
vn -1.000000 -0.000000 -0.000000
vn -1.000000 -0.000000 -0.000000
vn -1.000000 -0.000000 -0.000000
vn -1.000000 -0.000000 -0.000000
vn -1.000000 -0.000000 -0.000000
vn -1.000000 -0.000000 -0.000000
vn -1.000000 -0.000000 -0.000000
vn -1.000000 -0.000000 -0.000000
vn -1.000000 -0.000000 -0.000000
vn -1.000000 -0.000000 -0.000000
vn -1.000000 -0.000000 -0.000000
vn -1.000000 -0.000000 -0.000000
vn -1.000000 -0.000000 -0.000000
vn -1.000000 -0.000000 -0.000000
vn -1.000000 -0.000000 -0.000000
vn -1.000000 -0.000000 -0.000000
vn -1.000000 -0.000000 -0.000000
vn -1.000000 -0.000000 -0.000000
vn -1.000000 -0.000000 -0.000000
vn -1.000000 -0.000000 -0.000000
vn 0.000000 0.000000 -1.000000
vn 0.000000 0.000000 -1.000000
vn 0.000000 0.382683 -0.923880
vn 0.000000 0.382683 -0.923880
vn 0.000000 0.707107 -0.707107
vn 0.000000 0.707107 -0.707107
vn 0.000000 0.923880 -0.382683
vn 0.000000 0.923880 -0.382683
vn 0.000000 1.000000 -0.000000
vn 0.000000 1.000000 -0.000000
vn -0.000000 0.923880 0.382683
vn -0.000000 0.923880 0.382683
vn -0.000000 0.707107 0.707107
vn -0.000000 0.707107 0.707107
vn -0.000000 0.382683 0.923880
vn -0.000000 0.382683 0.923880
vn -0.000000 0.000000 1.000000
vn -0.000000 0.000000 1.000000
vn 0.000000 -0.382683 0.923880
vn 0.000000 -0.382683 0.923880
vn 0.000000 -0.707107 0.707107
vn 0.000000 -0.707107 0.707107
vn 0.000000 -0.923880 0.382683
vn 0.000000 -0.923880 0.382683
vn 0.000000 -1.000000 0.000000
vn 0.000000 -1.000000 0.000000
vn 0.000000 -0.923880 -0.382683
vn 0.000000 -0.923880 -0.382683
vn 0.000000 -0.707107 -0.707107
vn 0.000000 -0.707107 -0.707107
vn 0.000000 -0.382683 -0.923880
vn 0.000000 -0.382683 -0.923880
vn 1.000000 0.000000 0.000000
vn 1.000000 0.000000 0.000000
vn 1.000000 0.000000 0.000000
vn 1.000000 0.000000 0.000000
vn 1.000000 0.000000 0.000000
vn 1.000000 0.000000 0.000000
vn 1.000000 0.000000 0.000000
vn 1.000000 0.000000 0.000000
vn 1.000000 0.000000 0.000000
vn 1.000000 0.000000 0.000000
vn 1.000000 0.000000 0.000000
vn 1.000000 0.000000 0.000000
vn 1.000000 0.000000 0.000000
vn 1.000000 0.000000 0.000000
vn 1.000000 0.000000 0.000000
vn 1.000000 0.000000 0.000000
vn 1.000000 0.000000 0.000000
vn -1.000000 -0.000000 -0.000000
vn -1.000000 -0.000000 -0.000000
vn -1.000000 -0.000000 -0.000000
vn -1.000000 -0.000000 -0.000000
vn -1.000000 -0.000000 -0.000000
vn -1.000000 -0.000000 -0.000000
vn -1.000000 -0.000000 -0.000000
vn -1.000000 -0.000000 -0.000000
vn -1.000000 -0.000000 -0.000000
vn -1.000000 -0.000000 -0.000000
vn -1.000000 -0.000000 -0.000000
vn -1.000000 -0.000000 -0.000000
vn -1.000000 -0.000000 -0.000000
vn -1.000000 -0.000000 -0.000000
vn -1.000000 -0.000000 -0.000000
vn -1.000000 -0.000000 -0.000000
vn -1.000000 -0.000000 -0.000000
vn 0.000000 0.000000 -1.000000
vn 0.000000 0.000000 -1.000000
vn 0.000000 0.866025 -0.500000
vn 0.000000 0.866025 -0.500000
vn -0.000000 0.866025 0.500000
vn -0.000000 0.866025 0.500000
vn -0.000000 0.000000 1.000000
vn -0.000000 0.000000 1.000000
vn 0.000000 -0.866025 0.500000
vn 0.000000 -0.866025 0.500000
vn 0.000000 -0.866025 -0.500000
vn 0.000000 -0.866025 -0.500000
vn 1.000000 0.000000 0.000000
vn 1.000000 0.000000 0.000000
vn 1.000000 0.000000 0.000000
vn 1.000000 0.000000 0.000000
vn 1.000000 0.000000 0.000000
vn 1.000000 0.000000 0.000000
vn 1.000000 0.000000 0.000000
vn -1.000000 -0.000000 -0.000000
vn -1.000000 -0.000000 -0.000000
vn -1.000000 -0.000000 -0.000000
vn -1.000000 -0.000000 -0.000000
vn -1.000000 -0.000000 -0.000000
vn -1.000000 -0.000000 -0.000000
vn -1.000000 -0.000000 -0.000000
vn 0.000000 0.000000 -1.000000
vn 0.000000 0.000000 -1.000000
vn 0.000000 0.382683 -0.923880
vn 0.000000 0.382683 -0.923880
vn 0.000000 0.707107 -0.707107
vn 0.000000 0.707107 -0.707107
vn 0.000000 0.923880 -0.382683
vn 0.000000 0.923880 -0.382683
vn 0.000000 1.000000 -0.000000
vn 0.000000 1.000000 -0.000000
vn -0.000000 0.923880 0.382683
vn -0.000000 0.923880 0.382683
vn -0.000000 0.707107 0.707107
vn -0.000000 0.707107 0.707107
vn -0.000000 0.382683 0.923880
vn -0.000000 0.382683 0.923880
vn -0.000000 0.000000 1.000000
vn -0.000000 0.000000 1.000000
vn 0.000000 -0.382683 0.923880
vn 0.000000 -0.382683 0.923880
vn 0.000000 -0.707107 0.707107
vn 0.000000 -0.707107 0.707107
vn 0.000000 -0.923880 0.382683
vn 0.000000 -0.923880 0.382683
vn 0.000000 -1.000000 0.000000
vn 0.000000 -1.000000 0.000000
vn 0.000000 -0.923880 -0.382683
vn 0.000000 -0.923880 -0.382683
vn 0.000000 -0.707107 -0.707107
vn 0.000000 -0.707107 -0.707107
vn 0.000000 -0.382683 -0.923880
vn 0.000000 -0.382683 -0.923880
vn 1.000000 0.000000 0.000000
vn 1.000000 0.000000 0.000000
vn 1.000000 0.000000 0.000000
vn 1.000000 0.000000 0.000000
vn 1.000000 0.000000 0.000000
vn 1.000000 0.000000 0.000000
vn 1.000000 0.000000 0.000000
vn 1.000000 0.000000 0.000000
vn 1.000000 0.000000 0.000000
vn 1.000000 0.000000 0.000000
vn 1.000000 0.000000 0.000000
vn 1.000000 0.000000 0.000000
vn 1.000000 0.000000 0.000000
vn 1.000000 0.000000 0.000000
vn 1.000000 0.000000 0.000000
vn 1.000000 0.000000 0.000000
vn 1.000000 0.000000 0.000000
vn -1.000000 -0.000000 -0.000000
vn -1.000000 -0.000000 -0.000000
vn -1.000000 -0.000000 -0.000000
vn -1.000000 -0.000000 -0.000000
vn -1.000000 -0.000000 -0.000000
vn -1.000000 -0.000000 -0.000000
vn -1.000000 -0.000000 -0.000000
vn -1.000000 -0.000000 -0.000000
vn -1.000000 -0.000000 -0.000000
vn -1.000000 -0.000000 -0.000000
vn -1.000000 -0.000000 -0.000000
vn -1.000000 -0.000000 -0.000000
vn -1.000000 -0.000000 -0.000000
vn -1.000000 -0.000000 -0.000000
vn -1.000000 -0.000000 -0.000000
vn -1.000000 -0.000000 -0.000000
vn -1.000000 -0.000000 -0.000000
vn 0.000000 0.000000 -1.000000
vn 0.000000 0.000000 -1.000000
vn 0.000000 0.866025 -0.500000
vn 0.000000 0.866025 -0.500000
vn -0.000000 0.866025 0.500000
vn -0.000000 0.866025 0.500000
vn -0.000000 0.000000 1.000000
vn -0.000000 0.000000 1.000000
vn 0.000000 -0.866025 0.500000
vn 0.000000 -0.866025 0.500000
vn 0.000000 -0.866025 -0.500000
vn 0.000000 -0.866025 -0.500000
vn 1.000000 0.000000 0.000000
vn 1.000000 0.000000 0.000000
vn 1.000000 0.000000 0.000000
vn 1.000000 0.000000 0.000000
vn 1.000000 0.000000 0.000000
vn 1.000000 0.000000 0.000000
vn 1.000000 0.000000 0.000000
vn -1.000000 -0.000000 -0.000000
vn -1.000000 -0.000000 -0.000000
vn -1.000000 -0.000000 -0.000000
vn -1.000000 -0.000000 -0.000000
vn -1.000000 -0.000000 -0.000000
vn -1.000000 -0.000000 -0.000000
vn -1.000000 -0.000000 -0.000000
vn 0.000000 0.000000 1.000000
vn 0.000000 0.000000 1.000000
vn 0.382683 0.000000 0.923880
vn 0.382683 0.000000 0.923880
vn 0.707107 0.000000 0.707107
vn 0.707107 0.000000 0.707107
vn 0.923880 0.000000 0.382683
vn 0.923880 0.000000 0.382683
vn 1.000000 0.000000 0.000000
vn 1.000000 0.000000 0.000000
vn 0.923880 0.000000 -0.382683
vn 0.923880 0.000000 -0.382683
vn 0.707107 0.000000 -0.707107
vn 0.707107 0.000000 -0.707107
vn 0.382683 0.000000 -0.923880
vn 0.382683 0.000000 -0.923880
vn 0.000000 0.000000 -1.000000
vn 0.000000 0.000000 -1.000000
vn -0.382683 -0.000000 -0.923880
vn -0.382683 -0.000000 -0.923880
vn -0.707107 -0.000000 -0.707107
vn -0.707107 -0.000000 -0.707107
vn -0.923880 -0.000000 -0.382683
vn -0.923880 -0.000000 -0.382683
vn -1.000000 -0.000000 -0.000000
vn -1.000000 -0.000000 -0.000000
vn -0.923880 0.000000 0.382683
vn -0.923880 0.000000 0.382683
vn -0.707107 0.000000 0.707107
vn -0.707107 0.000000 0.707107
vn -0.382683 0.000000 0.923880
vn -0.382683 0.000000 0.923880
vn 0.000000 1.000000 0.000000
vn 0.000000 1.000000 0.000000
vn 0.000000 1.000000 0.000000
vn 0.000000 1.000000 0.000000
vn 0.000000 1.000000 0.000000
vn 0.000000 1.000000 0.000000
vn 0.000000 1.000000 0.000000
vn 0.000000 1.000000 0.000000
vn 0.000000 1.000000 0.000000
vn 0.000000 1.000000 0.000000
vn 0.000000 1.000000 0.000000
vn 0.000000 1.000000 0.000000
vn 0.000000 1.000000 0.000000
vn 0.000000 1.000000 0.000000
vn 0.000000 1.000000 0.000000
vn 0.000000 1.000000 0.000000
vn 0.000000 1.000000 0.000000
vn -0.000000 -1.000000 -0.000000
vn -0.000000 -1.000000 -0.000000
vn -0.000000 -1.000000 -0.000000
vn -0.000000 -1.000000 -0.000000
vn -0.000000 -1.000000 -0.000000
vn -0.000000 -1.000000 -0.000000
vn -0.000000 -1.000000 -0.000000
vn -0.000000 -1.000000 -0.000000
vn -0.000000 -1.000000 -0.000000
vn -0.000000 -1.000000 -0.000000
vn -0.000000 -1.000000 -0.000000
vn -0.000000 -1.000000 -0.000000
vn -0.000000 -1.000000 -0.000000
vn -0.000000 -1.000000 -0.000000
vn -0.000000 -1.000000 -0.000000
vn -0.000000 -1.000000 -0.000000
vn -0.000000 -1.000000 -0.000000
vn 0.000000 0.000000 1.000000
vn 0.000000 0.000000 1.000000
vn 0.500000 0.000000 0.866025
vn 0.500000 0.000000 0.866025
vn 0.866025 0.000000 0.500000
vn 0.866025 0.000000 0.500000
vn 1.000000 0.000000 0.000000
vn 1.000000 0.000000 0.000000
vn 0.866025 0.000000 -0.500000
vn 0.866025 0.000000 -0.500000
vn 0.500000 0.000000 -0.866025
vn 0.500000 0.000000 -0.866025
vn 0.000000 0.000000 -1.000000
vn 0.000000 0.000000 -1.000000
vn -0.500000 -0.000000 -0.866025
vn -0.500000 -0.000000 -0.866025
vn -0.866025 -0.000000 -0.500000
vn -0.866025 -0.000000 -0.500000
vn -1.000000 -0.000000 -0.000000
vn -1.000000 -0.000000 -0.000000
vn -0.866025 0.000000 0.500000
vn -0.866025 0.000000 0.500000
vn -0.500000 0.000000 0.866025
vn -0.500000 0.000000 0.866025
vn 0.000000 1.000000 0.000000
vn 0.000000 1.000000 0.000000
vn 0.000000 1.000000 0.000000
vn 0.000000 1.000000 0.000000
vn 0.000000 1.000000 0.000000
vn 0.000000 1.000000 0.000000
vn 0.000000 1.000000 0.000000
vn 0.000000 1.000000 0.000000
vn 0.000000 1.000000 0.000000
vn 0.000000 1.000000 0.000000
vn 0.000000 1.000000 0.000000
vn 0.000000 1.000000 0.000000
vn 0.000000 1.000000 0.000000
vn -0.000000 -1.000000 -0.000000
vn -0.000000 -1.000000 -0.000000
vn -0.000000 -1.000000 -0.000000
vn -0.000000 -1.000000 -0.000000
vn -0.000000 -1.000000 -0.000000
vn -0.000000 -1.000000 -0.000000
vn -0.000000 -1.000000 -0.000000
vn -0.000000 -1.000000 -0.000000
vn -0.000000 -1.000000 -0.000000
vn -0.000000 -1.000000 -0.000000
vn -0.000000 -1.000000 -0.000000
vn -0.000000 -1.000000 -0.000000
vn -0.000000 -1.000000 -0.000000
vn 0.000000 0.000000 1.000000
vn 0.000000 0.000000 1.000000
vn 0.500000 0.000000 0.866025
vn 0.500000 0.000000 0.866025
vn 0.866025 0.000000 0.500000
vn 0.866025 0.000000 0.500000
vn 1.000000 0.000000 0.000000
vn 1.000000 0.000000 0.000000
vn 0.866025 0.000000 -0.500000
vn 0.866025 0.000000 -0.500000
vn 0.500000 0.000000 -0.866025
vn 0.500000 0.000000 -0.866025
vn 0.000000 0.000000 -1.000000
vn 0.000000 0.000000 -1.000000
vn -0.500000 -0.000000 -0.866025
vn -0.500000 -0.000000 -0.866025
vn -0.866025 -0.000000 -0.500000
vn -0.866025 -0.000000 -0.500000
vn -1.000000 -0.000000 -0.000000
vn -1.000000 -0.000000 -0.000000
vn -0.866025 0.000000 0.500000
vn -0.866025 0.000000 0.500000
vn -0.500000 0.000000 0.866025
vn -0.500000 0.000000 0.866025
vn 0.000000 1.000000 0.000000
vn 0.000000 1.000000 0.000000
vn 0.000000 1.000000 0.000000
vn 0.000000 1.000000 0.000000
vn 0.000000 1.000000 0.000000
vn 0.000000 1.000000 0.000000
vn 0.000000 1.000000 0.000000
vn 0.000000 1.000000 0.000000
vn 0.000000 1.000000 0.000000
vn 0.000000 1.000000 0.000000
vn 0.000000 1.000000 0.000000
vn 0.000000 1.000000 0.000000
vn 0.000000 1.000000 0.000000
vn -0.000000 -1.000000 -0.000000
vn -0.000000 -1.000000 -0.000000
vn -0.000000 -1.000000 -0.000000
vn -0.000000 -1.000000 -0.000000
vn -0.000000 -1.000000 -0.000000
vn -0.000000 -1.000000 -0.000000
vn -0.000000 -1.000000 -0.000000
vn -0.000000 -1.000000 -0.000000
vn -0.000000 -1.000000 -0.000000
vn -0.000000 -1.000000 -0.000000
vn -0.000000 -1.000000 -0.000000
vn -0.000000 -1.000000 -0.000000
vn -0.000000 -1.000000 -0.000000
f 1/1/1 3/3/3 4/4/4 2/2/2
f 3/3/3 5/5/5 6/6/6 4/4/4
f 5/5/5 7/7/7 8/8/8 6/6/6
f 7/7/7 9/9/9 10/10/10 8/8/8
f 9/9/9 11/11/11 12/12/12 10/10/10
f 11/11/11 13/13/13 14/14/14 12/12/12
f 13/13/13 15/15/15 16/16/16 14/14/14
f 15/15/15 17/17/17 18/18/18 16/16/16
f 17/17/17 19/19/19 20/20/20 18/18/18
f 19/19/19 21/21/21 22/22/22 20/20/20
f 21/21/21 23/23/23 24/24/24 22/22/22
f 23/23/23 25/25/25 26/26/26 24/24/24
f 25/25/25 27/27/27 28/28/28 26/26/26
f 27/27/27 29/29/29 30/30/30 28/28/28
f 29/29/29 31/31/31 32/32/32 30/30/30
f 31/31/31 33/33/33 34/34/34 32/32/32
f 33/33/33 35/35/35 36/36/36 34/34/34
f 35/35/35 37/37/37 38/38/38 36/36/36
f 37/37/37 39/39/39 40/40/40 38/38/38
f 39/39/39 41/41/41 42/42/42 40/40/40
f 41/41/41 43/43/43 44/44/44 42/42/42
f 43/43/43 45/45/45 46/46/46 44/44/44
f 45/45/45 47/47/47 48/48/48 46/46/46
f 47/47/47 1/1/1 2/2/2 48/48/48
f 49/49/49 50/50/50 51/51/51
f 49/49/49 51/51/51 52/52/52
f 49/49/49 52/52/52 53/53/53
f 49/49/49 53/53/53 54/54/54
f 49/49/49 54/54/54 55/55/55
f 49/49/49 55/55/55 56/56/56
f 49/49/49 56/56/56 57/57/57
f 49/49/49 57/57/57 58/58/58
f 49/49/49 58/58/58 59/59/59
f 49/49/49 59/59/59 60/60/60
f 49/49/49 60/60/60 61/61/61
f 49/49/49 61/61/61 62/62/62
f 49/49/49 62/62/62 63/63/63
f 49/49/49 63/63/63 64/64/64
f 49/49/49 64/64/64 65/65/65
f 49/49/49 65/65/65 66/66/66
f 49/49/49 66/66/66 67/67/67
f 49/49/49 67/67/67 68/68/68
f 49/49/49 68/68/68 69/69/69
f 49/49/49 69/69/69 70/70/70
f 49/49/49 70/70/70 71/71/71
f 49/49/49 71/71/71 72/72/72
f 49/49/49 72/72/72 73/73/73
f 49/49/49 73/73/73 50/50/50
f 74/74/74 76/76/76 75/75/75
f 74/74/74 77/77/77 76/76/76
f 74/74/74 78/78/78 77/77/77
f 74/74/74 79/79/79 78/78/78
f 74/74/74 80/80/80 79/79/79
f 74/74/74 81/81/81 80/80/80
f 74/74/74 82/82/82 81/81/81
f 74/74/74 83/83/83 82/82/82
f 74/74/74 84/84/84 83/83/83
f 74/74/74 85/85/85 84/84/84
f 74/74/74 86/86/86 85/85/85
f 74/74/74 87/87/87 86/86/86
f 74/74/74 88/88/88 87/87/87
f 74/74/74 89/89/89 88/88/88
f 74/74/74 90/90/90 89/89/89
f 74/74/74 91/91/91 90/90/90
f 74/74/74 92/92/92 91/91/91
f 74/74/74 93/93/93 92/92/92
f 74/74/74 94/94/94 93/93/93
f 74/74/74 95/95/95 94/94/94
f 74/74/74 96/96/96 95/95/95
f 74/74/74 97/97/97 96/96/96
f 74/74/74 98/98/98 97/97/97
f 74/74/74 75/75/75 98/98/98
f 99/99/99 101/101/101 102/102/102 100/100/100
f 101/101/101 103/103/103 104/104/104 102/102/102
f 103/103/103 105/105/105 106/106/106 104/104/104
f 105/105/105 107/107/107 108/108/108 106/106/106
f 107/107/107 109/109/109 110/110/110 108/108/108
f 109/109/109 111/111/111 112/112/112 110/110/110
f 111/111/111 113/113/113 114/114/114 112/112/112
f 113/113/113 115/115/115 116/116/116 114/114/114
f 115/115/115 117/117/117 118/118/118 116/116/116
f 117/117/117 119/119/119 120/120/120 118/118/118
f 119/119/119 121/121/121 122/122/122 120/120/120
f 121/121/121 123/123/123 124/124/124 122/122/122
f 123/123/123 125/125/125 126/126/126 124/124/124
f 125/125/125 127/127/127 128/128/128 126/126/126
f 127/127/127 129/129/129 130/130/130 128/128/128
f 129/129/129 99/99/99 100/100/100 130/130/130
f 131/131/131 132/132/132 133/133/133
f 131/131/131 133/133/133 134/134/134
f 131/131/131 134/134/134 135/135/135
f 131/131/131 135/135/135 136/136/136
f 131/131/131 136/136/136 137/137/137
f 131/131/131 137/137/137 138/138/138
f 131/131/131 138/138/138 139/139/139
f 131/131/131 139/139/139 140/140/140
f 131/131/131 140/140/140 141/141/141
f 131/131/131 141/141/141 142/142/142
f 131/131/131 142/142/142 143/143/143
f 131/131/131 143/143/143 144/144/144
f 131/131/131 144/144/144 145/145/145
f 131/131/131 145/145/145 146/146/146
f 131/131/131 146/146/146 147/147/147
f 131/131/131 147/147/147 132/132/132
f 148/148/148 150/150/150 149/149/149
f 148/148/148 151/151/151 150/150/150
f 148/148/148 152/152/152 151/151/151
f 148/148/148 153/153/153 152/152/152
f 148/148/148 154/154/154 153/153/153
f 148/148/148 155/155/155 154/154/154
f 148/148/148 156/156/156 155/155/155
f 148/148/148 157/157/157 156/156/156
f 148/148/148 158/158/158 157/157/157
f 148/148/148 159/159/159 158/158/158
f 148/148/148 160/160/160 159/159/159
f 148/148/148 161/161/161 160/160/160
f 148/148/148 162/162/162 161/161/161
f 148/148/148 163/163/163 162/162/162
f 148/148/148 164/164/164 163/163/163
f 148/148/148 149/149/149 164/164/164
f 165/165/165 167/167/167 168/168/168 166/166/166
f 167/167/167 169/169/169 170/170/170 168/168/168
f 169/169/169 171/171/171 172/172/172 170/170/170
f 171/171/171 173/173/173 174/174/174 172/172/172
f 173/173/173 175/175/175 176/176/176 174/174/174
f 175/175/175 165/165/165 166/166/166 176/176/176
f 177/177/177 178/178/178 179/179/179
f 177/177/177 179/179/179 180/180/180
f 177/177/177 180/180/180 181/181/181
f 177/177/177 181/181/181 182/182/182
f 177/177/177 182/182/182 183/183/183
f 177/177/177 183/183/183 178/178/178
f 184/184/184 186/186/186 185/185/185
f 184/184/184 187/187/187 186/186/186
f 184/184/184 188/188/188 187/187/187
f 184/184/184 189/189/189 188/188/188
f 184/184/184 190/190/190 189/189/189
f 184/184/184 185/185/185 190/190/190
f 191/191/191 193/193/193 194/194/194 192/192/192
f 193/193/193 195/195/195 196/196/196 194/194/194
f 195/195/195 197/197/197 198/198/198 196/196/196
f 197/197/197 199/199/199 200/200/200 198/198/198
f 199/199/199 201/201/201 202/202/202 200/200/200
f 201/201/201 203/203/203 204/204/204 202/202/202
f 203/203/203 205/205/205 206/206/206 204/204/204
f 205/205/205 207/207/207 208/208/208 206/206/206
f 207/207/207 209/209/209 210/210/210 208/208/208
f 209/209/209 211/211/211 212/212/212 210/210/210
f 211/211/211 213/213/213 214/214/214 212/212/212
f 213/213/213 215/215/215 216/216/216 214/214/214
f 215/215/215 217/217/217 218/218/218 216/216/216
f 217/217/217 219/219/219 220/220/220 218/218/218
f 219/219/219 221/221/221 222/222/222 220/220/220
f 221/221/221 191/191/191 192/192/192 222/222/222
f 223/223/223 224/224/224 225/225/225
f 223/223/223 225/225/225 226/226/226
f 223/223/223 226/226/226 227/227/227
f 223/223/223 227/227/227 228/228/228
f 223/223/223 228/228/228 229/229/229
f 223/223/223 229/229/229 230/230/230
f 223/223/223 230/230/230 231/231/231
f 223/223/223 231/231/231 232/232/232
f 223/223/223 232/232/232 233/233/233
f 223/223/223 233/233/233 234/234/234
f 223/223/223 234/234/234 235/235/235
f 223/223/223 235/235/235 236/236/236
f 223/223/223 236/236/236 237/237/237
f 223/223/223 237/237/237 238/238/238
f 223/223/223 238/238/238 239/239/239
f 223/223/223 239/239/239 224/224/224
f 240/240/240 242/242/242 241/241/241
f 240/240/240 243/243/243 242/242/242
f 240/240/240 244/244/244 243/243/243
f 240/240/240 245/245/245 244/244/244
f 240/240/240 246/246/246 245/245/245
f 240/240/240 247/247/247 246/246/246
f 240/240/240 248/248/248 247/247/247
f 240/240/240 249/249/249 248/248/248
f 240/240/240 250/250/250 249/249/249
f 240/240/240 251/251/251 250/250/250
f 240/240/240 252/252/252 251/251/251
f 240/240/240 253/253/253 252/252/252
f 240/240/240 254/254/254 253/253/253
f 240/240/240 255/255/255 254/254/254
f 240/240/240 256/256/256 255/255/255
f 240/240/240 241/241/241 256/256/256
f 257/257/257 259/259/259 260/260/260 258/258/258
f 259/259/259 261/261/261 262/262/262 260/260/260
f 261/261/261 263/263/263 264/264/264 262/262/262
f 263/263/263 265/265/265 266/266/266 264/264/264
f 265/265/265 267/267/267 268/268/268 266/266/266
f 267/267/267 257/257/257 258/258/258 268/268/268
f 269/269/269 270/270/270 271/271/271
f 269/269/269 271/271/271 272/272/272
f 269/269/269 272/272/272 273/273/273
f 269/269/269 273/273/273 274/274/274
f 269/269/269 274/274/274 275/275/275
f 269/269/269 275/275/275 270/270/270
f 276/276/276 278/278/278 277/277/277
f 276/276/276 279/279/279 278/278/278
f 276/276/276 280/280/280 279/279/279
f 276/276/276 281/281/281 280/280/280
f 276/276/276 282/282/282 281/281/281
f 276/276/276 277/277/277 282/282/282
f 283/283/283 285/285/285 286/286/286 284/284/284
f 285/285/285 287/287/287 288/288/288 286/286/286
f 287/287/287 289/289/289 290/290/290 288/288/288
f 289/289/289 291/291/291 292/292/292 290/290/290
f 291/291/291 293/293/293 294/294/294 292/292/292
f 293/293/293 295/295/295 296/296/296 294/294/294
f 295/295/295 297/297/297 298/298/298 296/296/296
f 297/297/297 299/299/299 300/300/300 298/298/298
f 299/299/299 301/301/301 302/302/302 300/300/300
f 301/301/301 303/303/303 304/304/304 302/302/302
f 303/303/303 305/305/305 306/306/306 304/304/304
f 305/305/305 307/307/307 308/308/308 306/306/306
f 307/307/307 309/309/309 310/310/310 308/308/308
f 309/309/309 311/311/311 312/312/312 310/310/310
f 311/311/311 313/313/313 314/314/314 312/312/312
f 313/313/313 283/283/283 284/284/284 314/314/314
f 315/315/315 316/316/316 317/317/317
f 315/315/315 317/317/317 318/318/318
f 315/315/315 318/318/318 319/319/319
f 315/315/315 319/319/319 320/320/320
f 315/315/315 320/320/320 321/321/321
f 315/315/315 321/321/321 322/322/322
f 315/315/315 322/322/322 323/323/323
f 315/315/315 323/323/323 324/324/324
f 315/315/315 324/324/324 325/325/325
f 315/315/315 325/325/325 326/326/326
f 315/315/315 326/326/326 327/327/327
f 315/315/315 327/327/327 328/328/328
f 315/315/315 328/328/328 329/329/329
f 315/315/315 329/329/329 330/330/330
f 315/315/315 330/330/330 331/331/331
f 315/315/315 331/331/331 316/316/316
f 332/332/332 334/334/334 333/333/333
f 332/332/332 335/335/335 334/334/334
f 332/332/332 336/336/336 335/335/335
f 332/332/332 337/337/337 336/336/336
f 332/332/332 338/338/338 337/337/337
f 332/332/332 339/339/339 338/338/338
f 332/332/332 340/340/340 339/339/339
f 332/332/332 341/341/341 340/340/340
f 332/332/332 342/342/342 341/341/341
f 332/332/332 343/343/343 342/342/342
f 332/332/332 344/344/344 343/343/343
f 332/332/332 345/345/345 344/344/344
f 332/332/332 346/346/346 345/345/345
f 332/332/332 347/347/347 346/346/346
f 332/332/332 348/348/348 347/347/347
f 332/332/332 333/333/333 348/348/348
f 349/349/349 351/351/351 352/352/352 350/350/350
f 351/351/351 353/353/353 354/354/354 352/352/352
f 353/353/353 355/355/355 356/356/356 354/354/354
f 355/355/355 357/357/357 358/358/358 356/356/356
f 357/357/357 359/359/359 360/360/360 358/358/358
f 359/359/359 361/361/361 362/362/362 360/360/360
f 361/361/361 363/363/363 364/364/364 362/362/362
f 363/363/363 365/365/365 366/366/366 364/364/364
f 365/365/365 367/367/367 368/368/368 366/366/366
f 367/367/367 369/369/369 370/370/370 368/368/368
f 369/369/369 371/371/371 372/372/372 370/370/370
f 371/371/371 349/349/349 350/350/350 372/372/372
f 373/373/373 374/374/374 375/375/375
f 373/373/373 375/375/375 376/376/376
f 373/373/373 376/376/376 377/377/377
f 373/373/373 377/377/377 378/378/378
f 373/373/373 378/378/378 379/379/379
f 373/373/373 379/379/379 380/380/380
f 373/373/373 380/380/380 381/381/381
f 373/373/373 381/381/381 382/382/382
f 373/373/373 382/382/382 383/383/383
f 373/373/373 383/383/383 384/384/384
f 373/373/373 384/384/384 385/385/385
f 373/373/373 385/385/385 374/374/374
f 386/386/386 388/388/388 387/387/387
f 386/386/386 389/389/389 388/388/388
f 386/386/386 390/390/390 389/389/389
f 386/386/386 391/391/391 390/390/390
f 386/386/386 392/392/392 391/391/391
f 386/386/386 393/393/393 392/392/392
f 386/386/386 394/394/394 393/393/393
f 386/386/386 395/395/395 394/394/394
f 386/386/386 396/396/396 395/395/395
f 386/386/386 397/397/397 396/396/396
f 386/386/386 398/398/398 397/397/397
f 386/386/386 387/387/387 398/398/398
f 399/399/399 401/401/401 402/402/402 400/400/400
f 401/401/401 403/403/403 404/404/404 402/402/402
f 403/403/403 405/405/405 406/406/406 404/404/404
f 405/405/405 407/407/407 408/408/408 406/406/406
f 407/407/407 409/409/409 410/410/410 408/408/408
f 409/409/409 411/411/411 412/412/412 410/410/410
f 411/411/411 413/413/413 414/414/414 412/412/412
f 413/413/413 415/415/415 416/416/416 414/414/414
f 415/415/415 417/417/417 418/418/418 416/416/416
f 417/417/417 419/419/419 420/420/420 418/418/418
f 419/419/419 421/421/421 422/422/422 420/420/420
f 421/421/421 399/399/399 400/400/400 422/422/422
f 423/423/423 424/424/424 425/425/425
f 423/423/423 425/425/425 426/426/426
f 423/423/423 426/426/426 427/427/427
f 423/423/423 427/427/427 428/428/428
f 423/423/423 428/428/428 429/429/429
f 423/423/423 429/429/429 430/430/430
f 423/423/423 430/430/430 431/431/431
f 423/423/423 431/431/431 432/432/432
f 423/423/423 432/432/432 433/433/433
f 423/423/423 433/433/433 434/434/434
f 423/423/423 434/434/434 435/435/435
f 423/423/423 435/435/435 424/424/424
f 436/436/436 438/438/438 437/437/437
f 436/436/436 439/439/439 438/438/438
f 436/436/436 440/440/440 439/439/439
f 436/436/436 441/441/441 440/440/440
f 436/436/436 442/442/442 441/441/441
f 436/436/436 443/443/443 442/442/442
f 436/436/436 444/444/444 443/443/443
f 436/436/436 445/445/445 444/444/444
f 436/436/436 446/446/446 445/445/445
f 436/436/436 447/447/447 446/446/446
f 436/436/436 448/448/448 447/447/447
f 436/436/436 437/437/437 448/448/448
