# OBJ file: pressure_gauge
o pressure_gauge
v 0.000000 -0.035500 0.006000
v 0.000000 -0.000500 0.006000
v 0.003000 -0.035500 0.005196
v 0.003000 -0.000500 0.005196
v 0.005196 -0.035500 0.003000
v 0.005196 -0.000500 0.003000
v 0.006000 -0.035500 0.000000
v 0.006000 -0.000500 0.000000
v 0.005196 -0.035500 -0.003000
v 0.005196 -0.000500 -0.003000
v 0.003000 -0.035500 -0.005196
v 0.003000 -0.000500 -0.005196
v 0.000000 -0.035500 -0.006000
v 0.000000 -0.000500 -0.006000
v -0.003000 -0.035500 -0.005196
v -0.003000 -0.000500 -0.005196
v -0.005196 -0.035500 -0.003000
v -0.005196 -0.000500 -0.003000
v -0.006000 -0.035500 -0.000000
v -0.006000 -0.000500 -0.000000
v -0.005196 -0.035500 0.003000
v -0.005196 -0.000500 0.003000
v -0.003000 -0.035500 0.005196
v -0.003000 -0.000500 0.005196
v 0.000000 -0.000500 0.000000
v 0.000000 -0.000500 0.006000
v 0.003000 -0.000500 0.005196
v 0.005196 -0.000500 0.003000
v 0.006000 -0.000500 0.000000
v 0.005196 -0.000500 -0.003000
v 0.003000 -0.000500 -0.005196
v 0.000000 -0.000500 -0.006000
v -0.003000 -0.000500 -0.005196
v -0.005196 -0.000500 -0.003000
v -0.006000 -0.000500 -0.000000
v -0.005196 -0.000500 0.003000
v -0.003000 -0.000500 0.005196
v 0.000000 -0.035500 0.000000
v 0.000000 -0.035500 0.006000
v 0.003000 -0.035500 0.005196
v 0.005196 -0.035500 0.003000
v 0.006000 -0.035500 0.000000
v 0.005196 -0.035500 -0.003000
v 0.003000 -0.035500 -0.005196
v 0.000000 -0.035500 -0.006000
v -0.003000 -0.035500 -0.005196
v -0.005196 -0.035500 -0.003000
v -0.006000 -0.035500 -0.000000
v -0.005196 -0.035500 0.003000
v -0.003000 -0.035500 0.005196
v 0.040000 0.040000 -0.011000
v 0.040000 0.040000 0.011000
v 0.039231 0.047804 -0.011000
v 0.039231 0.047804 0.011000
v 0.036955 0.055307 -0.011000
v 0.036955 0.055307 0.011000
v 0.033259 0.062223 -0.011000
v 0.033259 0.062223 0.011000
v 0.028284 0.068284 -0.011000
v 0.028284 0.068284 0.011000
v 0.022223 0.073259 -0.011000
v 0.022223 0.073259 0.011000
v 0.015307 0.076955 -0.011000
v 0.015307 0.076955 0.011000
v 0.007804 0.079231 -0.011000
v 0.007804 0.079231 0.011000
v 0.000000 0.080000 -0.011000
v 0.000000 0.080000 0.011000
v -0.007804 0.079231 -0.011000
v -0.007804 0.079231 0.011000
v -0.015307 0.076955 -0.011000
v -0.015307 0.076955 0.011000
v -0.022223 0.073259 -0.011000
v -0.022223 0.073259 0.011000
v -0.028284 0.068284 -0.011000
v -0.028284 0.068284 0.011000
v -0.033259 0.062223 -0.011000
v -0.033259 0.062223 0.011000
v -0.036955 0.055307 -0.011000
v -0.036955 0.055307 0.011000
v -0.039231 0.047804 -0.011000
v -0.039231 0.047804 0.011000
v -0.040000 0.040000 -0.011000
v -0.040000 0.040000 0.011000
v -0.039231 0.032196 -0.011000
v -0.039231 0.032196 0.011000
v -0.036955 0.024693 -0.011000
v -0.036955 0.024693 0.011000
v -0.033259 0.017777 -0.011000
v -0.033259 0.017777 0.011000
v -0.028284 0.011716 -0.011000
v -0.028284 0.011716 0.011000
v -0.022223 0.006741 -0.011000
v -0.022223 0.006741 0.011000
v -0.015307 0.003045 -0.011000
v -0.015307 0.003045 0.011000
v -0.007804 0.000769 -0.011000
v -0.007804 0.000769 0.011000
v -0.000000 0.000000 -0.011000
v -0.000000 0.000000 0.011000
v 0.007804 0.000769 -0.011000
v 0.007804 0.000769 0.011000
v 0.015307 0.003045 -0.011000
v 0.015307 0.003045 0.011000
v 0.022223 0.006741 -0.011000
v 0.022223 0.006741 0.011000
v 0.028284 0.011716 -0.011000
v 0.028284 0.011716 0.011000
v 0.033259 0.017777 -0.011000
v 0.033259 0.017777 0.011000
v 0.036955 0.024693 -0.011000
v 0.036955 0.024693 0.011000
v 0.039231 0.032196 -0.011000
v 0.039231 0.032196 0.011000
v 0.000000 0.040000 0.011000
v 0.040000 0.040000 0.011000
v 0.039231 0.047804 0.011000
v 0.036955 0.055307 0.011000
v 0.033259 0.062223 0.011000
v 0.028284 0.068284 0.011000
v 0.022223 0.073259 0.011000
v 0.015307 0.076955 0.011000
v 0.007804 0.079231 0.011000
v 0.000000 0.080000 0.011000
v -0.007804 0.079231 0.011000
v -0.015307 0.076955 0.011000
v -0.022223 0.073259 0.011000
v -0.028284 0.068284 0.011000
v -0.033259 0.062223 0.011000
v -0.036955 0.055307 0.011000
v -0.039231 0.047804 0.011000
v -0.040000 0.040000 0.011000
v -0.039231 0.032196 0.011000
v -0.036955 0.024693 0.011000
v -0.033259 0.017777 0.011000
v -0.028284 0.011716 0.011000
v -0.022223 0.006741 0.011000
v -0.015307 0.003045 0.011000
v -0.007804 0.000769 0.011000
v -0.000000 0.000000 0.011000
v 0.007804 0.000769 0.011000
v 0.015307 0.003045 0.011000
v 0.022223 0.006741 0.011000
v 0.028284 0.011716 0.011000
v 0.033259 0.017777 0.011000
v 0.036955 0.024693 0.011000
v 0.039231 0.032196 0.011000
v 0.000000 0.040000 -0.011000
v 0.040000 0.040000 -0.011000
v 0.039231 0.047804 -0.011000
v 0.036955 0.055307 -0.011000
v 0.033259 0.062223 -0.011000
v 0.028284 0.068284 -0.011000
v 0.022223 0.073259 -0.011000
v 0.015307 0.076955 -0.011000
v 0.007804 0.079231 -0.011000
v 0.000000 0.080000 -0.011000
v -0.007804 0.079231 -0.011000
v -0.015307 0.076955 -0.011000
v -0.022223 0.073259 -0.011000
v -0.028284 0.068284 -0.011000
v -0.033259 0.062223 -0.011000
v -0.036955 0.055307 -0.011000
v -0.039231 0.047804 -0.011000
v -0.040000 0.040000 -0.011000
v -0.039231 0.032196 -0.011000
v -0.036955 0.024693 -0.011000
v -0.033259 0.017777 -0.011000
v -0.028284 0.011716 -0.011000
v -0.022223 0.006741 -0.011000
v -0.015307 0.003045 -0.011000
v -0.007804 0.000769 -0.011000
v -0.000000 0.000000 -0.011000
v 0.007804 0.000769 -0.011000
v 0.015307 0.003045 -0.011000
v 0.022223 0.006741 -0.011000
v 0.028284 0.011716 -0.011000
v 0.033259 0.017777 -0.011000
v 0.036955 0.024693 -0.011000
v 0.039231 0.032196 -0.011000
v 0.042000 0.040000 -0.014500
v 0.042000 0.040000 -0.009500
v 0.041193 0.048194 -0.014500
v 0.041193 0.048194 -0.009500
v 0.038803 0.056073 -0.014500
v 0.038803 0.056073 -0.009500
v 0.034922 0.063334 -0.014500
v 0.034922 0.063334 -0.009500
v 0.029698 0.069698 -0.014500
v 0.029698 0.069698 -0.009500
v 0.023334 0.074922 -0.014500
v 0.023334 0.074922 -0.009500
v 0.016073 0.078803 -0.014500
v 0.016073 0.078803 -0.009500
v 0.008194 0.081193 -0.014500
v 0.008194 0.081193 -0.009500
v 0.000000 0.082000 -0.014500
v 0.000000 0.082000 -0.009500
v -0.008194 0.081193 -0.014500
v -0.008194 0.081193 -0.009500
v -0.016073 0.078803 -0.014500
v -0.016073 0.078803 -0.009500
v -0.023334 0.074922 -0.014500
v -0.023334 0.074922 -0.009500
v -0.029698 0.069698 -0.014500
v -0.029698 0.069698 -0.009500
v -0.034922 0.063334 -0.014500
v -0.034922 0.063334 -0.009500
v -0.038803 0.056073 -0.014500
v -0.038803 0.056073 -0.009500
v -0.041193 0.048194 -0.014500
v -0.041193 0.048194 -0.009500
v -0.042000 0.040000 -0.014500
v -0.042000 0.040000 -0.009500
v -0.041193 0.031806 -0.014500
v -0.041193 0.031806 -0.009500
v -0.038803 0.023927 -0.014500
v -0.038803 0.023927 -0.009500
v -0.034922 0.016666 -0.014500
v -0.034922 0.016666 -0.009500
v -0.029698 0.010302 -0.014500
v -0.029698 0.010302 -0.009500
v -0.023334 0.005078 -0.014500
v -0.023334 0.005078 -0.009500
v -0.016073 0.001197 -0.014500
v -0.016073 0.001197 -0.009500
v -0.008194 -0.001193 -0.014500
v -0.008194 -0.001193 -0.009500
v -0.000000 -0.002000 -0.014500
v -0.000000 -0.002000 -0.009500
v 0.008194 -0.001193 -0.014500
v 0.008194 -0.001193 -0.009500
v 0.016073 0.001197 -0.014500
v 0.016073 0.001197 -0.009500
v 0.023334 0.005078 -0.014500
v 0.023334 0.005078 -0.009500
v 0.029698 0.010302 -0.014500
v 0.029698 0.010302 -0.009500
v 0.034922 0.016666 -0.014500
v 0.034922 0.016666 -0.009500
v 0.038803 0.023927 -0.014500
v 0.038803 0.023927 -0.009500
v 0.041193 0.031806 -0.014500
v 0.041193 0.031806 -0.009500
v 0.000000 0.040000 -0.009500
v 0.042000 0.040000 -0.009500
v 0.041193 0.048194 -0.009500
v 0.038803 0.056073 -0.009500
v 0.034922 0.063334 -0.009500
v 0.029698 0.069698 -0.009500
v 0.023334 0.074922 -0.009500
v 0.016073 0.078803 -0.009500
v 0.008194 0.081193 -0.009500
v 0.000000 0.082000 -0.009500
v -0.008194 0.081193 -0.009500
v -0.016073 0.078803 -0.009500
v -0.023334 0.074922 -0.009500
v -0.029698 0.069698 -0.009500
v -0.034922 0.063334 -0.009500
v -0.038803 0.056073 -0.009500
v -0.041193 0.048194 -0.009500
v -0.042000 0.040000 -0.009500
v -0.041193 0.031806 -0.009500
v -0.038803 0.023927 -0.009500
v -0.034922 0.016666 -0.009500
v -0.029698 0.010302 -0.009500
v -0.023334 0.005078 -0.009500
v -0.016073 0.001197 -0.009500
v -0.008194 -0.001193 -0.009500
v -0.000000 -0.002000 -0.009500
v 0.008194 -0.001193 -0.009500
v 0.016073 0.001197 -0.009500
v 0.023334 0.005078 -0.009500
v 0.029698 0.010302 -0.009500
v 0.034922 0.016666 -0.009500
v 0.038803 0.023927 -0.009500
v 0.041193 0.031806 -0.009500
v 0.000000 0.040000 -0.014500
v 0.042000 0.040000 -0.014500
v 0.041193 0.048194 -0.014500
v 0.038803 0.056073 -0.014500
v 0.034922 0.063334 -0.014500
v 0.029698 0.069698 -0.014500
v 0.023334 0.074922 -0.014500
v 0.016073 0.078803 -0.014500
v 0.008194 0.081193 -0.014500
v 0.000000 0.082000 -0.014500
v -0.008194 0.081193 -0.014500
v -0.016073 0.078803 -0.014500
v -0.023334 0.074922 -0.014500
v -0.029698 0.069698 -0.014500
v -0.034922 0.063334 -0.014500
v -0.038803 0.056073 -0.014500
v -0.041193 0.048194 -0.014500
v -0.042000 0.040000 -0.014500
v -0.041193 0.031806 -0.014500
v -0.038803 0.023927 -0.014500
v -0.034922 0.016666 -0.014500
v -0.029698 0.010302 -0.014500
v -0.023334 0.005078 -0.014500
v -0.016073 0.001197 -0.014500
v -0.008194 -0.001193 -0.014500
v -0.000000 -0.002000 -0.014500
v 0.008194 -0.001193 -0.014500
v 0.016073 0.001197 -0.014500
v 0.023334 0.005078 -0.014500
v 0.029698 0.010302 -0.014500
v 0.034922 0.016666 -0.014500
v 0.038803 0.023927 -0.014500
v 0.041193 0.031806 -0.014500
v 0.038000 0.040000 -0.011000
v 0.038000 0.040000 -0.009000
v 0.037270 0.047413 -0.011000
v 0.037270 0.047413 -0.009000
v 0.035107 0.054542 -0.011000
v 0.035107 0.054542 -0.009000
v 0.031596 0.061112 -0.011000
v 0.031596 0.061112 -0.009000
v 0.026870 0.066870 -0.011000
v 0.026870 0.066870 -0.009000
v 0.021112 0.071596 -0.011000
v 0.021112 0.071596 -0.009000
v 0.014542 0.075107 -0.011000
v 0.014542 0.075107 -0.009000
v 0.007413 0.077270 -0.011000
v 0.007413 0.077270 -0.009000
v 0.000000 0.078000 -0.011000
v 0.000000 0.078000 -0.009000
v -0.007413 0.077270 -0.011000
v -0.007413 0.077270 -0.009000
v -0.014542 0.075107 -0.011000
v -0.014542 0.075107 -0.009000
v -0.021112 0.071596 -0.011000
v -0.021112 0.071596 -0.009000
v -0.026870 0.066870 -0.011000
v -0.026870 0.066870 -0.009000
v -0.031596 0.061112 -0.011000
v -0.031596 0.061112 -0.009000
v -0.035107 0.054542 -0.011000
v -0.035107 0.054542 -0.009000
v -0.037270 0.047413 -0.011000
v -0.037270 0.047413 -0.009000
v -0.038000 0.040000 -0.011000
v -0.038000 0.040000 -0.009000
v -0.037270 0.032587 -0.011000
v -0.037270 0.032587 -0.009000
v -0.035107 0.025458 -0.011000
v -0.035107 0.025458 -0.009000
v -0.031596 0.018888 -0.011000
v -0.031596 0.018888 -0.009000
v -0.026870 0.013130 -0.011000
v -0.026870 0.013130 -0.009000
v -0.021112 0.008404 -0.011000
v -0.021112 0.008404 -0.009000
v -0.014542 0.004893 -0.011000
v -0.014542 0.004893 -0.009000
v -0.007413 0.002730 -0.011000
v -0.007413 0.002730 -0.009000
v -0.000000 0.002000 -0.011000
v -0.000000 0.002000 -0.009000
v 0.007413 0.002730 -0.011000
v 0.007413 0.002730 -0.009000
v 0.014542 0.004893 -0.011000
v 0.014542 0.004893 -0.009000
v 0.021112 0.008404 -0.011000
v 0.021112 0.008404 -0.009000
v 0.026870 0.013130 -0.011000
v 0.026870 0.013130 -0.009000
v 0.031596 0.018888 -0.011000
v 0.031596 0.018888 -0.009000
v 0.035107 0.025458 -0.011000
v 0.035107 0.025458 -0.009000
v 0.037270 0.032587 -0.011000
v 0.037270 0.032587 -0.009000
v 0.000000 0.040000 -0.009000
v 0.038000 0.040000 -0.009000
v 0.037270 0.047413 -0.009000
v 0.035107 0.054542 -0.009000
v 0.031596 0.061112 -0.009000
v 0.026870 0.066870 -0.009000
v 0.021112 0.071596 -0.009000
v 0.014542 0.075107 -0.009000
v 0.007413 0.077270 -0.009000
v 0.000000 0.078000 -0.009000
v -0.007413 0.077270 -0.009000
v -0.014542 0.075107 -0.009000
v -0.021112 0.071596 -0.009000
v -0.026870 0.066870 -0.009000
v -0.031596 0.061112 -0.009000
v -0.035107 0.054542 -0.009000
v -0.037270 0.047413 -0.009000
v -0.038000 0.040000 -0.009000
v -0.037270 0.032587 -0.009000
v -0.035107 0.025458 -0.009000
v -0.031596 0.018888 -0.009000
v -0.026870 0.013130 -0.009000
v -0.021112 0.008404 -0.009000
v -0.014542 0.004893 -0.009000
v -0.007413 0.002730 -0.009000
v -0.000000 0.002000 -0.009000
v 0.007413 0.002730 -0.009000
v 0.014542 0.004893 -0.009000
v 0.021112 0.008404 -0.009000
v 0.026870 0.013130 -0.009000
v 0.031596 0.018888 -0.009000
v 0.035107 0.025458 -0.009000
v 0.037270 0.032587 -0.009000
v 0.000000 0.040000 -0.011000
v 0.038000 0.040000 -0.011000
v 0.037270 0.047413 -0.011000
v 0.035107 0.054542 -0.011000
v 0.031596 0.061112 -0.011000
v 0.026870 0.066870 -0.011000
v 0.021112 0.071596 -0.011000
v 0.014542 0.075107 -0.011000
v 0.007413 0.077270 -0.011000
v 0.000000 0.078000 -0.011000
v -0.007413 0.077270 -0.011000
v -0.014542 0.075107 -0.011000
v -0.021112 0.071596 -0.011000
v -0.026870 0.066870 -0.011000
v -0.031596 0.061112 -0.011000
v -0.035107 0.054542 -0.011000
v -0.037270 0.047413 -0.011000
v -0.038000 0.040000 -0.011000
v -0.037270 0.032587 -0.011000
v -0.035107 0.025458 -0.011000
v -0.031596 0.018888 -0.011000
v -0.026870 0.013130 -0.011000
v -0.021112 0.008404 -0.011000
v -0.014542 0.004893 -0.011000
v -0.007413 0.002730 -0.011000
v -0.000000 0.002000 -0.011000
v 0.007413 0.002730 -0.011000
v 0.014542 0.004893 -0.011000
v 0.021112 0.008404 -0.011000
v 0.026870 0.013130 -0.011000
v 0.031596 0.018888 -0.011000
v 0.035107 0.025458 -0.011000
v 0.037270 0.032587 -0.011000
v 0.040000 0.040000 -0.014500
v 0.040000 0.040000 -0.013500
v 0.039231 0.047804 -0.014500
v 0.039231 0.047804 -0.013500
v 0.036955 0.055307 -0.014500
v 0.036955 0.055307 -0.013500
v 0.033259 0.062223 -0.014500
v 0.033259 0.062223 -0.013500
v 0.028284 0.068284 -0.014500
v 0.028284 0.068284 -0.013500
v 0.022223 0.073259 -0.014500
v 0.022223 0.073259 -0.013500
v 0.015307 0.076955 -0.014500
v 0.015307 0.076955 -0.013500
v 0.007804 0.079231 -0.014500
v 0.007804 0.079231 -0.013500
v 0.000000 0.080000 -0.014500
v 0.000000 0.080000 -0.013500
v -0.007804 0.079231 -0.014500
v -0.007804 0.079231 -0.013500
v -0.015307 0.076955 -0.014500
v -0.015307 0.076955 -0.013500
v -0.022223 0.073259 -0.014500
v -0.022223 0.073259 -0.013500
v -0.028284 0.068284 -0.014500
v -0.028284 0.068284 -0.013500
v -0.033259 0.062223 -0.014500
v -0.033259 0.062223 -0.013500
v -0.036955 0.055307 -0.014500
v -0.036955 0.055307 -0.013500
v -0.039231 0.047804 -0.014500
v -0.039231 0.047804 -0.013500
v -0.040000 0.040000 -0.014500
v -0.040000 0.040000 -0.013500
v -0.039231 0.032196 -0.014500
v -0.039231 0.032196 -0.013500
v -0.036955 0.024693 -0.014500
v -0.036955 0.024693 -0.013500
v -0.033259 0.017777 -0.014500
v -0.033259 0.017777 -0.013500
v -0.028284 0.011716 -0.014500
v -0.028284 0.011716 -0.013500
v -0.022223 0.006741 -0.014500
v -0.022223 0.006741 -0.013500
v -0.015307 0.003045 -0.014500
v -0.015307 0.003045 -0.013500
v -0.007804 0.000769 -0.014500
v -0.007804 0.000769 -0.013500
v -0.000000 0.000000 -0.014500
v -0.000000 0.000000 -0.013500
v 0.007804 0.000769 -0.014500
v 0.007804 0.000769 -0.013500
v 0.015307 0.003045 -0.014500
v 0.015307 0.003045 -0.013500
v 0.022223 0.006741 -0.014500
v 0.022223 0.006741 -0.013500
v 0.028284 0.011716 -0.014500
v 0.028284 0.011716 -0.013500
v 0.033259 0.017777 -0.014500
v 0.033259 0.017777 -0.013500
v 0.036955 0.024693 -0.014500
v 0.036955 0.024693 -0.013500
v 0.039231 0.032196 -0.014500
v 0.039231 0.032196 -0.013500
v 0.000000 0.040000 -0.013500
v 0.040000 0.040000 -0.013500
v 0.039231 0.047804 -0.013500
v 0.036955 0.055307 -0.013500
v 0.033259 0.062223 -0.013500
v 0.028284 0.068284 -0.013500
v 0.022223 0.073259 -0.013500
v 0.015307 0.076955 -0.013500
v 0.007804 0.079231 -0.013500
v 0.000000 0.080000 -0.013500
v -0.007804 0.079231 -0.013500
v -0.015307 0.076955 -0.013500
v -0.022223 0.073259 -0.013500
v -0.028284 0.068284 -0.013500
v -0.033259 0.062223 -0.013500
v -0.036955 0.055307 -0.013500
v -0.039231 0.047804 -0.013500
v -0.040000 0.040000 -0.013500
v -0.039231 0.032196 -0.013500
v -0.036955 0.024693 -0.013500
v -0.033259 0.017777 -0.013500
v -0.028284 0.011716 -0.013500
v -0.022223 0.006741 -0.013500
v -0.015307 0.003045 -0.013500
v -0.007804 0.000769 -0.013500
v -0.000000 0.000000 -0.013500
v 0.007804 0.000769 -0.013500
v 0.015307 0.003045 -0.013500
v 0.022223 0.006741 -0.013500
v 0.028284 0.011716 -0.013500
v 0.033259 0.017777 -0.013500
v 0.036955 0.024693 -0.013500
v 0.039231 0.032196 -0.013500
v 0.000000 0.040000 -0.014500
v 0.040000 0.040000 -0.014500
v 0.039231 0.047804 -0.014500
v 0.036955 0.055307 -0.014500
v 0.033259 0.062223 -0.014500
v 0.028284 0.068284 -0.014500
v 0.022223 0.073259 -0.014500
v 0.015307 0.076955 -0.014500
v 0.007804 0.079231 -0.014500
v 0.000000 0.080000 -0.014500
v -0.007804 0.079231 -0.014500
v -0.015307 0.076955 -0.014500
v -0.022223 0.073259 -0.014500
v -0.028284 0.068284 -0.014500
v -0.033259 0.062223 -0.014500
v -0.036955 0.055307 -0.014500
v -0.039231 0.047804 -0.014500
v -0.040000 0.040000 -0.014500
v -0.039231 0.032196 -0.014500
v -0.036955 0.024693 -0.014500
v -0.033259 0.017777 -0.014500
v -0.028284 0.011716 -0.014500
v -0.022223 0.006741 -0.014500
v -0.015307 0.003045 -0.014500
v -0.007804 0.000769 -0.014500
v -0.000000 0.000000 -0.014500
v 0.007804 0.000769 -0.014500
v 0.015307 0.003045 -0.014500
v 0.022223 0.006741 -0.014500
v 0.028284 0.011716 -0.014500
v 0.033259 0.017777 -0.014500
v 0.036955 0.024693 -0.014500
v 0.039231 0.032196 -0.014500
vt 0.000000 0.000000
vt 0.000000 1.000000
vt 0.083333 0.000000
vt 0.083333 1.000000
vt 0.166667 0.000000
vt 0.166667 1.000000
vt 0.250000 0.000000
vt 0.250000 1.000000
vt 0.333333 0.000000
vt 0.333333 1.000000
vt 0.416667 0.000000
vt 0.416667 1.000000
vt 0.500000 0.000000
vt 0.500000 1.000000
vt 0.583333 0.000000
vt 0.583333 1.000000
vt 0.666667 0.000000
vt 0.666667 1.000000
vt 0.750000 0.000000
vt 0.750000 1.000000
vt 0.833333 0.000000
vt 0.833333 1.000000
vt 0.916667 0.000000
vt 0.916667 1.000000
vt 0.500000 0.500000
vt 1.000000 0.500000
vt 0.933013 0.750000
vt 0.750000 0.933013
vt 0.500000 1.000000
vt 0.250000 0.933013
vt 0.066987 0.750000
vt 0.000000 0.500000
vt 0.066987 0.250000
vt 0.250000 0.066987
vt 0.500000 0.000000
vt 0.750000 0.066987
vt 0.933013 0.250000
vt 0.500000 0.500000
vt 1.000000 0.500000
vt 0.933013 0.750000
vt 0.750000 0.933013
vt 0.500000 1.000000
vt 0.250000 0.933013
vt 0.066987 0.750000
vt 0.000000 0.500000
vt 0.066987 0.250000
vt 0.250000 0.066987
vt 0.500000 0.000000
vt 0.750000 0.066987
vt 0.933013 0.250000
vt 0.000000 0.000000
vt 0.000000 1.000000
vt 0.031250 0.000000
vt 0.031250 1.000000
vt 0.062500 0.000000
vt 0.062500 1.000000
vt 0.093750 0.000000
vt 0.093750 1.000000
vt 0.125000 0.000000
vt 0.125000 1.000000
vt 0.156250 0.000000
vt 0.156250 1.000000
vt 0.187500 0.000000
vt 0.187500 1.000000
vt 0.218750 0.000000
vt 0.218750 1.000000
vt 0.250000 0.000000
vt 0.250000 1.000000
vt 0.281250 0.000000
vt 0.281250 1.000000
vt 0.312500 0.000000
vt 0.312500 1.000000
vt 0.343750 0.000000
vt 0.343750 1.000000
vt 0.375000 0.000000
vt 0.375000 1.000000
vt 0.406250 0.000000
vt 0.406250 1.000000
vt 0.437500 0.000000
vt 0.437500 1.000000
vt 0.468750 0.000000
vt 0.468750 1.000000
vt 0.500000 0.000000
vt 0.500000 1.000000
vt 0.531250 0.000000
vt 0.531250 1.000000
vt 0.562500 0.000000
vt 0.562500 1.000000
vt 0.593750 0.000000
vt 0.593750 1.000000
vt 0.625000 0.000000
vt 0.625000 1.000000
vt 0.656250 0.000000
vt 0.656250 1.000000
vt 0.687500 0.000000
vt 0.687500 1.000000
vt 0.718750 0.000000
vt 0.718750 1.000000
vt 0.750000 0.000000
vt 0.750000 1.000000
vt 0.781250 0.000000
vt 0.781250 1.000000
vt 0.812500 0.000000
vt 0.812500 1.000000
vt 0.843750 0.000000
vt 0.843750 1.000000
vt 0.875000 0.000000
vt 0.875000 1.000000
vt 0.906250 0.000000
vt 0.906250 1.000000
vt 0.937500 0.000000
vt 0.937500 1.000000
vt 0.968750 0.000000
vt 0.968750 1.000000
vt 0.500000 0.500000
vt 1.000000 0.500000
vt 0.990393 0.597545
vt 0.961940 0.691342
vt 0.915735 0.777785
vt 0.853553 0.853553
vt 0.777785 0.915735
vt 0.691342 0.961940
vt 0.597545 0.990393
vt 0.500000 1.000000
vt 0.402455 0.990393
vt 0.308658 0.961940
vt 0.222215 0.915735
vt 0.146447 0.853553
vt 0.084265 0.777785
vt 0.038060 0.691342
vt 0.009607 0.597545
vt 0.000000 0.500000
vt 0.009607 0.402455
vt 0.038060 0.308658
vt 0.084265 0.222215
vt 0.146447 0.146447
vt 0.222215 0.084265
vt 0.308658 0.038060
vt 0.402455 0.009607
vt 0.500000 0.000000
vt 0.597545 0.009607
vt 0.691342 0.038060
vt 0.777785 0.084265
vt 0.853553 0.146447
vt 0.915735 0.222215
vt 0.961940 0.308658
vt 0.990393 0.402455
vt 0.500000 0.500000
vt 1.000000 0.500000
vt 0.990393 0.597545
vt 0.961940 0.691342
vt 0.915735 0.777785
vt 0.853553 0.853553
vt 0.777785 0.915735
vt 0.691342 0.961940
vt 0.597545 0.990393
vt 0.500000 1.000000
vt 0.402455 0.990393
vt 0.308658 0.961940
vt 0.222215 0.915735
vt 0.146447 0.853553
vt 0.084265 0.777785
vt 0.038060 0.691342
vt 0.009607 0.597545
vt 0.000000 0.500000
vt 0.009607 0.402455
vt 0.038060 0.308658
vt 0.084265 0.222215
vt 0.146447 0.146447
vt 0.222215 0.084265
vt 0.308658 0.038060
vt 0.402455 0.009607
vt 0.500000 0.000000
vt 0.597545 0.009607
vt 0.691342 0.038060
vt 0.777785 0.084265
vt 0.853553 0.146447
vt 0.915735 0.222215
vt 0.961940 0.308658
vt 0.990393 0.402455
vt 0.000000 0.000000
vt 0.000000 1.000000
vt 0.031250 0.000000
vt 0.031250 1.000000
vt 0.062500 0.000000
vt 0.062500 1.000000
vt 0.093750 0.000000
vt 0.093750 1.000000
vt 0.125000 0.000000
vt 0.125000 1.000000
vt 0.156250 0.000000
vt 0.156250 1.000000
vt 0.187500 0.000000
vt 0.187500 1.000000
vt 0.218750 0.000000
vt 0.218750 1.000000
vt 0.250000 0.000000
vt 0.250000 1.000000
vt 0.281250 0.000000
vt 0.281250 1.000000
vt 0.312500 0.000000
vt 0.312500 1.000000
vt 0.343750 0.000000
vt 0.343750 1.000000
vt 0.375000 0.000000
vt 0.375000 1.000000
vt 0.406250 0.000000
vt 0.406250 1.000000
vt 0.437500 0.000000
vt 0.437500 1.000000
vt 0.468750 0.000000
vt 0.468750 1.000000
vt 0.500000 0.000000
vt 0.500000 1.000000
vt 0.531250 0.000000
vt 0.531250 1.000000
vt 0.562500 0.000000
vt 0.562500 1.000000
vt 0.593750 0.000000
vt 0.593750 1.000000
vt 0.625000 0.000000
vt 0.625000 1.000000
vt 0.656250 0.000000
vt 0.656250 1.000000
vt 0.687500 0.000000
vt 0.687500 1.000000
vt 0.718750 0.000000
vt 0.718750 1.000000
vt 0.750000 0.000000
vt 0.750000 1.000000
vt 0.781250 0.000000
vt 0.781250 1.000000
vt 0.812500 0.000000
vt 0.812500 1.000000
vt 0.843750 0.000000
vt 0.843750 1.000000
vt 0.875000 0.000000
vt 0.875000 1.000000
vt 0.906250 0.000000
vt 0.906250 1.000000
vt 0.937500 0.000000
vt 0.937500 1.000000
vt 0.968750 0.000000
vt 0.968750 1.000000
vt 0.500000 0.500000
vt 1.000000 0.500000
vt 0.990393 0.597545
vt 0.961940 0.691342
vt 0.915735 0.777785
vt 0.853553 0.853553
vt 0.777785 0.915735
vt 0.691342 0.961940
vt 0.597545 0.990393
vt 0.500000 1.000000
vt 0.402455 0.990393
vt 0.308658 0.961940
vt 0.222215 0.915735
vt 0.146447 0.853553
vt 0.084265 0.777785
vt 0.038060 0.691342
vt 0.009607 0.597545
vt 0.000000 0.500000
vt 0.009607 0.402455
vt 0.038060 0.308658
vt 0.084265 0.222215
vt 0.146447 0.146447
vt 0.222215 0.084265
vt 0.308658 0.038060
vt 0.402455 0.009607
vt 0.500000 0.000000
vt 0.597545 0.009607
vt 0.691342 0.038060
vt 0.777785 0.084265
vt 0.853553 0.146447
vt 0.915735 0.222215
vt 0.961940 0.308658
vt 0.990393 0.402455
vt 0.500000 0.500000
vt 1.000000 0.500000
vt 0.990393 0.597545
vt 0.961940 0.691342
vt 0.915735 0.777785
vt 0.853553 0.853553
vt 0.777785 0.915735
vt 0.691342 0.961940
vt 0.597545 0.990393
vt 0.500000 1.000000
vt 0.402455 0.990393
vt 0.308658 0.961940
vt 0.222215 0.915735
vt 0.146447 0.853553
vt 0.084265 0.777785
vt 0.038060 0.691342
vt 0.009607 0.597545
vt 0.000000 0.500000
vt 0.009607 0.402455
vt 0.038060 0.308658
vt 0.084265 0.222215
vt 0.146447 0.146447
vt 0.222215 0.084265
vt 0.308658 0.038060
vt 0.402455 0.009607
vt 0.500000 0.000000
vt 0.597545 0.009607
vt 0.691342 0.038060
vt 0.777785 0.084265
vt 0.853553 0.146447
vt 0.915735 0.222215
vt 0.961940 0.308658
vt 0.990393 0.402455
vt 0.000000 0.000000
vt 0.000000 1.000000
vt 0.031250 0.000000
vt 0.031250 1.000000
vt 0.062500 0.000000
vt 0.062500 1.000000
vt 0.093750 0.000000
vt 0.093750 1.000000
vt 0.125000 0.000000
vt 0.125000 1.000000
vt 0.156250 0.000000
vt 0.156250 1.000000
vt 0.187500 0.000000
vt 0.187500 1.000000
vt 0.218750 0.000000
vt 0.218750 1.000000
vt 0.250000 0.000000
vt 0.250000 1.000000
vt 0.281250 0.000000
vt 0.281250 1.000000
vt 0.312500 0.000000
vt 0.312500 1.000000
vt 0.343750 0.000000
vt 0.343750 1.000000
vt 0.375000 0.000000
vt 0.375000 1.000000
vt 0.406250 0.000000
vt 0.406250 1.000000
vt 0.437500 0.000000
vt 0.437500 1.000000
vt 0.468750 0.000000
vt 0.468750 1.000000
vt 0.500000 0.000000
vt 0.500000 1.000000
vt 0.531250 0.000000
vt 0.531250 1.000000
vt 0.562500 0.000000
vt 0.562500 1.000000
vt 0.593750 0.000000
vt 0.593750 1.000000
vt 0.625000 0.000000
vt 0.625000 1.000000
vt 0.656250 0.000000
vt 0.656250 1.000000
vt 0.687500 0.000000
vt 0.687500 1.000000
vt 0.718750 0.000000
vt 0.718750 1.000000
vt 0.750000 0.000000
vt 0.750000 1.000000
vt 0.781250 0.000000
vt 0.781250 1.000000
vt 0.812500 0.000000
vt 0.812500 1.000000
vt 0.843750 0.000000
vt 0.843750 1.000000
vt 0.875000 0.000000
vt 0.875000 1.000000
vt 0.906250 0.000000
vt 0.906250 1.000000
vt 0.937500 0.000000
vt 0.937500 1.000000
vt 0.968750 0.000000
vt 0.968750 1.000000
vt 0.500000 0.500000
vt 1.000000 0.500000
vt 0.990393 0.597545
vt 0.961940 0.691342
vt 0.915735 0.777785
vt 0.853553 0.853553
vt 0.777785 0.915735
vt 0.691342 0.961940
vt 0.597545 0.990393
vt 0.500000 1.000000
vt 0.402455 0.990393
vt 0.308658 0.961940
vt 0.222215 0.915735
vt 0.146447 0.853553
vt 0.084265 0.777785
vt 0.038060 0.691342
vt 0.009607 0.597545
vt 0.000000 0.500000
vt 0.009607 0.402455
vt 0.038060 0.308658
vt 0.084265 0.222215
vt 0.146447 0.146447
vt 0.222215 0.084265
vt 0.308658 0.038060
vt 0.402455 0.009607
vt 0.500000 0.000000
vt 0.597545 0.009607
vt 0.691342 0.038060
vt 0.777785 0.084265
vt 0.853553 0.146447
vt 0.915735 0.222215
vt 0.961940 0.308658
vt 0.990393 0.402455
vt 0.500000 0.500000
vt 1.000000 0.500000
vt 0.990393 0.597545
vt 0.961940 0.691342
vt 0.915735 0.777785
vt 0.853553 0.853553
vt 0.777785 0.915735
vt 0.691342 0.961940
vt 0.597545 0.990393
vt 0.500000 1.000000
vt 0.402455 0.990393
vt 0.308658 0.961940
vt 0.222215 0.915735
vt 0.146447 0.853553
vt 0.084265 0.777785
vt 0.038060 0.691342
vt 0.009607 0.597545
vt 0.000000 0.500000
vt 0.009607 0.402455
vt 0.038060 0.308658
vt 0.084265 0.222215
vt 0.146447 0.146447
vt 0.222215 0.084265
vt 0.308658 0.038060
vt 0.402455 0.009607
vt 0.500000 0.000000
vt 0.597545 0.009607
vt 0.691342 0.038060
vt 0.777785 0.084265
vt 0.853553 0.146447
vt 0.915735 0.222215
vt 0.961940 0.308658
vt 0.990393 0.402455
vt 0.000000 0.000000
vt 0.000000 1.000000
vt 0.031250 0.000000
vt 0.031250 1.000000
vt 0.062500 0.000000
vt 0.062500 1.000000
vt 0.093750 0.000000
vt 0.093750 1.000000
vt 0.125000 0.000000
vt 0.125000 1.000000
vt 0.156250 0.000000
vt 0.156250 1.000000
vt 0.187500 0.000000
vt 0.187500 1.000000
vt 0.218750 0.000000
vt 0.218750 1.000000
vt 0.250000 0.000000
vt 0.250000 1.000000
vt 0.281250 0.000000
vt 0.281250 1.000000
vt 0.312500 0.000000
vt 0.312500 1.000000
vt 0.343750 0.000000
vt 0.343750 1.000000
vt 0.375000 0.000000
vt 0.375000 1.000000
vt 0.406250 0.000000
vt 0.406250 1.000000
vt 0.437500 0.000000
vt 0.437500 1.000000
vt 0.468750 0.000000
vt 0.468750 1.000000
vt 0.500000 0.000000
vt 0.500000 1.000000
vt 0.531250 0.000000
vt 0.531250 1.000000
vt 0.562500 0.000000
vt 0.562500 1.000000
vt 0.593750 0.000000
vt 0.593750 1.000000
vt 0.625000 0.000000
vt 0.625000 1.000000
vt 0.656250 0.000000
vt 0.656250 1.000000
vt 0.687500 0.000000
vt 0.687500 1.000000
vt 0.718750 0.000000
vt 0.718750 1.000000
vt 0.750000 0.000000
vt 0.750000 1.000000
vt 0.781250 0.000000
vt 0.781250 1.000000
vt 0.812500 0.000000
vt 0.812500 1.000000
vt 0.843750 0.000000
vt 0.843750 1.000000
vt 0.875000 0.000000
vt 0.875000 1.000000
vt 0.906250 0.000000
vt 0.906250 1.000000
vt 0.937500 0.000000
vt 0.937500 1.000000
vt 0.968750 0.000000
vt 0.968750 1.000000
vt 0.500000 0.500000
vt 1.000000 0.500000
vt 0.990393 0.597545
vt 0.961940 0.691342
vt 0.915735 0.777785
vt 0.853553 0.853553
vt 0.777785 0.915735
vt 0.691342 0.961940
vt 0.597545 0.990393
vt 0.500000 1.000000
vt 0.402455 0.990393
vt 0.308658 0.961940
vt 0.222215 0.915735
vt 0.146447 0.853553
vt 0.084265 0.777785
vt 0.038060 0.691342
vt 0.009607 0.597545
vt 0.000000 0.500000
vt 0.009607 0.402455
vt 0.038060 0.308658
vt 0.084265 0.222215
vt 0.146447 0.146447
vt 0.222215 0.084265
vt 0.308658 0.038060
vt 0.402455 0.009607
vt 0.500000 0.000000
vt 0.597545 0.009607
vt 0.691342 0.038060
vt 0.777785 0.084265
vt 0.853553 0.146447
vt 0.915735 0.222215
vt 0.961940 0.308658
vt 0.990393 0.402455
vt 0.500000 0.500000
vt 1.000000 0.500000
vt 0.990393 0.597545
vt 0.961940 0.691342
vt 0.915735 0.777785
vt 0.853553 0.853553
vt 0.777785 0.915735
vt 0.691342 0.961940
vt 0.597545 0.990393
vt 0.500000 1.000000
vt 0.402455 0.990393
vt 0.308658 0.961940
vt 0.222215 0.915735
vt 0.146447 0.853553
vt 0.084265 0.777785
vt 0.038060 0.691342
vt 0.009607 0.597545
vt 0.000000 0.500000
vt 0.009607 0.402455
vt 0.038060 0.308658
vt 0.084265 0.222215
vt 0.146447 0.146447
vt 0.222215 0.084265
vt 0.308658 0.038060
vt 0.402455 0.009607
vt 0.500000 0.000000
vt 0.597545 0.009607
vt 0.691342 0.038060
vt 0.777785 0.084265
vt 0.853553 0.146447
vt 0.915735 0.222215
vt 0.961940 0.308658
vt 0.990393 0.402455
vn 0.000000 0.000000 1.000000
vn 0.000000 0.000000 1.000000
vn 0.500000 0.000000 0.866025
vn 0.500000 0.000000 0.866025
vn 0.866025 0.000000 0.500000
vn 0.866025 0.000000 0.500000
vn 1.000000 0.000000 0.000000
vn 1.000000 0.000000 0.000000
vn 0.866025 0.000000 -0.500000
vn 0.866025 0.000000 -0.500000
vn 0.500000 0.000000 -0.866025
vn 0.500000 0.000000 -0.866025
vn 0.000000 0.000000 -1.000000
vn 0.000000 0.000000 -1.000000
vn -0.500000 -0.000000 -0.866025
vn -0.500000 -0.000000 -0.866025
vn -0.866025 -0.000000 -0.500000
vn -0.866025 -0.000000 -0.500000
vn -1.000000 -0.000000 -0.000000
vn -1.000000 -0.000000 -0.000000
vn -0.866025 0.000000 0.500000
vn -0.866025 0.000000 0.500000
vn -0.500000 0.000000 0.866025
vn -0.500000 0.000000 0.866025
vn 0.000000 1.000000 0.000000
vn 0.000000 1.000000 0.000000
vn 0.000000 1.000000 0.000000
vn 0.000000 1.000000 0.000000
vn 0.000000 1.000000 0.000000
vn 0.000000 1.000000 0.000000
vn 0.000000 1.000000 0.000000
vn 0.000000 1.000000 0.000000
vn 0.000000 1.000000 0.000000
vn 0.000000 1.000000 0.000000
vn 0.000000 1.000000 0.000000
vn 0.000000 1.000000 0.000000
vn 0.000000 1.000000 0.000000
vn -0.000000 -1.000000 -0.000000
vn -0.000000 -1.000000 -0.000000
vn -0.000000 -1.000000 -0.000000
vn -0.000000 -1.000000 -0.000000
vn -0.000000 -1.000000 -0.000000
vn -0.000000 -1.000000 -0.000000
vn -0.000000 -1.000000 -0.000000
vn -0.000000 -1.000000 -0.000000
vn -0.000000 -1.000000 -0.000000
vn -0.000000 -1.000000 -0.000000
vn -0.000000 -1.000000 -0.000000
vn -0.000000 -1.000000 -0.000000
vn -0.000000 -1.000000 -0.000000
vn 1.000000 0.000000 0.000000
vn 1.000000 0.000000 0.000000
vn 0.980785 0.195090 0.000000
vn 0.980785 0.195090 0.000000
vn 0.923880 0.382683 0.000000
vn 0.923880 0.382683 0.000000
vn 0.831470 0.555570 0.000000
vn 0.831470 0.555570 0.000000
vn 0.707107 0.707107 0.000000
vn 0.707107 0.707107 0.000000
vn 0.555570 0.831470 0.000000
vn 0.555570 0.831470 0.000000
vn 0.382683 0.923880 0.000000
vn 0.382683 0.923880 0.000000
vn 0.195090 0.980785 0.000000
vn 0.195090 0.980785 0.000000
vn 0.000000 1.000000 0.000000
vn 0.000000 1.000000 0.000000
vn -0.195090 0.980785 0.000000
vn -0.195090 0.980785 0.000000
vn -0.382683 0.923880 0.000000
vn -0.382683 0.923880 0.000000
vn -0.555570 0.831470 0.000000
vn -0.555570 0.831470 0.000000
vn -0.707107 0.707107 0.000000
vn -0.707107 0.707107 0.000000
vn -0.831470 0.555570 0.000000
vn -0.831470 0.555570 0.000000
vn -0.923880 0.382683 0.000000
vn -0.923880 0.382683 0.000000
vn -0.980785 0.195090 0.000000
vn -0.980785 0.195090 0.000000
vn -1.000000 0.000000 0.000000
vn -1.000000 0.000000 0.000000
vn -0.980785 -0.195090 -0.000000
vn -0.980785 -0.195090 -0.000000
vn -0.923880 -0.382683 -0.000000
vn -0.923880 -0.382683 -0.000000
vn -0.831470 -0.555570 -0.000000
vn -0.831470 -0.555570 -0.000000
vn -0.707107 -0.707107 -0.000000
vn -0.707107 -0.707107 -0.000000
vn -0.555570 -0.831470 -0.000000
vn -0.555570 -0.831470 -0.000000
vn -0.382683 -0.923880 -0.000000
vn -0.382683 -0.923880 -0.000000
vn -0.195090 -0.980785 -0.000000
vn -0.195090 -0.980785 -0.000000
vn -0.000000 -1.000000 -0.000000
vn -0.000000 -1.000000 -0.000000
vn 0.195090 -0.980785 0.000000
vn 0.195090 -0.980785 0.000000
vn 0.382683 -0.923880 0.000000
vn 0.382683 -0.923880 0.000000
vn 0.555570 -0.831470 0.000000
vn 0.555570 -0.831470 0.000000
vn 0.707107 -0.707107 0.000000
vn 0.707107 -0.707107 0.000000
vn 0.831470 -0.555570 0.000000
vn 0.831470 -0.555570 0.000000
vn 0.923880 -0.382683 0.000000
vn 0.923880 -0.382683 0.000000
vn 0.980785 -0.195090 0.000000
vn 0.980785 -0.195090 0.000000
vn 0.000000 0.000000 1.000000
vn 0.000000 0.000000 1.000000
vn 0.000000 0.000000 1.000000
vn 0.000000 0.000000 1.000000
vn 0.000000 0.000000 1.000000
vn 0.000000 0.000000 1.000000
vn 0.000000 0.000000 1.000000
vn 0.000000 0.000000 1.000000
vn 0.000000 0.000000 1.000000
vn 0.000000 0.000000 1.000000
vn 0.000000 0.000000 1.000000
vn 0.000000 0.000000 1.000000
vn 0.000000 0.000000 1.000000
vn 0.000000 0.000000 1.000000
vn 0.000000 0.000000 1.000000
vn 0.000000 0.000000 1.000000
vn 0.000000 0.000000 1.000000
vn 0.000000 0.000000 1.000000
vn 0.000000 0.000000 1.000000
vn 0.000000 0.000000 1.000000
vn 0.000000 0.000000 1.000000
vn 0.000000 0.000000 1.000000
vn 0.000000 0.000000 1.000000
vn 0.000000 0.000000 1.000000
vn 0.000000 0.000000 1.000000
vn 0.000000 0.000000 1.000000
vn 0.000000 0.000000 1.000000
vn 0.000000 0.000000 1.000000
vn 0.000000 0.000000 1.000000
vn 0.000000 0.000000 1.000000
vn 0.000000 0.000000 1.000000
vn 0.000000 0.000000 1.000000
vn 0.000000 0.000000 1.000000
vn -0.000000 -0.000000 -1.000000
vn -0.000000 -0.000000 -1.000000
vn -0.000000 -0.000000 -1.000000
vn -0.000000 -0.000000 -1.000000
vn -0.000000 -0.000000 -1.000000
vn -0.000000 -0.000000 -1.000000
vn -0.000000 -0.000000 -1.000000
vn -0.000000 -0.000000 -1.000000
vn -0.000000 -0.000000 -1.000000
vn -0.000000 -0.000000 -1.000000
vn -0.000000 -0.000000 -1.000000
vn -0.000000 -0.000000 -1.000000
vn -0.000000 -0.000000 -1.000000
vn -0.000000 -0.000000 -1.000000
vn -0.000000 -0.000000 -1.000000
vn -0.000000 -0.000000 -1.000000
vn -0.000000 -0.000000 -1.000000
vn -0.000000 -0.000000 -1.000000
vn -0.000000 -0.000000 -1.000000
vn -0.000000 -0.000000 -1.000000
vn -0.000000 -0.000000 -1.000000
vn -0.000000 -0.000000 -1.000000
vn -0.000000 -0.000000 -1.000000
vn -0.000000 -0.000000 -1.000000
vn -0.000000 -0.000000 -1.000000
vn -0.000000 -0.000000 -1.000000
vn -0.000000 -0.000000 -1.000000
vn -0.000000 -0.000000 -1.000000
vn -0.000000 -0.000000 -1.000000
vn -0.000000 -0.000000 -1.000000
vn -0.000000 -0.000000 -1.000000
vn -0.000000 -0.000000 -1.000000
vn -0.000000 -0.000000 -1.000000
vn 1.000000 0.000000 0.000000
vn 1.000000 0.000000 0.000000
vn 0.980785 0.195090 0.000000
vn 0.980785 0.195090 0.000000
vn 0.923880 0.382683 0.000000
vn 0.923880 0.382683 0.000000
vn 0.831470 0.555570 0.000000
vn 0.831470 0.555570 0.000000
vn 0.707107 0.707107 0.000000
vn 0.707107 0.707107 0.000000
vn 0.555570 0.831470 0.000000
vn 0.555570 0.831470 0.000000
vn 0.382683 0.923880 0.000000
vn 0.382683 0.923880 0.000000
vn 0.195090 0.980785 0.000000
vn 0.195090 0.980785 0.000000
vn 0.000000 1.000000 0.000000
vn 0.000000 1.000000 0.000000
vn -0.195090 0.980785 0.000000
vn -0.195090 0.980785 0.000000
vn -0.382683 0.923880 0.000000
vn -0.382683 0.923880 0.000000
vn -0.555570 0.831470 0.000000
vn -0.555570 0.831470 0.000000
vn -0.707107 0.707107 0.000000
vn -0.707107 0.707107 0.000000
vn -0.831470 0.555570 0.000000
vn -0.831470 0.555570 0.000000
vn -0.923880 0.382683 0.000000
vn -0.923880 0.382683 0.000000
vn -0.980785 0.195090 0.000000
vn -0.980785 0.195090 0.000000
vn -1.000000 0.000000 0.000000
vn -1.000000 0.000000 0.000000
vn -0.980785 -0.195090 -0.000000
vn -0.980785 -0.195090 -0.000000
vn -0.923880 -0.382683 -0.000000
vn -0.923880 -0.382683 -0.000000
vn -0.831470 -0.555570 -0.000000
vn -0.831470 -0.555570 -0.000000
vn -0.707107 -0.707107 -0.000000
vn -0.707107 -0.707107 -0.000000
vn -0.555570 -0.831470 -0.000000
vn -0.555570 -0.831470 -0.000000
vn -0.382683 -0.923880 -0.000000
vn -0.382683 -0.923880 -0.000000
vn -0.195090 -0.980785 -0.000000
vn -0.195090 -0.980785 -0.000000
vn -0.000000 -1.000000 -0.000000
vn -0.000000 -1.000000 -0.000000
vn 0.195090 -0.980785 0.000000
vn 0.195090 -0.980785 0.000000
vn 0.382683 -0.923880 0.000000
vn 0.382683 -0.923880 0.000000
vn 0.555570 -0.831470 0.000000
vn 0.555570 -0.831470 0.000000
vn 0.707107 -0.707107 0.000000
vn 0.707107 -0.707107 0.000000
vn 0.831470 -0.555570 0.000000
vn 0.831470 -0.555570 0.000000
vn 0.923880 -0.382683 0.000000
vn 0.923880 -0.382683 0.000000
vn 0.980785 -0.195090 0.000000
vn 0.980785 -0.195090 0.000000
vn 0.000000 0.000000 1.000000
vn 0.000000 0.000000 1.000000
vn 0.000000 0.000000 1.000000
vn 0.000000 0.000000 1.000000
vn 0.000000 0.000000 1.000000
vn 0.000000 0.000000 1.000000
vn 0.000000 0.000000 1.000000
vn 0.000000 0.000000 1.000000
vn 0.000000 0.000000 1.000000
vn 0.000000 0.000000 1.000000
vn 0.000000 0.000000 1.000000
vn 0.000000 0.000000 1.000000
vn 0.000000 0.000000 1.000000
vn 0.000000 0.000000 1.000000
vn 0.000000 0.000000 1.000000
vn 0.000000 0.000000 1.000000
vn 0.000000 0.000000 1.000000
vn 0.000000 0.000000 1.000000
vn 0.000000 0.000000 1.000000
vn 0.000000 0.000000 1.000000
vn 0.000000 0.000000 1.000000
vn 0.000000 0.000000 1.000000
vn 0.000000 0.000000 1.000000
vn 0.000000 0.000000 1.000000
vn 0.000000 0.000000 1.000000
vn 0.000000 0.000000 1.000000
vn 0.000000 0.000000 1.000000
vn 0.000000 0.000000 1.000000
vn 0.000000 0.000000 1.000000
vn 0.000000 0.000000 1.000000
vn 0.000000 0.000000 1.000000
vn 0.000000 0.000000 1.000000
vn 0.000000 0.000000 1.000000
vn -0.000000 -0.000000 -1.000000
vn -0.000000 -0.000000 -1.000000
vn -0.000000 -0.000000 -1.000000
vn -0.000000 -0.000000 -1.000000
vn -0.000000 -0.000000 -1.000000
vn -0.000000 -0.000000 -1.000000
vn -0.000000 -0.000000 -1.000000
vn -0.000000 -0.000000 -1.000000
vn -0.000000 -0.000000 -1.000000
vn -0.000000 -0.000000 -1.000000
vn -0.000000 -0.000000 -1.000000
vn -0.000000 -0.000000 -1.000000
vn -0.000000 -0.000000 -1.000000
vn -0.000000 -0.000000 -1.000000
vn -0.000000 -0.000000 -1.000000
vn -0.000000 -0.000000 -1.000000
vn -0.000000 -0.000000 -1.000000
vn -0.000000 -0.000000 -1.000000
vn -0.000000 -0.000000 -1.000000
vn -0.000000 -0.000000 -1.000000
vn -0.000000 -0.000000 -1.000000
vn -0.000000 -0.000000 -1.000000
vn -0.000000 -0.000000 -1.000000
vn -0.000000 -0.000000 -1.000000
vn -0.000000 -0.000000 -1.000000
vn -0.000000 -0.000000 -1.000000
vn -0.000000 -0.000000 -1.000000
vn -0.000000 -0.000000 -1.000000
vn -0.000000 -0.000000 -1.000000
vn -0.000000 -0.000000 -1.000000
vn -0.000000 -0.000000 -1.000000
vn -0.000000 -0.000000 -1.000000
vn -0.000000 -0.000000 -1.000000
vn 1.000000 0.000000 0.000000
vn 1.000000 0.000000 0.000000
vn 0.980785 0.195090 0.000000
vn 0.980785 0.195090 0.000000
vn 0.923880 0.382683 0.000000
vn 0.923880 0.382683 0.000000
vn 0.831470 0.555570 0.000000
vn 0.831470 0.555570 0.000000
vn 0.707107 0.707107 0.000000
vn 0.707107 0.707107 0.000000
vn 0.555570 0.831470 0.000000
vn 0.555570 0.831470 0.000000
vn 0.382683 0.923880 0.000000
vn 0.382683 0.923880 0.000000
vn 0.195090 0.980785 0.000000
vn 0.195090 0.980785 0.000000
vn 0.000000 1.000000 0.000000
vn 0.000000 1.000000 0.000000
vn -0.195090 0.980785 0.000000
vn -0.195090 0.980785 0.000000
vn -0.382683 0.923880 0.000000
vn -0.382683 0.923880 0.000000
vn -0.555570 0.831470 0.000000
vn -0.555570 0.831470 0.000000
vn -0.707107 0.707107 0.000000
vn -0.707107 0.707107 0.000000
vn -0.831470 0.555570 0.000000
vn -0.831470 0.555570 0.000000
vn -0.923880 0.382683 0.000000
vn -0.923880 0.382683 0.000000
vn -0.980785 0.195090 0.000000
vn -0.980785 0.195090 0.000000
vn -1.000000 0.000000 0.000000
vn -1.000000 0.000000 0.000000
vn -0.980785 -0.195090 -0.000000
vn -0.980785 -0.195090 -0.000000
vn -0.923880 -0.382683 -0.000000
vn -0.923880 -0.382683 -0.000000
vn -0.831470 -0.555570 -0.000000
vn -0.831470 -0.555570 -0.000000
vn -0.707107 -0.707107 -0.000000
vn -0.707107 -0.707107 -0.000000
vn -0.555570 -0.831470 -0.000000
vn -0.555570 -0.831470 -0.000000
vn -0.382683 -0.923880 -0.000000
vn -0.382683 -0.923880 -0.000000
vn -0.195090 -0.980785 -0.000000
vn -0.195090 -0.980785 -0.000000
vn -0.000000 -1.000000 -0.000000
vn -0.000000 -1.000000 -0.000000
vn 0.195090 -0.980785 0.000000
vn 0.195090 -0.980785 0.000000
vn 0.382683 -0.923880 0.000000
vn 0.382683 -0.923880 0.000000
vn 0.555570 -0.831470 0.000000
vn 0.555570 -0.831470 0.000000
vn 0.707107 -0.707107 0.000000
vn 0.707107 -0.707107 0.000000
vn 0.831470 -0.555570 0.000000
vn 0.831470 -0.555570 0.000000
vn 0.923880 -0.382683 0.000000
vn 0.923880 -0.382683 0.000000
vn 0.980785 -0.195090 0.000000
vn 0.980785 -0.195090 0.000000
vn 0.000000 0.000000 1.000000
vn 0.000000 0.000000 1.000000
vn 0.000000 0.000000 1.000000
vn 0.000000 0.000000 1.000000
vn 0.000000 0.000000 1.000000
vn 0.000000 0.000000 1.000000
vn 0.000000 0.000000 1.000000
vn 0.000000 0.000000 1.000000
vn 0.000000 0.000000 1.000000
vn 0.000000 0.000000 1.000000
vn 0.000000 0.000000 1.000000
vn 0.000000 0.000000 1.000000
vn 0.000000 0.000000 1.000000
vn 0.000000 0.000000 1.000000
vn 0.000000 0.000000 1.000000
vn 0.000000 0.000000 1.000000
vn 0.000000 0.000000 1.000000
vn 0.000000 0.000000 1.000000
vn 0.000000 0.000000 1.000000
vn 0.000000 0.000000 1.000000
vn 0.000000 0.000000 1.000000
vn 0.000000 0.000000 1.000000
vn 0.000000 0.000000 1.000000
vn 0.000000 0.000000 1.000000
vn 0.000000 0.000000 1.000000
vn 0.000000 0.000000 1.000000
vn 0.000000 0.000000 1.000000
vn 0.000000 0.000000 1.000000
vn 0.000000 0.000000 1.000000
vn 0.000000 0.000000 1.000000
vn 0.000000 0.000000 1.000000
vn 0.000000 0.000000 1.000000
vn 0.000000 0.000000 1.000000
vn -0.000000 -0.000000 -1.000000
vn -0.000000 -0.000000 -1.000000
vn -0.000000 -0.000000 -1.000000
vn -0.000000 -0.000000 -1.000000
vn -0.000000 -0.000000 -1.000000
vn -0.000000 -0.000000 -1.000000
vn -0.000000 -0.000000 -1.000000
vn -0.000000 -0.000000 -1.000000
vn -0.000000 -0.000000 -1.000000
vn -0.000000 -0.000000 -1.000000
vn -0.000000 -0.000000 -1.000000
vn -0.000000 -0.000000 -1.000000
vn -0.000000 -0.000000 -1.000000
vn -0.000000 -0.000000 -1.000000
vn -0.000000 -0.000000 -1.000000
vn -0.000000 -0.000000 -1.000000
vn -0.000000 -0.000000 -1.000000
vn -0.000000 -0.000000 -1.000000
vn -0.000000 -0.000000 -1.000000
vn -0.000000 -0.000000 -1.000000
vn -0.000000 -0.000000 -1.000000
vn -0.000000 -0.000000 -1.000000
vn -0.000000 -0.000000 -1.000000
vn -0.000000 -0.000000 -1.000000
vn -0.000000 -0.000000 -1.000000
vn -0.000000 -0.000000 -1.000000
vn -0.000000 -0.000000 -1.000000
vn -0.000000 -0.000000 -1.000000
vn -0.000000 -0.000000 -1.000000
vn -0.000000 -0.000000 -1.000000
vn -0.000000 -0.000000 -1.000000
vn -0.000000 -0.000000 -1.000000
vn -0.000000 -0.000000 -1.000000
vn 1.000000 0.000000 0.000000
vn 1.000000 0.000000 0.000000
vn 0.980785 0.195090 0.000000
vn 0.980785 0.195090 0.000000
vn 0.923880 0.382683 0.000000
vn 0.923880 0.382683 0.000000
vn 0.831470 0.555570 0.000000
vn 0.831470 0.555570 0.000000
vn 0.707107 0.707107 0.000000
vn 0.707107 0.707107 0.000000
vn 0.555570 0.831470 0.000000
vn 0.555570 0.831470 0.000000
vn 0.382683 0.923880 0.000000
vn 0.382683 0.923880 0.000000
vn 0.195090 0.980785 0.000000
vn 0.195090 0.980785 0.000000
vn 0.000000 1.000000 0.000000
vn 0.000000 1.000000 0.000000
vn -0.195090 0.980785 0.000000
vn -0.195090 0.980785 0.000000
vn -0.382683 0.923880 0.000000
vn -0.382683 0.923880 0.000000
vn -0.555570 0.831470 0.000000
vn -0.555570 0.831470 0.000000
vn -0.707107 0.707107 0.000000
vn -0.707107 0.707107 0.000000
vn -0.831470 0.555570 0.000000
vn -0.831470 0.555570 0.000000
vn -0.923880 0.382683 0.000000
vn -0.923880 0.382683 0.000000
vn -0.980785 0.195090 0.000000
vn -0.980785 0.195090 0.000000
vn -1.000000 0.000000 0.000000
vn -1.000000 0.000000 0.000000
vn -0.980785 -0.195090 -0.000000
vn -0.980785 -0.195090 -0.000000
vn -0.923880 -0.382683 -0.000000
vn -0.923880 -0.382683 -0.000000
vn -0.831470 -0.555570 -0.000000
vn -0.831470 -0.555570 -0.000000
vn -0.707107 -0.707107 -0.000000
vn -0.707107 -0.707107 -0.000000
vn -0.555570 -0.831470 -0.000000
vn -0.555570 -0.831470 -0.000000
vn -0.382683 -0.923880 -0.000000
vn -0.382683 -0.923880 -0.000000
vn -0.195090 -0.980785 -0.000000
vn -0.195090 -0.980785 -0.000000
vn -0.000000 -1.000000 -0.000000
vn -0.000000 -1.000000 -0.000000
vn 0.195090 -0.980785 0.000000
vn 0.195090 -0.980785 0.000000
vn 0.382683 -0.923880 0.000000
vn 0.382683 -0.923880 0.000000
vn 0.555570 -0.831470 0.000000
vn 0.555570 -0.831470 0.000000
vn 0.707107 -0.707107 0.000000
vn 0.707107 -0.707107 0.000000
vn 0.831470 -0.555570 0.000000
vn 0.831470 -0.555570 0.000000
vn 0.923880 -0.382683 0.000000
vn 0.923880 -0.382683 0.000000
vn 0.980785 -0.195090 0.000000
vn 0.980785 -0.195090 0.000000
vn 0.000000 0.000000 1.000000
vn 0.000000 0.000000 1.000000
vn 0.000000 0.000000 1.000000
vn 0.000000 0.000000 1.000000
vn 0.000000 0.000000 1.000000
vn 0.000000 0.000000 1.000000
vn 0.000000 0.000000 1.000000
vn 0.000000 0.000000 1.000000
vn 0.000000 0.000000 1.000000
vn 0.000000 0.000000 1.000000
vn 0.000000 0.000000 1.000000
vn 0.000000 0.000000 1.000000
vn 0.000000 0.000000 1.000000
vn 0.000000 0.000000 1.000000
vn 0.000000 0.000000 1.000000
vn 0.000000 0.000000 1.000000
vn 0.000000 0.000000 1.000000
vn 0.000000 0.000000 1.000000
vn 0.000000 0.000000 1.000000
vn 0.000000 0.000000 1.000000
vn 0.000000 0.000000 1.000000
vn 0.000000 0.000000 1.000000
vn 0.000000 0.000000 1.000000
vn 0.000000 0.000000 1.000000
vn 0.000000 0.000000 1.000000
vn 0.000000 0.000000 1.000000
vn 0.000000 0.000000 1.000000
vn 0.000000 0.000000 1.000000
vn 0.000000 0.000000 1.000000
vn 0.000000 0.000000 1.000000
vn 0.000000 0.000000 1.000000
vn 0.000000 0.000000 1.000000
vn 0.000000 0.000000 1.000000
vn -0.000000 -0.000000 -1.000000
vn -0.000000 -0.000000 -1.000000
vn -0.000000 -0.000000 -1.000000
vn -0.000000 -0.000000 -1.000000
vn -0.000000 -0.000000 -1.000000
vn -0.000000 -0.000000 -1.000000
vn -0.000000 -0.000000 -1.000000
vn -0.000000 -0.000000 -1.000000
vn -0.000000 -0.000000 -1.000000
vn -0.000000 -0.000000 -1.000000
vn -0.000000 -0.000000 -1.000000
vn -0.000000 -0.000000 -1.000000
vn -0.000000 -0.000000 -1.000000
vn -0.000000 -0.000000 -1.000000
vn -0.000000 -0.000000 -1.000000
vn -0.000000 -0.000000 -1.000000
vn -0.000000 -0.000000 -1.000000
vn -0.000000 -0.000000 -1.000000
vn -0.000000 -0.000000 -1.000000
vn -0.000000 -0.000000 -1.000000
vn -0.000000 -0.000000 -1.000000
vn -0.000000 -0.000000 -1.000000
vn -0.000000 -0.000000 -1.000000
vn -0.000000 -0.000000 -1.000000
vn -0.000000 -0.000000 -1.000000
vn -0.000000 -0.000000 -1.000000
vn -0.000000 -0.000000 -1.000000
vn -0.000000 -0.000000 -1.000000
vn -0.000000 -0.000000 -1.000000
vn -0.000000 -0.000000 -1.000000
vn -0.000000 -0.000000 -1.000000
vn -0.000000 -0.000000 -1.000000
vn -0.000000 -0.000000 -1.000000
f 1/1/1 3/3/3 4/4/4 2/2/2
f 3/3/3 5/5/5 6/6/6 4/4/4
f 5/5/5 7/7/7 8/8/8 6/6/6
f 7/7/7 9/9/9 10/10/10 8/8/8
f 9/9/9 11/11/11 12/12/12 10/10/10
f 11/11/11 13/13/13 14/14/14 12/12/12
f 13/13/13 15/15/15 16/16/16 14/14/14
f 15/15/15 17/17/17 18/18/18 16/16/16
f 17/17/17 19/19/19 20/20/20 18/18/18
f 19/19/19 21/21/21 22/22/22 20/20/20
f 21/21/21 23/23/23 24/24/24 22/22/22
f 23/23/23 1/1/1 2/2/2 24/24/24
f 25/25/25 26/26/26 27/27/27
f 25/25/25 27/27/27 28/28/28
f 25/25/25 28/28/28 29/29/29
f 25/25/25 29/29/29 30/30/30
f 25/25/25 30/30/30 31/31/31
f 25/25/25 31/31/31 32/32/32
f 25/25/25 32/32/32 33/33/33
f 25/25/25 33/33/33 34/34/34
f 25/25/25 34/34/34 35/35/35
f 25/25/25 35/35/35 36/36/36
f 25/25/25 36/36/36 37/37/37
f 25/25/25 37/37/37 26/26/26
f 38/38/38 40/40/40 39/39/39
f 38/38/38 41/41/41 40/40/40
f 38/38/38 42/42/42 41/41/41
f 38/38/38 43/43/43 42/42/42
f 38/38/38 44/44/44 43/43/43
f 38/38/38 45/45/45 44/44/44
f 38/38/38 46/46/46 45/45/45
f 38/38/38 47/47/47 46/46/46
f 38/38/38 48/48/48 47/47/47
f 38/38/38 49/49/49 48/48/48
f 38/38/38 50/50/50 49/49/49
f 38/38/38 39/39/39 50/50/50
f 51/51/51 53/53/53 54/54/54 52/52/52
f 53/53/53 55/55/55 56/56/56 54/54/54
f 55/55/55 57/57/57 58/58/58 56/56/56
f 57/57/57 59/59/59 60/60/60 58/58/58
f 59/59/59 61/61/61 62/62/62 60/60/60
f 61/61/61 63/63/63 64/64/64 62/62/62
f 63/63/63 65/65/65 66/66/66 64/64/64
f 65/65/65 67/67/67 68/68/68 66/66/66
f 67/67/67 69/69/69 70/70/70 68/68/68
f 69/69/69 71/71/71 72/72/72 70/70/70
f 71/71/71 73/73/73 74/74/74 72/72/72
f 73/73/73 75/75/75 76/76/76 74/74/74
f 75/75/75 77/77/77 78/78/78 76/76/76
f 77/77/77 79/79/79 80/80/80 78/78/78
f 79/79/79 81/81/81 82/82/82 80/80/80
f 81/81/81 83/83/83 84/84/84 82/82/82
f 83/83/83 85/85/85 86/86/86 84/84/84
f 85/85/85 87/87/87 88/88/88 86/86/86
f 87/87/87 89/89/89 90/90/90 88/88/88
f 89/89/89 91/91/91 92/92/92 90/90/90
f 91/91/91 93/93/93 94/94/94 92/92/92
f 93/93/93 95/95/95 96/96/96 94/94/94
f 95/95/95 97/97/97 98/98/98 96/96/96
f 97/97/97 99/99/99 100/100/100 98/98/98
f 99/99/99 101/101/101 102/102/102 100/100/100
f 101/101/101 103/103/103 104/104/104 102/102/102
f 103/103/103 105/105/105 106/106/106 104/104/104
f 105/105/105 107/107/107 108/108/108 106/106/106
f 107/107/107 109/109/109 110/110/110 108/108/108
f 109/109/109 111/111/111 112/112/112 110/110/110
f 111/111/111 113/113/113 114/114/114 112/112/112
f 113/113/113 51/51/51 52/52/52 114/114/114
f 115/115/115 116/116/116 117/117/117
f 115/115/115 117/117/117 118/118/118
f 115/115/115 118/118/118 119/119/119
f 115/115/115 119/119/119 120/120/120
f 115/115/115 120/120/120 121/121/121
f 115/115/115 121/121/121 122/122/122
f 115/115/115 122/122/122 123/123/123
f 115/115/115 123/123/123 124/124/124
f 115/115/115 124/124/124 125/125/125
f 115/115/115 125/125/125 126/126/126
f 115/115/115 126/126/126 127/127/127
f 115/115/115 127/127/127 128/128/128
f 115/115/115 128/128/128 129/129/129
f 115/115/115 129/129/129 130/130/130
f 115/115/115 130/130/130 131/131/131
f 115/115/115 131/131/131 132/132/132
f 115/115/115 132/132/132 133/133/133
f 115/115/115 133/133/133 134/134/134
f 115/115/115 134/134/134 135/135/135
f 115/115/115 135/135/135 136/136/136
f 115/115/115 136/136/136 137/137/137
f 115/115/115 137/137/137 138/138/138
f 115/115/115 138/138/138 139/139/139
f 115/115/115 139/139/139 140/140/140
f 115/115/115 140/140/140 141/141/141
f 115/115/115 141/141/141 142/142/142
f 115/115/115 142/142/142 143/143/143
f 115/115/115 143/143/143 144/144/144
f 115/115/115 144/144/144 145/145/145
f 115/115/115 145/145/145 146/146/146
f 115/115/115 146/146/146 147/147/147
f 115/115/115 147/147/147 116/116/116
f 148/148/148 150/150/150 149/149/149
f 148/148/148 151/151/151 150/150/150
f 148/148/148 152/152/152 151/151/151
f 148/148/148 153/153/153 152/152/152
f 148/148/148 154/154/154 153/153/153
f 148/148/148 155/155/155 154/154/154
f 148/148/148 156/156/156 155/155/155
f 148/148/148 157/157/157 156/156/156
f 148/148/148 158/158/158 157/157/157
f 148/148/148 159/159/159 158/158/158
f 148/148/148 160/160/160 159/159/159
f 148/148/148 161/161/161 160/160/160
f 148/148/148 162/162/162 161/161/161
f 148/148/148 163/163/163 162/162/162
f 148/148/148 164/164/164 163/163/163
f 148/148/148 165/165/165 164/164/164
f 148/148/148 166/166/166 165/165/165
f 148/148/148 167/167/167 166/166/166
f 148/148/148 168/168/168 167/167/167
f 148/148/148 169/169/169 168/168/168
f 148/148/148 170/170/170 169/169/169
f 148/148/148 171/171/171 170/170/170
f 148/148/148 172/172/172 171/171/171
f 148/148/148 173/173/173 172/172/172
f 148/148/148 174/174/174 173/173/173
f 148/148/148 175/175/175 174/174/174
f 148/148/148 176/176/176 175/175/175
f 148/148/148 177/177/177 176/176/176
f 148/148/148 178/178/178 177/177/177
f 148/148/148 179/179/179 178/178/178
f 148/148/148 180/180/180 179/179/179
f 148/148/148 149/149/149 180/180/180
f 181/181/181 183/183/183 184/184/184 182/182/182
f 183/183/183 185/185/185 186/186/186 184/184/184
f 185/185/185 187/187/187 188/188/188 186/186/186
f 187/187/187 189/189/189 190/190/190 188/188/188
f 189/189/189 191/191/191 192/192/192 190/190/190
f 191/191/191 193/193/193 194/194/194 192/192/192
f 193/193/193 195/195/195 196/196/196 194/194/194
f 195/195/195 197/197/197 198/198/198 196/196/196
f 197/197/197 199/199/199 200/200/200 198/198/198
f 199/199/199 201/201/201 202/202/202 200/200/200
f 201/201/201 203/203/203 204/204/204 202/202/202
f 203/203/203 205/205/205 206/206/206 204/204/204
f 205/205/205 207/207/207 208/208/208 206/206/206
f 207/207/207 209/209/209 210/210/210 208/208/208
f 209/209/209 211/211/211 212/212/212 210/210/210
f 211/211/211 213/213/213 214/214/214 212/212/212
f 213/213/213 215/215/215 216/216/216 214/214/214
f 215/215/215 217/217/217 218/218/218 216/216/216
f 217/217/217 219/219/219 220/220/220 218/218/218
f 219/219/219 221/221/221 222/222/222 220/220/220
f 221/221/221 223/223/223 224/224/224 222/222/222
f 223/223/223 225/225/225 226/226/226 224/224/224
f 225/225/225 227/227/227 228/228/228 226/226/226
f 227/227/227 229/229/229 230/230/230 228/228/228
f 229/229/229 231/231/231 232/232/232 230/230/230
f 231/231/231 233/233/233 234/234/234 232/232/232
f 233/233/233 235/235/235 236/236/236 234/234/234
f 235/235/235 237/237/237 238/238/238 236/236/236
f 237/237/237 239/239/239 240/240/240 238/238/238
f 239/239/239 241/241/241 242/242/242 240/240/240
f 241/241/241 243/243/243 244/244/244 242/242/242
f 243/243/243 181/181/181 182/182/182 244/244/244
f 245/245/245 246/246/246 247/247/247
f 245/245/245 247/247/247 248/248/248
f 245/245/245 248/248/248 249/249/249
f 245/245/245 249/249/249 250/250/250
f 245/245/245 250/250/250 251/251/251
f 245/245/245 251/251/251 252/252/252
f 245/245/245 252/252/252 253/253/253
f 245/245/245 253/253/253 254/254/254
f 245/245/245 254/254/254 255/255/255
f 245/245/245 255/255/255 256/256/256
f 245/245/245 256/256/256 257/257/257
f 245/245/245 257/257/257 258/258/258
f 245/245/245 258/258/258 259/259/259
f 245/245/245 259/259/259 260/260/260
f 245/245/245 260/260/260 261/261/261
f 245/245/245 261/261/261 262/262/262
f 245/245/245 262/262/262 263/263/263
f 245/245/245 263/263/263 264/264/264
f 245/245/245 264/264/264 265/265/265
f 245/245/245 265/265/265 266/266/266
f 245/245/245 266/266/266 267/267/267
f 245/245/245 267/267/267 268/268/268
f 245/245/245 268/268/268 269/269/269
f 245/245/245 269/269/269 270/270/270
f 245/245/245 270/270/270 271/271/271
f 245/245/245 271/271/271 272/272/272
f 245/245/245 272/272/272 273/273/273
f 245/245/245 273/273/273 274/274/274
f 245/245/245 274/274/274 275/275/275
f 245/245/245 275/275/275 276/276/276
f 245/245/245 276/276/276 277/277/277
f 245/245/245 277/277/277 246/246/246
f 278/278/278 280/280/280 279/279/279
f 278/278/278 281/281/281 280/280/280
f 278/278/278 282/282/282 281/281/281
f 278/278/278 283/283/283 282/282/282
f 278/278/278 284/284/284 283/283/283
f 278/278/278 285/285/285 284/284/284
f 278/278/278 286/286/286 285/285/285
f 278/278/278 287/287/287 286/286/286
f 278/278/278 288/288/288 287/287/287
f 278/278/278 289/289/289 288/288/288
f 278/278/278 290/290/290 289/289/289
f 278/278/278 291/291/291 290/290/290
f 278/278/278 292/292/292 291/291/291
f 278/278/278 293/293/293 292/292/292
f 278/278/278 294/294/294 293/293/293
f 278/278/278 295/295/295 294/294/294
f 278/278/278 296/296/296 295/295/295
f 278/278/278 297/297/297 296/296/296
f 278/278/278 298/298/298 297/297/297
f 278/278/278 299/299/299 298/298/298
f 278/278/278 300/300/300 299/299/299
f 278/278/278 301/301/301 300/300/300
f 278/278/278 302/302/302 301/301/301
f 278/278/278 303/303/303 302/302/302
f 278/278/278 304/304/304 303/303/303
f 278/278/278 305/305/305 304/304/304
f 278/278/278 306/306/306 305/305/305
f 278/278/278 307/307/307 306/306/306
f 278/278/278 308/308/308 307/307/307
f 278/278/278 309/309/309 308/308/308
f 278/278/278 310/310/310 309/309/309
f 278/278/278 279/279/279 310/310/310
f 311/311/311 313/313/313 314/314/314 312/312/312
f 313/313/313 315/315/315 316/316/316 314/314/314
f 315/315/315 317/317/317 318/318/318 316/316/316
f 317/317/317 319/319/319 320/320/320 318/318/318
f 319/319/319 321/321/321 322/322/322 320/320/320
f 321/321/321 323/323/323 324/324/324 322/322/322
f 323/323/323 325/325/325 326/326/326 324/324/324
f 325/325/325 327/327/327 328/328/328 326/326/326
f 327/327/327 329/329/329 330/330/330 328/328/328
f 329/329/329 331/331/331 332/332/332 330/330/330
f 331/331/331 333/333/333 334/334/334 332/332/332
f 333/333/333 335/335/335 336/336/336 334/334/334
f 335/335/335 337/337/337 338/338/338 336/336/336
f 337/337/337 339/339/339 340/340/340 338/338/338
f 339/339/339 341/341/341 342/342/342 340/340/340
f 341/341/341 343/343/343 344/344/344 342/342/342
f 343/343/343 345/345/345 346/346/346 344/344/344
f 345/345/345 347/347/347 348/348/348 346/346/346
f 347/347/347 349/349/349 350/350/350 348/348/348
f 349/349/349 351/351/351 352/352/352 350/350/350
f 351/351/351 353/353/353 354/354/354 352/352/352
f 353/353/353 355/355/355 356/356/356 354/354/354
f 355/355/355 357/357/357 358/358/358 356/356/356
f 357/357/357 359/359/359 360/360/360 358/358/358
f 359/359/359 361/361/361 362/362/362 360/360/360
f 361/361/361 363/363/363 364/364/364 362/362/362
f 363/363/363 365/365/365 366/366/366 364/364/364
f 365/365/365 367/367/367 368/368/368 366/366/366
f 367/367/367 369/369/369 370/370/370 368/368/368
f 369/369/369 371/371/371 372/372/372 370/370/370
f 371/371/371 373/373/373 374/374/374 372/372/372
f 373/373/373 311/311/311 312/312/312 374/374/374
f 375/375/375 376/376/376 377/377/377
f 375/375/375 377/377/377 378/378/378
f 375/375/375 378/378/378 379/379/379
f 375/375/375 379/379/379 380/380/380
f 375/375/375 380/380/380 381/381/381
f 375/375/375 381/381/381 382/382/382
f 375/375/375 382/382/382 383/383/383
f 375/375/375 383/383/383 384/384/384
f 375/375/375 384/384/384 385/385/385
f 375/375/375 385/385/385 386/386/386
f 375/375/375 386/386/386 387/387/387
f 375/375/375 387/387/387 388/388/388
f 375/375/375 388/388/388 389/389/389
f 375/375/375 389/389/389 390/390/390
f 375/375/375 390/390/390 391/391/391
f 375/375/375 391/391/391 392/392/392
f 375/375/375 392/392/392 393/393/393
f 375/375/375 393/393/393 394/394/394
f 375/375/375 394/394/394 395/395/395
f 375/375/375 395/395/395 396/396/396
f 375/375/375 396/396/396 397/397/397
f 375/375/375 397/397/397 398/398/398
f 375/375/375 398/398/398 399/399/399
f 375/375/375 399/399/399 400/400/400
f 375/375/375 400/400/400 401/401/401
f 375/375/375 401/401/401 402/402/402
f 375/375/375 402/402/402 403/403/403
f 375/375/375 403/403/403 404/404/404
f 375/375/375 404/404/404 405/405/405
f 375/375/375 405/405/405 406/406/406
f 375/375/375 406/406/406 407/407/407
f 375/375/375 407/407/407 376/376/376
f 408/408/408 410/410/410 409/409/409
f 408/408/408 411/411/411 410/410/410
f 408/408/408 412/412/412 411/411/411
f 408/408/408 413/413/413 412/412/412
f 408/408/408 414/414/414 413/413/413
f 408/408/408 415/415/415 414/414/414
f 408/408/408 416/416/416 415/415/415
f 408/408/408 417/417/417 416/416/416
f 408/408/408 418/418/418 417/417/417
f 408/408/408 419/419/419 418/418/418
f 408/408/408 420/420/420 419/419/419
f 408/408/408 421/421/421 420/420/420
f 408/408/408 422/422/422 421/421/421
f 408/408/408 423/423/423 422/422/422
f 408/408/408 424/424/424 423/423/423
f 408/408/408 425/425/425 424/424/424
f 408/408/408 426/426/426 425/425/425
f 408/408/408 427/427/427 426/426/426
f 408/408/408 428/428/428 427/427/427
f 408/408/408 429/429/429 428/428/428
f 408/408/408 430/430/430 429/429/429
f 408/408/408 431/431/431 430/430/430
f 408/408/408 432/432/432 431/431/431
f 408/408/408 433/433/433 432/432/432
f 408/408/408 434/434/434 433/433/433
f 408/408/408 435/435/435 434/434/434
f 408/408/408 436/436/436 435/435/435
f 408/408/408 437/437/437 436/436/436
f 408/408/408 438/438/438 437/437/437
f 408/408/408 439/439/439 438/438/438
f 408/408/408 440/440/440 439/439/439
f 408/408/408 409/409/409 440/440/440
f 441/441/441 443/443/443 444/444/444 442/442/442
f 443/443/443 445/445/445 446/446/446 444/444/444
f 445/445/445 447/447/447 448/448/448 446/446/446
f 447/447/447 449/449/449 450/450/450 448/448/448
f 449/449/449 451/451/451 452/452/452 450/450/450
f 451/451/451 453/453/453 454/454/454 452/452/452
f 453/453/453 455/455/455 456/456/456 454/454/454
f 455/455/455 457/457/457 458/458/458 456/456/456
f 457/457/457 459/459/459 460/460/460 458/458/458
f 459/459/459 461/461/461 462/462/462 460/460/460
f 461/461/461 463/463/463 464/464/464 462/462/462
f 463/463/463 465/465/465 466/466/466 464/464/464
f 465/465/465 467/467/467 468/468/468 466/466/466
f 467/467/467 469/469/469 470/470/470 468/468/468
f 469/469/469 471/471/471 472/472/472 470/470/470
f 471/471/471 473/473/473 474/474/474 472/472/472
f 473/473/473 475/475/475 476/476/476 474/474/474
f 475/475/475 477/477/477 478/478/478 476/476/476
f 477/477/477 479/479/479 480/480/480 478/478/478
f 479/479/479 481/481/481 482/482/482 480/480/480
f 481/481/481 483/483/483 484/484/484 482/482/482
f 483/483/483 485/485/485 486/486/486 484/484/484
f 485/485/485 487/487/487 488/488/488 486/486/486
f 487/487/487 489/489/489 490/490/490 488/488/488
f 489/489/489 491/491/491 492/492/492 490/490/490
f 491/491/491 493/493/493 494/494/494 492/492/492
f 493/493/493 495/495/495 496/496/496 494/494/494
f 495/495/495 497/497/497 498/498/498 496/496/496
f 497/497/497 499/499/499 500/500/500 498/498/498
f 499/499/499 501/501/501 502/502/502 500/500/500
f 501/501/501 503/503/503 504/504/504 502/502/502
f 503/503/503 441/441/441 442/442/442 504/504/504
f 505/505/505 506/506/506 507/507/507
f 505/505/505 507/507/507 508/508/508
f 505/505/505 508/508/508 509/509/509
f 505/505/505 509/509/509 510/510/510
f 505/505/505 510/510/510 511/511/511
f 505/505/505 511/511/511 512/512/512
f 505/505/505 512/512/512 513/513/513
f 505/505/505 513/513/513 514/514/514
f 505/505/505 514/514/514 515/515/515
f 505/505/505 515/515/515 516/516/516
f 505/505/505 516/516/516 517/517/517
f 505/505/505 517/517/517 518/518/518
f 505/505/505 518/518/518 519/519/519
f 505/505/505 519/519/519 520/520/520
f 505/505/505 520/520/520 521/521/521
f 505/505/505 521/521/521 522/522/522
f 505/505/505 522/522/522 523/523/523
f 505/505/505 523/523/523 524/524/524
f 505/505/505 524/524/524 525/525/525
f 505/505/505 525/525/525 526/526/526
f 505/505/505 526/526/526 527/527/527
f 505/505/505 527/527/527 528/528/528
f 505/505/505 528/528/528 529/529/529
f 505/505/505 529/529/529 530/530/530
f 505/505/505 530/530/530 531/531/531
f 505/505/505 531/531/531 532/532/532
f 505/505/505 532/532/532 533/533/533
f 505/505/505 533/533/533 534/534/534
f 505/505/505 534/534/534 535/535/535
f 505/505/505 535/535/535 536/536/536
f 505/505/505 536/536/536 537/537/537
f 505/505/505 537/537/537 506/506/506
f 538/538/538 540/540/540 539/539/539
f 538/538/538 541/541/541 540/540/540
f 538/538/538 542/542/542 541/541/541
f 538/538/538 543/543/543 542/542/542
f 538/538/538 544/544/544 543/543/543
f 538/538/538 545/545/545 544/544/544
f 538/538/538 546/546/546 545/545/545
f 538/538/538 547/547/547 546/546/546
f 538/538/538 548/548/548 547/547/547
f 538/538/538 549/549/549 548/548/548
f 538/538/538 550/550/550 549/549/549
f 538/538/538 551/551/551 550/550/550
f 538/538/538 552/552/552 551/551/551
f 538/538/538 553/553/553 552/552/552
f 538/538/538 554/554/554 553/553/553
f 538/538/538 555/555/555 554/554/554
f 538/538/538 556/556/556 555/555/555
f 538/538/538 557/557/557 556/556/556
f 538/538/538 558/558/558 557/557/557
f 538/538/538 559/559/559 558/558/558
f 538/538/538 560/560/560 559/559/559
f 538/538/538 561/561/561 560/560/560
f 538/538/538 562/562/562 561/561/561
f 538/538/538 563/563/563 562/562/562
f 538/538/538 564/564/564 563/563/563
f 538/538/538 565/565/565 564/564/564
f 538/538/538 566/566/566 565/565/565
f 538/538/538 567/567/567 566/566/566
f 538/538/538 568/568/568 567/567/567
f 538/538/538 569/569/569 568/568/568
f 538/538/538 570/570/570 569/569/569
f 538/538/538 539/539/539 570/570/570
