# High-Detail Industrial 3D Asset: pressure_gauge_hd.obj
v 0.045000 0.000000 0.015000
v 0.045000 0.000000 -0.015000
v 0.043467 0.011647 0.015000
v 0.043467 0.011647 -0.015000
v 0.038971 0.022500 0.015000
v 0.038971 0.022500 -0.015000
v 0.031820 0.031820 0.015000
v 0.031820 0.031820 -0.015000
v 0.022500 0.038971 0.015000
v 0.022500 0.038971 -0.015000
v 0.011647 0.043467 0.015000
v 0.011647 0.043467 -0.015000
v 0.000000 0.045000 0.015000
v 0.000000 0.045000 -0.015000
v -0.011647 0.043467 0.015000
v -0.011647 0.043467 -0.015000
v -0.022500 0.038971 0.015000
v -0.022500 0.038971 -0.015000
v -0.031820 0.031820 0.015000
v -0.031820 0.031820 -0.015000
v -0.038971 0.022500 0.015000
v -0.038971 0.022500 -0.015000
v -0.043467 0.011647 0.015000
v -0.043467 0.011647 -0.015000
v -0.045000 0.000000 0.015000
v -0.045000 0.000000 -0.015000
v -0.043467 -0.011647 0.015000
v -0.043467 -0.011647 -0.015000
v -0.038971 -0.022500 0.015000
v -0.038971 -0.022500 -0.015000
v -0.031820 -0.031820 0.015000
v -0.031820 -0.031820 -0.015000
v -0.022500 -0.038971 0.015000
v -0.022500 -0.038971 -0.015000
v -0.011647 -0.043467 0.015000
v -0.011647 -0.043467 -0.015000
v -0.000000 -0.045000 0.015000
v -0.000000 -0.045000 -0.015000
v 0.011647 -0.043467 0.015000
v 0.011647 -0.043467 -0.015000
v 0.022500 -0.038971 0.015000
v 0.022500 -0.038971 -0.015000
v 0.031820 -0.031820 0.015000
v 0.031820 -0.031820 -0.015000
v 0.038971 -0.022500 0.015000
v 0.038971 -0.022500 -0.015000
v 0.043467 -0.011647 0.015000
v 0.043467 -0.011647 -0.015000
v 0.000000 0.000000 0.015000
v 0.000000 0.000000 -0.015000
v 0.045000 0.000000 0.015000
v 0.045000 0.000000 -0.015000
v 0.043467 0.011647 0.015000
v 0.043467 0.011647 -0.015000
v 0.038971 0.022500 0.015000
v 0.038971 0.022500 -0.015000
v 0.031820 0.031820 0.015000
v 0.031820 0.031820 -0.015000
v 0.022500 0.038971 0.015000
v 0.022500 0.038971 -0.015000
v 0.011647 0.043467 0.015000
v 0.011647 0.043467 -0.015000
v 0.000000 0.045000 0.015000
v 0.000000 0.045000 -0.015000
v -0.011647 0.043467 0.015000
v -0.011647 0.043467 -0.015000
v -0.022500 0.038971 0.015000
v -0.022500 0.038971 -0.015000
v -0.031820 0.031820 0.015000
v -0.031820 0.031820 -0.015000
v -0.038971 0.022500 0.015000
v -0.038971 0.022500 -0.015000
v -0.043467 0.011647 0.015000
v -0.043467 0.011647 -0.015000
v -0.045000 0.000000 0.015000
v -0.045000 0.000000 -0.015000
v -0.043467 -0.011647 0.015000
v -0.043467 -0.011647 -0.015000
v -0.038971 -0.022500 0.015000
v -0.038971 -0.022500 -0.015000
v -0.031820 -0.031820 0.015000
v -0.031820 -0.031820 -0.015000
v -0.022500 -0.038971 0.015000
v -0.022500 -0.038971 -0.015000
v -0.011647 -0.043467 0.015000
v -0.011647 -0.043467 -0.015000
v -0.000000 -0.045000 0.015000
v -0.000000 -0.045000 -0.015000
v 0.011647 -0.043467 0.015000
v 0.011647 -0.043467 -0.015000
v 0.022500 -0.038971 0.015000
v 0.022500 -0.038971 -0.015000
v 0.031820 -0.031820 0.015000
v 0.031820 -0.031820 -0.015000
v 0.038971 -0.022500 0.015000
v 0.038971 -0.022500 -0.015000
v 0.043467 -0.011647 0.015000
v 0.043467 -0.011647 -0.015000
v 0.051000 0.000000 0.015000
v 0.050045 0.002939 0.015000
v 0.047545 0.004755 0.015000
v 0.044455 0.004755 0.015000
v 0.041955 0.002939 0.015000
v 0.041000 0.000000 0.015000
v 0.041955 -0.002939 0.015000
v 0.044455 -0.004755 0.015000
v 0.047545 -0.004755 0.015000
v 0.050045 -0.002939 0.015000
v 0.049262 0.000000 0.028200
v 0.048340 0.002939 0.027953
v 0.045925 0.004755 0.027306
v 0.042940 0.004755 0.026506
v 0.040525 0.002939 0.025859
v 0.039603 0.000000 0.025612
v 0.040525 -0.002939 0.025859
v 0.042940 -0.004755 0.026506
v 0.045925 -0.004755 0.027306
v 0.048340 -0.002939 0.027953
v 0.044167 0.000000 0.040500
v 0.043340 0.002939 0.040023
v 0.041175 0.004755 0.038773
v 0.038499 0.004755 0.037227
v 0.036334 0.002939 0.035977
v 0.035507 0.000000 0.035500
v 0.036334 -0.002939 0.035977
v 0.038499 -0.004755 0.037227
v 0.041175 -0.004755 0.038773
v 0.043340 -0.002939 0.040023
v 0.036062 0.000000 0.051062
v 0.035387 0.002939 0.050387
v 0.033619 0.004755 0.048619
v 0.031434 0.004755 0.046434
v 0.029667 0.002939 0.044667
v 0.028991 0.000000 0.043991
v 0.029667 -0.002939 0.044667
v 0.031434 -0.004755 0.046434
v 0.033619 -0.004755 0.048619
v 0.035387 -0.002939 0.050387
v 0.025500 0.000000 0.059167
v 0.025023 0.002939 0.058340
v 0.023773 0.004755 0.056175
v 0.022227 0.004755 0.053499
v 0.020977 0.002939 0.051334
v 0.020500 0.000000 0.050507
v 0.020977 -0.002939 0.051334
v 0.022227 -0.004755 0.053499
v 0.023773 -0.004755 0.056175
v 0.025023 -0.002939 0.058340
v 0.013200 0.000000 0.064262
v 0.012953 0.002939 0.063340
v 0.012306 0.004755 0.060925
v 0.011506 0.004755 0.057940
v 0.010859 0.002939 0.055525
v 0.010612 0.000000 0.054603
v 0.010859 -0.002939 0.055525
v 0.011506 -0.004755 0.057940
v 0.012306 -0.004755 0.060925
v 0.012953 -0.002939 0.063340
v 0.000000 0.000000 0.066000
v 0.000000 0.002939 0.065045
v 0.000000 0.004755 0.062545
v 0.000000 0.004755 0.059455
v 0.000000 0.002939 0.056955
v 0.000000 0.000000 0.056000
v 0.000000 -0.002939 0.056955
v 0.000000 -0.004755 0.059455
v 0.000000 -0.004755 0.062545
v 0.000000 -0.002939 0.065045
v -0.013200 0.000000 0.064262
v -0.012953 0.002939 0.063340
v -0.012306 0.004755 0.060925
v -0.011506 0.004755 0.057940
v -0.010859 0.002939 0.055525
v -0.010612 0.000000 0.054603
v -0.010859 -0.002939 0.055525
v -0.011506 -0.004755 0.057940
v -0.012306 -0.004755 0.060925
v -0.012953 -0.002939 0.063340
v -0.025500 0.000000 0.059167
v -0.025023 0.002939 0.058340
v -0.023773 0.004755 0.056175
v -0.022227 0.004755 0.053499
v -0.020977 0.002939 0.051334
v -0.020500 0.000000 0.050507
v -0.020977 -0.002939 0.051334
v -0.022227 -0.004755 0.053499
v -0.023773 -0.004755 0.056175
v -0.025023 -0.002939 0.058340
v -0.036062 0.000000 0.051062
v -0.035387 0.002939 0.050387
v -0.033619 0.004755 0.048619
v -0.031434 0.004755 0.046434
v -0.029667 0.002939 0.044667
v -0.028991 0.000000 0.043991
v -0.029667 -0.002939 0.044667
v -0.031434 -0.004755 0.046434
v -0.033619 -0.004755 0.048619
v -0.035387 -0.002939 0.050387
v -0.044167 0.000000 0.040500
v -0.043340 0.002939 0.040023
v -0.041175 0.004755 0.038773
v -0.038499 0.004755 0.037227
v -0.036334 0.002939 0.035977
v -0.035507 0.000000 0.035500
v -0.036334 -0.002939 0.035977
v -0.038499 -0.004755 0.037227
v -0.041175 -0.004755 0.038773
v -0.043340 -0.002939 0.040023
v -0.049262 0.000000 0.028200
v -0.048340 0.002939 0.027953
v -0.045925 0.004755 0.027306
v -0.042940 0.004755 0.026506
v -0.040525 0.002939 0.025859
v -0.039603 0.000000 0.025612
v -0.040525 -0.002939 0.025859
v -0.042940 -0.004755 0.026506
v -0.045925 -0.004755 0.027306
v -0.048340 -0.002939 0.027953
v -0.051000 0.000000 0.015000
v -0.050045 0.002939 0.015000
v -0.047545 0.004755 0.015000
v -0.044455 0.004755 0.015000
v -0.041955 0.002939 0.015000
v -0.041000 0.000000 0.015000
v -0.041955 -0.002939 0.015000
v -0.044455 -0.004755 0.015000
v -0.047545 -0.004755 0.015000
v -0.050045 -0.002939 0.015000
v -0.049262 0.000000 0.001800
v -0.048340 0.002939 0.002047
v -0.045925 0.004755 0.002694
v -0.042940 0.004755 0.003494
v -0.040525 0.002939 0.004141
v -0.039603 0.000000 0.004388
v -0.040525 -0.002939 0.004141
v -0.042940 -0.004755 0.003494
v -0.045925 -0.004755 0.002694
v -0.048340 -0.002939 0.002047
v -0.044167 0.000000 -0.010500
v -0.043340 0.002939 -0.010023
v -0.041175 0.004755 -0.008773
v -0.038499 0.004755 -0.007227
v -0.036334 0.002939 -0.005977
v -0.035507 0.000000 -0.005500
v -0.036334 -0.002939 -0.005977
v -0.038499 -0.004755 -0.007227
v -0.041175 -0.004755 -0.008773
v -0.043340 -0.002939 -0.010023
v -0.036062 0.000000 -0.021062
v -0.035387 0.002939 -0.020387
v -0.033619 0.004755 -0.018619
v -0.031434 0.004755 -0.016434
v -0.029667 0.002939 -0.014667
v -0.028991 0.000000 -0.013991
v -0.029667 -0.002939 -0.014667
v -0.031434 -0.004755 -0.016434
v -0.033619 -0.004755 -0.018619
v -0.035387 -0.002939 -0.020387
v -0.025500 0.000000 -0.029167
v -0.025023 0.002939 -0.028340
v -0.023773 0.004755 -0.026175
v -0.022227 0.004755 -0.023499
v -0.020977 0.002939 -0.021334
v -0.020500 0.000000 -0.020507
v -0.020977 -0.002939 -0.021334
v -0.022227 -0.004755 -0.023499
v -0.023773 -0.004755 -0.026175
v -0.025023 -0.002939 -0.028340
v -0.013200 0.000000 -0.034262
v -0.012953 0.002939 -0.033340
v -0.012306 0.004755 -0.030925
v -0.011506 0.004755 -0.027940
v -0.010859 0.002939 -0.025525
v -0.010612 0.000000 -0.024603
v -0.010859 -0.002939 -0.025525
v -0.011506 -0.004755 -0.027940
v -0.012306 -0.004755 -0.030925
v -0.012953 -0.002939 -0.033340
v -0.000000 0.000000 -0.036000
v -0.000000 0.002939 -0.035045
v -0.000000 0.004755 -0.032545
v -0.000000 0.004755 -0.029455
v -0.000000 0.002939 -0.026955
v -0.000000 0.000000 -0.026000
v -0.000000 -0.002939 -0.026955
v -0.000000 -0.004755 -0.029455
v -0.000000 -0.004755 -0.032545
v -0.000000 -0.002939 -0.035045
v 0.013200 0.000000 -0.034262
v 0.012953 0.002939 -0.033340
v 0.012306 0.004755 -0.030925
v 0.011506 0.004755 -0.027940
v 0.010859 0.002939 -0.025525
v 0.010612 0.000000 -0.024603
v 0.010859 -0.002939 -0.025525
v 0.011506 -0.004755 -0.027940
v 0.012306 -0.004755 -0.030925
v 0.012953 -0.002939 -0.033340
v 0.025500 0.000000 -0.029167
v 0.025023 0.002939 -0.028340
v 0.023773 0.004755 -0.026175
v 0.022227 0.004755 -0.023499
v 0.020977 0.002939 -0.021334
v 0.020500 0.000000 -0.020507
v 0.020977 -0.002939 -0.021334
v 0.022227 -0.004755 -0.023499
v 0.023773 -0.004755 -0.026175
v 0.025023 -0.002939 -0.028340
v 0.036062 0.000000 -0.021062
v 0.035387 0.002939 -0.020387
v 0.033619 0.004755 -0.018619
v 0.031434 0.004755 -0.016434
v 0.029667 0.002939 -0.014667
v 0.028991 0.000000 -0.013991
v 0.029667 -0.002939 -0.014667
v 0.031434 -0.004755 -0.016434
v 0.033619 -0.004755 -0.018619
v 0.035387 -0.002939 -0.020387
v 0.044167 0.000000 -0.010500
v 0.043340 0.002939 -0.010023
v 0.041175 0.004755 -0.008773
v 0.038499 0.004755 -0.007227
v 0.036334 0.002939 -0.005977
v 0.035507 0.000000 -0.005500
v 0.036334 -0.002939 -0.005977
v 0.038499 -0.004755 -0.007227
v 0.041175 -0.004755 -0.008773
v 0.043340 -0.002939 -0.010023
v 0.049262 0.000000 0.001800
v 0.048340 0.002939 0.002047
v 0.045925 0.004755 0.002694
v 0.042940 0.004755 0.003494
v 0.040525 0.002939 0.004141
v 0.039603 0.000000 0.004388
v 0.040525 -0.002939 0.004141
v 0.042940 -0.004755 0.003494
v 0.045925 -0.004755 0.002694
v 0.048340 -0.002939 0.002047
v 0.042000 0.000000 0.014000
v 0.042000 0.000000 0.010000
v 0.040569 0.010870 0.014000
v 0.040569 0.010870 0.010000
v 0.036373 0.021000 0.014000
v 0.036373 0.021000 0.010000
v 0.029698 0.029698 0.014000
v 0.029698 0.029698 0.010000
v 0.021000 0.036373 0.014000
v 0.021000 0.036373 0.010000
v 0.010870 0.040569 0.014000
v 0.010870 0.040569 0.010000
v 0.000000 0.042000 0.014000
v 0.000000 0.042000 0.010000
v -0.010870 0.040569 0.014000
v -0.010870 0.040569 0.010000
v -0.021000 0.036373 0.014000
v -0.021000 0.036373 0.010000
v -0.029698 0.029698 0.014000
v -0.029698 0.029698 0.010000
v -0.036373 0.021000 0.014000
v -0.036373 0.021000 0.010000
v -0.040569 0.010870 0.014000
v -0.040569 0.010870 0.010000
v -0.042000 0.000000 0.014000
v -0.042000 0.000000 0.010000
v -0.040569 -0.010870 0.014000
v -0.040569 -0.010870 0.010000
v -0.036373 -0.021000 0.014000
v -0.036373 -0.021000 0.010000
v -0.029698 -0.029698 0.014000
v -0.029698 -0.029698 0.010000
v -0.021000 -0.036373 0.014000
v -0.021000 -0.036373 0.010000
v -0.010870 -0.040569 0.014000
v -0.010870 -0.040569 0.010000
v -0.000000 -0.042000 0.014000
v -0.000000 -0.042000 0.010000
v 0.010870 -0.040569 0.014000
v 0.010870 -0.040569 0.010000
v 0.021000 -0.036373 0.014000
v 0.021000 -0.036373 0.010000
v 0.029698 -0.029698 0.014000
v 0.029698 -0.029698 0.010000
v 0.036373 -0.021000 0.014000
v 0.036373 -0.021000 0.010000
v 0.040569 -0.010870 0.014000
v 0.040569 -0.010870 0.010000
v 0.000000 0.000000 0.014000
v 0.000000 0.000000 0.010000
v 0.042000 0.000000 0.014000
v 0.042000 0.000000 0.010000
v 0.040569 0.010870 0.014000
v 0.040569 0.010870 0.010000
v 0.036373 0.021000 0.014000
v 0.036373 0.021000 0.010000
v 0.029698 0.029698 0.014000
v 0.029698 0.029698 0.010000
v 0.021000 0.036373 0.014000
v 0.021000 0.036373 0.010000
v 0.010870 0.040569 0.014000
v 0.010870 0.040569 0.010000
v 0.000000 0.042000 0.014000
v 0.000000 0.042000 0.010000
v -0.010870 0.040569 0.014000
v -0.010870 0.040569 0.010000
v -0.021000 0.036373 0.014000
v -0.021000 0.036373 0.010000
v -0.029698 0.029698 0.014000
v -0.029698 0.029698 0.010000
v -0.036373 0.021000 0.014000
v -0.036373 0.021000 0.010000
v -0.040569 0.010870 0.014000
v -0.040569 0.010870 0.010000
v -0.042000 0.000000 0.014000
v -0.042000 0.000000 0.010000
v -0.040569 -0.010870 0.014000
v -0.040569 -0.010870 0.010000
v -0.036373 -0.021000 0.014000
v -0.036373 -0.021000 0.010000
v -0.029698 -0.029698 0.014000
v -0.029698 -0.029698 0.010000
v -0.021000 -0.036373 0.014000
v -0.021000 -0.036373 0.010000
v -0.010870 -0.040569 0.014000
v -0.010870 -0.040569 0.010000
v -0.000000 -0.042000 0.014000
v -0.000000 -0.042000 0.010000
v 0.010870 -0.040569 0.014000
v 0.010870 -0.040569 0.010000
v 0.021000 -0.036373 0.014000
v 0.021000 -0.036373 0.010000
v 0.029698 -0.029698 0.014000
v 0.029698 -0.029698 0.010000
v 0.036373 -0.021000 0.014000
v 0.036373 -0.021000 0.010000
v 0.040569 -0.010870 0.014000
v 0.040569 -0.010870 0.010000
v -0.017000 -0.003000 0.017500
v -0.013000 -0.003000 0.017500
v -0.013000 0.033000 0.017500
v -0.017000 0.033000 0.017500
v -0.013000 -0.003000 0.014500
v -0.017000 -0.003000 0.014500
v -0.017000 0.033000 0.014500
v -0.013000 0.033000 0.014500
v -0.017000 0.033000 0.017500
v -0.013000 0.033000 0.017500
v -0.013000 0.033000 0.014500
v -0.017000 0.033000 0.014500
v -0.017000 -0.003000 0.014500
v -0.013000 -0.003000 0.014500
v -0.013000 -0.003000 0.017500
v -0.017000 -0.003000 0.017500
v -0.013000 -0.003000 0.017500
v -0.013000 -0.003000 0.014500
v -0.013000 0.033000 0.014500
v -0.013000 0.033000 0.017500
v -0.017000 -0.003000 0.014500
v -0.017000 -0.003000 0.017500
v -0.017000 0.033000 0.017500
v -0.017000 0.033000 0.014500
v 0.006000 0.000000 0.019000
v 0.006000 0.000000 0.013000
v 0.005196 0.003000 0.019000
v 0.005196 0.003000 0.013000
v 0.003000 0.005196 0.019000
v 0.003000 0.005196 0.013000
v 0.000000 0.006000 0.019000
v 0.000000 0.006000 0.013000
v -0.003000 0.005196 0.019000
v -0.003000 0.005196 0.013000
v -0.005196 0.003000 0.019000
v -0.005196 0.003000 0.013000
v -0.006000 0.000000 0.019000
v -0.006000 0.000000 0.013000
v -0.005196 -0.003000 0.019000
v -0.005196 -0.003000 0.013000
v -0.003000 -0.005196 0.019000
v -0.003000 -0.005196 0.013000
v -0.000000 -0.006000 0.019000
v -0.000000 -0.006000 0.013000
v 0.003000 -0.005196 0.019000
v 0.003000 -0.005196 0.013000
v 0.005196 -0.003000 0.019000
v 0.005196 -0.003000 0.013000
v 0.000000 0.000000 0.019000
v 0.000000 0.000000 0.013000
v 0.006000 0.000000 0.019000
v 0.006000 0.000000 0.013000
v 0.005196 0.003000 0.019000
v 0.005196 0.003000 0.013000
v 0.003000 0.005196 0.019000
v 0.003000 0.005196 0.013000
v 0.000000 0.006000 0.019000
v 0.000000 0.006000 0.013000
v -0.003000 0.005196 0.019000
v -0.003000 0.005196 0.013000
v -0.005196 0.003000 0.019000
v -0.005196 0.003000 0.013000
v -0.006000 0.000000 0.019000
v -0.006000 0.000000 0.013000
v -0.005196 -0.003000 0.019000
v -0.005196 -0.003000 0.013000
v -0.003000 -0.005196 0.019000
v -0.003000 -0.005196 0.013000
v -0.000000 -0.006000 0.019000
v -0.000000 -0.006000 0.013000
v 0.003000 -0.005196 0.019000
v 0.003000 -0.005196 0.013000
v 0.005196 -0.003000 0.019000
v 0.005196 -0.003000 0.013000
v 0.044000 0.000000 0.019000
v 0.044000 0.000000 0.017000
v 0.042501 0.011388 0.019000
v 0.042501 0.011388 0.017000
v 0.038105 0.022000 0.019000
v 0.038105 0.022000 0.017000
v 0.031113 0.031113 0.019000
v 0.031113 0.031113 0.017000
v 0.022000 0.038105 0.019000
v 0.022000 0.038105 0.017000
v 0.011388 0.042501 0.019000
v 0.011388 0.042501 0.017000
v 0.000000 0.044000 0.019000
v 0.000000 0.044000 0.017000
v -0.011388 0.042501 0.019000
v -0.011388 0.042501 0.017000
v -0.022000 0.038105 0.019000
v -0.022000 0.038105 0.017000
v -0.031113 0.031113 0.019000
v -0.031113 0.031113 0.017000
v -0.038105 0.022000 0.019000
v -0.038105 0.022000 0.017000
v -0.042501 0.011388 0.019000
v -0.042501 0.011388 0.017000
v -0.044000 0.000000 0.019000
v -0.044000 0.000000 0.017000
v -0.042501 -0.011388 0.019000
v -0.042501 -0.011388 0.017000
v -0.038105 -0.022000 0.019000
v -0.038105 -0.022000 0.017000
v -0.031113 -0.031113 0.019000
v -0.031113 -0.031113 0.017000
v -0.022000 -0.038105 0.019000
v -0.022000 -0.038105 0.017000
v -0.011388 -0.042501 0.019000
v -0.011388 -0.042501 0.017000
v -0.000000 -0.044000 0.019000
v -0.000000 -0.044000 0.017000
v 0.011388 -0.042501 0.019000
v 0.011388 -0.042501 0.017000
v 0.022000 -0.038105 0.019000
v 0.022000 -0.038105 0.017000
v 0.031113 -0.031113 0.019000
v 0.031113 -0.031113 0.017000
v 0.038105 -0.022000 0.019000
v 0.038105 -0.022000 0.017000
v 0.042501 -0.011388 0.019000
v 0.042501 -0.011388 0.017000
v 0.000000 0.000000 0.019000
v 0.000000 0.000000 0.017000
v 0.044000 0.000000 0.019000
v 0.044000 0.000000 0.017000
v 0.042501 0.011388 0.019000
v 0.042501 0.011388 0.017000
v 0.038105 0.022000 0.019000
v 0.038105 0.022000 0.017000
v 0.031113 0.031113 0.019000
v 0.031113 0.031113 0.017000
v 0.022000 0.038105 0.019000
v 0.022000 0.038105 0.017000
v 0.011388 0.042501 0.019000
v 0.011388 0.042501 0.017000
v 0.000000 0.044000 0.019000
v 0.000000 0.044000 0.017000
v -0.011388 0.042501 0.019000
v -0.011388 0.042501 0.017000
v -0.022000 0.038105 0.019000
v -0.022000 0.038105 0.017000
v -0.031113 0.031113 0.019000
v -0.031113 0.031113 0.017000
v -0.038105 0.022000 0.019000
v -0.038105 0.022000 0.017000
v -0.042501 0.011388 0.019000
v -0.042501 0.011388 0.017000
v -0.044000 0.000000 0.019000
v -0.044000 0.000000 0.017000
v -0.042501 -0.011388 0.019000
v -0.042501 -0.011388 0.017000
v -0.038105 -0.022000 0.019000
v -0.038105 -0.022000 0.017000
v -0.031113 -0.031113 0.019000
v -0.031113 -0.031113 0.017000
v -0.022000 -0.038105 0.019000
v -0.022000 -0.038105 0.017000
v -0.011388 -0.042501 0.019000
v -0.011388 -0.042501 0.017000
v -0.000000 -0.044000 0.019000
v -0.000000 -0.044000 0.017000
v 0.011388 -0.042501 0.019000
v 0.011388 -0.042501 0.017000
v 0.022000 -0.038105 0.019000
v 0.022000 -0.038105 0.017000
v 0.031113 -0.031113 0.019000
v 0.031113 -0.031113 0.017000
v 0.038105 -0.022000 0.019000
v 0.038105 -0.022000 0.017000
v 0.042501 -0.011388 0.019000
v 0.042501 -0.011388 0.017000
v 0.009000 -0.014500 0.000000
v 0.009000 -0.049500 0.000000
v 0.008315 -0.014500 0.003444
v 0.008315 -0.049500 0.003444
v 0.006364 -0.014500 0.006364
v 0.006364 -0.049500 0.006364
v 0.003444 -0.014500 0.008315
v 0.003444 -0.049500 0.008315
v 0.000000 -0.014500 0.009000
v 0.000000 -0.049500 0.009000
v -0.003444 -0.014500 0.008315
v -0.003444 -0.049500 0.008315
v -0.006364 -0.014500 0.006364
v -0.006364 -0.049500 0.006364
v -0.008315 -0.014500 0.003444
v -0.008315 -0.049500 0.003444
v -0.009000 -0.014500 0.000000
v -0.009000 -0.049500 0.000000
v -0.008315 -0.014500 -0.003444
v -0.008315 -0.049500 -0.003444
v -0.006364 -0.014500 -0.006364
v -0.006364 -0.049500 -0.006364
v -0.003444 -0.014500 -0.008315
v -0.003444 -0.049500 -0.008315
v -0.000000 -0.014500 -0.009000
v -0.000000 -0.049500 -0.009000
v 0.003444 -0.014500 -0.008315
v 0.003444 -0.049500 -0.008315
v 0.006364 -0.014500 -0.006364
v 0.006364 -0.049500 -0.006364
v 0.008315 -0.014500 -0.003444
v 0.008315 -0.049500 -0.003444
v 0.000000 -0.014500 0.000000
v 0.000000 -0.049500 0.000000
v 0.009000 -0.014500 0.000000
v 0.009000 -0.049500 0.000000
v 0.008315 -0.014500 0.003444
v 0.008315 -0.049500 0.003444
v 0.006364 -0.014500 0.006364
v 0.006364 -0.049500 0.006364
v 0.003444 -0.014500 0.008315
v 0.003444 -0.049500 0.008315
v 0.000000 -0.014500 0.009000
v 0.000000 -0.049500 0.009000
v -0.003444 -0.014500 0.008315
v -0.003444 -0.049500 0.008315
v -0.006364 -0.014500 0.006364
v -0.006364 -0.049500 0.006364
v -0.008315 -0.014500 0.003444
v -0.008315 -0.049500 0.003444
v -0.009000 -0.014500 0.000000
v -0.009000 -0.049500 0.000000
v -0.008315 -0.014500 -0.003444
v -0.008315 -0.049500 -0.003444
v -0.006364 -0.014500 -0.006364
v -0.006364 -0.049500 -0.006364
v -0.003444 -0.014500 -0.008315
v -0.003444 -0.049500 -0.008315
v -0.000000 -0.014500 -0.009000
v -0.000000 -0.049500 -0.009000
v 0.003444 -0.014500 -0.008315
v 0.003444 -0.049500 -0.008315
v 0.006364 -0.014500 -0.006364
v 0.006364 -0.049500 -0.006364
v 0.008315 -0.014500 -0.003444
v 0.008315 -0.049500 -0.003444
v 0.013000 -0.018000 0.000000
v 0.013000 -0.032000 0.000000
v 0.006500 -0.018000 0.011258
v 0.006500 -0.032000 0.011258
v -0.006500 -0.018000 0.011258
v -0.006500 -0.032000 0.011258
v -0.013000 -0.018000 0.000000
v -0.013000 -0.032000 0.000000
v -0.006500 -0.018000 -0.011258
v -0.006500 -0.032000 -0.011258
v 0.006500 -0.018000 -0.011258
v 0.006500 -0.032000 -0.011258
v 0.000000 -0.018000 0.000000
v 0.000000 -0.032000 0.000000
v 0.013000 -0.018000 0.000000
v 0.013000 -0.032000 0.000000
v 0.006500 -0.018000 0.011258
v 0.006500 -0.032000 0.011258
v -0.006500 -0.018000 0.011258
v -0.006500 -0.032000 0.011258
v -0.013000 -0.018000 0.000000
v -0.013000 -0.032000 0.000000
v -0.006500 -0.018000 -0.011258
v -0.006500 -0.032000 -0.011258
v 0.006500 -0.018000 -0.011258
v 0.006500 -0.032000 -0.011258
vt 0.000000 1.000000
vt 0.000000 0.000000
vt 0.041667 1.000000
vt 0.041667 0.000000
vt 0.083333 1.000000
vt 0.083333 0.000000
vt 0.125000 1.000000
vt 0.125000 0.000000
vt 0.166667 1.000000
vt 0.166667 0.000000
vt 0.208333 1.000000
vt 0.208333 0.000000
vt 0.250000 1.000000
vt 0.250000 0.000000
vt 0.291667 1.000000
vt 0.291667 0.000000
vt 0.333333 1.000000
vt 0.333333 0.000000
vt 0.375000 1.000000
vt 0.375000 0.000000
vt 0.416667 1.000000
vt 0.416667 0.000000
vt 0.458333 1.000000
vt 0.458333 0.000000
vt 0.500000 1.000000
vt 0.500000 0.000000
vt 0.541667 1.000000
vt 0.541667 0.000000
vt 0.583333 1.000000
vt 0.583333 0.000000
vt 0.625000 1.000000
vt 0.625000 0.000000
vt 0.666667 1.000000
vt 0.666667 0.000000
vt 0.708333 1.000000
vt 0.708333 0.000000
vt 0.750000 1.000000
vt 0.750000 0.000000
vt 0.791667 1.000000
vt 0.791667 0.000000
vt 0.833333 1.000000
vt 0.833333 0.000000
vt 0.875000 1.000000
vt 0.875000 0.000000
vt 0.916667 1.000000
vt 0.916667 0.000000
vt 0.958333 1.000000
vt 0.958333 0.000000
vt 0.500000 0.500000
vt 0.500000 0.500000
vt 1.000000 0.500000
vt 1.000000 0.500000
vt 0.982963 0.629410
vt 0.982963 0.629410
vt 0.933013 0.750000
vt 0.933013 0.750000
vt 0.853553 0.853553
vt 0.853553 0.853553
vt 0.750000 0.933013
vt 0.750000 0.933013
vt 0.629410 0.982963
vt 0.629410 0.982963
vt 0.500000 1.000000
vt 0.500000 1.000000
vt 0.370590 0.982963
vt 0.370590 0.982963
vt 0.250000 0.933013
vt 0.250000 0.933013
vt 0.146447 0.853553
vt 0.146447 0.853553
vt 0.066987 0.750000
vt 0.066987 0.750000
vt 0.017037 0.629410
vt 0.017037 0.629410
vt 0.000000 0.500000
vt 0.000000 0.500000
vt 0.017037 0.370590
vt 0.017037 0.370590
vt 0.066987 0.250000
vt 0.066987 0.250000
vt 0.146447 0.146447
vt 0.146447 0.146447
vt 0.250000 0.066987
vt 0.250000 0.066987
vt 0.370590 0.017037
vt 0.370590 0.017037
vt 0.500000 0.000000
vt 0.500000 0.000000
vt 0.629410 0.017037
vt 0.629410 0.017037
vt 0.750000 0.066987
vt 0.750000 0.066987
vt 0.853553 0.146447
vt 0.853553 0.146447
vt 0.933013 0.250000
vt 0.933013 0.250000
vt 0.982963 0.370590
vt 0.982963 0.370590
vt 0.000000 0.000000
vt 0.000000 0.100000
vt 0.000000 0.200000
vt 0.000000 0.300000
vt 0.000000 0.400000
vt 0.000000 0.500000
vt 0.000000 0.600000
vt 0.000000 0.700000
vt 0.000000 0.800000
vt 0.000000 0.900000
vt 0.041667 0.000000
vt 0.041667 0.100000
vt 0.041667 0.200000
vt 0.041667 0.300000
vt 0.041667 0.400000
vt 0.041667 0.500000
vt 0.041667 0.600000
vt 0.041667 0.700000
vt 0.041667 0.800000
vt 0.041667 0.900000
vt 0.083333 0.000000
vt 0.083333 0.100000
vt 0.083333 0.200000
vt 0.083333 0.300000
vt 0.083333 0.400000
vt 0.083333 0.500000
vt 0.083333 0.600000
vt 0.083333 0.700000
vt 0.083333 0.800000
vt 0.083333 0.900000
vt 0.125000 0.000000
vt 0.125000 0.100000
vt 0.125000 0.200000
vt 0.125000 0.300000
vt 0.125000 0.400000
vt 0.125000 0.500000
vt 0.125000 0.600000
vt 0.125000 0.700000
vt 0.125000 0.800000
vt 0.125000 0.900000
vt 0.166667 0.000000
vt 0.166667 0.100000
vt 0.166667 0.200000
vt 0.166667 0.300000
vt 0.166667 0.400000
vt 0.166667 0.500000
vt 0.166667 0.600000
vt 0.166667 0.700000
vt 0.166667 0.800000
vt 0.166667 0.900000
vt 0.208333 0.000000
vt 0.208333 0.100000
vt 0.208333 0.200000
vt 0.208333 0.300000
vt 0.208333 0.400000
vt 0.208333 0.500000
vt 0.208333 0.600000
vt 0.208333 0.700000
vt 0.208333 0.800000
vt 0.208333 0.900000
vt 0.250000 0.000000
vt 0.250000 0.100000
vt 0.250000 0.200000
vt 0.250000 0.300000
vt 0.250000 0.400000
vt 0.250000 0.500000
vt 0.250000 0.600000
vt 0.250000 0.700000
vt 0.250000 0.800000
vt 0.250000 0.900000
vt 0.291667 0.000000
vt 0.291667 0.100000
vt 0.291667 0.200000
vt 0.291667 0.300000
vt 0.291667 0.400000
vt 0.291667 0.500000
vt 0.291667 0.600000
vt 0.291667 0.700000
vt 0.291667 0.800000
vt 0.291667 0.900000
vt 0.333333 0.000000
vt 0.333333 0.100000
vt 0.333333 0.200000
vt 0.333333 0.300000
vt 0.333333 0.400000
vt 0.333333 0.500000
vt 0.333333 0.600000
vt 0.333333 0.700000
vt 0.333333 0.800000
vt 0.333333 0.900000
vt 0.375000 0.000000
vt 0.375000 0.100000
vt 0.375000 0.200000
vt 0.375000 0.300000
vt 0.375000 0.400000
vt 0.375000 0.500000
vt 0.375000 0.600000
vt 0.375000 0.700000
vt 0.375000 0.800000
vt 0.375000 0.900000
vt 0.416667 0.000000
vt 0.416667 0.100000
vt 0.416667 0.200000
vt 0.416667 0.300000
vt 0.416667 0.400000
vt 0.416667 0.500000
vt 0.416667 0.600000
vt 0.416667 0.700000
vt 0.416667 0.800000
vt 0.416667 0.900000
vt 0.458333 0.000000
vt 0.458333 0.100000
vt 0.458333 0.200000
vt 0.458333 0.300000
vt 0.458333 0.400000
vt 0.458333 0.500000
vt 0.458333 0.600000
vt 0.458333 0.700000
vt 0.458333 0.800000
vt 0.458333 0.900000
vt 0.500000 0.000000
vt 0.500000 0.100000
vt 0.500000 0.200000
vt 0.500000 0.300000
vt 0.500000 0.400000
vt 0.500000 0.500000
vt 0.500000 0.600000
vt 0.500000 0.700000
vt 0.500000 0.800000
vt 0.500000 0.900000
vt 0.541667 0.000000
vt 0.541667 0.100000
vt 0.541667 0.200000
vt 0.541667 0.300000
vt 0.541667 0.400000
vt 0.541667 0.500000
vt 0.541667 0.600000
vt 0.541667 0.700000
vt 0.541667 0.800000
vt 0.541667 0.900000
vt 0.583333 0.000000
vt 0.583333 0.100000
vt 0.583333 0.200000
vt 0.583333 0.300000
vt 0.583333 0.400000
vt 0.583333 0.500000
vt 0.583333 0.600000
vt 0.583333 0.700000
vt 0.583333 0.800000
vt 0.583333 0.900000
vt 0.625000 0.000000
vt 0.625000 0.100000
vt 0.625000 0.200000
vt 0.625000 0.300000
vt 0.625000 0.400000
vt 0.625000 0.500000
vt 0.625000 0.600000
vt 0.625000 0.700000
vt 0.625000 0.800000
vt 0.625000 0.900000
vt 0.666667 0.000000
vt 0.666667 0.100000
vt 0.666667 0.200000
vt 0.666667 0.300000
vt 0.666667 0.400000
vt 0.666667 0.500000
vt 0.666667 0.600000
vt 0.666667 0.700000
vt 0.666667 0.800000
vt 0.666667 0.900000
vt 0.708333 0.000000
vt 0.708333 0.100000
vt 0.708333 0.200000
vt 0.708333 0.300000
vt 0.708333 0.400000
vt 0.708333 0.500000
vt 0.708333 0.600000
vt 0.708333 0.700000
vt 0.708333 0.800000
vt 0.708333 0.900000
vt 0.750000 0.000000
vt 0.750000 0.100000
vt 0.750000 0.200000
vt 0.750000 0.300000
vt 0.750000 0.400000
vt 0.750000 0.500000
vt 0.750000 0.600000
vt 0.750000 0.700000
vt 0.750000 0.800000
vt 0.750000 0.900000
vt 0.791667 0.000000
vt 0.791667 0.100000
vt 0.791667 0.200000
vt 0.791667 0.300000
vt 0.791667 0.400000
vt 0.791667 0.500000
vt 0.791667 0.600000
vt 0.791667 0.700000
vt 0.791667 0.800000
vt 0.791667 0.900000
vt 0.833333 0.000000
vt 0.833333 0.100000
vt 0.833333 0.200000
vt 0.833333 0.300000
vt 0.833333 0.400000
vt 0.833333 0.500000
vt 0.833333 0.600000
vt 0.833333 0.700000
vt 0.833333 0.800000
vt 0.833333 0.900000
vt 0.875000 0.000000
vt 0.875000 0.100000
vt 0.875000 0.200000
vt 0.875000 0.300000
vt 0.875000 0.400000
vt 0.875000 0.500000
vt 0.875000 0.600000
vt 0.875000 0.700000
vt 0.875000 0.800000
vt 0.875000 0.900000
vt 0.916667 0.000000
vt 0.916667 0.100000
vt 0.916667 0.200000
vt 0.916667 0.300000
vt 0.916667 0.400000
vt 0.916667 0.500000
vt 0.916667 0.600000
vt 0.916667 0.700000
vt 0.916667 0.800000
vt 0.916667 0.900000
vt 0.958333 0.000000
vt 0.958333 0.100000
vt 0.958333 0.200000
vt 0.958333 0.300000
vt 0.958333 0.400000
vt 0.958333 0.500000
vt 0.958333 0.600000
vt 0.958333 0.700000
vt 0.958333 0.800000
vt 0.958333 0.900000
vt 0.000000 1.000000
vt 0.000000 0.000000
vt 0.041667 1.000000
vt 0.041667 0.000000
vt 0.083333 1.000000
vt 0.083333 0.000000
vt 0.125000 1.000000
vt 0.125000 0.000000
vt 0.166667 1.000000
vt 0.166667 0.000000
vt 0.208333 1.000000
vt 0.208333 0.000000
vt 0.250000 1.000000
vt 0.250000 0.000000
vt 0.291667 1.000000
vt 0.291667 0.000000
vt 0.333333 1.000000
vt 0.333333 0.000000
vt 0.375000 1.000000
vt 0.375000 0.000000
vt 0.416667 1.000000
vt 0.416667 0.000000
vt 0.458333 1.000000
vt 0.458333 0.000000
vt 0.500000 1.000000
vt 0.500000 0.000000
vt 0.541667 1.000000
vt 0.541667 0.000000
vt 0.583333 1.000000
vt 0.583333 0.000000
vt 0.625000 1.000000
vt 0.625000 0.000000
vt 0.666667 1.000000
vt 0.666667 0.000000
vt 0.708333 1.000000
vt 0.708333 0.000000
vt 0.750000 1.000000
vt 0.750000 0.000000
vt 0.791667 1.000000
vt 0.791667 0.000000
vt 0.833333 1.000000
vt 0.833333 0.000000
vt 0.875000 1.000000
vt 0.875000 0.000000
vt 0.916667 1.000000
vt 0.916667 0.000000
vt 0.958333 1.000000
vt 0.958333 0.000000
vt 0.500000 0.500000
vt 0.500000 0.500000
vt 1.000000 0.500000
vt 1.000000 0.500000
vt 0.982963 0.629410
vt 0.982963 0.629410
vt 0.933013 0.750000
vt 0.933013 0.750000
vt 0.853553 0.853553
vt 0.853553 0.853553
vt 0.750000 0.933013
vt 0.750000 0.933013
vt 0.629410 0.982963
vt 0.629410 0.982963
vt 0.500000 1.000000
vt 0.500000 1.000000
vt 0.370590 0.982963
vt 0.370590 0.982963
vt 0.250000 0.933013
vt 0.250000 0.933013
vt 0.146447 0.853553
vt 0.146447 0.853553
vt 0.066987 0.750000
vt 0.066987 0.750000
vt 0.017037 0.629410
vt 0.017037 0.629410
vt 0.000000 0.500000
vt 0.000000 0.500000
vt 0.017037 0.370590
vt 0.017037 0.370590
vt 0.066987 0.250000
vt 0.066987 0.250000
vt 0.146447 0.146447
vt 0.146447 0.146447
vt 0.250000 0.066987
vt 0.250000 0.066987
vt 0.370590 0.017037
vt 0.370590 0.017037
vt 0.500000 0.000000
vt 0.500000 0.000000
vt 0.629410 0.017037
vt 0.629410 0.017037
vt 0.750000 0.066987
vt 0.750000 0.066987
vt 0.853553 0.146447
vt 0.853553 0.146447
vt 0.933013 0.250000
vt 0.933013 0.250000
vt 0.982963 0.370590
vt 0.982963 0.370590
vt 0.000000 0.000000
vt 1.000000 0.000000
vt 1.000000 1.000000
vt 0.000000 1.000000
vt 0.000000 0.000000
vt 1.000000 0.000000
vt 1.000000 1.000000
vt 0.000000 1.000000
vt 0.000000 0.000000
vt 1.000000 0.000000
vt 1.000000 1.000000
vt 0.000000 1.000000
vt 0.000000 0.000000
vt 1.000000 0.000000
vt 1.000000 1.000000
vt 0.000000 1.000000
vt 0.000000 0.000000
vt 1.000000 0.000000
vt 1.000000 1.000000
vt 0.000000 1.000000
vt 0.000000 0.000000
vt 1.000000 0.000000
vt 1.000000 1.000000
vt 0.000000 1.000000
vt 0.000000 1.000000
vt 0.000000 0.000000
vt 0.083333 1.000000
vt 0.083333 0.000000
vt 0.166667 1.000000
vt 0.166667 0.000000
vt 0.250000 1.000000
vt 0.250000 0.000000
vt 0.333333 1.000000
vt 0.333333 0.000000
vt 0.416667 1.000000
vt 0.416667 0.000000
vt 0.500000 1.000000
vt 0.500000 0.000000
vt 0.583333 1.000000
vt 0.583333 0.000000
vt 0.666667 1.000000
vt 0.666667 0.000000
vt 0.750000 1.000000
vt 0.750000 0.000000
vt 0.833333 1.000000
vt 0.833333 0.000000
vt 0.916667 1.000000
vt 0.916667 0.000000
vt 0.500000 0.500000
vt 0.500000 0.500000
vt 1.000000 0.500000
vt 1.000000 0.500000
vt 0.933013 0.750000
vt 0.933013 0.750000
vt 0.750000 0.933013
vt 0.750000 0.933013
vt 0.500000 1.000000
vt 0.500000 1.000000
vt 0.250000 0.933013
vt 0.250000 0.933013
vt 0.066987 0.750000
vt 0.066987 0.750000
vt 0.000000 0.500000
vt 0.000000 0.500000
vt 0.066987 0.250000
vt 0.066987 0.250000
vt 0.250000 0.066987
vt 0.250000 0.066987
vt 0.500000 0.000000
vt 0.500000 0.000000
vt 0.750000 0.066987
vt 0.750000 0.066987
vt 0.933013 0.250000
vt 0.933013 0.250000
vt 0.000000 1.000000
vt 0.000000 0.000000
vt 0.041667 1.000000
vt 0.041667 0.000000
vt 0.083333 1.000000
vt 0.083333 0.000000
vt 0.125000 1.000000
vt 0.125000 0.000000
vt 0.166667 1.000000
vt 0.166667 0.000000
vt 0.208333 1.000000
vt 0.208333 0.000000
vt 0.250000 1.000000
vt 0.250000 0.000000
vt 0.291667 1.000000
vt 0.291667 0.000000
vt 0.333333 1.000000
vt 0.333333 0.000000
vt 0.375000 1.000000
vt 0.375000 0.000000
vt 0.416667 1.000000
vt 0.416667 0.000000
vt 0.458333 1.000000
vt 0.458333 0.000000
vt 0.500000 1.000000
vt 0.500000 0.000000
vt 0.541667 1.000000
vt 0.541667 0.000000
vt 0.583333 1.000000
vt 0.583333 0.000000
vt 0.625000 1.000000
vt 0.625000 0.000000
vt 0.666667 1.000000
vt 0.666667 0.000000
vt 0.708333 1.000000
vt 0.708333 0.000000
vt 0.750000 1.000000
vt 0.750000 0.000000
vt 0.791667 1.000000
vt 0.791667 0.000000
vt 0.833333 1.000000
vt 0.833333 0.000000
vt 0.875000 1.000000
vt 0.875000 0.000000
vt 0.916667 1.000000
vt 0.916667 0.000000
vt 0.958333 1.000000
vt 0.958333 0.000000
vt 0.500000 0.500000
vt 0.500000 0.500000
vt 1.000000 0.500000
vt 1.000000 0.500000
vt 0.982963 0.629410
vt 0.982963 0.629410
vt 0.933013 0.750000
vt 0.933013 0.750000
vt 0.853553 0.853553
vt 0.853553 0.853553
vt 0.750000 0.933013
vt 0.750000 0.933013
vt 0.629410 0.982963
vt 0.629410 0.982963
vt 0.500000 1.000000
vt 0.500000 1.000000
vt 0.370590 0.982963
vt 0.370590 0.982963
vt 0.250000 0.933013
vt 0.250000 0.933013
vt 0.146447 0.853553
vt 0.146447 0.853553
vt 0.066987 0.750000
vt 0.066987 0.750000
vt 0.017037 0.629410
vt 0.017037 0.629410
vt 0.000000 0.500000
vt 0.000000 0.500000
vt 0.017037 0.370590
vt 0.017037 0.370590
vt 0.066987 0.250000
vt 0.066987 0.250000
vt 0.146447 0.146447
vt 0.146447 0.146447
vt 0.250000 0.066987
vt 0.250000 0.066987
vt 0.370590 0.017037
vt 0.370590 0.017037
vt 0.500000 0.000000
vt 0.500000 0.000000
vt 0.629410 0.017037
vt 0.629410 0.017037
vt 0.750000 0.066987
vt 0.750000 0.066987
vt 0.853553 0.146447
vt 0.853553 0.146447
vt 0.933013 0.250000
vt 0.933013 0.250000
vt 0.982963 0.370590
vt 0.982963 0.370590
vt 0.000000 1.000000
vt 0.000000 0.000000
vt 0.062500 1.000000
vt 0.062500 0.000000
vt 0.125000 1.000000
vt 0.125000 0.000000
vt 0.187500 1.000000
vt 0.187500 0.000000
vt 0.250000 1.000000
vt 0.250000 0.000000
vt 0.312500 1.000000
vt 0.312500 0.000000
vt 0.375000 1.000000
vt 0.375000 0.000000
vt 0.437500 1.000000
vt 0.437500 0.000000
vt 0.500000 1.000000
vt 0.500000 0.000000
vt 0.562500 1.000000
vt 0.562500 0.000000
vt 0.625000 1.000000
vt 0.625000 0.000000
vt 0.687500 1.000000
vt 0.687500 0.000000
vt 0.750000 1.000000
vt 0.750000 0.000000
vt 0.812500 1.000000
vt 0.812500 0.000000
vt 0.875000 1.000000
vt 0.875000 0.000000
vt 0.937500 1.000000
vt 0.937500 0.000000
vt 0.500000 0.500000
vt 0.500000 0.500000
vt 1.000000 0.500000
vt 1.000000 0.500000
vt 0.961940 0.691342
vt 0.961940 0.691342
vt 0.853553 0.853553
vt 0.853553 0.853553
vt 0.691342 0.961940
vt 0.691342 0.961940
vt 0.500000 1.000000
vt 0.500000 1.000000
vt 0.308658 0.961940
vt 0.308658 0.961940
vt 0.146447 0.853553
vt 0.146447 0.853553
vt 0.038060 0.691342
vt 0.038060 0.691342
vt 0.000000 0.500000
vt 0.000000 0.500000
vt 0.038060 0.308658
vt 0.038060 0.308658
vt 0.146447 0.146447
vt 0.146447 0.146447
vt 0.308658 0.038060
vt 0.308658 0.038060
vt 0.500000 0.000000
vt 0.500000 0.000000
vt 0.691342 0.038060
vt 0.691342 0.038060
vt 0.853553 0.146447
vt 0.853553 0.146447
vt 0.961940 0.308658
vt 0.961940 0.308658
vt 0.000000 1.000000
vt 0.000000 0.000000
vt 0.166667 1.000000
vt 0.166667 0.000000
vt 0.333333 1.000000
vt 0.333333 0.000000
vt 0.500000 1.000000
vt 0.500000 0.000000
vt 0.666667 1.000000
vt 0.666667 0.000000
vt 0.833333 1.000000
vt 0.833333 0.000000
vt 0.500000 0.500000
vt 0.500000 0.500000
vt 1.000000 0.500000
vt 1.000000 0.500000
vt 0.750000 0.933013
vt 0.750000 0.933013
vt 0.250000 0.933013
vt 0.250000 0.933013
vt 0.000000 0.500000
vt 0.000000 0.500000
vt 0.250000 0.066987
vt 0.250000 0.066987
vt 0.750000 0.066987
vt 0.750000 0.066987
vn 1.000000 0.000000 0.000000
vn 1.000000 0.000000 0.000000
vn 0.965926 0.258819 0.000000
vn 0.965926 0.258819 0.000000
vn 0.866025 0.500000 0.000000
vn 0.866025 0.500000 0.000000
vn 0.707107 0.707107 0.000000
vn 0.707107 0.707107 0.000000
vn 0.500000 0.866025 0.000000
vn 0.500000 0.866025 0.000000
vn 0.258819 0.965926 0.000000
vn 0.258819 0.965926 0.000000
vn 0.000000 1.000000 0.000000
vn 0.000000 1.000000 0.000000
vn -0.258819 0.965926 0.000000
vn -0.258819 0.965926 0.000000
vn -0.500000 0.866025 0.000000
vn -0.500000 0.866025 0.000000
vn -0.707107 0.707107 0.000000
vn -0.707107 0.707107 0.000000
vn -0.866025 0.500000 0.000000
vn -0.866025 0.500000 0.000000
vn -0.965926 0.258819 0.000000
vn -0.965926 0.258819 0.000000
vn -1.000000 0.000000 0.000000
vn -1.000000 0.000000 0.000000
vn -0.965926 -0.258819 0.000000
vn -0.965926 -0.258819 0.000000
vn -0.866025 -0.500000 0.000000
vn -0.866025 -0.500000 0.000000
vn -0.707107 -0.707107 0.000000
vn -0.707107 -0.707107 0.000000
vn -0.500000 -0.866025 0.000000
vn -0.500000 -0.866025 0.000000
vn -0.258819 -0.965926 0.000000
vn -0.258819 -0.965926 0.000000
vn -0.000000 -1.000000 0.000000
vn -0.000000 -1.000000 0.000000
vn 0.258819 -0.965926 0.000000
vn 0.258819 -0.965926 0.000000
vn 0.500000 -0.866025 0.000000
vn 0.500000 -0.866025 0.000000
vn 0.707107 -0.707107 0.000000
vn 0.707107 -0.707107 0.000000
vn 0.866025 -0.500000 0.000000
vn 0.866025 -0.500000 0.000000
vn 0.965926 -0.258819 0.000000
vn 0.965926 -0.258819 0.000000
vn 0.000000 0.000000 1.000000
vn 0.000000 0.000000 -1.000000
vn 0.000000 0.000000 1.000000
vn 0.000000 0.000000 -1.000000
vn 0.000000 0.000000 1.000000
vn 0.000000 0.000000 -1.000000
vn 0.000000 0.000000 1.000000
vn 0.000000 0.000000 -1.000000
vn 0.000000 0.000000 1.000000
vn 0.000000 0.000000 -1.000000
vn 0.000000 0.000000 1.000000
vn 0.000000 0.000000 -1.000000
vn 0.000000 0.000000 1.000000
vn 0.000000 0.000000 -1.000000
vn 0.000000 0.000000 1.000000
vn 0.000000 0.000000 -1.000000
vn 0.000000 0.000000 1.000000
vn 0.000000 0.000000 -1.000000
vn 0.000000 0.000000 1.000000
vn 0.000000 0.000000 -1.000000
vn 0.000000 0.000000 1.000000
vn 0.000000 0.000000 -1.000000
vn 0.000000 0.000000 1.000000
vn 0.000000 0.000000 -1.000000
vn 0.000000 0.000000 1.000000
vn 0.000000 0.000000 -1.000000
vn 0.000000 0.000000 1.000000
vn 0.000000 0.000000 -1.000000
vn 0.000000 0.000000 1.000000
vn 0.000000 0.000000 -1.000000
vn 0.000000 0.000000 1.000000
vn 0.000000 0.000000 -1.000000
vn 0.000000 0.000000 1.000000
vn 0.000000 0.000000 -1.000000
vn 0.000000 0.000000 1.000000
vn 0.000000 0.000000 -1.000000
vn 0.000000 0.000000 1.000000
vn 0.000000 0.000000 -1.000000
vn 0.000000 0.000000 1.000000
vn 0.000000 0.000000 -1.000000
vn 0.000000 0.000000 1.000000
vn 0.000000 0.000000 -1.000000
vn 0.000000 0.000000 1.000000
vn 0.000000 0.000000 -1.000000
vn 0.000000 0.000000 1.000000
vn 0.000000 0.000000 -1.000000
vn 0.000000 0.000000 1.000000
vn 0.000000 0.000000 -1.000000
vn 0.000000 0.000000 1.000000
vn 0.000000 0.000000 -1.000000
vn 1.000000 0.000000 0.000000
vn 0.809017 0.587785 0.000000
vn 0.309017 0.951057 0.000000
vn -0.309017 0.951057 -0.000000
vn -0.809017 0.587785 -0.000000
vn -1.000000 0.000000 -0.000000
vn -0.809017 -0.587785 -0.000000
vn -0.309017 -0.951057 -0.000000
vn 0.309017 -0.951057 0.000000
vn 0.809017 -0.587785 0.000000
vn 0.965926 0.000000 0.258819
vn 0.781450 0.587785 0.209389
vn 0.298487 0.951057 0.079979
vn -0.298487 0.951057 -0.079979
vn -0.781450 0.587785 -0.209389
vn -0.965926 0.000000 -0.258819
vn -0.781450 -0.587785 -0.209389
vn -0.298487 -0.951057 -0.079979
vn 0.298487 -0.951057 0.079979
vn 0.781450 -0.587785 0.209389
vn 0.866025 0.000000 0.500000
vn 0.700629 0.587785 0.404508
vn 0.267617 0.951057 0.154508
vn -0.267617 0.951057 -0.154508
vn -0.700629 0.587785 -0.404508
vn -0.866025 0.000000 -0.500000
vn -0.700629 -0.587785 -0.404508
vn -0.267617 -0.951057 -0.154508
vn 0.267617 -0.951057 0.154508
vn 0.700629 -0.587785 0.404508
vn 0.707107 0.000000 0.707107
vn 0.572061 0.587785 0.572061
vn 0.218508 0.951057 0.218508
vn -0.218508 0.951057 -0.218508
vn -0.572061 0.587785 -0.572061
vn -0.707107 0.000000 -0.707107
vn -0.572061 -0.587785 -0.572061
vn -0.218508 -0.951057 -0.218508
vn 0.218508 -0.951057 0.218508
vn 0.572061 -0.587785 0.572061
vn 0.500000 0.000000 0.866025
vn 0.404508 0.587785 0.700629
vn 0.154508 0.951057 0.267617
vn -0.154508 0.951057 -0.267617
vn -0.404508 0.587785 -0.700629
vn -0.500000 0.000000 -0.866025
vn -0.404508 -0.587785 -0.700629
vn -0.154508 -0.951057 -0.267617
vn 0.154508 -0.951057 0.267617
vn 0.404508 -0.587785 0.700629
vn 0.258819 0.000000 0.965926
vn 0.209389 0.587785 0.781450
vn 0.079979 0.951057 0.298487
vn -0.079979 0.951057 -0.298487
vn -0.209389 0.587785 -0.781450
vn -0.258819 0.000000 -0.965926
vn -0.209389 -0.587785 -0.781450
vn -0.079979 -0.951057 -0.298487
vn 0.079979 -0.951057 0.298487
vn 0.209389 -0.587785 0.781450
vn 0.000000 0.000000 1.000000
vn 0.000000 0.587785 0.809017
vn 0.000000 0.951057 0.309017
vn -0.000000 0.951057 -0.309017
vn -0.000000 0.587785 -0.809017
vn -0.000000 0.000000 -1.000000
vn -0.000000 -0.587785 -0.809017
vn -0.000000 -0.951057 -0.309017
vn 0.000000 -0.951057 0.309017
vn 0.000000 -0.587785 0.809017
vn -0.258819 0.000000 0.965926
vn -0.209389 0.587785 0.781450
vn -0.079979 0.951057 0.298487
vn 0.079979 0.951057 -0.298487
vn 0.209389 0.587785 -0.781450
vn 0.258819 0.000000 -0.965926
vn 0.209389 -0.587785 -0.781450
vn 0.079979 -0.951057 -0.298487
vn -0.079979 -0.951057 0.298487
vn -0.209389 -0.587785 0.781450
vn -0.500000 0.000000 0.866025
vn -0.404508 0.587785 0.700629
vn -0.154508 0.951057 0.267617
vn 0.154508 0.951057 -0.267617
vn 0.404508 0.587785 -0.700629
vn 0.500000 0.000000 -0.866025
vn 0.404508 -0.587785 -0.700629
vn 0.154508 -0.951057 -0.267617
vn -0.154508 -0.951057 0.267617
vn -0.404508 -0.587785 0.700629
vn -0.707107 0.000000 0.707107
vn -0.572061 0.587785 0.572061
vn -0.218508 0.951057 0.218508
vn 0.218508 0.951057 -0.218508
vn 0.572061 0.587785 -0.572061
vn 0.707107 0.000000 -0.707107
vn 0.572061 -0.587785 -0.572061
vn 0.218508 -0.951057 -0.218508
vn -0.218508 -0.951057 0.218508
vn -0.572061 -0.587785 0.572061
vn -0.866025 0.000000 0.500000
vn -0.700629 0.587785 0.404508
vn -0.267617 0.951057 0.154508
vn 0.267617 0.951057 -0.154508
vn 0.700629 0.587785 -0.404508
vn 0.866025 0.000000 -0.500000
vn 0.700629 -0.587785 -0.404508
vn 0.267617 -0.951057 -0.154508
vn -0.267617 -0.951057 0.154508
vn -0.700629 -0.587785 0.404508
vn -0.965926 0.000000 0.258819
vn -0.781450 0.587785 0.209389
vn -0.298487 0.951057 0.079979
vn 0.298487 0.951057 -0.079979
vn 0.781450 0.587785 -0.209389
vn 0.965926 0.000000 -0.258819
vn 0.781450 -0.587785 -0.209389
vn 0.298487 -0.951057 -0.079979
vn -0.298487 -0.951057 0.079979
vn -0.781450 -0.587785 0.209389
vn -1.000000 0.000000 0.000000
vn -0.809017 0.587785 0.000000
vn -0.309017 0.951057 0.000000
vn 0.309017 0.951057 -0.000000
vn 0.809017 0.587785 -0.000000
vn 1.000000 0.000000 -0.000000
vn 0.809017 -0.587785 -0.000000
vn 0.309017 -0.951057 -0.000000
vn -0.309017 -0.951057 0.000000
vn -0.809017 -0.587785 0.000000
vn -0.965926 0.000000 -0.258819
vn -0.781450 0.587785 -0.209389
vn -0.298487 0.951057 -0.079979
vn 0.298487 0.951057 0.079979
vn 0.781450 0.587785 0.209389
vn 0.965926 0.000000 0.258819
vn 0.781450 -0.587785 0.209389
vn 0.298487 -0.951057 0.079979
vn -0.298487 -0.951057 -0.079979
vn -0.781450 -0.587785 -0.209389
vn -0.866025 0.000000 -0.500000
vn -0.700629 0.587785 -0.404508
vn -0.267617 0.951057 -0.154508
vn 0.267617 0.951057 0.154508
vn 0.700629 0.587785 0.404508
vn 0.866025 0.000000 0.500000
vn 0.700629 -0.587785 0.404508
vn 0.267617 -0.951057 0.154508
vn -0.267617 -0.951057 -0.154508
vn -0.700629 -0.587785 -0.404508
vn -0.707107 0.000000 -0.707107
vn -0.572061 0.587785 -0.572061
vn -0.218508 0.951057 -0.218508
vn 0.218508 0.951057 0.218508
vn 0.572061 0.587785 0.572061
vn 0.707107 0.000000 0.707107
vn 0.572061 -0.587785 0.572061
vn 0.218508 -0.951057 0.218508
vn -0.218508 -0.951057 -0.218508
vn -0.572061 -0.587785 -0.572061
vn -0.500000 0.000000 -0.866025
vn -0.404508 0.587785 -0.700629
vn -0.154508 0.951057 -0.267617
vn 0.154508 0.951057 0.267617
vn 0.404508 0.587785 0.700629
vn 0.500000 0.000000 0.866025
vn 0.404508 -0.587785 0.700629
vn 0.154508 -0.951057 0.267617
vn -0.154508 -0.951057 -0.267617
vn -0.404508 -0.587785 -0.700629
vn -0.258819 0.000000 -0.965926
vn -0.209389 0.587785 -0.781450
vn -0.079979 0.951057 -0.298487
vn 0.079979 0.951057 0.298487
vn 0.209389 0.587785 0.781450
vn 0.258819 0.000000 0.965926
vn 0.209389 -0.587785 0.781450
vn 0.079979 -0.951057 0.298487
vn -0.079979 -0.951057 -0.298487
vn -0.209389 -0.587785 -0.781450
vn -0.000000 0.000000 -1.000000
vn -0.000000 0.587785 -0.809017
vn -0.000000 0.951057 -0.309017
vn 0.000000 0.951057 0.309017
vn 0.000000 0.587785 0.809017
vn 0.000000 0.000000 1.000000
vn 0.000000 -0.587785 0.809017
vn 0.000000 -0.951057 0.309017
vn -0.000000 -0.951057 -0.309017
vn -0.000000 -0.587785 -0.809017
vn 0.258819 0.000000 -0.965926
vn 0.209389 0.587785 -0.781450
vn 0.079979 0.951057 -0.298487
vn -0.079979 0.951057 0.298487
vn -0.209389 0.587785 0.781450
vn -0.258819 0.000000 0.965926
vn -0.209389 -0.587785 0.781450
vn -0.079979 -0.951057 0.298487
vn 0.079979 -0.951057 -0.298487
vn 0.209389 -0.587785 -0.781450
vn 0.500000 0.000000 -0.866025
vn 0.404508 0.587785 -0.700629
vn 0.154508 0.951057 -0.267617
vn -0.154508 0.951057 0.267617
vn -0.404508 0.587785 0.700629
vn -0.500000 0.000000 0.866025
vn -0.404508 -0.587785 0.700629
vn -0.154508 -0.951057 0.267617
vn 0.154508 -0.951057 -0.267617
vn 0.404508 -0.587785 -0.700629
vn 0.707107 0.000000 -0.707107
vn 0.572061 0.587785 -0.572061
vn 0.218508 0.951057 -0.218508
vn -0.218508 0.951057 0.218508
vn -0.572061 0.587785 0.572061
vn -0.707107 0.000000 0.707107
vn -0.572061 -0.587785 0.572061
vn -0.218508 -0.951057 0.218508
vn 0.218508 -0.951057 -0.218508
vn 0.572061 -0.587785 -0.572061
vn 0.866025 0.000000 -0.500000
vn 0.700629 0.587785 -0.404508
vn 0.267617 0.951057 -0.154508
vn -0.267617 0.951057 0.154508
vn -0.700629 0.587785 0.404508
vn -0.866025 0.000000 0.500000
vn -0.700629 -0.587785 0.404508
vn -0.267617 -0.951057 0.154508
vn 0.267617 -0.951057 -0.154508
vn 0.700629 -0.587785 -0.404508
vn 0.965926 0.000000 -0.258819
vn 0.781450 0.587785 -0.209389
vn 0.298487 0.951057 -0.079979
vn -0.298487 0.951057 0.079979
vn -0.781450 0.587785 0.209389
vn -0.965926 0.000000 0.258819
vn -0.781450 -0.587785 0.209389
vn -0.298487 -0.951057 0.079979
vn 0.298487 -0.951057 -0.079979
vn 0.781450 -0.587785 -0.209389
vn 1.000000 0.000000 0.000000
vn 1.000000 0.000000 0.000000
vn 0.965926 0.258819 0.000000
vn 0.965926 0.258819 0.000000
vn 0.866025 0.500000 0.000000
vn 0.866025 0.500000 0.000000
vn 0.707107 0.707107 0.000000
vn 0.707107 0.707107 0.000000
vn 0.500000 0.866025 0.000000
vn 0.500000 0.866025 0.000000
vn 0.258819 0.965926 0.000000
vn 0.258819 0.965926 0.000000
vn 0.000000 1.000000 0.000000
vn 0.000000 1.000000 0.000000
vn -0.258819 0.965926 0.000000
vn -0.258819 0.965926 0.000000
vn -0.500000 0.866025 0.000000
vn -0.500000 0.866025 0.000000
vn -0.707107 0.707107 0.000000
vn -0.707107 0.707107 0.000000
vn -0.866025 0.500000 0.000000
vn -0.866025 0.500000 0.000000
vn -0.965926 0.258819 0.000000
vn -0.965926 0.258819 0.000000
vn -1.000000 0.000000 0.000000
vn -1.000000 0.000000 0.000000
vn -0.965926 -0.258819 0.000000
vn -0.965926 -0.258819 0.000000
vn -0.866025 -0.500000 0.000000
vn -0.866025 -0.500000 0.000000
vn -0.707107 -0.707107 0.000000
vn -0.707107 -0.707107 0.000000
vn -0.500000 -0.866025 0.000000
vn -0.500000 -0.866025 0.000000
vn -0.258819 -0.965926 0.000000
vn -0.258819 -0.965926 0.000000
vn -0.000000 -1.000000 0.000000
vn -0.000000 -1.000000 0.000000
vn 0.258819 -0.965926 0.000000
vn 0.258819 -0.965926 0.000000
vn 0.500000 -0.866025 0.000000
vn 0.500000 -0.866025 0.000000
vn 0.707107 -0.707107 0.000000
vn 0.707107 -0.707107 0.000000
vn 0.866025 -0.500000 0.000000
vn 0.866025 -0.500000 0.000000
vn 0.965926 -0.258819 0.000000
vn 0.965926 -0.258819 0.000000
vn 0.000000 0.000000 1.000000
vn 0.000000 0.000000 -1.000000
vn 0.000000 0.000000 1.000000
vn 0.000000 0.000000 -1.000000
vn 0.000000 0.000000 1.000000
vn 0.000000 0.000000 -1.000000
vn 0.000000 0.000000 1.000000
vn 0.000000 0.000000 -1.000000
vn 0.000000 0.000000 1.000000
vn 0.000000 0.000000 -1.000000
vn 0.000000 0.000000 1.000000
vn 0.000000 0.000000 -1.000000
vn 0.000000 0.000000 1.000000
vn 0.000000 0.000000 -1.000000
vn 0.000000 0.000000 1.000000
vn 0.000000 0.000000 -1.000000
vn 0.000000 0.000000 1.000000
vn 0.000000 0.000000 -1.000000
vn 0.000000 0.000000 1.000000
vn 0.000000 0.000000 -1.000000
vn 0.000000 0.000000 1.000000
vn 0.000000 0.000000 -1.000000
vn 0.000000 0.000000 1.000000
vn 0.000000 0.000000 -1.000000
vn 0.000000 0.000000 1.000000
vn 0.000000 0.000000 -1.000000
vn 0.000000 0.000000 1.000000
vn 0.000000 0.000000 -1.000000
vn 0.000000 0.000000 1.000000
vn 0.000000 0.000000 -1.000000
vn 0.000000 0.000000 1.000000
vn 0.000000 0.000000 -1.000000
vn 0.000000 0.000000 1.000000
vn 0.000000 0.000000 -1.000000
vn 0.000000 0.000000 1.000000
vn 0.000000 0.000000 -1.000000
vn 0.000000 0.000000 1.000000
vn 0.000000 0.000000 -1.000000
vn 0.000000 0.000000 1.000000
vn 0.000000 0.000000 -1.000000
vn 0.000000 0.000000 1.000000
vn 0.000000 0.000000 -1.000000
vn 0.000000 0.000000 1.000000
vn 0.000000 0.000000 -1.000000
vn 0.000000 0.000000 1.000000
vn 0.000000 0.000000 -1.000000
vn 0.000000 0.000000 1.000000
vn 0.000000 0.000000 -1.000000
vn 0.000000 0.000000 1.000000
vn 0.000000 0.000000 -1.000000
vn 0.000000 0.000000 1.000000
vn 0.000000 0.000000 1.000000
vn 0.000000 0.000000 1.000000
vn 0.000000 0.000000 1.000000
vn 0.000000 0.000000 -1.000000
vn 0.000000 0.000000 -1.000000
vn 0.000000 0.000000 -1.000000
vn 0.000000 0.000000 -1.000000
vn 0.000000 1.000000 0.000000
vn 0.000000 1.000000 0.000000
vn 0.000000 1.000000 0.000000
vn 0.000000 1.000000 0.000000
vn 0.000000 -1.000000 0.000000
vn 0.000000 -1.000000 0.000000
vn 0.000000 -1.000000 0.000000
vn 0.000000 -1.000000 0.000000
vn 1.000000 0.000000 0.000000
vn 1.000000 0.000000 0.000000
vn 1.000000 0.000000 0.000000
vn 1.000000 0.000000 0.000000
vn -1.000000 0.000000 0.000000
vn -1.000000 0.000000 0.000000
vn -1.000000 0.000000 0.000000
vn -1.000000 0.000000 0.000000
vn 1.000000 0.000000 0.000000
vn 1.000000 0.000000 0.000000
vn 0.866025 0.500000 0.000000
vn 0.866025 0.500000 0.000000
vn 0.500000 0.866025 0.000000
vn 0.500000 0.866025 0.000000
vn 0.000000 1.000000 0.000000
vn 0.000000 1.000000 0.000000
vn -0.500000 0.866025 0.000000
vn -0.500000 0.866025 0.000000
vn -0.866025 0.500000 0.000000
vn -0.866025 0.500000 0.000000
vn -1.000000 0.000000 0.000000
vn -1.000000 0.000000 0.000000
vn -0.866025 -0.500000 0.000000
vn -0.866025 -0.500000 0.000000
vn -0.500000 -0.866025 0.000000
vn -0.500000 -0.866025 0.000000
vn -0.000000 -1.000000 0.000000
vn -0.000000 -1.000000 0.000000
vn 0.500000 -0.866025 0.000000
vn 0.500000 -0.866025 0.000000
vn 0.866025 -0.500000 0.000000
vn 0.866025 -0.500000 0.000000
vn 0.000000 0.000000 1.000000
vn 0.000000 0.000000 -1.000000
vn 0.000000 0.000000 1.000000
vn 0.000000 0.000000 -1.000000
vn 0.000000 0.000000 1.000000
vn 0.000000 0.000000 -1.000000
vn 0.000000 0.000000 1.000000
vn 0.000000 0.000000 -1.000000
vn 0.000000 0.000000 1.000000
vn 0.000000 0.000000 -1.000000
vn 0.000000 0.000000 1.000000
vn 0.000000 0.000000 -1.000000
vn 0.000000 0.000000 1.000000
vn 0.000000 0.000000 -1.000000
vn 0.000000 0.000000 1.000000
vn 0.000000 0.000000 -1.000000
vn 0.000000 0.000000 1.000000
vn 0.000000 0.000000 -1.000000
vn 0.000000 0.000000 1.000000
vn 0.000000 0.000000 -1.000000
vn 0.000000 0.000000 1.000000
vn 0.000000 0.000000 -1.000000
vn 0.000000 0.000000 1.000000
vn 0.000000 0.000000 -1.000000
vn 0.000000 0.000000 1.000000
vn 0.000000 0.000000 -1.000000
vn 1.000000 0.000000 0.000000
vn 1.000000 0.000000 0.000000
vn 0.965926 0.258819 0.000000
vn 0.965926 0.258819 0.000000
vn 0.866025 0.500000 0.000000
vn 0.866025 0.500000 0.000000
vn 0.707107 0.707107 0.000000
vn 0.707107 0.707107 0.000000
vn 0.500000 0.866025 0.000000
vn 0.500000 0.866025 0.000000
vn 0.258819 0.965926 0.000000
vn 0.258819 0.965926 0.000000
vn 0.000000 1.000000 0.000000
vn 0.000000 1.000000 0.000000
vn -0.258819 0.965926 0.000000
vn -0.258819 0.965926 0.000000
vn -0.500000 0.866025 0.000000
vn -0.500000 0.866025 0.000000
vn -0.707107 0.707107 0.000000
vn -0.707107 0.707107 0.000000
vn -0.866025 0.500000 0.000000
vn -0.866025 0.500000 0.000000
vn -0.965926 0.258819 0.000000
vn -0.965926 0.258819 0.000000
vn -1.000000 0.000000 0.000000
vn -1.000000 0.000000 0.000000
vn -0.965926 -0.258819 0.000000
vn -0.965926 -0.258819 0.000000
vn -0.866025 -0.500000 0.000000
vn -0.866025 -0.500000 0.000000
vn -0.707107 -0.707107 0.000000
vn -0.707107 -0.707107 0.000000
vn -0.500000 -0.866025 0.000000
vn -0.500000 -0.866025 0.000000
vn -0.258819 -0.965926 0.000000
vn -0.258819 -0.965926 0.000000
vn -0.000000 -1.000000 0.000000
vn -0.000000 -1.000000 0.000000
vn 0.258819 -0.965926 0.000000
vn 0.258819 -0.965926 0.000000
vn 0.500000 -0.866025 0.000000
vn 0.500000 -0.866025 0.000000
vn 0.707107 -0.707107 0.000000
vn 0.707107 -0.707107 0.000000
vn 0.866025 -0.500000 0.000000
vn 0.866025 -0.500000 0.000000
vn 0.965926 -0.258819 0.000000
vn 0.965926 -0.258819 0.000000
vn 0.000000 0.000000 1.000000
vn 0.000000 0.000000 -1.000000
vn 0.000000 0.000000 1.000000
vn 0.000000 0.000000 -1.000000
vn 0.000000 0.000000 1.000000
vn 0.000000 0.000000 -1.000000
vn 0.000000 0.000000 1.000000
vn 0.000000 0.000000 -1.000000
vn 0.000000 0.000000 1.000000
vn 0.000000 0.000000 -1.000000
vn 0.000000 0.000000 1.000000
vn 0.000000 0.000000 -1.000000
vn 0.000000 0.000000 1.000000
vn 0.000000 0.000000 -1.000000
vn 0.000000 0.000000 1.000000
vn 0.000000 0.000000 -1.000000
vn 0.000000 0.000000 1.000000
vn 0.000000 0.000000 -1.000000
vn 0.000000 0.000000 1.000000
vn 0.000000 0.000000 -1.000000
vn 0.000000 0.000000 1.000000
vn 0.000000 0.000000 -1.000000
vn 0.000000 0.000000 1.000000
vn 0.000000 0.000000 -1.000000
vn 0.000000 0.000000 1.000000
vn 0.000000 0.000000 -1.000000
vn 0.000000 0.000000 1.000000
vn 0.000000 0.000000 -1.000000
vn 0.000000 0.000000 1.000000
vn 0.000000 0.000000 -1.000000
vn 0.000000 0.000000 1.000000
vn 0.000000 0.000000 -1.000000
vn 0.000000 0.000000 1.000000
vn 0.000000 0.000000 -1.000000
vn 0.000000 0.000000 1.000000
vn 0.000000 0.000000 -1.000000
vn 0.000000 0.000000 1.000000
vn 0.000000 0.000000 -1.000000
vn 0.000000 0.000000 1.000000
vn 0.000000 0.000000 -1.000000
vn 0.000000 0.000000 1.000000
vn 0.000000 0.000000 -1.000000
vn 0.000000 0.000000 1.000000
vn 0.000000 0.000000 -1.000000
vn 0.000000 0.000000 1.000000
vn 0.000000 0.000000 -1.000000
vn 0.000000 0.000000 1.000000
vn 0.000000 0.000000 -1.000000
vn 0.000000 0.000000 1.000000
vn 0.000000 0.000000 -1.000000
vn 1.000000 0.000000 0.000000
vn 1.000000 0.000000 0.000000
vn 0.923880 0.000000 0.382683
vn 0.923880 0.000000 0.382683
vn 0.707107 0.000000 0.707107
vn 0.707107 0.000000 0.707107
vn 0.382683 0.000000 0.923880
vn 0.382683 0.000000 0.923880
vn 0.000000 0.000000 1.000000
vn 0.000000 0.000000 1.000000
vn -0.382683 0.000000 0.923880
vn -0.382683 0.000000 0.923880
vn -0.707107 0.000000 0.707107
vn -0.707107 0.000000 0.707107
vn -0.923880 0.000000 0.382683
vn -0.923880 0.000000 0.382683
vn -1.000000 0.000000 0.000000
vn -1.000000 0.000000 0.000000
vn -0.923880 0.000000 -0.382683
vn -0.923880 0.000000 -0.382683
vn -0.707107 0.000000 -0.707107
vn -0.707107 0.000000 -0.707107
vn -0.382683 0.000000 -0.923880
vn -0.382683 0.000000 -0.923880
vn -0.000000 0.000000 -1.000000
vn -0.000000 0.000000 -1.000000
vn 0.382683 0.000000 -0.923880
vn 0.382683 0.000000 -0.923880
vn 0.707107 0.000000 -0.707107
vn 0.707107 0.000000 -0.707107
vn 0.923880 0.000000 -0.382683
vn 0.923880 0.000000 -0.382683
vn 0.000000 1.000000 0.000000
vn 0.000000 -1.000000 0.000000
vn 0.000000 1.000000 0.000000
vn 0.000000 -1.000000 0.000000
vn 0.000000 1.000000 0.000000
vn 0.000000 -1.000000 0.000000
vn 0.000000 1.000000 0.000000
vn 0.000000 -1.000000 0.000000
vn 0.000000 1.000000 0.000000
vn 0.000000 -1.000000 0.000000
vn 0.000000 1.000000 0.000000
vn 0.000000 -1.000000 0.000000
vn 0.000000 1.000000 0.000000
vn 0.000000 -1.000000 0.000000
vn 0.000000 1.000000 0.000000
vn 0.000000 -1.000000 0.000000
vn 0.000000 1.000000 0.000000
vn 0.000000 -1.000000 0.000000
vn 0.000000 1.000000 0.000000
vn 0.000000 -1.000000 0.000000
vn 0.000000 1.000000 0.000000
vn 0.000000 -1.000000 0.000000
vn 0.000000 1.000000 0.000000
vn 0.000000 -1.000000 0.000000
vn 0.000000 1.000000 0.000000
vn 0.000000 -1.000000 0.000000
vn 0.000000 1.000000 0.000000
vn 0.000000 -1.000000 0.000000
vn 0.000000 1.000000 0.000000
vn 0.000000 -1.000000 0.000000
vn 0.000000 1.000000 0.000000
vn 0.000000 -1.000000 0.000000
vn 0.000000 1.000000 0.000000
vn 0.000000 -1.000000 0.000000
vn 1.000000 0.000000 0.000000
vn 1.000000 0.000000 0.000000
vn 0.500000 0.000000 0.866025
vn 0.500000 0.000000 0.866025
vn -0.500000 0.000000 0.866025
vn -0.500000 0.000000 0.866025
vn -1.000000 0.000000 0.000000
vn -1.000000 0.000000 0.000000
vn -0.500000 0.000000 -0.866025
vn -0.500000 0.000000 -0.866025
vn 0.500000 0.000000 -0.866025
vn 0.500000 0.000000 -0.866025
vn 0.000000 1.000000 0.000000
vn 0.000000 -1.000000 0.000000
vn 0.000000 1.000000 0.000000
vn 0.000000 -1.000000 0.000000
vn 0.000000 1.000000 0.000000
vn 0.000000 -1.000000 0.000000
vn 0.000000 1.000000 0.000000
vn 0.000000 -1.000000 0.000000
vn 0.000000 1.000000 0.000000
vn 0.000000 -1.000000 0.000000
vn 0.000000 1.000000 0.000000
vn 0.000000 -1.000000 0.000000
vn 0.000000 1.000000 0.000000
vn 0.000000 -1.000000 0.000000
f 1/1/1 2/2/2 4/4/4
f 1/1/1 4/4/4 3/3/3
f 3/3/3 4/4/4 6/6/6
f 3/3/3 6/6/6 5/5/5
f 5/5/5 6/6/6 8/8/8
f 5/5/5 8/8/8 7/7/7
f 7/7/7 8/8/8 10/10/10
f 7/7/7 10/10/10 9/9/9
f 9/9/9 10/10/10 12/12/12
f 9/9/9 12/12/12 11/11/11
f 11/11/11 12/12/12 14/14/14
f 11/11/11 14/14/14 13/13/13
f 13/13/13 14/14/14 16/16/16
f 13/13/13 16/16/16 15/15/15
f 15/15/15 16/16/16 18/18/18
f 15/15/15 18/18/18 17/17/17
f 17/17/17 18/18/18 20/20/20
f 17/17/17 20/20/20 19/19/19
f 19/19/19 20/20/20 22/22/22
f 19/19/19 22/22/22 21/21/21
f 21/21/21 22/22/22 24/24/24
f 21/21/21 24/24/24 23/23/23
f 23/23/23 24/24/24 26/26/26
f 23/23/23 26/26/26 25/25/25
f 25/25/25 26/26/26 28/28/28
f 25/25/25 28/28/28 27/27/27
f 27/27/27 28/28/28 30/30/30
f 27/27/27 30/30/30 29/29/29
f 29/29/29 30/30/30 32/32/32
f 29/29/29 32/32/32 31/31/31
f 31/31/31 32/32/32 34/34/34
f 31/31/31 34/34/34 33/33/33
f 33/33/33 34/34/34 36/36/36
f 33/33/33 36/36/36 35/35/35
f 35/35/35 36/36/36 38/38/38
f 35/35/35 38/38/38 37/37/37
f 37/37/37 38/38/38 40/40/40
f 37/37/37 40/40/40 39/39/39
f 39/39/39 40/40/40 42/42/42
f 39/39/39 42/42/42 41/41/41
f 41/41/41 42/42/42 44/44/44
f 41/41/41 44/44/44 43/43/43
f 43/43/43 44/44/44 46/46/46
f 43/43/43 46/46/46 45/45/45
f 45/45/45 46/46/46 48/48/48
f 45/45/45 48/48/48 47/47/47
f 47/47/47 48/48/48 2/2/2
f 47/47/47 2/2/2 1/1/1
f 49/49/49 51/51/51 53/53/53
f 50/50/50 54/54/54 52/52/52
f 49/49/49 53/53/53 55/55/55
f 50/50/50 56/56/56 54/54/54
f 49/49/49 55/55/55 57/57/57
f 50/50/50 58/58/58 56/56/56
f 49/49/49 57/57/57 59/59/59
f 50/50/50 60/60/60 58/58/58
f 49/49/49 59/59/59 61/61/61
f 50/50/50 62/62/62 60/60/60
f 49/49/49 61/61/61 63/63/63
f 50/50/50 64/64/64 62/62/62
f 49/49/49 63/63/63 65/65/65
f 50/50/50 66/66/66 64/64/64
f 49/49/49 65/65/65 67/67/67
f 50/50/50 68/68/68 66/66/66
f 49/49/49 67/67/67 69/69/69
f 50/50/50 70/70/70 68/68/68
f 49/49/49 69/69/69 71/71/71
f 50/50/50 72/72/72 70/70/70
f 49/49/49 71/71/71 73/73/73
f 50/50/50 74/74/74 72/72/72
f 49/49/49 73/73/73 75/75/75
f 50/50/50 76/76/76 74/74/74
f 49/49/49 75/75/75 77/77/77
f 50/50/50 78/78/78 76/76/76
f 49/49/49 77/77/77 79/79/79
f 50/50/50 80/80/80 78/78/78
f 49/49/49 79/79/79 81/81/81
f 50/50/50 82/82/82 80/80/80
f 49/49/49 81/81/81 83/83/83
f 50/50/50 84/84/84 82/82/82
f 49/49/49 83/83/83 85/85/85
f 50/50/50 86/86/86 84/84/84
f 49/49/49 85/85/85 87/87/87
f 50/50/50 88/88/88 86/86/86
f 49/49/49 87/87/87 89/89/89
f 50/50/50 90/90/90 88/88/88
f 49/49/49 89/89/89 91/91/91
f 50/50/50 92/92/92 90/90/90
f 49/49/49 91/91/91 93/93/93
f 50/50/50 94/94/94 92/92/92
f 49/49/49 93/93/93 95/95/95
f 50/50/50 96/96/96 94/94/94
f 49/49/49 95/95/95 97/97/97
f 50/50/50 98/98/98 96/96/96
f 49/49/49 97/97/97 51/51/51
f 50/50/50 52/52/52 98/98/98
f 99/99/99 109/109/109 110/110/110
f 99/99/99 110/110/110 100/100/100
f 100/100/100 110/110/110 111/111/111
f 100/100/100 111/111/111 101/101/101
f 101/101/101 111/111/111 112/112/112
f 101/101/101 112/112/112 102/102/102
f 102/102/102 112/112/112 113/113/113
f 102/102/102 113/113/113 103/103/103
f 103/103/103 113/113/113 114/114/114
f 103/103/103 114/114/114 104/104/104
f 104/104/104 114/114/114 115/115/115
f 104/104/104 115/115/115 105/105/105
f 105/105/105 115/115/115 116/116/116
f 105/105/105 116/116/116 106/106/106
f 106/106/106 116/116/116 117/117/117
f 106/106/106 117/117/117 107/107/107
f 107/107/107 117/117/117 118/118/118
f 107/107/107 118/118/118 108/108/108
f 108/108/108 118/118/118 109/109/109
f 108/108/108 109/109/109 99/99/99
f 109/109/109 119/119/119 120/120/120
f 109/109/109 120/120/120 110/110/110
f 110/110/110 120/120/120 121/121/121
f 110/110/110 121/121/121 111/111/111
f 111/111/111 121/121/121 122/122/122
f 111/111/111 122/122/122 112/112/112
f 112/112/112 122/122/122 123/123/123
f 112/112/112 123/123/123 113/113/113
f 113/113/113 123/123/123 124/124/124
f 113/113/113 124/124/124 114/114/114
f 114/114/114 124/124/124 125/125/125
f 114/114/114 125/125/125 115/115/115
f 115/115/115 125/125/125 126/126/126
f 115/115/115 126/126/126 116/116/116
f 116/116/116 126/126/126 127/127/127
f 116/116/116 127/127/127 117/117/117
f 117/117/117 127/127/127 128/128/128
f 117/117/117 128/128/128 118/118/118
f 118/118/118 128/128/128 119/119/119
f 118/118/118 119/119/119 109/109/109
f 119/119/119 129/129/129 130/130/130
f 119/119/119 130/130/130 120/120/120
f 120/120/120 130/130/130 131/131/131
f 120/120/120 131/131/131 121/121/121
f 121/121/121 131/131/131 132/132/132
f 121/121/121 132/132/132 122/122/122
f 122/122/122 132/132/132 133/133/133
f 122/122/122 133/133/133 123/123/123
f 123/123/123 133/133/133 134/134/134
f 123/123/123 134/134/134 124/124/124
f 124/124/124 134/134/134 135/135/135
f 124/124/124 135/135/135 125/125/125
f 125/125/125 135/135/135 136/136/136
f 125/125/125 136/136/136 126/126/126
f 126/126/126 136/136/136 137/137/137
f 126/126/126 137/137/137 127/127/127
f 127/127/127 137/137/137 138/138/138
f 127/127/127 138/138/138 128/128/128
f 128/128/128 138/138/138 129/129/129
f 128/128/128 129/129/129 119/119/119
f 129/129/129 139/139/139 140/140/140
f 129/129/129 140/140/140 130/130/130
f 130/130/130 140/140/140 141/141/141
f 130/130/130 141/141/141 131/131/131
f 131/131/131 141/141/141 142/142/142
f 131/131/131 142/142/142 132/132/132
f 132/132/132 142/142/142 143/143/143
f 132/132/132 143/143/143 133/133/133
f 133/133/133 143/143/143 144/144/144
f 133/133/133 144/144/144 134/134/134
f 134/134/134 144/144/144 145/145/145
f 134/134/134 145/145/145 135/135/135
f 135/135/135 145/145/145 146/146/146
f 135/135/135 146/146/146 136/136/136
f 136/136/136 146/146/146 147/147/147
f 136/136/136 147/147/147 137/137/137
f 137/137/137 147/147/147 148/148/148
f 137/137/137 148/148/148 138/138/138
f 138/138/138 148/148/148 139/139/139
f 138/138/138 139/139/139 129/129/129
f 139/139/139 149/149/149 150/150/150
f 139/139/139 150/150/150 140/140/140
f 140/140/140 150/150/150 151/151/151
f 140/140/140 151/151/151 141/141/141
f 141/141/141 151/151/151 152/152/152
f 141/141/141 152/152/152 142/142/142
f 142/142/142 152/152/152 153/153/153
f 142/142/142 153/153/153 143/143/143
f 143/143/143 153/153/153 154/154/154
f 143/143/143 154/154/154 144/144/144
f 144/144/144 154/154/154 155/155/155
f 144/144/144 155/155/155 145/145/145
f 145/145/145 155/155/155 156/156/156
f 145/145/145 156/156/156 146/146/146
f 146/146/146 156/156/156 157/157/157
f 146/146/146 157/157/157 147/147/147
f 147/147/147 157/157/157 158/158/158
f 147/147/147 158/158/158 148/148/148
f 148/148/148 158/158/158 149/149/149
f 148/148/148 149/149/149 139/139/139
f 149/149/149 159/159/159 160/160/160
f 149/149/149 160/160/160 150/150/150
f 150/150/150 160/160/160 161/161/161
f 150/150/150 161/161/161 151/151/151
f 151/151/151 161/161/161 162/162/162
f 151/151/151 162/162/162 152/152/152
f 152/152/152 162/162/162 163/163/163
f 152/152/152 163/163/163 153/153/153
f 153/153/153 163/163/163 164/164/164
f 153/153/153 164/164/164 154/154/154
f 154/154/154 164/164/164 165/165/165
f 154/154/154 165/165/165 155/155/155
f 155/155/155 165/165/165 166/166/166
f 155/155/155 166/166/166 156/156/156
f 156/156/156 166/166/166 167/167/167
f 156/156/156 167/167/167 157/157/157
f 157/157/157 167/167/167 168/168/168
f 157/157/157 168/168/168 158/158/158
f 158/158/158 168/168/168 159/159/159
f 158/158/158 159/159/159 149/149/149
f 159/159/159 169/169/169 170/170/170
f 159/159/159 170/170/170 160/160/160
f 160/160/160 170/170/170 171/171/171
f 160/160/160 171/171/171 161/161/161
f 161/161/161 171/171/171 172/172/172
f 161/161/161 172/172/172 162/162/162
f 162/162/162 172/172/172 173/173/173
f 162/162/162 173/173/173 163/163/163
f 163/163/163 173/173/173 174/174/174
f 163/163/163 174/174/174 164/164/164
f 164/164/164 174/174/174 175/175/175
f 164/164/164 175/175/175 165/165/165
f 165/165/165 175/175/175 176/176/176
f 165/165/165 176/176/176 166/166/166
f 166/166/166 176/176/176 177/177/177
f 166/166/166 177/177/177 167/167/167
f 167/167/167 177/177/177 178/178/178
f 167/167/167 178/178/178 168/168/168
f 168/168/168 178/178/178 169/169/169
f 168/168/168 169/169/169 159/159/159
f 169/169/169 179/179/179 180/180/180
f 169/169/169 180/180/180 170/170/170
f 170/170/170 180/180/180 181/181/181
f 170/170/170 181/181/181 171/171/171
f 171/171/171 181/181/181 182/182/182
f 171/171/171 182/182/182 172/172/172
f 172/172/172 182/182/182 183/183/183
f 172/172/172 183/183/183 173/173/173
f 173/173/173 183/183/183 184/184/184
f 173/173/173 184/184/184 174/174/174
f 174/174/174 184/184/184 185/185/185
f 174/174/174 185/185/185 175/175/175
f 175/175/175 185/185/185 186/186/186
f 175/175/175 186/186/186 176/176/176
f 176/176/176 186/186/186 187/187/187
f 176/176/176 187/187/187 177/177/177
f 177/177/177 187/187/187 188/188/188
f 177/177/177 188/188/188 178/178/178
f 178/178/178 188/188/188 179/179/179
f 178/178/178 179/179/179 169/169/169
f 179/179/179 189/189/189 190/190/190
f 179/179/179 190/190/190 180/180/180
f 180/180/180 190/190/190 191/191/191
f 180/180/180 191/191/191 181/181/181
f 181/181/181 191/191/191 192/192/192
f 181/181/181 192/192/192 182/182/182
f 182/182/182 192/192/192 193/193/193
f 182/182/182 193/193/193 183/183/183
f 183/183/183 193/193/193 194/194/194
f 183/183/183 194/194/194 184/184/184
f 184/184/184 194/194/194 195/195/195
f 184/184/184 195/195/195 185/185/185
f 185/185/185 195/195/195 196/196/196
f 185/185/185 196/196/196 186/186/186
f 186/186/186 196/196/196 197/197/197
f 186/186/186 197/197/197 187/187/187
f 187/187/187 197/197/197 198/198/198
f 187/187/187 198/198/198 188/188/188
f 188/188/188 198/198/198 189/189/189
f 188/188/188 189/189/189 179/179/179
f 189/189/189 199/199/199 200/200/200
f 189/189/189 200/200/200 190/190/190
f 190/190/190 200/200/200 201/201/201
f 190/190/190 201/201/201 191/191/191
f 191/191/191 201/201/201 202/202/202
f 191/191/191 202/202/202 192/192/192
f 192/192/192 202/202/202 203/203/203
f 192/192/192 203/203/203 193/193/193
f 193/193/193 203/203/203 204/204/204
f 193/193/193 204/204/204 194/194/194
f 194/194/194 204/204/204 205/205/205
f 194/194/194 205/205/205 195/195/195
f 195/195/195 205/205/205 206/206/206
f 195/195/195 206/206/206 196/196/196
f 196/196/196 206/206/206 207/207/207
f 196/196/196 207/207/207 197/197/197
f 197/197/197 207/207/207 208/208/208
f 197/197/197 208/208/208 198/198/198
f 198/198/198 208/208/208 199/199/199
f 198/198/198 199/199/199 189/189/189
f 199/199/199 209/209/209 210/210/210
f 199/199/199 210/210/210 200/200/200
f 200/200/200 210/210/210 211/211/211
f 200/200/200 211/211/211 201/201/201
f 201/201/201 211/211/211 212/212/212
f 201/201/201 212/212/212 202/202/202
f 202/202/202 212/212/212 213/213/213
f 202/202/202 213/213/213 203/203/203
f 203/203/203 213/213/213 214/214/214
f 203/203/203 214/214/214 204/204/204
f 204/204/204 214/214/214 215/215/215
f 204/204/204 215/215/215 205/205/205
f 205/205/205 215/215/215 216/216/216
f 205/205/205 216/216/216 206/206/206
f 206/206/206 216/216/216 217/217/217
f 206/206/206 217/217/217 207/207/207
f 207/207/207 217/217/217 218/218/218
f 207/207/207 218/218/218 208/208/208
f 208/208/208 218/218/218 209/209/209
f 208/208/208 209/209/209 199/199/199
f 209/209/209 219/219/219 220/220/220
f 209/209/209 220/220/220 210/210/210
f 210/210/210 220/220/220 221/221/221
f 210/210/210 221/221/221 211/211/211
f 211/211/211 221/221/221 222/222/222
f 211/211/211 222/222/222 212/212/212
f 212/212/212 222/222/222 223/223/223
f 212/212/212 223/223/223 213/213/213
f 213/213/213 223/223/223 224/224/224
f 213/213/213 224/224/224 214/214/214
f 214/214/214 224/224/224 225/225/225
f 214/214/214 225/225/225 215/215/215
f 215/215/215 225/225/225 226/226/226
f 215/215/215 226/226/226 216/216/216
f 216/216/216 226/226/226 227/227/227
f 216/216/216 227/227/227 217/217/217
f 217/217/217 227/227/227 228/228/228
f 217/217/217 228/228/228 218/218/218
f 218/218/218 228/228/228 219/219/219
f 218/218/218 219/219/219 209/209/209
f 219/219/219 229/229/229 230/230/230
f 219/219/219 230/230/230 220/220/220
f 220/220/220 230/230/230 231/231/231
f 220/220/220 231/231/231 221/221/221
f 221/221/221 231/231/231 232/232/232
f 221/221/221 232/232/232 222/222/222
f 222/222/222 232/232/232 233/233/233
f 222/222/222 233/233/233 223/223/223
f 223/223/223 233/233/233 234/234/234
f 223/223/223 234/234/234 224/224/224
f 224/224/224 234/234/234 235/235/235
f 224/224/224 235/235/235 225/225/225
f 225/225/225 235/235/235 236/236/236
f 225/225/225 236/236/236 226/226/226
f 226/226/226 236/236/236 237/237/237
f 226/226/226 237/237/237 227/227/227
f 227/227/227 237/237/237 238/238/238
f 227/227/227 238/238/238 228/228/228
f 228/228/228 238/238/238 229/229/229
f 228/228/228 229/229/229 219/219/219
f 229/229/229 239/239/239 240/240/240
f 229/229/229 240/240/240 230/230/230
f 230/230/230 240/240/240 241/241/241
f 230/230/230 241/241/241 231/231/231
f 231/231/231 241/241/241 242/242/242
f 231/231/231 242/242/242 232/232/232
f 232/232/232 242/242/242 243/243/243
f 232/232/232 243/243/243 233/233/233
f 233/233/233 243/243/243 244/244/244
f 233/233/233 244/244/244 234/234/234
f 234/234/234 244/244/244 245/245/245
f 234/234/234 245/245/245 235/235/235
f 235/235/235 245/245/245 246/246/246
f 235/235/235 246/246/246 236/236/236
f 236/236/236 246/246/246 247/247/247
f 236/236/236 247/247/247 237/237/237
f 237/237/237 247/247/247 248/248/248
f 237/237/237 248/248/248 238/238/238
f 238/238/238 248/248/248 239/239/239
f 238/238/238 239/239/239 229/229/229
f 239/239/239 249/249/249 250/250/250
f 239/239/239 250/250/250 240/240/240
f 240/240/240 250/250/250 251/251/251
f 240/240/240 251/251/251 241/241/241
f 241/241/241 251/251/251 252/252/252
f 241/241/241 252/252/252 242/242/242
f 242/242/242 252/252/252 253/253/253
f 242/242/242 253/253/253 243/243/243
f 243/243/243 253/253/253 254/254/254
f 243/243/243 254/254/254 244/244/244
f 244/244/244 254/254/254 255/255/255
f 244/244/244 255/255/255 245/245/245
f 245/245/245 255/255/255 256/256/256
f 245/245/245 256/256/256 246/246/246
f 246/246/246 256/256/256 257/257/257
f 246/246/246 257/257/257 247/247/247
f 247/247/247 257/257/257 258/258/258
f 247/247/247 258/258/258 248/248/248
f 248/248/248 258/258/258 249/249/249
f 248/248/248 249/249/249 239/239/239
f 249/249/249 259/259/259 260/260/260
f 249/249/249 260/260/260 250/250/250
f 250/250/250 260/260/260 261/261/261
f 250/250/250 261/261/261 251/251/251
f 251/251/251 261/261/261 262/262/262
f 251/251/251 262/262/262 252/252/252
f 252/252/252 262/262/262 263/263/263
f 252/252/252 263/263/263 253/253/253
f 253/253/253 263/263/263 264/264/264
f 253/253/253 264/264/264 254/254/254
f 254/254/254 264/264/264 265/265/265
f 254/254/254 265/265/265 255/255/255
f 255/255/255 265/265/265 266/266/266
f 255/255/255 266/266/266 256/256/256
f 256/256/256 266/266/266 267/267/267
f 256/256/256 267/267/267 257/257/257
f 257/257/257 267/267/267 268/268/268
f 257/257/257 268/268/268 258/258/258
f 258/258/258 268/268/268 259/259/259
f 258/258/258 259/259/259 249/249/249
f 259/259/259 269/269/269 270/270/270
f 259/259/259 270/270/270 260/260/260
f 260/260/260 270/270/270 271/271/271
f 260/260/260 271/271/271 261/261/261
f 261/261/261 271/271/271 272/272/272
f 261/261/261 272/272/272 262/262/262
f 262/262/262 272/272/272 273/273/273
f 262/262/262 273/273/273 263/263/263
f 263/263/263 273/273/273 274/274/274
f 263/263/263 274/274/274 264/264/264
f 264/264/264 274/274/274 275/275/275
f 264/264/264 275/275/275 265/265/265
f 265/265/265 275/275/275 276/276/276
f 265/265/265 276/276/276 266/266/266
f 266/266/266 276/276/276 277/277/277
f 266/266/266 277/277/277 267/267/267
f 267/267/267 277/277/277 278/278/278
f 267/267/267 278/278/278 268/268/268
f 268/268/268 278/278/278 269/269/269
f 268/268/268 269/269/269 259/259/259
f 269/269/269 279/279/279 280/280/280
f 269/269/269 280/280/280 270/270/270
f 270/270/270 280/280/280 281/281/281
f 270/270/270 281/281/281 271/271/271
f 271/271/271 281/281/281 282/282/282
f 271/271/271 282/282/282 272/272/272
f 272/272/272 282/282/282 283/283/283
f 272/272/272 283/283/283 273/273/273
f 273/273/273 283/283/283 284/284/284
f 273/273/273 284/284/284 274/274/274
f 274/274/274 284/284/284 285/285/285
f 274/274/274 285/285/285 275/275/275
f 275/275/275 285/285/285 286/286/286
f 275/275/275 286/286/286 276/276/276
f 276/276/276 286/286/286 287/287/287
f 276/276/276 287/287/287 277/277/277
f 277/277/277 287/287/287 288/288/288
f 277/277/277 288/288/288 278/278/278
f 278/278/278 288/288/288 279/279/279
f 278/278/278 279/279/279 269/269/269
f 279/279/279 289/289/289 290/290/290
f 279/279/279 290/290/290 280/280/280
f 280/280/280 290/290/290 291/291/291
f 280/280/280 291/291/291 281/281/281
f 281/281/281 291/291/291 292/292/292
f 281/281/281 292/292/292 282/282/282
f 282/282/282 292/292/292 293/293/293
f 282/282/282 293/293/293 283/283/283
f 283/283/283 293/293/293 294/294/294
f 283/283/283 294/294/294 284/284/284
f 284/284/284 294/294/294 295/295/295
f 284/284/284 295/295/295 285/285/285
f 285/285/285 295/295/295 296/296/296
f 285/285/285 296/296/296 286/286/286
f 286/286/286 296/296/296 297/297/297
f 286/286/286 297/297/297 287/287/287
f 287/287/287 297/297/297 298/298/298
f 287/287/287 298/298/298 288/288/288
f 288/288/288 298/298/298 289/289/289
f 288/288/288 289/289/289 279/279/279
f 289/289/289 299/299/299 300/300/300
f 289/289/289 300/300/300 290/290/290
f 290/290/290 300/300/300 301/301/301
f 290/290/290 301/301/301 291/291/291
f 291/291/291 301/301/301 302/302/302
f 291/291/291 302/302/302 292/292/292
f 292/292/292 302/302/302 303/303/303
f 292/292/292 303/303/303 293/293/293
f 293/293/293 303/303/303 304/304/304
f 293/293/293 304/304/304 294/294/294
f 294/294/294 304/304/304 305/305/305
f 294/294/294 305/305/305 295/295/295
f 295/295/295 305/305/305 306/306/306
f 295/295/295 306/306/306 296/296/296
f 296/296/296 306/306/306 307/307/307
f 296/296/296 307/307/307 297/297/297
f 297/297/297 307/307/307 308/308/308
f 297/297/297 308/308/308 298/298/298
f 298/298/298 308/308/308 299/299/299
f 298/298/298 299/299/299 289/289/289
f 299/299/299 309/309/309 310/310/310
f 299/299/299 310/310/310 300/300/300
f 300/300/300 310/310/310 311/311/311
f 300/300/300 311/311/311 301/301/301
f 301/301/301 311/311/311 312/312/312
f 301/301/301 312/312/312 302/302/302
f 302/302/302 312/312/312 313/313/313
f 302/302/302 313/313/313 303/303/303
f 303/303/303 313/313/313 314/314/314
f 303/303/303 314/314/314 304/304/304
f 304/304/304 314/314/314 315/315/315
f 304/304/304 315/315/315 305/305/305
f 305/305/305 315/315/315 316/316/316
f 305/305/305 316/316/316 306/306/306
f 306/306/306 316/316/316 317/317/317
f 306/306/306 317/317/317 307/307/307
f 307/307/307 317/317/317 318/318/318
f 307/307/307 318/318/318 308/308/308
f 308/308/308 318/318/318 309/309/309
f 308/308/308 309/309/309 299/299/299
f 309/309/309 319/319/319 320/320/320
f 309/309/309 320/320/320 310/310/310
f 310/310/310 320/320/320 321/321/321
f 310/310/310 321/321/321 311/311/311
f 311/311/311 321/321/321 322/322/322
f 311/311/311 322/322/322 312/312/312
f 312/312/312 322/322/322 323/323/323
f 312/312/312 323/323/323 313/313/313
f 313/313/313 323/323/323 324/324/324
f 313/313/313 324/324/324 314/314/314
f 314/314/314 324/324/324 325/325/325
f 314/314/314 325/325/325 315/315/315
f 315/315/315 325/325/325 326/326/326
f 315/315/315 326/326/326 316/316/316
f 316/316/316 326/326/326 327/327/327
f 316/316/316 327/327/327 317/317/317
f 317/317/317 327/327/327 328/328/328
f 317/317/317 328/328/328 318/318/318
f 318/318/318 328/328/328 319/319/319
f 318/318/318 319/319/319 309/309/309
f 319/319/319 329/329/329 330/330/330
f 319/319/319 330/330/330 320/320/320
f 320/320/320 330/330/330 331/331/331
f 320/320/320 331/331/331 321/321/321
f 321/321/321 331/331/331 332/332/332
f 321/321/321 332/332/332 322/322/322
f 322/322/322 332/332/332 333/333/333
f 322/322/322 333/333/333 323/323/323
f 323/323/323 333/333/333 334/334/334
f 323/323/323 334/334/334 324/324/324
f 324/324/324 334/334/334 335/335/335
f 324/324/324 335/335/335 325/325/325
f 325/325/325 335/335/335 336/336/336
f 325/325/325 336/336/336 326/326/326
f 326/326/326 336/336/336 337/337/337
f 326/326/326 337/337/337 327/327/327
f 327/327/327 337/337/337 338/338/338
f 327/327/327 338/338/338 328/328/328
f 328/328/328 338/338/338 329/329/329
f 328/328/328 329/329/329 319/319/319
f 329/329/329 99/99/99 100/100/100
f 329/329/329 100/100/100 330/330/330
f 330/330/330 100/100/100 101/101/101
f 330/330/330 101/101/101 331/331/331
f 331/331/331 101/101/101 102/102/102
f 331/331/331 102/102/102 332/332/332
f 332/332/332 102/102/102 103/103/103
f 332/332/332 103/103/103 333/333/333
f 333/333/333 103/103/103 104/104/104
f 333/333/333 104/104/104 334/334/334
f 334/334/334 104/104/104 105/105/105
f 334/334/334 105/105/105 335/335/335
f 335/335/335 105/105/105 106/106/106
f 335/335/335 106/106/106 336/336/336
f 336/336/336 106/106/106 107/107/107
f 336/336/336 107/107/107 337/337/337
f 337/337/337 107/107/107 108/108/108
f 337/337/337 108/108/108 338/338/338
f 338/338/338 108/108/108 99/99/99
f 338/338/338 99/99/99 329/329/329
f 339/339/339 340/340/340 342/342/342
f 339/339/339 342/342/342 341/341/341
f 341/341/341 342/342/342 344/344/344
f 341/341/341 344/344/344 343/343/343
f 343/343/343 344/344/344 346/346/346
f 343/343/343 346/346/346 345/345/345
f 345/345/345 346/346/346 348/348/348
f 345/345/345 348/348/348 347/347/347
f 347/347/347 348/348/348 350/350/350
f 347/347/347 350/350/350 349/349/349
f 349/349/349 350/350/350 352/352/352
f 349/349/349 352/352/352 351/351/351
f 351/351/351 352/352/352 354/354/354
f 351/351/351 354/354/354 353/353/353
f 353/353/353 354/354/354 356/356/356
f 353/353/353 356/356/356 355/355/355
f 355/355/355 356/356/356 358/358/358
f 355/355/355 358/358/358 357/357/357
f 357/357/357 358/358/358 360/360/360
f 357/357/357 360/360/360 359/359/359
f 359/359/359 360/360/360 362/362/362
f 359/359/359 362/362/362 361/361/361
f 361/361/361 362/362/362 364/364/364
f 361/361/361 364/364/364 363/363/363
f 363/363/363 364/364/364 366/366/366
f 363/363/363 366/366/366 365/365/365
f 365/365/365 366/366/366 368/368/368
f 365/365/365 368/368/368 367/367/367
f 367/367/367 368/368/368 370/370/370
f 367/367/367 370/370/370 369/369/369
f 369/369/369 370/370/370 372/372/372
f 369/369/369 372/372/372 371/371/371
f 371/371/371 372/372/372 374/374/374
f 371/371/371 374/374/374 373/373/373
f 373/373/373 374/374/374 376/376/376
f 373/373/373 376/376/376 375/375/375
f 375/375/375 376/376/376 378/378/378
f 375/375/375 378/378/378 377/377/377
f 377/377/377 378/378/378 380/380/380
f 377/377/377 380/380/380 379/379/379
f 379/379/379 380/380/380 382/382/382
f 379/379/379 382/382/382 381/381/381
f 381/381/381 382/382/382 384/384/384
f 381/381/381 384/384/384 383/383/383
f 383/383/383 384/384/384 386/386/386
f 383/383/383 386/386/386 385/385/385
f 385/385/385 386/386/386 340/340/340
f 385/385/385 340/340/340 339/339/339
f 387/387/387 389/389/389 391/391/391
f 388/388/388 392/392/392 390/390/390
f 387/387/387 391/391/391 393/393/393
f 388/388/388 394/394/394 392/392/392
f 387/387/387 393/393/393 395/395/395
f 388/388/388 396/396/396 394/394/394
f 387/387/387 395/395/395 397/397/397
f 388/388/388 398/398/398 396/396/396
f 387/387/387 397/397/397 399/399/399
f 388/388/388 400/400/400 398/398/398
f 387/387/387 399/399/399 401/401/401
f 388/388/388 402/402/402 400/400/400
f 387/387/387 401/401/401 403/403/403
f 388/388/388 404/404/404 402/402/402
f 387/387/387 403/403/403 405/405/405
f 388/388/388 406/406/406 404/404/404
f 387/387/387 405/405/405 407/407/407
f 388/388/388 408/408/408 406/406/406
f 387/387/387 407/407/407 409/409/409
f 388/388/388 410/410/410 408/408/408
f 387/387/387 409/409/409 411/411/411
f 388/388/388 412/412/412 410/410/410
f 387/387/387 411/411/411 413/413/413
f 388/388/388 414/414/414 412/412/412
f 387/387/387 413/413/413 415/415/415
f 388/388/388 416/416/416 414/414/414
f 387/387/387 415/415/415 417/417/417
f 388/388/388 418/418/418 416/416/416
f 387/387/387 417/417/417 419/419/419
f 388/388/388 420/420/420 418/418/418
f 387/387/387 419/419/419 421/421/421
f 388/388/388 422/422/422 420/420/420
f 387/387/387 421/421/421 423/423/423
f 388/388/388 424/424/424 422/422/422
f 387/387/387 423/423/423 425/425/425
f 388/388/388 426/426/426 424/424/424
f 387/387/387 425/425/425 427/427/427
f 388/388/388 428/428/428 426/426/426
f 387/387/387 427/427/427 429/429/429
f 388/388/388 430/430/430 428/428/428
f 387/387/387 429/429/429 431/431/431
f 388/388/388 432/432/432 430/430/430
f 387/387/387 431/431/431 433/433/433
f 388/388/388 434/434/434 432/432/432
f 387/387/387 433/433/433 435/435/435
f 388/388/388 436/436/436 434/434/434
f 387/387/387 435/435/435 389/389/389
f 388/388/388 390/390/390 436/436/436
f 437/437/437 438/438/438 439/439/439
f 437/437/437 439/439/439 440/440/440
f 441/441/441 442/442/442 443/443/443
f 441/441/441 443/443/443 444/444/444
f 445/445/445 446/446/446 447/447/447
f 445/445/445 447/447/447 448/448/448
f 449/449/449 450/450/450 451/451/451
f 449/449/449 451/451/451 452/452/452
f 453/453/453 454/454/454 455/455/455
f 453/453/453 455/455/455 456/456/456
f 457/457/457 458/458/458 459/459/459
f 457/457/457 459/459/459 460/460/460
f 461/461/461 462/462/462 464/464/464
f 461/461/461 464/464/464 463/463/463
f 463/463/463 464/464/464 466/466/466
f 463/463/463 466/466/466 465/465/465
f 465/465/465 466/466/466 468/468/468
f 465/465/465 468/468/468 467/467/467
f 467/467/467 468/468/468 470/470/470
f 467/467/467 470/470/470 469/469/469
f 469/469/469 470/470/470 472/472/472
f 469/469/469 472/472/472 471/471/471
f 471/471/471 472/472/472 474/474/474
f 471/471/471 474/474/474 473/473/473
f 473/473/473 474/474/474 476/476/476
f 473/473/473 476/476/476 475/475/475
f 475/475/475 476/476/476 478/478/478
f 475/475/475 478/478/478 477/477/477
f 477/477/477 478/478/478 480/480/480
f 477/477/477 480/480/480 479/479/479
f 479/479/479 480/480/480 482/482/482
f 479/479/479 482/482/482 481/481/481
f 481/481/481 482/482/482 484/484/484
f 481/481/481 484/484/484 483/483/483
f 483/483/483 484/484/484 462/462/462
f 483/483/483 462/462/462 461/461/461
f 485/485/485 487/487/487 489/489/489
f 486/486/486 490/490/490 488/488/488
f 485/485/485 489/489/489 491/491/491
f 486/486/486 492/492/492 490/490/490
f 485/485/485 491/491/491 493/493/493
f 486/486/486 494/494/494 492/492/492
f 485/485/485 493/493/493 495/495/495
f 486/486/486 496/496/496 494/494/494
f 485/485/485 495/495/495 497/497/497
f 486/486/486 498/498/498 496/496/496
f 485/485/485 497/497/497 499/499/499
f 486/486/486 500/500/500 498/498/498
f 485/485/485 499/499/499 501/501/501
f 486/486/486 502/502/502 500/500/500
f 485/485/485 501/501/501 503/503/503
f 486/486/486 504/504/504 502/502/502
f 485/485/485 503/503/503 505/505/505
f 486/486/486 506/506/506 504/504/504
f 485/485/485 505/505/505 507/507/507
f 486/486/486 508/508/508 506/506/506
f 485/485/485 507/507/507 509/509/509
f 486/486/486 510/510/510 508/508/508
f 485/485/485 509/509/509 487/487/487
f 486/486/486 488/488/488 510/510/510
f 511/511/511 512/512/512 514/514/514
f 511/511/511 514/514/514 513/513/513
f 513/513/513 514/514/514 516/516/516
f 513/513/513 516/516/516 515/515/515
f 515/515/515 516/516/516 518/518/518
f 515/515/515 518/518/518 517/517/517
f 517/517/517 518/518/518 520/520/520
f 517/517/517 520/520/520 519/519/519
f 519/519/519 520/520/520 522/522/522
f 519/519/519 522/522/522 521/521/521
f 521/521/521 522/522/522 524/524/524
f 521/521/521 524/524/524 523/523/523
f 523/523/523 524/524/524 526/526/526
f 523/523/523 526/526/526 525/525/525
f 525/525/525 526/526/526 528/528/528
f 525/525/525 528/528/528 527/527/527
f 527/527/527 528/528/528 530/530/530
f 527/527/527 530/530/530 529/529/529
f 529/529/529 530/530/530 532/532/532
f 529/529/529 532/532/532 531/531/531
f 531/531/531 532/532/532 534/534/534
f 531/531/531 534/534/534 533/533/533
f 533/533/533 534/534/534 536/536/536
f 533/533/533 536/536/536 535/535/535
f 535/535/535 536/536/536 538/538/538
f 535/535/535 538/538/538 537/537/537
f 537/537/537 538/538/538 540/540/540
f 537/537/537 540/540/540 539/539/539
f 539/539/539 540/540/540 542/542/542
f 539/539/539 542/542/542 541/541/541
f 541/541/541 542/542/542 544/544/544
f 541/541/541 544/544/544 543/543/543
f 543/543/543 544/544/544 546/546/546
f 543/543/543 546/546/546 545/545/545
f 545/545/545 546/546/546 548/548/548
f 545/545/545 548/548/548 547/547/547
f 547/547/547 548/548/548 550/550/550
f 547/547/547 550/550/550 549/549/549
f 549/549/549 550/550/550 552/552/552
f 549/549/549 552/552/552 551/551/551
f 551/551/551 552/552/552 554/554/554
f 551/551/551 554/554/554 553/553/553
f 553/553/553 554/554/554 556/556/556
f 553/553/553 556/556/556 555/555/555
f 555/555/555 556/556/556 558/558/558
f 555/555/555 558/558/558 557/557/557
f 557/557/557 558/558/558 512/512/512
f 557/557/557 512/512/512 511/511/511
f 559/559/559 561/561/561 563/563/563
f 560/560/560 564/564/564 562/562/562
f 559/559/559 563/563/563 565/565/565
f 560/560/560 566/566/566 564/564/564
f 559/559/559 565/565/565 567/567/567
f 560/560/560 568/568/568 566/566/566
f 559/559/559 567/567/567 569/569/569
f 560/560/560 570/570/570 568/568/568
f 559/559/559 569/569/569 571/571/571
f 560/560/560 572/572/572 570/570/570
f 559/559/559 571/571/571 573/573/573
f 560/560/560 574/574/574 572/572/572
f 559/559/559 573/573/573 575/575/575
f 560/560/560 576/576/576 574/574/574
f 559/559/559 575/575/575 577/577/577
f 560/560/560 578/578/578 576/576/576
f 559/559/559 577/577/577 579/579/579
f 560/560/560 580/580/580 578/578/578
f 559/559/559 579/579/579 581/581/581
f 560/560/560 582/582/582 580/580/580
f 559/559/559 581/581/581 583/583/583
f 560/560/560 584/584/584 582/582/582
f 559/559/559 583/583/583 585/585/585
f 560/560/560 586/586/586 584/584/584
f 559/559/559 585/585/585 587/587/587
f 560/560/560 588/588/588 586/586/586
f 559/559/559 587/587/587 589/589/589
f 560/560/560 590/590/590 588/588/588
f 559/559/559 589/589/589 591/591/591
f 560/560/560 592/592/592 590/590/590
f 559/559/559 591/591/591 593/593/593
f 560/560/560 594/594/594 592/592/592
f 559/559/559 593/593/593 595/595/595
f 560/560/560 596/596/596 594/594/594
f 559/559/559 595/595/595 597/597/597
f 560/560/560 598/598/598 596/596/596
f 559/559/559 597/597/597 599/599/599
f 560/560/560 600/600/600 598/598/598
f 559/559/559 599/599/599 601/601/601
f 560/560/560 602/602/602 600/600/600
f 559/559/559 601/601/601 603/603/603
f 560/560/560 604/604/604 602/602/602
f 559/559/559 603/603/603 605/605/605
f 560/560/560 606/606/606 604/604/604
f 559/559/559 605/605/605 607/607/607
f 560/560/560 608/608/608 606/606/606
f 559/559/559 607/607/607 561/561/561
f 560/560/560 562/562/562 608/608/608
f 609/609/609 610/610/610 612/612/612
f 609/609/609 612/612/612 611/611/611
f 611/611/611 612/612/612 614/614/614
f 611/611/611 614/614/614 613/613/613
f 613/613/613 614/614/614 616/616/616
f 613/613/613 616/616/616 615/615/615
f 615/615/615 616/616/616 618/618/618
f 615/615/615 618/618/618 617/617/617
f 617/617/617 618/618/618 620/620/620
f 617/617/617 620/620/620 619/619/619
f 619/619/619 620/620/620 622/622/622
f 619/619/619 622/622/622 621/621/621
f 621/621/621 622/622/622 624/624/624
f 621/621/621 624/624/624 623/623/623
f 623/623/623 624/624/624 626/626/626
f 623/623/623 626/626/626 625/625/625
f 625/625/625 626/626/626 628/628/628
f 625/625/625 628/628/628 627/627/627
f 627/627/627 628/628/628 630/630/630
f 627/627/627 630/630/630 629/629/629
f 629/629/629 630/630/630 632/632/632
f 629/629/629 632/632/632 631/631/631
f 631/631/631 632/632/632 634/634/634
f 631/631/631 634/634/634 633/633/633
f 633/633/633 634/634/634 636/636/636
f 633/633/633 636/636/636 635/635/635
f 635/635/635 636/636/636 638/638/638
f 635/635/635 638/638/638 637/637/637
f 637/637/637 638/638/638 640/640/640
f 637/637/637 640/640/640 639/639/639
f 639/639/639 640/640/640 610/610/610
f 639/639/639 610/610/610 609/609/609
f 641/641/641 643/643/643 645/645/645
f 642/642/642 646/646/646 644/644/644
f 641/641/641 645/645/645 647/647/647
f 642/642/642 648/648/648 646/646/646
f 641/641/641 647/647/647 649/649/649
f 642/642/642 650/650/650 648/648/648
f 641/641/641 649/649/649 651/651/651
f 642/642/642 652/652/652 650/650/650
f 641/641/641 651/651/651 653/653/653
f 642/642/642 654/654/654 652/652/652
f 641/641/641 653/653/653 655/655/655
f 642/642/642 656/656/656 654/654/654
f 641/641/641 655/655/655 657/657/657
f 642/642/642 658/658/658 656/656/656
f 641/641/641 657/657/657 659/659/659
f 642/642/642 660/660/660 658/658/658
f 641/641/641 659/659/659 661/661/661
f 642/642/642 662/662/662 660/660/660
f 641/641/641 661/661/661 663/663/663
f 642/642/642 664/664/664 662/662/662
f 641/641/641 663/663/663 665/665/665
f 642/642/642 666/666/666 664/664/664
f 641/641/641 665/665/665 667/667/667
f 642/642/642 668/668/668 666/666/666
f 641/641/641 667/667/667 669/669/669
f 642/642/642 670/670/670 668/668/668
f 641/641/641 669/669/669 671/671/671
f 642/642/642 672/672/672 670/670/670
f 641/641/641 671/671/671 673/673/673
f 642/642/642 674/674/674 672/672/672
f 641/641/641 673/673/673 643/643/643
f 642/642/642 644/644/644 674/674/674
f 675/675/675 676/676/676 678/678/678
f 675/675/675 678/678/678 677/677/677
f 677/677/677 678/678/678 680/680/680
f 677/677/677 680/680/680 679/679/679
f 679/679/679 680/680/680 682/682/682
f 679/679/679 682/682/682 681/681/681
f 681/681/681 682/682/682 684/684/684
f 681/681/681 684/684/684 683/683/683
f 683/683/683 684/684/684 686/686/686
f 683/683/683 686/686/686 685/685/685
f 685/685/685 686/686/686 676/676/676
f 685/685/685 676/676/676 675/675/675
f 687/687/687 689/689/689 691/691/691
f 688/688/688 692/692/692 690/690/690
f 687/687/687 691/691/691 693/693/693
f 688/688/688 694/694/694 692/692/692
f 687/687/687 693/693/693 695/695/695
f 688/688/688 696/696/696 694/694/694
f 687/687/687 695/695/695 697/697/697
f 688/688/688 698/698/698 696/696/696
f 687/687/687 697/697/697 699/699/699
f 688/688/688 700/700/700 698/698/698
f 687/687/687 699/699/699 689/689/689
f 688/688/688 690/690/690 700/700/700
